<?xml version="1.0" encoding="UTF-8" standalone="no"?>
<!-- Created with Inkscape (http://www.inkscape.org/) -->

<svg
   xmlns:dc="http://purl.org/dc/elements/1.1/"
   xmlns:cc="http://creativecommons.org/ns#"
   xmlns:rdf="http://www.w3.org/1999/02/22-rdf-syntax-ns#"
   xmlns:svg="http://www.w3.org/2000/svg"
   xmlns="http://www.w3.org/2000/svg"
   xmlns:sodipodi="http://sodipodi.sourceforge.net/DTD/sodipodi-0.dtd"
   xmlns:inkscape="http://www.inkscape.org/namespaces/inkscape"
   id="svg3039"
   version="1.1"
   inkscape:version="0.48.4 r9939"
   width="450"
   height="200"
   sodipodi:docname="bg.svg">
  <metadata
     id="metadata3045">
    <rdf:RDF>
      <cc:Work
         rdf:about="">
        <dc:format>image/svg+xml</dc:format>
        <dc:type
           rdf:resource="http://purl.org/dc/dcmitype/StillImage" />
        <dc:title></dc:title>
      </cc:Work>
    </rdf:RDF>
  </metadata>
  <defs
     id="defs3043" />
  <sodipodi:namedview
     pagecolor="#ffffff"
     bordercolor="#666666"
     borderopacity="1"
     objecttolerance="10"
     gridtolerance="10"
     guidetolerance="10"
     inkscape:pageopacity="0"
     inkscape:pageshadow="2"
     inkscape:window-width="1333"
     inkscape:window-height="742"
     id="namedview3041"
     showgrid="false"
     inkscape:zoom="1.7571604"
     inkscape:cx="328.87139"
     inkscape:cy="83.201417"
     inkscape:window-x="33"
     inkscape:window-y="0"
     inkscape:window-maximized="1"
     inkscape:current-layer="svg3039" />
  <g
     id="g3049"
     transform="translate(-0.4024133,2.0120728)"
     style="opacity:0.74248927">
    <path
       style="fill:#a4e0e6"
       d="m 62.2,194.8 c -1.627964,-1.62796 -1.627964,-18.97204 0,-20.6 0.747287,-0.74729 4.444444,-1.2 9.8,-1.2 10.874329,0 11,0.13138 11,11.5 0,11.36862 -0.125671,11.5 -11,11.5 -5.355556,0 -9.052713,-0.45271 -9.8,-1.2 z m 334,0 c -1.62796,-1.62796 -1.62796,-18.97204 0,-20.6 0.74729,-0.74729 4.44444,-1.2 9.8,-1.2 10.87433,0 11,0.13138 11,11.5 0,11.36862 -0.12567,11.5 -11,11.5 -5.35556,0 -9.05271,-0.45271 -9.8,-1.2 z M 88.354955,184.5 c -0.003,-4.95 0.166052,-7.10108 0.375776,-4.78017 0.209724,2.3209 0.212217,6.3709 0.0055,9 -0.206677,2.62909 -0.378269,0.73017 -0.381317,-4.21983 z m 23.000005,0 c -0.003,-4.95 0.16605,-7.10108 0.37577,-4.78017 0.20972,2.3209 0.21222,6.3709 0.006,9 -0.20667,2.62909 -0.37827,0.73017 -0.38131,-4.21983 z m 144,0 c -0.003,-4.95 0.16605,-7.10108 0.37577,-4.78017 0.20972,2.3209 0.21222,6.3709 0.006,9 -0.20667,2.62909 -0.37827,0.73017 -0.38131,-4.21983 z m -27.01215,0 c 0.004,-4.4 0.17944,-6.07561 0.39069,-3.72357 0.21124,2.35204 0.20827,5.95204 -0.007,8 -0.21487,2.04796 -0.38771,0.12357 -0.38408,-4.27643 z m 21,0 c 0.004,-4.4 0.17944,-6.07561 0.39069,-3.72357 0.21124,2.35204 0.20827,5.95204 -0.007,8 -0.21487,2.04796 -0.38771,0.12357 -0.38408,-4.27643 z m 29,0 c 0.004,-4.4 0.17944,-6.07561 0.39069,-3.72357 0.21124,2.35204 0.20827,5.95204 -0.007,8 -0.21487,2.04796 -0.38771,0.12357 -0.38408,-4.27643 z m 145,0 c 0.004,-4.4 0.17944,-6.07561 0.39069,-3.72357 0.21124,2.35204 0.20827,5.95204 -0.007,8 -0.21487,2.04796 -0.38771,0.12357 -0.38408,-4.27643 z m -54.03294,0 c 0.006,-3.3 0.1923,-4.52944 0.41486,-2.73209 0.22256,1.79735 0.21797,4.49735 -0.0102,6 -0.22818,1.50265 -0.41027,0.0321 -0.40466,-3.26791 z M 90.2,166.8 c -1.627964,-1.62796 -1.627964,-18.97204 0,-20.6 1.492404,-1.4924 16.14592,-1.62042 18.86574,-0.16482 1.69867,0.90911 1.93426,2.16361 1.93426,10.3 C 111,167.88862 110.89497,168 100,168 c -5.355556,0 -9.052713,-0.45271 -9.8,-1.2 z m 167,0 c -1.62796,-1.62796 -1.62796,-18.97204 0,-20.6 1.4924,-1.4924 16.14592,-1.62042 18.86574,-0.16482 1.69867,0.90911 1.93426,2.16361 1.93426,10.3 C 278,167.88862 277.89497,168 267,168 c -5.35556,0 -9.05271,-0.45271 -9.8,-1.2 z m 83,0 c -2.20221,-2.20221 -1.5898,-19.52102 0.73426,-20.76482 3.98457,-2.13247 17.77147,-1.2934 19.50904,1.18733 2.19049,3.12737 2.17985,17.01149 -0.0147,19.20606 -1.96944,1.96944 -18.33015,2.26985 -20.22857,0.37143 z m -193.62857,-1.37143 c -2.39835,-2.39834 -2.20806,-15.54246 0.25731,-17.77358 2.52465,-2.28478 15.33778,-2.34561 17.59983,-0.0836 2.21829,2.21828 2.21829,15.63886 0,17.85714 C 163.28479,166.57235 160.85498,167 155.5,167 c -5.35498,0 -7.78479,-0.42765 -8.92857,-1.57143 z M 425.2,165.8 C 424.46026,165.06026 424,161.43004 424,156.33518 424,146.55048 424.53262,146 434,146 c 9.46738,0 10,0.55048 10,10.33518 C 444,166.61886 443.64262,167 434,167 c -4.57778,0 -8.07719,-0.47719 -8.8,-1.2 z m -416,-2 c -1.5663646,-1.56636 -1.5663646,-13.03364 0,-14.6 1.809445,-1.80944 12.322125,-1.53502 14.228571,0.37143 1.906447,1.90644 2.180874,12.41913 0.371429,14.22857 -1.566365,1.56636 -13.033635,1.56636 -14.6,0 z m 218.15496,-7.3 c -0.003,-4.95 0.16605,-7.10108 0.37577,-4.78017 0.20972,2.3209 0.21222,6.3709 0.006,9 -0.20667,2.62909 -0.37827,0.73017 -0.38131,-4.21983 z m 23,0 c -0.003,-4.95 0.16605,-7.10108 0.37577,-4.78017 0.20972,2.3209 0.21222,6.3709 0.006,9 -0.20667,2.62909 -0.37827,0.73017 -0.38131,-4.21983 z m 115.99445,0.5 c 0,-4.675 0.17226,-6.5875 0.3828,-4.25 0.21053,2.3375 0.21053,6.1625 0,8.5 -0.21054,2.3375 -0.3828,0.425 -0.3828,-4.25 z M 11.75,140.26779 c 2.3375,-0.21053 6.1625,-0.21053 8.5,0 2.3375,0.21054 0.425,0.3828 -4.25,0.3828 -4.675,0 -6.5875,-0.17226 -4.25,-0.3828 z m 84,0 c 2.3375,-0.21053 6.1625,-0.21053 8.5,0 2.3375,0.21054 0.425,0.3828 -4.25,0.3828 -4.675,0 -6.5875,-0.17226 -4.25,-0.3828 z m 167,0 c 2.3375,-0.21053 6.1625,-0.21053 8.5,0 2.3375,0.21054 0.425,0.3828 -4.25,0.3828 -4.675,0 -6.5875,-0.17226 -4.25,-0.3828 z M 62.2,138.8 C 61.439363,138.03936 61,134.20782 61,128.33518 61,117.2846 61.276181,117 72,117 c 10.723819,0 11,0.2846 11,11.33518 C 83,139.88862 82.894969,140 72,140 c -5.355556,0 -9.052713,-0.45271 -9.8,-1.2 z m 278,0 c -1.89842,-1.89842 -1.59801,-18.25913 0.37143,-20.22857 2.52478,-2.52478 16.78989,-2.21011 19.42857,0.42857 2.25786,2.25786 2.92324,15.4064 0.96482,19.06574 -1.2438,2.32406 -18.56261,2.93647 -20.76482,0.73426 z m 56,0 C 395.43936,138.03936 395,134.20782 395,128.33518 395,117.2846 395.27618,117 406,117 c 10.72382,0 11,0.2846 11,11.33518 C 417,139.88862 416.89497,140 406,140 c -5.35556,0 -9.05271,-0.45271 -9.8,-1.2 z m -165.12323,-2.2075 c -0.72425,-0.87267 -1.05577,-4.19756 -0.87245,-8.75 L 230.5,120.5 l 8.5,0 8.5,0 0.29568,7.3425 C 248.17679,137.30657 247.57632,138 239,138 c -4.58728,0 -7.12998,-0.45169 -7.92323,-1.4075 z M 423.34941,129 c 0,-4.675 0.17226,-6.5875 0.3828,-4.25 0.21053,2.3375 0.21053,6.1625 0,8.5 -0.21054,2.3375 -0.3828,0.425 -0.3828,-4.25 z m -369.0066,-0.5 c 0.0036,-4.4 0.179441,-6.07561 0.390687,-3.72357 0.211245,2.35204 0.208273,5.95204 -0.0066,8 C 54.512015,134.82439 54.339178,132.9 54.34281,128.5 z m 145,0 c 0.004,-4.4 0.17944,-6.07561 0.39069,-3.72357 0.21124,2.35204 0.20827,5.95204 -0.007,8 -0.21487,2.04796 -0.38771,0.12357 -0.38408,-4.27643 z M 40.776433,118.2665 c 2.352038,-0.21124 5.952038,-0.20827 8,0.007 2.047962,0.21487 0.123567,0.38771 -4.276433,0.38408 -4.4,-0.004 -6.075605,-0.17944 -3.723567,-0.39069 z M 123.75,112.26779 c 2.3375,-0.21053 6.1625,-0.21053 8.5,0 2.3375,0.21054 0.425,0.3828 -4.25,0.3828 -4.675,0 -6.5875,-0.17226 -4.25,-0.3828 z M 145.2,110.8 c -0.74729,-0.74729 -1.2,-4.44444 -1.2,-9.8 0,-10.874329 0.13138,-11 11.5,-11 11.36862,0 11.5,0.125671 11.5,11 0,10.87433 -0.13138,11 -11.5,11 -5.74444,0 -9.54249,-0.44249 -10.3,-1.2 z M 7.2354981,109.8355 C 5.4380664,108.03807 5.5743582,93.598141 7.4030801,92.080436 8.2929282,91.341928 11.859376,91.022797 17.15308,91.207992 L 25.5,91.5 l 0,9.5 0,9.5 -8.514502,0.2855 c -5.766334,0.19335 -8.9132751,-0.11328 -9.7499999,-0.95 z M 88.354955,100.5 c -0.003,-4.95 0.166052,-7.101078 0.375776,-4.780173 0.209724,2.320905 0.212217,6.370903 0.0055,9.000003 C 88.529595,107.34892 88.358003,105.45 88.354955,100.5 z M 256.34941,101 c 0,-4.675 0.17226,-6.5875 0.3828,-4.25 0.21053,2.3375 0.21053,6.1625 0,8.5 -0.21054,2.3375 -0.3828,0.425 -0.3828,-4.25 z m 28.9868,0 c 0,-4.125 0.17651,-5.8125 0.39226,-3.75 0.21574,2.0625 0.21574,5.4375 0,7.5 -0.21575,2.0625 -0.39226,0.375 -0.39226,-3.75 z m -223.016136,0 c 0,-3.575 0.181495,-5.0375 0.403322,-3.25 0.221826,1.7875 0.221826,4.7125 0,6.5 -0.221827,1.7875 -0.403322,0.325 -0.403322,-3.25 z m 156.999996,0 c 0,-3.575 0.1815,-5.0375 0.40333,-3.25 0.22182,1.7875 0.22182,4.7125 0,6.5 -0.22183,1.7875 -0.40333,0.325 -0.40333,-3.25 z m 196,0 c 0,-3.575 0.1815,-5.0375 0.40333,-3.25 0.22182,1.7875 0.22182,4.7125 0,6.5 -0.22183,1.7875 -0.40333,0.325 -0.40333,-3.25 z m -28.02041,0 c 0,-3.025 0.18747,-4.2625 0.41659,-2.75 0.22913,1.5125 0.22913,3.9875 0,5.5 -0.22912,1.5125 -0.41659,0.275 -0.41659,-2.75 z M 207.75,92.276604 c 1.7875,-0.221826 4.7125,-0.221826 6.5,0 1.7875,0.221827 0.325,0.403322 -3.25,0.403322 -3.575,0 -5.0375,-0.181495 -3.25,-0.403322 z M 68.25,91.271532 c 2.0625,-0.215745 5.4375,-0.215745 7.5,0 2.0625,0.215744 0.375,0.392262 -3.75,0.392262 -4.125,0 -5.8125,-0.176518 -3.75,-0.392262 z m 222.4777,0.0067 c 1.77523,-0.220912 4.92523,-0.224542 7,-0.0081 2.07476,0.216475 0.6223,0.397221 -3.2277,0.401658 -3.85,0.0044 -5.54754,-0.17268 -3.7723,-0.393592 z m 83.5223,-0.0067 c 2.0625,-0.215745 5.4375,-0.215745 7.5,0 2.0625,0.215744 0.375,0.392262 -3.75,0.392262 -4.125,0 -5.8125,-0.176518 -3.75,-0.392262 z m -111.5,-1.003737 c 2.3375,-0.210535 6.1625,-0.210535 8.5,0 2.3375,0.210535 0.425,0.382791 -4.25,0.382791 -4.675,0 -6.5875,-0.172256 -4.25,-0.382791 z M 95.280173,89.263728 c 2.629095,-0.206676 6.679097,-0.204183 8.999997,0.0055 2.32091,0.209724 0.16983,0.378823 -4.78017,0.375776 -4.95,-0.003 -6.848922,-0.17464 -4.219827,-0.381317 z m 111.999997,-5 c 2.6291,-0.206676 6.6791,-0.204183 9,0.0055 2.32091,0.209724 0.16983,0.378823 -4.78017,0.375776 -4.95,-0.003 -6.84892,-0.17464 -4.21983,-0.381317 z m 55,0 c 2.6291,-0.206676 6.6791,-0.204183 9,0.0055 2.32091,0.209724 0.16983,0.378823 -4.78017,0.375776 -4.95,-0.003 -6.84892,-0.17464 -4.21983,-0.381317 z m 84,0 c 2.6291,-0.206676 6.6791,-0.204183 9,0.0055 2.32091,0.209724 0.16983,0.378823 -4.78017,0.375776 -4.95,-0.003 -6.84892,-0.17464 -4.21983,-0.381317 z M 68.25,83.271532 c 2.0625,-0.215745 5.4375,-0.215745 7.5,0 2.0625,0.215744 0.375,0.392262 -3.75,0.392262 -4.125,0 -5.8125,-0.176518 -3.75,-0.392262 z M 173.2,82.8 c -1.62069,-1.620693 -1.62069,-17.979307 0,-19.6 2.20221,-2.202206 19.52102,-1.589801 20.76482,0.734259 1.3417,2.506993 1.3417,15.624489 0,18.131482 C 192.72102,84.389801 175.40221,85.002206 173.2,82.8 z m 55.2827,-1.015323 C 228.16766,80.528105 228.04267,75.675 228.20495,71 l 0.29505,-8.5 10.5,0 10.5,0 0,10.5 0,10.5 -10.22224,0.284677 c -9.92197,0.276314 -10.23908,0.217563 -10.79506,-2 z m 166.94607,0.890306 c -0.27965,-0.728759 -0.37802,-5.566259 -0.21861,-10.75 L 395.5,62.5 l 10.5,0 10.5,0 0.28886,9.350715 c 0.18643,6.034987 -0.12294,9.846896 -0.87245,10.75 -1.61166,1.941935 -19.74572,2.007671 -20.48764,0.07427 z M 430.25,83.271532 c 2.0625,-0.215745 5.4375,-0.215745 7.5,0 2.0625,0.215744 0.375,0.392262 -3.75,0.392262 -4.125,0 -5.8125,-0.176518 -3.75,-0.392262 z M 313.03518,81.065741 C 311.59286,78.370727 311.71684,65.683158 313.2,64.2 313.93974,63.460258 317.56996,63 322.66482,63 332.44952,63 333,63.532624 333,73 c 0,9.495485 -0.52974,10 -10.5,10 -7.31067,0 -8.56704,-0.256755 -9.46482,-1.934259 z M 91.437265,80.697112 C 91.145106,79.935757 91.039702,75.979944 91.203033,71.906415 L 91.5,64.5 l 8.5,0 8.5,0 0,8.5 0,8.5 -8.26577,0.290697 c -6.321184,0.222309 -8.390734,-0.03496 -8.796965,-1.093585 z m 60.290435,0.581156 c 1.77523,-0.220912 4.92523,-0.224542 7,-0.0081 2.07476,0.216475 0.6223,0.397221 -3.2277,0.401658 -3.85,0.0044 -5.54754,-0.17268 -3.7723,-0.393592 z M 199.34941,73 c 0,-4.675 0.17226,-6.5875 0.3828,-4.25 0.21053,2.3375 0.21053,6.1625 0,8.5 -0.21054,2.3375 -0.3828,0.425 -0.3828,-4.25 z m 79,0 c 0,-4.675 0.17226,-6.5875 0.3828,-4.25 0.21053,2.3375 0.21053,6.1625 0,8.5 -0.21054,2.3375 -0.3828,0.425 -0.3828,-4.25 z m 145,0 c 0,-4.675 0.17226,-6.5875 0.3828,-4.25 0.21053,2.3375 0.21053,6.1625 0,8.5 -0.21054,2.3375 -0.3828,0.425 -0.3828,-4.25 z M 37.411819,78.630801 c -0.288976,-0.75306 -0.387353,-3.79056 -0.218615,-6.75 L 37.5,66.5 44.25,66.20431 51,65.90862 51,72.95431 51,80 44.468615,80 c -4.605874,0 -6.68628,-0.403652 -7.056796,-1.369199 z M 82.336206,73 c 0,-4.125 0.176518,-5.8125 0.392262,-3.75 0.215745,2.0625 0.215745,5.4375 0,7.5 -0.215744,2.0625 -0.392262,0.375 -0.392262,-3.75 z m 36.983864,0 c 0,-3.575 0.1815,-5.0375 0.40333,-3.25 0.22182,1.7875 0.22182,4.7125 0,6.5 -0.22183,1.7875 -0.40333,0.325 -0.40333,-3.25 z M 9.2860141,73.5 c 0.00751,-2.75 0.2017128,-3.756313 0.4315671,-2.23625 0.2298544,1.520062 0.2237119,3.770062 -0.01365,5 C 9.4665693,77.493687 9.2785066,76.25 9.2860141,73.5 z M 124.76791,64.275269 c 1.79735,-0.222562 4.49735,-0.217969 6,0.0102 1.50265,0.228174 0.0321,0.41027 -3.26791,0.404657 -3.3,-0.0056 -4.52944,-0.192301 -2.73209,-0.414862 z M 68.25,62.271532 c 2.0625,-0.215745 5.4375,-0.215745 7.5,0 2.0625,0.215744 0.375,0.392262 -3.75,0.392262 -4.125,0 -5.8125,-0.176518 -3.75,-0.392262 z m 361.52643,-0.005 c 2.35204,-0.211245 5.95204,-0.208273 8,0.0066 2.04796,0.214878 0.12357,0.387715 -4.27643,0.384083 -4.4,-0.0036 -6.07561,-0.179441 -3.72357,-0.390687 z M 207.28017,61.263728 c 2.6291,-0.206676 6.6791,-0.204183 9,0.0055 2.32091,0.209724 0.16983,0.378823 -4.78017,0.375776 -4.95,-0.003 -6.84892,-0.17464 -4.21983,-0.381317 z m 55,0 c 2.6291,-0.206676 6.6791,-0.204183 9,0.0055 2.32091,0.209724 0.16983,0.378823 -4.78017,0.375776 -4.95,-0.003 -6.84892,-0.17464 -4.21983,-0.381317 z m 84,0 c 2.6291,-0.206676 6.6791,-0.204183 9,0.0055 2.32091,0.209724 0.16983,0.378823 -4.78017,0.375776 -4.95,-0.003 -6.84892,-0.17464 -4.21983,-0.381317 z m -167,-5 c 2.6291,-0.206676 6.6791,-0.204183 9,0.0055 2.32091,0.209724 0.16983,0.378823 -4.78017,0.375776 -4.95,-0.003 -6.84892,-0.17464 -4.21983,-0.381317 z m 139,0 c 2.6291,-0.206676 6.6791,-0.204183 9,0.0055 2.32091,0.209724 0.16983,0.378823 -4.78017,0.375776 -4.95,-0.003 -6.84892,-0.17464 -4.21983,-0.381317 z m 111.46983,0.0041 c 2.3375,-0.210535 6.1625,-0.210535 8.5,0 2.3375,0.210535 0.425,0.382791 -4.25,0.382791 -4.675,0 -6.5875,-0.172256 -4.25,-0.382791 z M 6.2,54.8 c -1.6206933,-1.620693 -1.6206933,-17.979307 0,-19.6 2.202206,-2.202206 19.521018,-1.589801 20.764816,0.734259 1.341702,2.506993 1.341702,15.624489 0,18.131482 C 25.721018,56.389801 8.402206,57.002206 6.2,54.8 z M 89.442274,54.71016 C 89.155198,53.962056 89.050746,49.108724 89.210159,43.924983 L 89.5,34.5 99.099013,34.215609 C 111.17504,33.857832 111.16876,33.851421 110.78886,46.149285 L 110.5,55.5 100.23212,55.785181 c -7.936579,0.22043 -10.386399,-0.02365 -10.789846,-1.075017 z m 62.334156,0.556339 c 2.35204,-0.211245 5.95204,-0.208273 8,0.0066 2.04796,0.214878 0.12357,0.387715 -4.27643,0.384083 -4.4,-0.0036 -6.07561,-0.179441 -3.72357,-0.390687 z m 49.45697,-0.433106 c -1.81176,-1.811758 -1.67392,-18.222912 0.16588,-19.749811 0.90311,-0.749509 4.71502,-1.058875 10.75,-0.872445 L 221.5,34.5 l 0,10.5 0,10.5 -9.5166,0.283397 c -6.54769,0.194985 -9.90139,-0.101389 -10.75,-0.95 z M 402.75,53.276604 c 1.7875,-0.221826 4.7125,-0.221826 6.5,0 1.7875,0.221827 0.325,0.403322 -3.25,0.403322 -3.575,0 -5.0375,-0.181495 -3.25,-0.403322 z M 422.3605,45 c 0,-5.225 0.16854,-7.3625 0.37454,-4.75 0.206,2.6125 0.206,6.8875 0,9.5 -0.206,2.6125 -0.37454,0.475 -0.37454,-4.75 z m -283.01109,0 c 0,-4.675 0.17226,-6.5875 0.3828,-4.25 0.21053,2.3375 0.21053,6.1625 0,8.5 -0.21054,2.3375 -0.3828,0.425 -0.3828,-4.25 z M 262.5,52.406133 c 4.68451,-0.753041 11.2731,-0.847891 10.84553,-0.156133 -0.25496,0.4125 -3.24951,0.688718 -6.65455,0.613818 C 263.28594,52.788918 261.4,52.58296 262.5,52.406133 z M 366.34941,45 c 0,-4.675 0.17226,-6.5875 0.3828,-4.25 0.21053,2.3375 0.21053,6.1625 0,8.5 -0.21054,2.3375 -0.3828,0.425 -0.3828,-4.25 z m 30.97066,0 c 0,-3.575 0.1815,-5.0375 0.40333,-3.25 0.22182,1.7875 0.22182,4.7125 0,6.5 -0.22183,1.7875 -0.40333,0.325 -0.40333,-3.25 z m 17,0 c 0,-3.575 0.1815,-5.0375 0.40333,-3.25 0.22182,1.7875 0.22182,4.7125 0,6.5 -0.22183,1.7875 -0.40333,0.325 -0.40333,-3.25 z m -140.02041,0 c 0,-3.025 0.18747,-4.2625 0.41659,-2.75 0.22913,1.5125 0.22913,3.9875 0,5.5 -0.22912,1.5125 -0.41659,0.275 -0.41659,-2.75 z m -15,-1 c 0,-3.025 0.18747,-4.2625 0.41659,-2.75 0.22913,1.5125 0.22913,3.9875 0,5.5 -0.22912,1.5125 -0.41659,0.275 -0.41659,-2.75 z m 4.46825,-6.724731 c 1.79735,-0.222562 4.49735,-0.217969 6,0.0102 1.50265,0.228174 0.0321,0.41027 -3.26791,0.404657 -3.3,-0.0056 -4.52944,-0.192301 -2.73209,-0.414862 z M 39.75,33.267795 c 2.3375,-0.210535 6.1625,-0.210535 8.5,0 2.3375,0.210535 0.425,0.382791 -4.25,0.382791 -4.675,0 -6.5875,-0.172256 -4.25,-0.382791 z m 139,0 c 2.3375,-0.210535 6.1625,-0.210535 8.5,0 2.3375,0.210535 0.425,0.382791 -4.25,0.382791 -4.675,0 -6.5875,-0.172256 -4.25,-0.382791 z m 111.53017,-0.0041 c 2.6291,-0.206676 6.6791,-0.204183 9,0.0055 2.32091,0.209724 0.16983,0.378823 -4.78017,0.375776 -4.95,-0.003 -6.84892,-0.17464 -4.21983,-0.381317 z m 28.49626,0.0028 c 2.35204,-0.211245 5.95204,-0.208273 8,0.0066 2.04796,0.214878 0.12357,0.387715 -4.27643,0.384083 -4.4,-0.0036 -6.07561,-0.179441 -3.72357,-0.390687 z m 54.97357,0.0013 c 2.3375,-0.210535 6.1625,-0.210535 8.5,0 2.3375,0.210535 0.425,0.382791 -4.25,0.382791 -4.675,0 -6.5875,-0.172256 -4.25,-0.382791 z m 56,0 c 2.3375,-0.210535 6.1625,-0.210535 8.5,0 2.3375,0.210535 0.425,0.382791 -4.25,0.382791 -4.675,0 -6.5875,-0.172256 -4.25,-0.382791 z m -56.5,-5.002834 c 2.6125,-0.205999 6.8875,-0.205999 9.5,0 2.6125,0.205998 0.475,0.374543 -4.75,0.374543 -5.225,0 -7.3625,-0.168545 -4.75,-0.374543 z M 68.776433,27.266503 c 2.352038,-0.211245 5.952038,-0.208273 8,0.0066 C 78.824395,27.487985 76.9,27.660822 72.5,27.65719 68.1,27.65359 66.424395,27.477749 68.776433,27.266503 z m 249.999997,0 c 2.35204,-0.211245 5.95204,-0.208273 8,0.0066 2.04796,0.214878 0.12357,0.387715 -4.27643,0.384083 -4.4,-0.0036 -6.07561,-0.179441 -3.72357,-0.390687 z m 105.89024,-0.93317 C 423.13529,24.80196 423.94488,8.2351281 425.58179,7.6069888 428.4646,6.5007486 441.55147,6.9514725 442.8,8.2 c 1.24853,1.2485275 1.69925,14.335397 0.59301,17.218213 -0.62814,1.636904 -17.19497,2.446494 -18.72634,0.91512 z M 35.703816,25.370483 C 34.330867,23.997533 34.922013,10.309613 36.4075,9.0767681 37.280168,8.3525184 40.605059,8.0210003 45.1575,8.2043234 L 52.5,8.5 l 0,8.5 0,8.5 -8.046184,0.287149 c -4.425401,0.157932 -8.362901,-0.02957 -8.75,-0.416666 z M 96.75,25.276604 c 1.7875,-0.221826 4.7125,-0.221826 6.5,0 1.7875,0.221827 0.325,0.403322 -3.25,0.403322 -3.575,0 -5.0375,-0.181495 -3.25,-0.403322 z M 250.35496,17.5 c -0.003,-4.95 0.16605,-7.101078 0.37577,-4.780173 0.20972,2.320905 0.21222,6.370905 0.006,9 C 250.5296,24.348922 250.358,22.45 250.35496,17.5 z m 36.06669,7.156415 c -0.28357,-0.738971 -0.38195,-4.676471 -0.21862,-8.75 L 286.5,8.5 293.8425,8.2043234 C 303.20922,7.8271329 304,8.4761282 304,16.540657 304,26.038117 304.03682,26 294.86163,26 c -5.71141,0 -8.06838,-0.375214 -8.43998,-1.343585 z M 389.35496,17.5 c -0.003,-4.95 0.16605,-7.101078 0.37577,-4.780173 0.20972,2.320905 0.21222,6.370905 0.006,9 C 389.5296,24.348922 389.358,22.45 389.35496,17.5 z m -212.28494,6.084373 c -0.69293,-0.834934 -1.05081,-3.8089 -0.87244,-7.25 L 176.5,10.5 l 6.40894,-0.301843 c 7.52734,-0.3545164 8.05407,0.135749 8.07575,7.516659 0.0122,4.141976 -0.38262,5.427784 -1.91895,6.25 -2.85581,1.528384 -10.61578,1.282277 -11.99572,-0.380443 z M 227.34941,17 c 0,-4.675 0.17226,-6.5875 0.3828,-4.25 0.21053,2.3375 0.21053,6.1625 0,8.5 -0.21054,2.3375 -0.3828,0.425 -0.3828,-4.25 z m 32.08466,6.688774 c -0.29536,-0.769685 -0.40135,-4.277031 -0.23554,-7.794101 L 259.5,9.5 l 7.5,0 7.5,0 0,7.5 0,7.5 -7.26446,0.294101 c -5.50779,0.222983 -7.39432,-0.0443 -7.80147,-1.105327 z M 82.336206,17 c 0,-4.125 0.176518,-5.8125 0.392262,-3.75 0.215745,2.0625 0.215745,5.4375 0,7.5 -0.215744,2.0625 -0.392262,0.375 -0.392262,-3.75 z m 284.000004,0 c 0,-4.125 0.17651,-5.8125 0.39226,-3.75 0.21574,2.0625 0.21574,5.4375 0,7.5 -0.21575,2.0625 -0.39226,0.375 -0.39226,-3.75 z M 91.320074,17 c 0,-3.575 0.181495,-5.0375 0.403322,-3.25 0.221826,1.7875 0.221826,4.7125 0,6.5 -0.221827,1.7875 -0.403322,0.325 -0.403322,-3.25 z M 347.76791,8.2752687 c 1.79735,-0.2225614 4.49735,-0.2179691 6,0.010205 1.50265,0.2281742 0.0321,0.4102699 -3.26791,0.4046571 -3.3,-0.00561 -4.52944,-0.1923007 -2.73209,-0.4148621 z m 54.98209,0.00134 c 1.7875,-0.2218267 4.7125,-0.2218267 6.5,0 1.7875,0.2218268 0.325,0.4033215 -3.25,0.4033215 -3.575,0 -5.0375,-0.1814947 -3.25,-0.4033215 z M 123.77643,5.2665034 c 2.35204,-0.2112452 5.95204,-0.2082734 8,0.0066 2.04796,0.2148774 0.12357,0.3877144 -4.27643,0.3840822 -4.4,-0.00363 -6.07561,-0.1794411 -3.72357,-0.3906863 z M 234.75,5.2677949 c 2.3375,-0.2105348 6.1625,-0.2105348 8.5,0 2.3375,0.2105349 0.425,0.3827907 -4.25,0.3827907 -4.675,0 -6.5875,-0.1722558 -4.25,-0.3827907 z m 139.5,0.00374 c 2.0625,-0.2157442 5.4375,-0.2157442 7.5,0 2.0625,0.2157442 0.375,0.3922622 -3.75,0.3922622 -4.125,0 -5.8125,-0.176518 -3.75,-0.3922622 z"
       id="path3055"
       inkscape:connector-curvature="0" />
    <path
       style="fill:#67abb7"
       d="m 90.2,194.8 c -1.627964,-1.62796 -1.627964,-18.97204 0,-20.6 0.747287,-0.74729 4.444444,-1.2 9.8,-1.2 10.87433,0 11,0.13138 11,11.5 0,11.36862 -0.12567,11.5 -11,11.5 -5.355556,0 -9.052713,-0.45271 -9.8,-1.2 z m 27.45499,-0.62874 C 116.40473,192.78974 116,190.38215 116,184.32625 116,173.83816 116.84321,173 127.39448,173 138.80922,173 139,173.18904 139,184.5 c 0,11.33077 -0.17334,11.5 -11.77927,11.5 -6.39382,0 -8.22811,-0.35067 -9.56574,-1.82874 z M 257.2,194.8 c -1.62796,-1.62796 -1.62796,-18.97204 0,-20.6 1.4924,-1.4924 16.14592,-1.62042 18.86574,-0.16482 1.70241,0.9111 1.93426,2.16547 1.93426,10.46482 0,8.29935 -0.23185,9.55372 -1.93426,10.46482 C 273.34592,196.42042 258.6924,196.2924 257.2,194.8 z m 26.67244,-0.55 c -1.24387,-1.58606 -1.2085,-1.62143 0.37756,-0.37756 1.66575,1.30637 2.19548,2.12756 1.37244,2.12756 -0.20765,0 -0.99515,-0.7875 -1.75,-1.75 z m 76.22795,0.0455 c 0.72815,-1.21249 1.53915,-1.98927 1.80223,-1.72619 0.26308,0.26308 -0.33267,1.25511 -1.3239,2.20452 -1.72194,1.64929 -1.74325,1.62798 -0.47833,-0.47833 z M 230.2,193.8 c -0.7358,-0.7358 -1.2,-4.33333 -1.2,-9.3 0,-10.10011 0.38084,-10.5 10,-10.5 9.61916,0 10,0.39989 10,10.5 0,10.10011 -0.38084,10.5 -10,10.5 -4.57778,0 -8.07719,-0.47719 -8.8,-1.2 z m 82.83518,-0.73426 C 312.46583,192.0019 312,187.98404 312,184.13717 312,174.87514 312.90647,174 322.5,174 c 5.35498,0 7.78479,0.42765 8.92857,1.57143 1.14378,1.14378 1.57143,3.57359 1.57143,8.92857 0,9.76807 -0.76931,10.5 -11.03624,10.5 -6.78051,0 -8.03934,-0.27271 -8.92858,-1.93426 z M 425.25,194.33772 c -2.03087,-0.81947 -1.72614,-18.94103 0.33179,-19.73073 2.88281,-1.10624 15.96968,-0.65552 17.21821,0.59301 0.7358,0.7358 1.2,4.33333 1.2,9.3 0,4.96667 -0.4642,8.5642 -1.2,9.3 -1.18079,1.18079 -14.91355,1.60155 -17.55,0.53772 z M 36.2,192.8 c -0.707981,-0.70798 -1.2,-4.11111 -1.2,-8.3 0,-4.18889 0.492019,-7.59202 1.2,-8.3 1.84638,-1.84638 14.295695,-1.56145 16.228571,0.37143 2.187515,2.18751 2.187515,13.66963 0,15.85714 C 50.495695,194.36145 38.04638,194.64638 36.2,192.8 z m 139,0 c -0.70798,-0.70798 -1.2,-4.11111 -1.2,-8.3 0,-8.84049 0.63373,-9.5 9.12857,-9.5 8.75431,0 9.87143,1.07509 9.87143,9.5 0,8.42491 -1.11712,9.5 -9.87143,9.5 -3.9,0 -7.23303,-0.50446 -7.92857,-1.2 z m 47.15496,-8.3 c -0.003,-4.95 0.16605,-7.10108 0.37577,-4.78017 0.20972,2.3209 0.21222,6.3709 0.006,9 -0.20667,2.62909 -0.37827,0.73017 -0.38131,-4.21983 z m -23.01215,0 c 0.004,-4.4 0.17944,-6.07561 0.39069,-3.72357 0.21124,2.35204 0.20827,5.95204 -0.007,8 -0.21487,2.04796 -0.38771,0.12357 -0.38408,-4.27643 z m 186.98533,0 c 0.004,-3.85 0.18518,-5.30246 0.40166,-3.2277 0.21647,2.07477 0.21284,5.22477 -0.008,7 -0.22091,1.77524 -0.39803,0.0777 -0.39359,-3.7723 z M 283,175.62244 c 0,-0.20765 0.7875,-0.99515 1.75,-1.75 1.58606,-1.24387 1.62143,-1.2085 0.37756,0.37756 C 283.82119,175.91575 283,176.44548 283,175.62244 z M 359.87244,174.25 c -1.24387,-1.58606 -1.2085,-1.62143 0.37756,-0.37756 0.9625,0.75485 1.75,1.54235 1.75,1.75 0,0.82304 -0.82119,0.29331 -2.12756,-1.37244 z M 173.2,166.8 C 172.44249,166.04249 172,162.24444 172,156.5 172,145.11347 172.10981,145 183.12857,145 194.45488,145 195,145.5114 195,156.13717 195,167.80912 194.81761,168 183.66482,168 c -5.87264,0 -9.70418,-0.43936 -10.46482,-1.2 z m 56,0 c -0.75751,-0.75751 -1.2,-4.55556 -1.2,-10.3 0,-11.36862 0.12567,-11.5 11,-11.5 10.87433,0 11,0.13138 11,11.5 0,11.36862 -0.12567,11.5 -11,11.5 -5.35556,0 -9.05271,-0.45271 -9.8,-1.2 z m 139,0 c -1.62796,-1.62796 -1.62796,-18.97204 0,-20.6 2.55309,-2.55309 18.5282,-1.54445 20.38342,1.28698 2.15402,3.28744 1.70506,18.0872 -0.59275,19.53995 -2.21554,1.40073 -18.348,1.21574 -19.79067,-0.22693 z m -333,-1 c -2.179548,-2.17955 -1.579018,-17.52679 0.734259,-18.76482 3.453152,-1.84807 15.517754,-1.29818 17.410753,0.79356 2.284775,2.52465 2.345608,15.33778 0.08356,17.59983 C 51.474922,167.38222 37.075624,167.67562 35.2,165.8 z m 83.83518,-1.73426 c -1.66043,-3.10256 -1.29494,-13.66312 0.53625,-15.49431 1.83119,-1.83119 12.39175,-2.19668 15.49431,-0.53625 2.29916,1.23048 2.88532,14.61376 0.73426,16.76482 -2.15106,2.15106 -15.53434,1.5649 -16.76482,-0.73426 z M 314.2,164.8 c -1.84638,-1.84638 -1.56145,-14.29569 0.37143,-16.22857 2.18751,-2.18752 13.66963,-2.18752 15.85714,0 1.93288,1.93288 2.21781,14.38219 0.37143,16.22857 -0.70798,0.70798 -4.11111,1.2 -8.3,1.2 -4.18889,0 -7.59202,-0.49202 -8.3,-1.2 z M 60.349414,157 c 0,-4.675 0.172256,-6.5875 0.382791,-4.25 0.210535,2.3375 0.210535,6.1625 0,8.5 -0.210535,2.3375 -0.382791,0.425 -0.382791,-4.25 z m 23.005541,-0.5 c -0.003,-4.95 0.166052,-7.10108 0.375776,-4.78017 0.209724,2.3209 0.212217,6.3709 0.0055,9 -0.206677,2.62909 -0.378269,0.73017 -0.381317,-4.21983 z m 311.000005,0 c -0.003,-4.95 0.16605,-7.10108 0.37577,-4.78017 0.20972,2.3209 0.21222,6.3709 0.006,9 -0.20667,2.62909 -0.37827,0.73017 -0.38131,-4.21983 z m 23,0 c -0.003,-4.95 0.16605,-7.10108 0.37577,-4.78017 0.20972,2.3209 0.21222,6.3709 0.006,9 -0.20667,2.62909 -0.37827,0.73017 -0.38131,-4.21983 z m -198.02682,0 c 0.004,-3.85 0.18518,-5.30246 0.40166,-3.2277 0.21647,2.07477 0.21284,5.22477 -0.008,7 -0.22091,1.77524 -0.39803,0.0777 -0.39359,-3.7723 z M 283,147.62244 c 0,-0.20765 0.7875,-0.99515 1.75,-1.75 1.58606,-1.24387 1.62143,-1.2085 0.37756,0.37756 C 283.82119,147.91575 283,148.44548 283,147.62244 z M 145.2,138.8 C 144.44997,138.04997 144,134.32698 144,128.87143 144,117.48022 144.46519,117 155.5,117 166.53481,117 167,117.48022 167,128.87143 167,139.89019 166.88653,140 155.5,140 c -5.74444,0 -9.54249,-0.44249 -10.3,-1.2 z m 28,0 c -1.89842,-1.89842 -1.59801,-18.25913 0.37143,-20.22857 2.52478,-2.52478 16.78989,-2.21011 19.42857,0.42857 2.25786,2.25786 2.92324,15.4064 0.96482,19.06574 -1.2438,2.32406 -18.56261,2.93647 -20.76482,0.73426 z m 28,0 c -2.20221,-2.20221 -1.5898,-19.52102 0.73426,-20.76482 3.98457,-2.13247 17.77147,-1.2934 19.50904,1.18733 1.81566,2.59223 2.17969,15.74491 0.52152,18.84323 -1.2438,2.32406 -18.56261,2.93647 -20.76482,0.73426 z m 82.83518,-0.73426 c -1.87607,-3.50547 -1.3034,-17.51303 0.79356,-19.41075 2.1256,-1.92364 15.96745,-2.36961 19.237,-0.61981 2.32406,1.2438 2.93647,18.56261 0.73426,20.76482 -2.20221,2.20221 -19.52102,1.5898 -20.76482,-0.73426 z M 35.2,137.8 c -1.364924,-1.36492 -1.647185,-15.54686 -0.350117,-17.59135 0.593433,-0.93539 3.276747,-1.21103 9.734687,-1 L 53.5,119.5 l 0.291346,8.91543 c 0.211038,6.45794 -0.06461,9.14125 -1,9.73469 C 50.746857,139.44718 36.564924,139.16492 35.2,137.8 z m 278,0 C 312.47369,137.07369 312,133.54921 312,128.87143 312,118.78887 312.76192,118 322.5,118 c 9.73808,0 10.5,0.78887 10.5,10.87143 C 333,138.63409 332.62067,139 322.5,139 c -4.96667,0 -8.5642,-0.4642 -9.3,-1.2 z m 111.46667,0.53333 C 424.3,137.96667 424,133.7075 424,128.86852 424,118.48314 424.44453,118 434,118 c 9.46738,0 10,0.55048 10,10.33518 0,5.09486 -0.46026,8.72508 -1.2,9.46482 -1.27228,1.27228 -16.93375,1.73291 -18.13333,0.53333 z M 255.3605,129 c 0,-5.225 0.16854,-7.3625 0.37454,-4.75 0.206,2.6125 0.206,6.8875 0,9.5 -0.206,2.6125 -0.37454,0.475 -0.37454,-4.75 z M 88.354955,128.5 c -0.003,-4.95 0.166052,-7.10108 0.375776,-4.78017 0.209724,2.3209 0.212217,6.3709 0.0055,9 -0.206677,2.62909 -0.378269,0.73017 -0.381317,-4.21983 z m 22.994455,0.5 c 0,-4.675 0.17226,-6.5875 0.3828,-4.25 0.21053,2.3375 0.21053,6.1625 0,8.5 -0.21054,2.3375 -0.3828,0.425 -0.3828,-4.25 z m 6,0 c 0,-4.675 0.17226,-6.5875 0.3828,-4.25 0.21053,2.3375 0.21053,6.1625 0,8.5 -0.21054,2.3375 -0.3828,0.425 -0.3828,-4.25 z m 253.31726,7.33333 C 369.49089,135.15756 369.93832,122.46168 371.2,121.2 c 1.80944,-1.80944 12.32213,-1.53502 14.22857,0.37143 1.81622,1.81622 2.15974,10.46078 0.53625,13.49431 -1.04463,1.9519 -13.57555,2.9902 -15.29815,1.26759 z M 278.34281,128.5 c 0.004,-4.4 0.17944,-6.07561 0.39069,-3.72357 0.21124,2.35204 0.20827,5.95204 -0.007,8 -0.21487,2.04796 -0.38771,0.12357 -0.38408,-4.27643 z M 5,119.62244 c 0,-0.20765 0.7875,-0.99515 1.75,-1.75 1.5860556,-1.24387 1.6214259,-1.2085 0.3775553,0.37756 C 5.8211855,119.91575 5,120.44548 5,119.62244 z m 118.75,-1.35465 c 2.3375,-0.21053 6.1625,-0.21053 8.5,0 2.3375,0.21054 0.425,0.3828 -4.25,0.3828 -4.675,0 -6.5875,-0.17226 -4.25,-0.3828 z m 111,-6 c 2.3375,-0.21053 6.1625,-0.21053 8.5,0 2.3375,0.21054 0.425,0.3828 -4.25,0.3828 -4.675,0 -6.5875,-0.17226 -4.25,-0.3828 z m 111,0 c 2.3375,-0.21053 6.1625,-0.21053 8.5,0 2.3375,0.21054 0.425,0.3828 -4.25,0.3828 -4.675,0 -6.5875,-0.17226 -4.25,-0.3828 z m 84,0 c 2.3375,-0.21053 6.1625,-0.21053 8.5,0 2.3375,0.21054 0.425,0.3828 -4.25,0.3828 -4.675,0 -6.5875,-0.17226 -4.25,-0.3828 z M 90.211769,111.15204 c -0.943091,-0.59835 -1.211008,-3.47436 -1,-10.73468 L 89.5,90.5 l 10.5,0 10.5,0 0.28886,9.350715 c 0.18643,6.034985 -0.12294,9.846895 -0.87245,10.750005 -1.29585,1.56141 -17.402315,2.01206 -19.704641,0.55132 z m 26.823411,-1.0863 c -2.13247,-3.98457 -1.2934,-17.771467 1.18733,-19.509036 2.59223,-1.815668 15.74491,-2.179692 18.84323,-0.52152 2.32406,1.243798 2.93647,18.562606 0.73426,20.764816 -2.20221,2.20221 -19.52102,1.5898 -20.76482,-0.73426 z m 140.3903,-0.39933 c -0.28146,-0.73347 -0.37983,-5.12097 -0.21861,-9.749999 L 257.5,91.5 l 9.5,0 9.5,0 0.29201,8.34692 c 0.18519,5.2937 -0.13394,8.86015 -0.87245,9.75 -1.61009,1.94004 -17.753,2.0007 -18.49408,0.0695 z m -193.988215,-0.9693 c -0.292159,-0.76135 -0.397563,-4.71717 -0.234232,-8.790695 L 63.5,92.5 l 8.5,0 8.5,0 0,8.5 0,8.5 -8.265768,0.2907 c -6.321186,0.22231 -8.390736,-0.035 -8.796967,-1.09359 z m 222.984385,-0.0407 c -0.28357,-0.73898 -0.38195,-4.67648 -0.21862,-8.750005 L 286.5,92.5 l 7.91317,-0.295002 c 5.65526,-0.210826 8.14758,0.07451 8.73469,1 1.28264,2.021903 1.01018,14.236962 -0.34786,15.595002 -1.73565,1.73565 -15.70421,1.61319 -16.37835,-0.14358 z m 83,0 c -0.28357,-0.73898 -0.38195,-4.67648 -0.21862,-8.750005 L 369.5,92.5 l 7.90514,-0.294857 c 4.34783,-0.162171 8.3327,0.132697 8.85527,0.655263 1.07201,1.072017 1.30931,14.408744 0.28584,16.064764 -1.01996,1.65033 -16.4813,1.40767 -17.1246,-0.26875 z M 422.3605,101 c 0,-5.225 0.16854,-7.3625 0.37454,-4.75 0.206,2.6125 0.206,6.8875 0,9.5 -0.206,2.6125 -0.37454,0.475 -0.37454,-4.75 z m -229.01109,0 c 0,-4.675 0.17226,-6.5875 0.3828,-4.25 0.21053,2.3375 0.21053,6.1625 0,8.5 -0.21054,2.3375 -0.3828,0.425 -0.3828,-4.25 z m 10.08466,6.68877 c -0.29536,-0.76968 -0.40135,-4.27703 -0.23554,-7.794097 L 203.5,93.5 l 7.5,0 7.5,0 0,7.5 0,7.5 -7.26446,0.2941 c -5.50779,0.22298 -7.39432,-0.0443 -7.80147,-1.10533 z M 227.34941,101 c 0,-4.675 0.17226,-6.5875 0.3828,-4.25 0.21053,2.3375 0.21053,6.1625 0,8.5 -0.21054,2.3375 -0.3828,0.425 -0.3828,-4.25 z m 23.00555,-0.5 c -0.003,-4.95 0.16605,-7.101078 0.37577,-4.780173 0.20972,2.320905 0.21222,6.370903 0.006,9.000003 C 250.5296,107.34892 250.358,105.45 250.35496,100.5 z M 53.336206,101 c 0,-4.125 0.176518,-5.8125 0.392262,-3.75 0.215745,2.0625 0.215745,5.4375 0,7.5 -0.215744,2.0625 -0.392262,0.375 -0.392262,-3.75 z m 277.654574,-0.70479 c -0.26993,-4.512637 -0.13218,-7.844032 0.30612,-7.403102 0.43829,0.44093 0.65915,4.133087 0.49078,8.204792 l -0.30612,7.4031 -0.49078,-8.20479 z M 445.34281,100.5 c 0.004,-4.4 0.17944,-6.075605 0.39069,-3.723567 0.21124,2.352038 0.20827,5.952037 -0.007,7.999997 -0.21487,2.04796 -0.38771,0.12357 -0.38408,-4.27643 z m -49.02274,0.5 c 0,-3.575 0.1815,-5.0375 0.40333,-3.25 0.22182,1.7875 0.22182,4.7125 0,6.5 -0.22183,1.7875 -0.40333,0.325 -0.40333,-3.25 z M 40.25,91.271532 c 2.0625,-0.215745 5.4375,-0.215745 7.5,0 2.0625,0.215744 0.375,0.392262 -3.75,0.392262 -4.125,0 -5.8125,-0.176518 -3.75,-0.392262 z m 278.4777,0.0067 c 1.77523,-0.220912 4.92523,-0.224542 7,-0.0081 2.07476,0.216475 0.6223,0.397221 -3.2277,0.401658 -3.85,0.0044 -5.54754,-0.17268 -3.7723,-0.393592 z m 83.5223,-0.0067 c 2.0625,-0.215745 5.4375,-0.215745 7.5,0 2.0625,0.215744 0.375,0.392262 -3.75,0.392262 -4.125,0 -5.8125,-0.176518 -3.75,-0.392262 z M 179.77643,90.266503 c 2.35204,-0.211245 5.95204,-0.208273 8,0.0066 2.04796,0.214878 0.12357,0.387715 -4.27643,0.384083 -4.4,-0.0036 -6.07561,-0.179441 -3.72357,-0.390687 z M 234.25,89.264961 c 2.6125,-0.205999 6.8875,-0.205999 9.5,0 2.6125,0.205998 0.475,0.374543 -4.75,0.374543 -5.225,0 -7.3625,-0.168545 -4.75,-0.374543 z m 112.03017,-0.0012 c 2.6291,-0.206676 6.6791,-0.204183 9,0.0055 2.32091,0.209724 0.16983,0.378823 -4.78017,0.375776 -4.95,-0.003 -6.84892,-0.17464 -4.21983,-0.381317 z m 82.96983,0.0012 c 2.6125,-0.205999 6.8875,-0.205999 9.5,0 2.6125,0.205998 0.475,0.374543 -4.75,0.374543 -5.225,0 -7.3625,-0.168545 -4.75,-0.374543 z M 290.28017,84.263728 c 2.6291,-0.206676 6.6791,-0.204183 9,0.0055 2.32091,0.209724 0.16983,0.378823 -4.78017,0.375776 -4.95,-0.003 -6.84892,-0.17464 -4.21983,-0.381317 z m 83.46983,0.0041 c 2.3375,-0.210535 6.1625,-0.210535 8.5,0 2.3375,0.210535 0.425,0.382791 -4.25,0.382791 -4.675,0 -6.5875,-0.172256 -4.25,-0.382791 z M 200.42877,82.674983 c -0.27965,-0.728759 -0.37802,-5.566259 -0.21861,-10.75 L 200.5,62.5 210.48487,62.210955 C 222.63929,61.859105 223,62.163059 223,72.756871 223,83.854698 222.84406,84 210.93343,84 c -7.3763,0 -10.12946,-0.347272 -10.50466,-1.325017 z m 55.62482,-0.57485 c -1.49156,-2.787012 -1.33625,-16.331312 0.21154,-18.448048 1.08009,-1.477106 2.7256,-1.687897 11.25,-1.44113 L 277.5,62.5 l 0,10.5 0,10.5 -10.19641,0.284391 c -9.27956,0.25882 -10.29115,0.107372 -11.25,-1.684258 z M 340.2,82.8 C 338.94708,81.547077 338.4831,66.510594 339.60699,63.581787 340.3771,61.5749 358.84225,61.242254 360.8,63.2 c 1.62069,1.620693 1.62069,17.979307 0,19.6 -0.75751,0.757509 -4.55556,1.2 -10.3,1.2 -5.74444,0 -9.54249,-0.442491 -10.3,-1.2 z m -277,-1 c -1.364924,-1.364924 -1.647185,-15.546857 -0.350117,-17.591346 0.593433,-0.935393 3.276747,-1.211038 9.734687,-1 L 81.5,63.5 l 0.291346,8.91543 c 0.211038,6.45794 -0.06461,9.141254 -1,9.734687 C 78.746857,83.447185 64.564924,83.164924 63.2,81.8 z m 361.22548,-0.133589 c -0.28146,-0.733475 -0.37983,-5.120975 -0.21861,-9.75 L 424.5,63.5 l 9.5,0 9.5,0 0.29862,7.488223 C 444.28814,83.263664 444.50433,83 433.94956,83 c -6.58865,0 -9.14995,-0.358641 -9.52408,-1.333589 z M 389.3605,73 c 0,-5.225 0.16854,-7.3625 0.37454,-4.75 0.206,2.6125 0.206,6.8875 0,9.5 -0.206,2.6125 -0.37454,0.475 -0.37454,-4.75 z m -268.92643,6.688774 c -0.29536,-0.769685 -0.40135,-4.277031 -0.23554,-7.794101 L 120.5,65.5 l 7.5,0 7.5,0 0,7.5 0,7.5 -7.26446,0.294101 c -5.50779,0.222983 -7.39432,-0.0443 -7.80147,-1.105327 z M 366.34941,73 c 0,-4.675 0.17226,-6.5875 0.3828,-4.25 0.21053,2.3375 0.21053,6.1625 0,8.5 -0.21054,2.3375 -0.3828,0.425 -0.3828,-4.25 z M 10.411819,78.630801 c -3.2217855,-8.39584 1.75303,-14.312147 10.242858,-12.181336 2.971103,0.7457 3.625857,11.84517 0.763536,12.943546 -3.046673,1.169118 -10.46234,0.655571 -11.006394,-0.76221 z M 151.7277,64.278268 c 1.77523,-0.220912 4.92523,-0.224542 7,-0.0081 2.07476,0.216475 0.6223,0.397221 -3.2277,0.401658 -3.85,0.0044 -5.54754,-0.17268 -3.7723,-0.393592 z m 138.55247,-3.01454 c 2.6291,-0.206676 6.6791,-0.204183 9,0.0055 2.32091,0.209724 0.16983,0.378823 -4.78017,0.375776 -4.95,-0.003 -6.84892,-0.17464 -4.21983,-0.381317 z m 84,0 c 2.6291,-0.206676 6.6791,-0.204183 9,0.0055 2.32091,0.209724 0.16983,0.378823 -4.78017,0.375776 -4.95,-0.003 -6.84892,-0.17464 -4.21983,-0.381317 z M 35.25,55.968838 C 32.631844,54.916468 31.758483,37.641517 34.2,35.2 36.402206,32.997794 53.721018,33.610199 54.964816,35.934259 56.923237,39.593602 56.257859,52.742141 54,55 51.811874,57.188126 39.824429,57.807534 35.25,55.968838 z m 32,0.296123 c 2.6125,-0.205999 6.8875,-0.205999 9.5,0 2.6125,0.205998 0.475,0.374543 -4.75,0.374543 -5.225,0 -7.3625,-0.168545 -4.75,-0.374543 z m 56.03017,-0.0012 c 2.6291,-0.206676 6.6791,-0.204183 9,0.0055 2.32091,0.209724 0.16983,0.378823 -4.78017,0.375776 -4.95,-0.003 -6.84892,-0.17464 -4.21983,-0.381317 z m 110.96983,0.0012 c 2.6125,-0.205999 6.8875,-0.205999 9.5,0 2.6125,0.205998 0.475,0.374543 -4.75,0.374543 -5.225,0 -7.3625,-0.168545 -4.75,-0.374543 z m 51,-0.758692 C 283.21173,54.039004 283,53.063847 283,45.143296 283,34.10799 283.11145,34 294.5,34 c 5.74444,0 9.54249,0.442491 10.3,1.2 1.44591,1.445913 1.62619,17.577263 0.22128,19.8 -1.44677,2.28896 -16.75045,2.68083 -19.77128,0.506269 z m 61.03017,0.757459 c 2.6291,-0.206676 6.6791,-0.204183 9,0.0055 2.32091,0.209724 0.16983,0.378823 -4.78017,0.375776 -4.95,-0.003 -6.84892,-0.17464 -4.21983,-0.381317 z m 22.37191,-0.528862 c -1.4771,-1.080087 -1.68789,-2.725596 -1.44112,-11.25 L 367.5,34.5 377.48487,34.210955 C 389.71392,33.856945 390,34.107939 390,45.19113 390,55.836255 388.83625,57 378.19113,57 c -4.71853,0 -8.49358,-0.500674 -9.53905,-1.265134 z M 173.2,54.8 C 172.45271,54.052713 172,50.355556 172,45 172,34.105031 172.11138,34 183.66482,34 194.7154,34 195,34.276181 195,45 c 0,10.723819 -0.2846,11 -11.33518,11 -5.87264,0 -9.70418,-0.439363 -10.46482,-1.2 z m 139,0 c -1.62069,-1.620693 -1.62069,-17.979307 0,-19.6 1.62796,-1.627964 18.97204,-1.627964 20.6,0 1.62069,1.620693 1.62069,17.979307 0,19.6 -1.62796,1.627964 -18.97204,1.627964 -20.6,0 z m 111.22877,-0.125017 c -0.27965,-0.728759 -0.37802,-5.566259 -0.21861,-10.75 L 423.5,34.5 l 9.35072,-0.288859 c 6.03498,-0.18643 9.84689,0.122936 10.75,0.872445 1.81367,1.505218 1.97975,17.935947 0.19928,19.716414 -1.75199,1.751995 -19.6932,1.641891 -20.37123,-0.125017 z M 146.03518,53.065741 C 145.46583,52.001899 145,48.372316 145,45 c 0,-9.495485 0.52974,-10 10.5,-10 9.97026,0 10.5,0.504515 10.5,10 0,9.495485 -0.52974,10 -10.5,10 -7.31067,0 -8.56704,-0.256755 -9.46482,-1.934259 z M 83.354955,45.5 c -0.003,-4.95 0.166052,-7.101078 0.375776,-4.780173 0.209724,2.320905 0.212217,6.370905 0.0055,9 C 83.529595,52.348922 83.358003,50.45 83.354955,45.5 z M 60.349414,45 c 0,-4.675 0.172256,-6.5875 0.382791,-4.25 0.210535,2.3375 0.210535,6.1625 0,8.5 -0.210535,2.3375 -0.382791,0.425 -0.382791,-4.25 z m 166.999996,0 c 0,-4.675 0.17226,-6.5875 0.3828,-4.25 0.21053,2.3375 0.21053,6.1625 0,8.5 -0.21054,2.3375 -0.3828,0.425 -0.3828,-4.25 z m 23,0 c 0,-4.675 0.17226,-6.5875 0.3828,-4.25 0.21053,2.3375 0.21053,6.1625 0,8.5 -0.21054,2.3375 -0.3828,0.425 -0.3828,-4.25 z m 148.08466,6.688774 c -0.29536,-0.769685 -0.40135,-4.277031 -0.23554,-7.794101 L 398.5,37.5 l 7.5,0 7.5,0 0,7.5 0,7.5 -7.26446,0.294101 c -5.50779,0.222983 -7.39432,-0.0443 -7.80147,-1.105327 z M 259.84782,51.061277 c -0.1913,-0.564104 -0.19436,-3.753288 -0.007,-7.087076 l 0.34102,-6.061431 6.65898,0.293615 L 273.5,38.5 l 0,6.5 0,6.5 -6.65218,0.29346 c -3.91775,0.172831 -6.79515,-0.128139 -7,-0.732183 z M 67.75,33.267795 c 2.3375,-0.210535 6.1625,-0.210535 8.5,0 2.3375,0.210535 0.425,0.382791 -4.25,0.382791 -4.675,0 -6.5875,-0.172256 -4.25,-0.382791 z m 55.53017,-0.0041 c 2.6291,-0.206676 6.6791,-0.204183 9,0.0055 2.32091,0.209724 0.16983,0.378823 -4.78017,0.375776 -4.95,-0.003 -6.84892,-0.17464 -4.21983,-0.381317 z m 111.46983,0.0041 c 2.3375,-0.210535 6.1625,-0.210535 8.5,0 2.3375,0.210535 0.425,0.382791 -4.25,0.382791 -4.675,0 -6.5875,-0.172256 -4.25,-0.382791 z m 111.53017,-0.0041 c 2.6291,-0.206676 6.6791,-0.204183 9,0.0055 2.32091,0.209724 0.16983,0.378823 -4.78017,0.375776 -4.95,-0.003 -6.84892,-0.17464 -4.21983,-0.381317 z M 117.65499,27.171259 C 115.73135,25.045665 115.28538,11.203806 117.03518,7.9342585 118.27898,5.6101994 135.59779,4.997794 137.8,7.2 c 2.20221,2.202206 1.5898,19.521018 -0.73426,20.764816 -3.50547,1.87607 -17.51303,1.303408 -19.41075,-0.793557 z m 33.62518,1.092469 c 2.6291,-0.206676 6.6791,-0.204183 9,0.0055 2.32091,0.209724 0.16983,0.378823 -4.78017,0.375776 -4.95,-0.003 -6.84892,-0.17464 -4.21983,-0.381317 z m 54.96983,0.0012 c 2.6125,-0.205999 6.8875,-0.205999 9.5,0 2.6125,0.205998 0.475,0.374543 -4.75,0.374543 -5.225,0 -7.3625,-0.168545 -4.75,-0.374543 z m 23.40208,-0.530095 c -1.4771,-1.080087 -1.68789,-2.725596 -1.44112,-11.25 L 228.5,6.5 l 10.5,0 10.5,0 0.28904,9.984866 c 0.24677,8.524404 0.036,10.169913 -1.44112,11.25 -2.30177,1.683093 -16.39407,1.683093 -18.69584,0 z M 12.776433,27.266503 c 2.352038,-0.211245 5.952038,-0.208273 8,0.0066 C 22.824395,27.487985 20.9,27.660822 16.5,27.65719 12.1,27.65359 10.424395,27.477749 12.776433,27.266503 z m 354.923017,0.09961 C 366.4647,26.131368 366.9024,8.4976032 368.2,7.2 c 1.78047,-1.7804667 18.2112,-1.6143921 19.71641,0.1992849 0.74951,0.9031037 1.05888,4.7150131 0.87245,10.7500001 L 388.5,27.5 378.44945,27.782781 c -5.52781,0.15553 -10.36531,-0.03197 -10.75,-0.416667 z M 62.701526,26.368192 C 61.476784,25.14345 61.906156,9.4938437 63.2,8.2 64.964074,6.4359256 79.424512,6.6016536 80.919564,8.4030801 81.658072,9.2929282 81.977203,12.859376 81.792008,18.15308 L 81.5,26.5 72.451526,26.784859 c -4.976661,0.156672 -9.364161,-0.03083 -9.75,-0.416667 z M 313.2,25.8 c -1.60327,-1.603265 -1.60327,-15.9967346 0,-17.6 1.61252,-1.6125197 16.98748,-1.6125197 18.6,0 0.72281,0.722807 1.2,4.222222 1.2,8.8 0,4.577778 -0.47719,8.077193 -1.2,8.8 -1.61252,1.61252 -16.98748,1.61252 -18.6,0 z M 222.3605,17 c 0,-5.225 0.16854,-7.3625 0.37454,-4.75 0.206,2.6125 0.206,6.8875 0,9.5 -0.206,2.6125 -0.37454,0.475 -0.37454,-4.75 z m 124.3672,8.278268 c 1.77523,-0.220912 4.92523,-0.224542 7,-0.0081 2.07476,0.216475 0.6223,0.397221 -3.2277,0.401658 -3.85,0.0044 -5.54754,-0.17268 -3.7723,-0.393592 z M 398.65306,25.25 c -0.25574,-0.4125 1.8552,-0.620058 4.69098,-0.461239 8.52403,0.47739 9.56315,0.930587 2.46498,1.075057 -3.68004,0.0749 -6.90023,-0.201318 -7.15596,-0.613818 z M 26.349414,17 c 0,-4.675 0.172256,-6.5875 0.382791,-4.25 0.210535,2.3375 0.210535,6.1625 0,8.5 -0.210535,2.3375 -0.382791,0.425 -0.382791,-4.25 z m 66.084652,6.688774 C 92.13871,22.919089 92.032717,19.411743 92.198527,15.894673 L 92.5,9.5 l 7.5,0 7.5,0 0,7.5 0,7.5 -7.26446,0.294101 c -5.507795,0.222983 -7.394321,-0.0443 -7.801474,-1.105327 z M 199.34281,17.5 c 0.004,-4.4 0.17944,-6.075605 0.39069,-3.723567 0.21124,2.352038 0.20827,5.952038 -0.007,8 C 199.51202,23.824395 199.33918,21.9 199.34281,17.5 z m 158.98533,0 c 0.004,-3.85 0.18518,-5.302463 0.40166,-3.227696 0.21647,2.074768 0.21284,5.224768 -0.008,7 C 358.50082,23.047537 358.3237,21.35 358.32814,17.5 z M 397.32007,17 c 0,-3.575 0.1815,-5.0375 0.40333,-3.25 0.22182,1.7875 0.22182,4.7125 0,6.5 -0.22183,1.7875 -0.40333,0.325 -0.40333,-3.25 z m 16.9898,0.5 c 0.006,-3.3 0.1923,-4.529441 0.41486,-2.732091 0.22256,1.79735 0.21797,4.49735 -0.0102,6 C 414.48635,22.270559 414.30426,20.8 414.30987,17.5 z M 151.77643,5.2665034 c 2.35204,-0.2112452 5.95204,-0.2082734 8,0.0066 2.04796,0.2148774 0.12357,0.3877144 -4.27643,0.3840822 -4.4,-0.00363 -6.07561,-0.1794411 -3.72357,-0.3906863 z m 56,0 c 2.35204,-0.2112452 5.95204,-0.2082734 8,0.0066 2.04796,0.2148774 0.12357,0.3877144 -4.27643,0.3840822 -4.4,-0.00363 -6.07561,-0.1794411 -3.72357,-0.3906863 z"
       id="path3053"
       inkscape:connector-curvature="0" />
    <path
       style="fill:#286878"
       d="M 145.57143,194.42857 C 144.39357,193.25071 144,190.76407 144,184.5 c 0,-10.97291 0.52709,-11.5 11.5,-11.5 6.26407,0 8.75071,0.39357 9.92857,1.57143 2.24171,2.24171 2.24171,17.61543 0,19.85714 C 164.25071,195.60643 161.76407,196 155.5,196 c -6.26407,0 -8.75071,-0.39357 -9.92857,-1.57143 z M 201.75,194.9199 c -2.74495,-1.59878 -2.58788,-19.40111 0.18426,-20.88472 2.71982,-1.4556 17.37334,-1.32758 18.86574,0.16482 0.75751,0.75751 1.2,4.55556 1.2,10.3 0,5.74444 -0.44249,9.54249 -1.2,10.3 -1.48093,1.48093 -16.55041,1.57578 -19.05,0.1199 z m 82.90499,-0.74864 C 283.40473,192.78974 283,190.38215 283,184.32625 283,173.83816 283.84321,173 294.39448,173 305.80922,173 306,173.18904 306,184.5 c 0,11.33077 -0.17334,11.5 -11.77927,11.5 -6.39382,0 -8.22811,-0.35067 -9.56574,-1.82874 z M 340.75,194.9199 c -2.74495,-1.59878 -2.58788,-19.40111 0.18426,-20.88472 3.50547,-1.87607 17.51303,-1.3034 19.41075,0.79356 2.26261,2.50015 2.33138,15.76056 0.0983,18.94875 -1.72518,2.46304 -16.00382,3.29134 -19.6933,1.14241 z M 8.5714286,192.42857 c -2.1875143,-2.18751 -2.1875143,-13.66963 0,-15.85714 2.1875144,-2.18752 13.6696284,-2.18752 15.8571424,0 2.187515,2.18751 2.187515,13.66963 0,15.85714 C 23.329588,193.52755 20.945887,194 16.5,194 12.054113,194 9.670412,193.52755 8.5714286,192.42857 z M 371.2,191.8 c -1.56636,-1.56636 -1.56636,-13.03364 0,-14.6 1.24463,-1.24463 10.44454,-1.65737 13.21821,-0.59301 1.24211,0.47664 1.58179,2.1716 1.58179,7.89301 0,5.72141 -0.33968,7.41637 -1.58179,7.89301 -2.77367,1.06436 -11.97358,0.65162 -13.21821,-0.59301 z m -309,-25 C 59.997794,164.59779 60.610199,147.27898 62.934259,146.03518 65.65408,144.57958 80.307596,144.7076 81.8,146.2 c 1.627964,1.62796 1.627964,18.97204 0,20.6 -0.747287,0.74729 -4.444444,1.2 -9.8,1.2 -5.355556,0 -9.052713,-0.45271 -9.8,-1.2 z m 222.37143,-0.37143 c -2.42659,-2.42659 -2.23015,-17.52246 0.25731,-19.77358 2.55267,-2.31013 17.31034,-2.37305 19.59983,-0.0836 1.96944,1.96944 2.26985,18.33015 0.37143,20.22857 -1.89842,1.89842 -18.25913,1.59801 -20.22857,-0.37143 z M 396.2,166.8 C 395.43936,166.03936 395,162.20782 395,156.33518 395,145.2846 395.27618,145 406,145 c 10.72382,0 11,0.2846 11,11.33518 C 417,167.88862 416.89497,168 406,168 c -5.35556,0 -9.05271,-0.45271 -9.8,-1.2 z M 204.24021,163.84021 C 202.63594,162.23594 202.60452,150.79548 204.2,149.2 c 1.35091,-1.35091 11.60193,-1.6122 13.59708,-0.34657 0.91941,0.58322 1.21058,2.98089 1,8.23468 L 218.5,164.5 l -6.50979,0.29021 c -4.20269,0.18737 -6.94932,-0.14932 -7.75,-0.95 z M 6.2,138.8 c -2.0834507,-2.08345 -1.5821843,-18.14415 0.6287407,-20.14501 2.5001484,-2.26261 15.7605583,-2.33138 18.9487533,-0.0983 2.480726,1.73757 3.319799,15.52447 1.187322,19.50904 C 25.721018,140.3898 8.402206,141.00221 6.2,138.8 z m 84,0 C 89.439363,138.03936 89,134.20782 89,128.33518 89,117.2846 89.276181,117 100,117 c 10.72382,0 11,0.2846 11,11.33518 C 111,139.88862 110.89497,140 100,140 c -5.355556,0 -9.052713,-0.45271 -9.8,-1.2 z m 167.05,0.53772 C 256.36836,138.98197 256,135.92136 256,128.95185 256,117.20237 256.18625,117 267,117 c 10.72382,0 11,0.2846 11,11.33518 0,5.87264 -0.43936,9.70418 -1.2,10.46482 -1.18478,1.18478 -16.87678,1.61639 -19.55,0.53772 z m -138.04135,-1.1876 c -0.93539,-0.59344 -1.21103,-3.27675 -1,-9.73469 L 118.5,119.5 l 8.91543,-0.29135 c 6.45794,-0.21103 9.14125,0.0646 9.73469,1 1.29706,2.04449 1.0148,16.22643 -0.35012,17.59135 -1.36492,1.36492 -15.54686,1.64718 -17.59135,0.35012 z m 109.87494,-27.5494 c -0.74951,-0.90311 -1.05888,-4.71502 -0.87245,-10.750005 L 228.5,90.5 l 10.5,0 10.5,0 0.28886,9.350715 C 250.16086,111.89296 250.06581,112 239,112 c -6.2823,0 -9.08311,-0.39522 -9.91641,-1.39928 z M 340.2,110.8 c -1.62069,-1.62069 -1.62069,-17.979307 0,-19.6 0.76064,-0.760637 4.59218,-1.2 10.46482,-1.2 C 361.7154,90 362,90.276181 362,101 c 0,10.72382 -0.2846,11 -11.33518,11 -5.87264,0 -9.70418,-0.43936 -10.46482,-1.2 z m 83.22877,-0.12502 c -0.27965,-0.72876 -0.37802,-5.56626 -0.21861,-10.749997 L 423.5,90.5 l 9.91736,-0.288231 c 7.26032,-0.211008 10.13633,0.05691 10.73468,1 1.30822,2.061943 1.01786,18.218331 -0.35204,19.588231 -1.75199,1.75199 -19.6932,1.64189 -20.37123,-0.12502 z M 174.2355,109.8355 c -1.79743,-1.79743 -1.66114,-16.237359 0.16758,-17.755064 0.88985,-0.738508 4.4563,-1.057639 9.75,-0.872444 L 192.5,91.5 l 0,9.5 0,9.5 -8.5145,0.2855 c -5.76634,0.19335 -8.91328,-0.11328 -9.75,-0.95 z M 36.237784,108.83778 c -1.393829,-1.39383 -1.694201,-13.570028 -0.385642,-15.632782 0.587109,-0.92549 3.079431,-1.210826 8.734687,-1 L 52.5,92.5 l 0,8.5 0,8.5 -7.512216,0.28778 c -4.984653,0.19096 -7.928682,-0.12868 -8.75,-0.95 z m 277.819366,-0.731 c -1.58912,-2.96929 -1.34069,-13.626571 0.35035,-15.030012 0.87267,-0.72425 4.19756,-1.055768 8.75,-0.872445 L 330.5,92.5 l 0,8.5 0,8.5 -7.69285,0.29104 c -6.80544,0.25746 -7.81481,0.0632 -8.75,-1.68426 z m 84.14785,1.04108 c -0.92549,-0.58711 -1.21083,-3.07943 -1,-8.73469 L 397.5,92.5 l 8.5,0 8.5,0 0.295,7.91317 c 0.21083,5.65526 -0.0745,8.14758 -1,8.73469 -1.68218,1.06713 -13.90782,1.06713 -15.59,0 z M 284.03518,82.065741 C 283.46583,81.001899 283,76.922316 283,73 c 0,-10.723819 0.2846,-11 11.33518,-11 5.87264,0 9.70418,0.439363 10.46482,1.2 1.62069,1.620693 1.62069,17.979307 0,19.6 -2.20221,2.202206 -19.52102,1.589801 -20.76482,-0.734259 z m 84.19822,0.767656 c -1.81176,-1.811758 -1.67392,-18.222912 0.16588,-19.749811 0.90311,-0.749509 4.71502,-1.058875 10.75,-0.872445 L 388.5,62.5 l 0,10.5 0,10.5 -9.5166,0.283397 c -6.54769,0.194985 -9.90139,-0.101389 -10.75,-0.95 z M 148.2,79.8 C 146.95537,78.555369 146.54263,69.355458 147.60699,66.581787 148.08363,65.339676 149.77859,65 155.5,65 c 8.27346,0 8.5,0.213219 8.5,8 0,7.702907 -0.29364,8 -7.90699,8 -3.87234,0 -7.19873,-0.505722 -7.89301,-1.2 z M 61.699448,55.366114 c -1.394076,-1.394076 -0.784857,-19.050341 0.699837,-20.282528 0.903104,-0.749509 4.715013,-1.058875 10.75,-0.872445 L 82.5,34.5 l 0,10.5 0,10.5 -10.050552,0.282781 c -5.527804,0.15553 -10.365304,-0.03197 -10.75,-0.416667 z M 117.03518,54.065741 C 116.46583,53.001899 116,48.922316 116,45 116,34.276181 116.2846,34 127.33518,34 138.88862,34 139,34.105031 139,45 c 0,10.894969 -0.11138,11 -11.66482,11 -8.13639,0 -9.39089,-0.235585 -10.3,-1.934259 z m 111.66427,1.300373 C 227.4647,54.131368 227.9024,36.497603 229.2,35.2 c 1.78047,-1.780467 18.2112,-1.614392 19.71641,0.199285 0.74951,0.903104 1.05888,4.715013 0.87245,10.75 L 249.5,55.5 239.44945,55.782781 c -5.52781,0.15553 -10.36531,-0.03197 -10.75,-0.416667 z M 340.2,54.8 c -1.62069,-1.620693 -1.62069,-17.979307 0,-19.6 0.76064,-0.760637 4.59218,-1.2 10.46482,-1.2 C 361.7154,34 362,34.276181 362,45 c 0,10.723819 -0.2846,11 -11.33518,11 -5.87264,0 -9.70418,-0.439363 -10.46482,-1.2 z m -195,-28 C 143.7076,25.307596 143.57958,10.65408 145.03518,7.9342585 145.94429,6.2355854 147.19879,6 155.33518,6 166.88862,6 167,6.1050312 167,17 c 0,5.355556 -0.45271,9.052713 -1.2,9.8 -1.62796,1.627964 -18.97204,1.627964 -20.6,0 z m 55.41991,-0.348128 C 199.48617,23.497397 199.93925,8.4607508 201.2,7.2 c 1.3699,-1.3698996 17.52629,-1.6602645 19.58823,-0.3520424 0.94309,0.5983546 1.21101,3.4743634 1,10.7346874 L 221.5,27.5 211.36991,27.783659 c -8.57386,0.240082 -10.22533,0.03549 -10.75,-1.331787 z M 7.2354981,25.835498 C 5.4380664,24.038066 5.5743582,9.5981407 7.4030801,8.0804364 8.2929282,7.341928 11.859376,7.0227969 17.15308,7.2079917 L 25.5,7.5 l 0,9.5 0,9.5 -8.514502,0.285498 c -5.766334,0.19335 -8.9132751,-0.113275 -9.7499999,-0.95 z M 342.66667,24.333333 c -0.95186,-0.951852 -0.79705,-12.579517 0.18816,-14.132681 0.57872,-0.9123484 2.88243,-1.21019 7.73469,-1.0000002 L 357.5,9.5 l 0.29206,7.75 0.29207,7.75 -7.3754,0 c -4.05647,0 -7.6754,-0.3 -8.04206,-0.666667 z m 55.7674,-0.644559 c -0.29536,-0.769685 -0.40135,-4.277031 -0.23554,-7.794101 L 398.5,9.5 l 7.5,0 7.5,0 0,7.5 0,7.5 -7.26446,0.294101 c -5.50779,0.222983 -7.39432,-0.0443 -7.80147,-1.105327 z"
       id="path3051"
       inkscape:connector-curvature="0" />
  </g>
</svg>
