<?xml version="1.0" encoding="UTF-8" standalone="no"?>
<!-- Created with Inkscape (http://www.inkscape.org/) -->

<svg
   xmlns:dc="http://purl.org/dc/elements/1.1/"
   xmlns:cc="http://creativecommons.org/ns#"
   xmlns:rdf="http://www.w3.org/1999/02/22-rdf-syntax-ns#"
   xmlns:svg="http://www.w3.org/2000/svg"
   xmlns="http://www.w3.org/2000/svg"
   xmlns:sodipodi="http://sodipodi.sourceforge.net/DTD/sodipodi-0.dtd"
   xmlns:inkscape="http://www.inkscape.org/namespaces/inkscape"
   id="svg4424"
   version="1.1"
   inkscape:version="0.48.4 r9939"
   width="190"
   height="190"
   sodipodi:docname="bg2.svg">
  <metadata
     id="metadata4430">
    <rdf:RDF>
      <cc:Work
         rdf:about="">
        <dc:format>image/svg+xml</dc:format>
        <dc:type
           rdf:resource="http://purl.org/dc/dcmitype/StillImage" />
        <dc:title></dc:title>
      </cc:Work>
    </rdf:RDF>
  </metadata>
  <defs
     id="defs4428" />
  <sodipodi:namedview
     pagecolor="#ffffff"
     bordercolor="#666666"
     borderopacity="1"
     objecttolerance="10"
     gridtolerance="10"
     guidetolerance="10"
     inkscape:pageopacity="0"
     inkscape:pageshadow="2"
     inkscape:window-width="1333"
     inkscape:window-height="742"
     id="namedview4426"
     showgrid="false"
     inkscape:zoom="2.8284271"
     inkscape:cx="69.989592"
     inkscape:cy="88.085786"
     inkscape:window-x="33"
     inkscape:window-y="0"
     inkscape:window-maximized="1"
     inkscape:current-layer="svg4424" />
  <path
     id="path4434"
     style="fill:#ff7997"
     d="m 4.6817809,189.92392 c -5.04271045,0.24667 2.9383137,-1.83448 4.3116808,-2.7346 -0.1954173,-0.86761 -9.75836508,3.19244 -8.63950055,1.04698 C 5.14699,185.0089 12.72089,185.50018 18.290445,183.01002 c 9.993029,-3.33562 -5.513799,0.0788 -9.4478467,1.15236 -2.5228139,1.2513 -7.95376133,0.80809 -8.81399665,0.23172 9.68731805,-1.88703 19.42851135,-3.57142 28.64551935,-7.22752 9.184902,-2.54973 17.608938,-7.14616 25.90609,-11.69654 7.179602,-5.7274 15.350385,-10.38561 20.89363,-17.87818 5.13112,-5.55901 7.342259,-13.10343 11.146035,-19.56496 1.542735,-3.54581 8.356582,-15.358 6.457497,-14.09638 -9.262851,11.3646 -17.03599,23.99534 -27.755592,34.1045 -5.472898,5.80778 -10.899294,11.66796 -17.61096,16.07972 -6.35545,5.42972 -14.361321,8.31346 -21.733944,12.02724 C 17.436497,178.37301 8.7997564,180.3015 0,181.14391 c -0.52311111,-3.77105 5.4220856,-1.96035 7.916499,-3.12746 6.436478,-0.93473 -7.40487992,-0.67943 -7.94932329,-2.98272 3.88527389,-1.58058 9.23974649,0.9017 13.69990929,0.7477 6.37454,-0.94676 12.79334,-1.73184 18.620765,-4.67718 7.047038,-2.83835 12.829294,-8.10204 19.334285,-11.97982 5.696766,-5.70663 12.742671,-10.45217 16.668883,-17.62443 -10.093867,8.97407 -23.65951,11.90459 -35.48531,17.68815 -8.348388,5.08386 -16.938899,10.50021 -26.8777284,11.44997 -2.0506774,0.94306 -9.0173097,1.36188 -4.3387087,-0.71153 6.1106147,-1.16758 12.4014411,-1.78528 17.7785931,-5.19089 5.526717,-2.06635 10.132805,-5.56747 14.459547,-9.50394 7.53311,-5.6934 12.56417,-13.93467 18.605996,-21.05768 1.24955,-2.68608 -6.128858,4.41406 -8.125144,5.09319 -9.288871,6.06244 -19.15084,11.27953 -29.841207,14.34932 -2.698749,0.31248 -16.967741,7.28499 -13.4280228,2.23733 14.4133878,-3.90672 28.8837378,-9.03693 41.1569728,-17.64993 -13.599789,5.34847 -28.257352,6.20596 -42.696006,6.91099 3.9848863,-3.28639 9.5065604,-1.72583 14.272518,-2.54875 8.068887,-0.0987 16.001185,-2.0437 23.700494,-4.21123 5.390756,-2.83816 11.326933,-4.89047 16.388547,-8.20286 4.21281,-4.06902 8.425625,-8.13804 12.638441,-12.20705 -7.007142,4.08475 -13.925231,8.3612 -21.795808,10.58717 -12.869357,4.92285 -26.655458,6.82318 -39.9117337,10.44979 -8.8562109,2.53162 -1.5584516,-2.42561 2.5139009,-2.28963 21.6259458,-5.03192 44.1688478,-9.82477 61.9927348,-23.95541 4.029888,-2.77907 8.739934,-6.60647 1.833531,-2.72886 -19.110085,9.53333 -40.221462,13.80364 -60.215988,20.91658 -3.6823528,1.66965 -7.3647018,3.33931 -11.04705099,5.00897 -0.59574889,-4.19131 2.79775889,-5.23414 6.12119439,-6.33229 C 28.557463,121.03047 49.504041,108.7268 69,94.582509 57.695562,98.887898 46.9213,104.54155 35.264482,107.94335 23.507204,112.02572 11.688365,115.93922 0,120.21398 -0.49549227,116.5119 5.2261487,117.20528 7.6236754,115.54854 22.317654,110.07741 37.402352,105.56316 51.932399,99.700902 61.844989,94.788213 72.26659,90.77859 81.191923,84.11435 94.448304,75.456951 106.63051,65.298699 118.5,54.854161 103.57408,64.852439 88.255291,74.537934 71.040675,80.12364 54.990398,86.205623 38.273671,90.379848 22.044278,95.843036 14.346174,99.260617 6.7898306,103.07423 0,108.09608 0.05688186,103.22446 7.9018218,102.70604 10.646366,99.294813 15.195164,96.592591 5.8792577,100.56112 4.289738,100.80398 -3.3166468,103.58484 0.96468247,95.423331 5.4785384,94.360743 17.336891,87.115332 29.341721,79.91548 41.970503,74.093006 53.752064,68.954786 65.44833,63.593176 77.824159,60.011366 84.402848,57.76386 91.085654,55.759895 97.5,53.079798 92.004079,54.203497 86.748269,56.375479 81.03218,55.796701 71.177528,55.61546 61.417149,56.673457 51.689484,58.161474 32.589982,60.542575 14.129987,69.064811 0.50707563,82.787314 -1.4597557,81.982103 1.0799809,77.26797 3.8998583,76.54031 16.515653,66.826584 31.207057,59.997214 46.884375,57.079603 53.938731,55.518722 52.212457,54.699162 46.570035,55.08805 34.602387,55.250127 22.37377,57.389406 11.412129,62.18189 8.5060847,63.688776 0.10917416,69.878362 0.89211293,67.066678 2.9079526,65.596364 -2.6687426,65.047388 2.9330673,63.700254 18.74706,56.962626 35.218648,51.801016 51.592578,46.618008 70.782029,41.729539 90.846919,37.94737 107.76193,27.193094 c 5.22078,-4.264499 10.93776,-8.875506 13.75014,-15.068493 1.24813,-4.1092178 2.49627,-8.218433 3.74441,-12.32764789 2.38293,5.13031069 0.57176,-1.48225761 5.03259,0.24093715 4.94449,-0.57796079 -2.27203,2.80198124 -3.37672,4.19276824 C 122.73134,11.818623 119.96129,21.082178 112.03767,25.602799 102.23614,33.23665 90.444395,37.353505 79,41.726956 c 0.387951,1.201579 6.193791,-0.146241 8.652989,0.08071 8.098732,-0.699668 16.467311,0.175474 24.152681,-2.936533 6.32312,-1.325015 8.13328,-8.994828 11.48017,-13.704678 3.57863,-6.0548 5.85704,-13.068481 11.55393,-17.5692794 3.68518,-2.515838 6.8683,-7.54545119 11.59937,-7.59217701 0.10522,1.35678091 -9.2212,6.00610271 -11.53489,9.58890321 -6.32156,4.9961732 -8.38832,13.2443572 -12.77642,19.7248402 -0.42357,1.908038 -7.19592,10.40698 -2.19881,6.669084 C 137.33964,25.165225 154.43899,13.7004 172.29131,3.6605562 176.97984,2.1965211 181.41676,-0.78884718 186.5,0.13379147 169.59171,5.0962111 155.39089,15.974202 140.41236,24.875227 c -6.98017,6.929601 -13.96033,13.859204 -20.94049,20.788809 8.82431,-2.843176 18.94613,-4.575444 24.99133,-12.22186 6.52728,-6.228495 12.51662,-13.116601 19.38699,-18.924393 6.64858,-4.21093 12.82954,-9.3160715 20.47749,-11.6243958 11.33434,-3.9087365 -3.83875,3.5503305 -8.14887,5.6227596 -8.48499,3.7715532 -14.91233,10.8572812 -21.92667,16.7475752 -2.81961,2.616726 -14.26076,13.390813 -4.04809,7.637976 6.55211,-2.740135 12.59861,-6.330607 18.07442,-10.853528 C 175.45127,16.922124 182.26913,11.199623 190,6.9296325 184.33154,13.999006 174.39615,17.960329 167.59295,24.47876 c 0.45539,2.650227 13.76772,-3.0325 19.22068,-3.125536 5.5944,-1.557326 2.3424,2.859419 -1.57637,2.252655 -3.24576,0.631188 -6.49152,1.262375 -9.73728,1.893563 5,0.333519 10,0.667039 15,1.000558 -8.65376,1.001318 -17.4559,1.322412 -26.01853,2.741546 -4.51557,1.212487 -12.04706,4.822103 -2.50684,2.763265 9.27412,-1.817283 18.72663,-0.720119 28.02539,0.280102 -0.0845,3.077074 -5.70489,0.40092 -8.08058,1.096858 -7.85824,3.11e-4 -15.86689,-1.662241 -23.49518,0.880435 -5.59217,0.906047 -10.90961,2.584996 -15.77993,5.521837 -5.46087,2.852383 -11.48358,4.908584 -15.45061,9.877904 -5.05755,4.854364 -10.11511,9.708723 -15.17266,14.563083 2.86671,2.651807 -2.12386,4.512819 -3.34886,6.752823 4.65024,-2.870919 10.19618,-6.883057 15.32946,-9.923255 7.70323,-3.241659 15.51509,-6.140173 23.75364,-7.690872 C 161.88959,50.140252 175.86351,46.096068 189.71425,42 c 1.85966,3.169667 -2.82556,4.821417 -5.02815,6.591942 -12.83051,9.596834 -27.03687,17.050775 -41.92492,22.909356 -8.37451,2.88551 -15.37105,8.448257 -22.64238,13.311919 -5.52047,5.914184 -11.90966,11.118987 -16.87599,17.485663 -9.142696,13.27638 -16.04374,27.88988 -23.375658,42.20112 11.840381,-11.59572 20.392058,-25.85357 29.286208,-39.70666 7.306,-7.019118 13.35117,-15.499103 22.0355,-20.921209 6.48824,-4.845143 13.13599,-9.426651 20.58379,-12.685811 9.78465,-5.205589 20.02742,-9.695519 29.52311,-15.352519 2.90141,-2.293436 5.80283,-4.586872 8.70424,-6.880308 0.11649,3.179819 0.68148,6.620908 -3.29331,7.417424 -8.5858,5.617053 -16.86547,11.992447 -23.11159,20.216817 -4.63654,5.40671 -8.97126,11.06249 -13.03189,16.912266 11.84192,-11.086695 24.9051,-20.930583 39.3123,-28.447182 0.38595,3.460152 -1.0701,5.99322 -4.02293,7.77294 -9.36886,9.160795 -16.90991,19.997007 -26.2774,29.174242 7.74353,-2.275135 13.98868,-8.422999 20.35891,-13.307949 3.41039,-2.916209 6.70944,-5.959494 10.06591,-8.937189 0.97243,3.545564 -1.76936,5.624279 -3.98672,7.910104 -4.56429,4.490406 -0.003,0.774867 2.5414,-1.126811 4.7016,-0.05876 -4.78913,4.877604 -5.65424,6.675692 -5.98731,5.434627 -11.77025,11.126383 -15.6249,18.316233 -1.69081,2.94259 -7.45871,11.80159 -6.86117,12.20374 9.10194,-9.48204 18.88914,-18.31334 29.58563,-25.971198 0.81815,3.694158 -0.64689,6.003908 -4.30432,6.984288 -5.02488,2.04926 -9.11636,5.41974 -12.85704,9.28678 -5.94354,5.30227 -11.75578,10.72491 -16.2582,17.34821 -9.47176,12.38452 -17.97259,25.86907 -23.12369,40.6181 3.05098,-2.71985 4.11037,-9.72377 7.61989,-8.78115 6.13694,-5.694 12.00245,-11.73652 19.42411,-15.78089 9.31987,-6.03145 19.21254,-11.16567 29.5,-15.33591 1.25853,3.95681 -2.28459,5.09736 -5.17579,6.62029 -3.57694,1.79512 -11.93262,6.89744 -3.04536,3.18795 5.18646,-3.75112 12.11413,-2.12909 3.65404,0.24554 -4.34172,1.19912 -11.84957,4.85458 -2.94843,2.62399 1.64369,-1.25466 9.76297,-0.61101 6.44362,0.23993 -7.56239,2.32588 -16.00282,2.58545 -22.46452,7.56541 -5.58669,3.73795 -17.1451,11.40498 -17.79161,14.96918 12.66051,-6.49987 26.86219,-8.56302 40.60882,-11.6069 -0.0963,4.18654 -11.06785,3.30011 -15.43866,5.149 -7.58814,1.08007 -14.78228,3.53146 -21.84621,6.43603 -5.15626,2.63906 -10.11761,6.01429 -14.73361,9.49703 -3.42172,4.25669 -8.59509,7.78042 -10.26304,12.9705 -5.51375,1.69514 3.62704,-11.14674 -1.65765,-5.64152 -2.88402,2.0088 -4.73397,6.60376 -8.80596,5.64152 -5.78404,0.78083 0.93593,-2.20393 2.7018,-3.69676 4.65652,-2.61825 7.98208,-7.14146 10.67004,-11.63387 5.14451,-9.92683 9.56281,-20.28253 15.16365,-29.93988 4.56548,-6.68349 9.49838,-13.20242 12.92812,-20.56365 -8.2333,6.45286 -14.41834,15.32316 -19.67546,24.28077 -4.32837,8.61165 -7.9768,17.67745 -12.73344,26.00305 -5.13614,5.7527 -10.78853,11.67269 -17.3098,15.55034 -5.28714,0.66121 1.97928,-2.79999 3.39323,-4.33932 5.5843,-3.47327 9.92294,-8.53281 13.66966,-13.83015 5.71194,-11.30692 11.08472,-22.84735 17.00787,-34.00884 4.71599,-5.10043 9.43197,-10.20086 14.14794,-15.3013 -10.35765,8.85569 -20.47549,18.26485 -29.03314,28.82425 -4.66883,8.74896 -8.60691,17.96465 -13.72823,26.4246 -3.94562,4.47028 -7.23167,10.82302 -13.33676,12.2308 4.91593,-5.59392 11.38777,-10.07412 14.08233,-17.2581 4.14185,-7.83993 7.91529,-15.94826 12.28403,-23.62289 10.71235,-10.78079 21.61458,-21.38013 32.12377,-32.35725 -13.63428,11.89493 -29.12076,21.79921 -41.82145,34.69664 -4.51947,5.96765 -9.37863,11.72632 -12.13008,18.78165 -3.45792,6.50347 -6.020468,13.74198 -10.999623,19.21556 -4.044906,1.65833 1.964461,-4.54106 2.622402,-6.4484 5.725851,-7.7873 7.248921,-17.67864 11.771521,-26.12761 11.2812,-26.87421 30.20376,-49.31505 47.11712,-72.708052 3.53777,-4.618238 7.2442,-9.103062 10.88483,-13.639739 -17.42432,14.326988 -31.76962,31.996561 -45.51269,49.771271 -11.14518,13.98054 -16.06708,31.28331 -20.42151,48.28558 -1.520809,4.31977 -4.091022,8.47203 -6.920089,12.05517 -3.351374,2.98756 -6.276106,7.0048 -9.891101,9.35613 -5.544132,0.86087 0.809946,-2.56351 2.330887,-4.28815 4.33369,-3.5152 8.159849,-7.78389 9.002048,-13.45532 2.663908,-7.49214 -0.595669,-15.8159 2.493748,-23.28726 3.132037,-12.36454 -3.656234,4.59635 -5.477315,8.80813 -2.927107,7.21887 -5.815692,14.49958 -11.014714,20.45049 -3.114732,4.13909 -6.656092,7.92196 -10.111323,11.77211 -4.560635,0.34983 3.156557,-4.53138 4.091858,-6.59223 6.128236,-7.29413 12.168922,-15.02644 14.974437,-24.26333 5.719523,-14.63413 8.889649,-30.23019 15.058224,-44.64444 -0.42623,6.95439 4.20621,-5.75936 6.93321,-6.67106 11.58785,-11.983756 25.95516,-20.803711 38.57136,-31.644474 1.66154,-1.710062 12.24335,-8.735594 4.66045,-4.620663 -9.73333,4.80935 -19.2658,10.381221 -27.76772,17.117221 -5.43424,5.491735 -11.61848,10.417734 -16.58512,16.262176 -1.72881,3.30198 -3.45762,6.60397 -5.18643,9.90595 -2.97944,-2.30732 -3.3241,4.48158 -5.10801,6.3017 -6.215465,12.33757 -11.786534,25.04401 -18.414849,37.14525 -6.254508,9.98998 -13.579119,19.22291 -20.88324,28.43497 0.855619,4.21791 -7.280431,3.95473 -6.410888,2.50908 6.603862,-6.47724 13.162102,-13.0521 18.647267,-20.52695 -12.354892,9.82263 -26.505307,17.86668 -42.430049,19.79433 -2.183922,0.52971 -18.173677,2.77856 -11.926409,0.49885 7.015029,-2.81155 14.12073,-6.3961 19.291568,-12.02883 -10.429251,4.84535 -21.045606,9.67382 -32.0055356,13.00366 -0.5476678,-0.0191 -1.0953357,-0.0382 -1.6430035,-0.0573 z M 11,187 c 4.802151,-0.83979 -4.8691305,-1.37049 0,0 z m 17.590037,-0.004 c 19.007675,-2.25352 36.554305,-11.9825 49.68469,-25.66255 2.122336,-4.20879 5.482426,-8.73025 6.449507,-12.83513 -15.918682,11.96317 -34.026964,20.74988 -49.755484,33.04757 -0.0876,1.30161 -12.081132,6.14508 -6.378713,5.45011 z M 135.42187,175.82972 c 7.13319,-9.21475 17.0464,-15.66729 25.79997,-23.20155 5.04097,-4.45862 15.2896,-10.52725 17.83817,-13.3582 -10.18198,4.6004 -19.84921,10.57299 -28.71133,17.32233 -5.68533,6.11152 -12.75668,11.10289 -16.71593,18.6094 -2.43765,3.39497 -5.26031,9.01322 -0.31609,3.03654 l 1.01607,-1.14952 1.08914,-1.25874 0,-2.6e-4 z M 26,180.42679 c 5.491658,-1.61496 6.621756,-3.50609 0.79375,-1.10905 -1.535545,0.88852 -6.016006,2.72019 -0.79375,1.10905 z M 32.5,178 c 2.014993,-1.34626 -1.946696,-1.17833 0,0 z m 65.120584,-7.4958 c 2.995486,-4.69831 2.761476,-10.86803 4.824836,-16.03569 4.39733,-17.35366 14.2655,-32.61219 25.52113,-46.27956 0.16202,-2.98856 -7.8304,6.60958 -10.87411,9.38991 -4.40977,4.15051 -8.31952,8.68308 -11.00246,14.15302 -3.39558,4.83363 -5.55506,10.21763 -6.993325,15.92275 -2.302819,7.44463 -1.58622,15.46322 -2.563101,23.15989 -0.557447,2.4059 0.232924,0.69039 1.08703,-0.31032 z M 107.75177,161.5 c 6.06011,-7.02189 10.96674,-15.16496 18.73999,-20.48827 10.82212,-9.23346 22.36636,-17.65235 33.12311,-26.92502 7.21442,-7.58134 14.2702,-15.318321 20.8705,-23.44399 -12.42571,10.17579 -27.23603,16.86141 -40.5713,25.59364 -5.44187,5.08788 -10.88373,10.17576 -16.32559,15.26364 5.97358,-8.95153 14.29967,-16.00381 23.49762,-21.44806 5.33397,-3.71883 11.48612,-6.51812 15.11233,-12.156322 7.26194,-8.378002 14.03361,-17.286749 21.60402,-25.330821 1.19596,-1.270217 7.42053,-3.989699 3.81874,-4.54275 -11.03915,6.312952 -22.43379,12.635958 -30.96849,22.242152 -6.46779,6.897895 -13.83052,13.050921 -19.69262,20.452931 -4.4867,6.48886 -8.97339,12.97773 -13.46008,19.4666 1.28377,3.76143 -3.90076,6.24583 -5.13248,9.59639 -4.20524,6.62386 -8.73229,14.66656 -10.61575,21.71988 z M 66,159.46173 c 6.773408,-4.63025 14.655156,-8.05017 19.631829,-14.81958 4.767149,-4.36065 7.16634,-10.48849 9.810579,-16.21312 -7.100714,7.64138 -12.61162,16.82979 -21.134255,23.07583 -1.507392,1.5807 -11.620198,9.46865 -8.308153,7.95687 l 0,0 z m -25,-5.45097 c 13.371244,-5.04246 27.152855,-11.8099 35.591637,-23.73429 8.457527,-16.38371 17.880157,-32.654695 32.200083,-44.68116 1.66814,-1.858627 8.79319,-7.452398 7.76564,-7.317576 C 107.59955,83.48982 98.732481,89.193026 91.009914,96.117483 82.178589,104.93508 72.669376,113.13696 64.279082,122.35514 55.096566,133.95366 46.006093,145.68039 35.5,156.12984 c 1.833333,-0.70636 3.666667,-1.41272 5.5,-2.11908 z M 99.5,138 c 2.01499,-1.34626 -1.946696,-1.17833 0,0 z m 1.80881,-3.32619 c 4.66516,-6.87094 8.36849,-14.52213 14.9357,-19.84058 16.96262,-16.577799 33.6241,-33.551794 51.83127,-48.751553 -16.40707,9.411993 -30.08136,22.907345 -45.68446,33.590326 -5.14975,3.711517 -9.17082,8.846317 -13.43173,13.474237 -3.67102,7.447 -7.95529,15.02628 -8.84198,23.35376 0.39707,-0.60873 0.79413,-1.21746 1.1912,-1.82619 z M 80.30752,127 c 9.531152,-10.40099 17.191876,-22.43586 26.78519,-32.748943 8.64635,-8.333274 17.16661,-16.821632 26.40729,-24.504923 -9.57612,5.77715 -19.12316,11.836512 -26.74753,20.114313 -5.51143,5.275985 -11.259039,10.355863 -15.169745,17.003003 -4.161238,6.45029 -8.411,13.00618 -11.275205,20.13655 z M 30,123 c 4.802154,-0.83979 -4.869133,-1.37049 0,0 z m 4.50205,-1.56408 c 9.866403,-3.23818 20.106254,-5.70807 29.589401,-9.95704 9.437406,-4.67559 18.762563,-10.04722 26.490499,-17.230263 -17.834987,8.136083 -34.981673,17.847213 -53.27047,25.050593 -1.347869,0.62266 -8.638846,3.53797 -2.80943,2.13671 z M 37.5,118 c 2.014993,-1.34626 -1.946696,-1.17833 0,0 z M 41,116.08487 C 51.975707,111.18392 63.194541,106.6034 73.784534,100.9361 84.278896,94.232841 94.815654,86.857133 101.60434,76.202928 104.4587,72.402124 113.24606,61.198317 104.16566,69.082806 85.255128,84.570247 66.082805,99.805274 45.190134,112.57709 43.983428,113.68016 34.980853,118.51933 41,116.08487 z M 2.3933999,99.560332 C 12.337606,96.298645 22.624496,93.876943 32.441148,90.329625 50.453125,80.44954 66.819882,67.534506 86.195153,60.22465 87.885235,58.348324 76.45681,62.881078 73.065486,63.809152 53.249246,70.04084 34.937389,80.014037 16.599161,89.579663 11.786632,92.889136 6.6084612,95.760278 2.1865421,99.568289 l 0.2068578,-0.008 z M 92,91.396436 C 114.4503,78.186526 136.70778,64.493187 160.10616,53 c 2.84993,-1.453057 -4.51733,-0.376331 -6.14137,0.456016 -14.86136,3.444002 -30.18391,7.690239 -42.38517,17.171861 C 103.88641,78.113602 96.193207,85.599329 88.5,93.085055 89.666667,92.522182 90.833333,91.959309 92,91.396436 z M 42,87.638129 C 65.705202,80.057274 89.979457,72.542428 110.3498,57.727856 113.7332,55.494665 117.1166,53.261474 120.5,51.028283 108.91285,53.421182 97.836521,58.250862 86.522175,61.850988 76.431859,66.523564 65.997602,70.701607 56.869046,77.163094 51.393403,80.780001 45.645566,84.044025 40.5,88.118491 41,87.95837 41.5,87.79825 42,87.638129 z M 118.5,78 c 2.01499,-1.346259 -1.9467,-1.178328 0,0 z m 15.90674,-4.141634 c 15.05257,-7.451705 31.05091,-13.198002 44.71331,-23.216476 3.34408,-2.169726 12.889,-8.25374 3.48972,-4.583535 -14.61409,4.917657 -29.13678,10.860949 -41.76644,19.77834 -4.17986,3.61729 -9.28353,7.378043 -12.71149,10.960758 2.18677,-0.758164 4.21397,-1.901925 6.2749,-2.939087 z M 90,59 c 4.802183,-0.839764 -4.869176,-1.370522 0,0 z m 3,-1 c 4.802183,-0.839764 -4.869176,-1.370522 0,0 z m 3,-1 c 4.80218,-0.839764 -4.869176,-1.370522 0,0 z M 65.900878,54.372957 C 69.804239,53.8432 81.072517,54.249774 81.455088,53.497485 73.422776,51.057269 64.841535,52.517927 56.575073,52.309174 51.201791,52.482712 45.854017,53.047436 40.5,53.5 c 8.453536,0.602256 16.919294,1.25284 25.400878,0.872957 z M 86,53 c 4.802183,-0.839764 -4.869176,-1.370522 0,0 z m 14,0 c 4.80217,-0.83978 -4.869157,-1.370503 0,0 z M 65.749038,51.263759 c 12.357249,-0.167198 24.746925,0.215416 37.002762,-1.67131 6.60393,0.213448 11.92723,-4.00146 17.7482,-6.495451 4.33333,-4.455529 8.66667,-8.911057 13,-13.366585 -11.00405,6.896088 -23.30613,13.230492 -36.615778,12.777024 -10.129017,0.642908 -20.356874,0.661804 -30.424436,1.692697 -8.179839,2.278056 -16.437982,4.330335 -24.460748,7.120824 7.914899,0.149813 15.834148,-0.01146 23.75,-0.0572 z M 104,52 c 4.80221,-0.839746 -4.86921,-1.370549 0,0 z m 10.5,-1 c 2.01499,-1.346259 -1.9467,-1.178328 0,0 z m 40,-17 c 2.01499,-1.346259 -1.9467,-1.178328 0,0 z M 130,189.6697 c -5.28129,1.13342 1.81381,-3.2216 3.00538,-4.95865 3.51306,-3.41978 6.92323,-6.99074 11.73055,-8.50864 5.59816,-3.27219 12.0043,-4.55589 18.38104,-5.15053 8.96145,-0.18397 17.92289,-0.36793 26.88434,-0.55188 0.99451,3.19394 -6.37735,0.7197 -5.98336,1.82995 2.06886,0.37952 8.63031,2.17196 4.92877,3.47764 -10.02988,-1.98439 -20.62563,-4.05351 -30.76819,-2.13461 -5.88393,1.28957 -11.63463,2.92227 -16.73033,6.24196 -4.68735,1.7185 -7.50331,5.91178 -10.9482,9.27335 6.52605,-3.35504 12.60319,-7.86565 20.05477,-8.83818 9.64507,-2.60585 19.84744,-1.19133 29.73426,-1.51304 3.23699,0.0543 6.47398,0.10862 9.71097,0.16293 0.55589,3.91808 -5.53205,1.19233 -8.08657,2 -9.16692,0.18397 -18.42805,-0.36757 -27.53663,0.27177 -7.8547,1.60865 -15.16296,5.09551 -22.41412,8.23761 -0.65422,0.0534 -1.30845,0.10688 -1.96268,0.16032 z m 16,0.24773 c -3.0177,-0.18808 4.86421,-2.2528 6.50263,-3.24255 6.17131,-3.35293 13.35899,-1.73079 20.08789,-2.35435 5.96983,-0.14438 11.93965,-0.28875 17.90948,-0.43313 -3.35183,3.51253 -8.40037,1.61485 -12.70388,2.09281 -6.36554,0.30792 -12.9191,-0.60793 -19.1612,0.50349 -4.1779,1.25076 -8.3015,2.82152 -12.63492,3.43373 z m 40.19098,0.0123 c -7.30047,1.09695 6.46836,-4.45962 3.0256,-0.47114 -0.31753,1.16735 -2.17247,0.20395 -3.0256,0.47114 z M 141.56141,161.5 c -4.42,4.86026 3.86349,-8.13042 5.50201,-9.31501 10.75261,-13.12624 22.17256,-25.71646 33.67483,-38.18194 2.23311,-1.18725 8.3845,-9.39229 9.23087,-6.8827 -0.26113,3.12503 -4.64538,4.13603 -6.6508,6.36672 -6.3174,5.19327 -11.11753,12.03985 -16.81826,17.90509 6.77952,-4.8951 14.16388,-8.84051 21.6645,-12.50399 5.1261,0.89359 -2.31443,2.59465 -3.94207,3.92221 -11.54338,5.29241 -21.58749,13.48815 -30.1804,22.71406 -4.17054,5.31708 -8.37006,10.61191 -12.48068,15.97556 z M 0.75,86.833333 C -2.1422509,85.536577 4.3005152,83.020378 6.2409769,81.996847 25.771488,71.642498 47.182183,64.912908 68.622548,60.175968 46.126562,68.267421 22.178142,73.682619 1.5541016,86.412385 L 0.75,86.833333 z M 113.43773,65 c 3.2571,-5.49973 9.85417,-8.982302 14.93328,-13.190817 6.05983,-4.972337 13.70606,-7.441318 20.65125,-10.891141 12.79496,-3.446742 26.03597,-5.590897 39.30277,-4.718036 5.06693,0.355732 -9.51459,2.13762 -11.81859,1.740741 -11.45014,1.141429 -23.38579,1.724457 -33.79113,7.163764 -7.97216,4.20136 -16.41897,8.02436 -22.72617,14.645489 -2.12212,1.806319 -4.12762,3.847508 -6.55141,5.25 z M 71,59.859429 c -3.761035,-0.641964 11.148667,-3.005906 1.646875,-0.252457 L 71,59.859429 z m 7.416667,-1.938376 c -6.611213,-0.645046 6.917218,-1.00567 0,0 z m 4,-1 c -6.611213,-0.645046 6.917218,-1.00567 0,0 z M 0.56155739,54 C -1.2813797,49.841254 0.92677178,46.923551 3.9882345,44.404732 8.770632,40.138166 3.5662251,43.294531 0.75771687,44.670087 -1.8558766,44.189177 2.1250853,39.690887 5.1030204,40.131601 10.351876,38.299505 15.759641,36.826031 20.8125,34.501919 13.717701,35.35541 6.7182497,37.412403 -0.5,36.939151 4.5018317,35.38264 2.1060482,33.702713 0.03910453,33.157164 8.8755184,32.966201 17.971318,34.156902 26.337108,30.544555 32.075978,28.572274 37.598592,25.977545 41.731683,21.427364 45.905114,18.137609 49.494759,14.341242 52.062514,9.6580727 54.636728,6.230788 59.816416,-2.4092409 52.870898,4.7196958 47.811088,9.4901407 43.139811,14.740747 36.813525,17.876956 28.759414,23.003418 19.283828,25.879206 9.8829587,26.940708 6.4219725,26.877078 2.9609862,26.813447 -0.5,26.749816 8.8847671,25.227205 18.520255,24.763261 27.383698,21.039367 34.234974,19.058729 39.481291,13.671058 45.343586,9.8554717 50.013158,6.1222952 51.451902,3.7715566 45.673108,7.6603293 39.766815,11.090951 33.968403,14.768601 27.20002,16.225192 18.185333,18.794403 9.041201,21.778725 -0.4,22 5.6227941,18.4808 13.153162,18.314467 19.894586,16.56869 26.671237,15.119973 33.11857,12.148817 39.450581,9.4367401 44.451146,6.3893519 49.216362,2.5546224 54.364223,0 59.47145,-1.0076839 59.349685,1.0772822 56.586693,4.7243828 55.000428,7.6102387 53.414162,10.496094 51.827896,13.38195 57.838724,9.0353358 62.989875,3.1032438 69.634721,0 67.880582,2.5670944 61.986331,6.6970867 58.764463,9.6705218 54.767218,12.69227 53.702587,13.81542 58.846962,10.968539 66.29217,7.2770909 73.737378,3.5856431 81.182586,-0.10580474 85.966797,0.72307427 78.452705,2.4933448 77.047078,3.796034 67.381637,8.990721 57.271476,13.493327 47.886679,19.124755 44.028748,22.287841 39.84248,25.117141 36.388334,28.721667 49.122402,23.441042 62.08827,18.554277 74.72798,12.994662 81.247629,9.8830907 86.455409,4.7530385 91.793859,0 c 5.215129,-0.88634598 -0.852132,3.0155757 -2.089994,4.8678913 -4.24726,3.9111912 -2.458487,3.0923792 1.456734,0.6072246 2.679463,-1.2191971 10.514491,-7.823725 10.276321,-4.2902333 -3.380069,1.7649006 -9.533565,6.603026 -2.144258,2.495849 3.481388,-2.86587242 13.378708,-5.3211061 5.003338,-1.1978301 -3.59358,1.7899079 -10.138142,6.3476156 -2.59447,2.9297186 4.61319,-1.5476527 9.04924,-4.3451094 13.68177,-5.48375261 5.57595,0.0094615 -0.38126,2.77896611 -2.18118,4.55357591 C 96.017255,18.658559 76.987746,30.720195 55.966543,38.338637 43.748296,43.318674 30.459093,44.864994 17.883881,48.74589 12.029807,50.235698 6.2621882,52.004946 0.56155739,54 z M 1.7430174,52 C 26.164258,43.820305 52.288953,40.228957 75.182197,27.784845 88.137606,21.335123 100.10148,12.953316 111,3.4704714 101.79873,6.4329332 92.770681,10.605863 83.310187,13.12653 54.199078,22.095901 25.457129,33.963713 0.73028262,52 l 0.53910488,0 0.4736299,0 z m 9.4393856,-9.238041 c 4.03106,-2.038564 12.497024,-8.145482 3.159311,-3.752113 C 9.4452101,40.555271 6.3610445,44.866696 2.5,47.992445 5.3941343,46.24895 8.2882687,44.505454 11.182403,42.761959 z M 95.5,8 c 2.014993,-1.3462587 -1.946696,-1.1783278 0,0 z M 0.75,7.789954 C -2.1408395,6.6776292 4.2627393,4.3073762 6.1986588,3.4913346 10.05599,1.3720466 14.130938,0.09993029 18.560665,0.20895969 25.367005,-0.5928756 14.510686,1.650755 12.852539,2.6000642 8.6945081,4.0309775 4.7236041,5.9220534 0.75,7.789954 z m 0,-5.8602393 C -3.4599294,-1.07065 8.4856196,-0.08408887 4.0140692,0.77909689 2.9545932,1.2374519 1.8852232,1.6933699 0.75,1.9297147 z" />
</svg>
