<?xml version="1.0" encoding="UTF-8" standalone="no"?>
<!-- Created with Inkscape (http://www.inkscape.org/) -->

<svg
   xmlns:dc="http://purl.org/dc/elements/1.1/"
   xmlns:cc="http://creativecommons.org/ns#"
   xmlns:rdf="http://www.w3.org/1999/02/22-rdf-syntax-ns#"
   xmlns:svg="http://www.w3.org/2000/svg"
   xmlns="http://www.w3.org/2000/svg"
   version="1.1"
   width="100%"
   height="100%"
   viewBox="10 0 1300 501" preserveAspectRatio="xMinYMin meet"
   id="svg3238">
  
  <defs
     id="defs3242" />
  <path
     d="m 1699.5312,500.46967 -0.2925,-85.50031 c -0.032,-9.35602 -28.9724,-8.76101 -36.2963,-10.7961 l -0.3404,-7.21496 -4.9123,-3.843 c -2.805,-2.19443 -2.4769,-6.88163 -5.9166,-6.88163 -1.4425,0 -2.729,0.15643 -3.1728,-0.73392 -1.9494,-2.20795 -6.1101,-2.76255 -5.8655,-11.4879 0,-0.89035 1.6644,-2.33717 3.7725,-3.22751 4.7713,-2.00329 9.0986,-7.23409 10.7631,-12.79878 1.9973,-6.56632 -0.3328,-12.35359 -8.1,-20.70061 -4.2164,-4.45175 -6.2137,-7.45668 -5.7699,-8.56961 0.3329,-1.11294 -0.2219,-2.33718 -1.5534,-3.11623 -1.7753,-1.11294 -1.9972,-2.22586 -1.5535,-6.12115 0.5549,-5.11951 -2.552,-14.91335 -4.6602,-14.91335 -1.6645,0 -5.104,9.45996 -5.104,13.91171 -0.1111,1.7807 -0.7768,4.56303 -1.6645,6.12115 -0.8876,1.55811 -1.5534,3.78398 -1.6644,5.11951 0,1.22423 -1.9972,4.34045 -4.3274,6.9002 -5.7698,6.12116 -8.4328,11.90843 -8.3219,18.02957 0.111,6.45504 3.9945,12.4649 10.2083,15.80371 5.2151,2.89364 5.2151,2.89364 3.1068,7.90185 -1.9973,4.89691 -4.7712,7.45667 -7.9891,7.45667 -2.2191,0 -2.8849,0.77905 -3.4397,3.5614 -0.4438,2.00329 -0.6658,4.00657 -0.5547,4.45175 0.1109,0.55646 -0.7767,0.89035 -1.8864,0.89035 -2.2192,0 -3.4397,2.00328 -3.4397,5.67597 0,1.892 -0.8877,2.11458 -10.0973,2.11458 -8.9876,0 -9.9863,-0.22258 -9.4315,-2.00328 0.222,-1.00165 0.6658,-13.24395 0.8877,-27.04436 l 0.3329,-25.15237 4.1055,0.55646 c 2.2192,0.2226 4.9931,0.2226 5.9918,-0.22257 1.5533,-0.55648 1.1095,-1.33554 -2.4412,-4.56305 -2.3301,-2.00329 -6.9904,-5.1195 -10.2081,-6.90021 -3.2179,-1.6694 -6.6577,-3.89528 -7.5452,-4.89692 -1.4425,-1.55812 -1.1097,-2.00329 2.2192,-3.78399 2.1081,-1.11294 4.3274,-3.11622 4.993,-4.34045 0.6658,-1.33552 2.2192,-3.89527 3.3289,-5.67597 2.8848,-4.45175 2.7739,-7.23409 -0.111,-12.79878 -3.4398,-6.34373 -12.3165,-14.35688 -26.0753,-23.48296 -11.7617,-7.79055 -22.7467,-12.57618 -36.6165,-16.13758 -6.2137,-1.55811 -8.1,-2.44846 -8.1,-4.00657 0,-1.33552 -0.8876,-2.00329 -2.3301,-2.00329 -3.4398,0 -1.9973,-2.44845 2.4411,-3.89527 2.774,-1.00164 3.8836,-2.00328 4.1055,-4.11787 0.3328,-2.44845 -0.2219,-3.00493 -3.1069,-3.67269 -1.7753,-0.44517 -3.8836,-1.7807 -4.6603,-3.11623 -0.6656,-1.33551 -1.8862,-2.89363 -2.6629,-3.3388 -0.8877,-0.44517 -1.5535,-2.00329 -1.5535,-3.33881 0,-3.33881 -1.2205,-4.78563 -4.4383,-5.56469 -4.7713,-1.22423 -11.6507,-13.02135 -7.6563,-13.02135 1.5535,-0.11129 9.4316,-5.56469 9.5425,-6.67762 0,-0.33388 0.8877,-2.44846 1.8863,-4.89692 0.9987,-2.33717 1.7754,-4.45175 1.7754,-4.78563 0,-2.11458 -7.4343,-15.24724 -9.6534,-17.02793 -2.9959,-2.33717 -3.6617,-4.67434 -6.5466,-22.14744 -1.7754,-11.35195 -2.9958,-14.57947 -5.437,-14.57947 -0.8877,0 -2.1081,0.89035 -2.6631,2.11458 -0.6656,1.11294 -1.8862,6.67762 -2.7739,12.46489 -2.8849,17.4731 -3.5507,19.81027 -6.5466,22.14744 -1.4424,1.22423 -4.3274,5.45339 -6.2136,9.45996 -3.3288,6.78892 -3.4398,7.56797 -2.1083,11.46325 1.6644,4.67433 8.8767,12.46489 11.5397,12.46489 4.3274,0 -2.3301,11.79712 -7.3232,13.02135 -3.2179,0.77906 -4.4385,2.22588 -4.4385,5.56469 0,1.33552 -0.6656,2.89364 -1.5533,3.33881 -0.7768,0.44517 -1.9973,2.00329 -2.663,3.3388 -0.7767,1.33553 -2.885,2.67106 -4.6604,3.11623 -2.8848,0.66776 -3.4395,1.22424 -3.1068,3.67269 0.222,2.22588 0.9987,3.11623 3.1068,3.33881 3.7727,0.55647 5.548,2.22588 5.548,5.11951 0,2.11458 -1.3314,2.67105 -10.2081,5.00822 -16.2001,4.11786 -26.6302,8.56961 -38.9466,16.69404 -13.7589,9.12608 -22.6357,17.13923 -25.9644,23.48296 -2.996,5.56469 -3.1068,8.34703 -0.2219,12.79878 1.1096,1.7807 2.663,4.34045 3.3288,5.67597 0.6657,1.22423 2.8849,3.22751 4.993,4.34045 3.3289,1.7807 3.6618,2.22587 2.2193,3.78399 -0.8876,1.00164 -4.3274,3.22752 -7.5453,4.89692 -3.2178,1.78071 -7.878,4.89692 -10.2081,6.90021 -3.5507,3.22751 -3.9946,4.00657 -2.4412,4.56305 0.9987,0.44517 3.7726,0.44517 5.9918,0.22257 l 4.1055,-0.55646 0.3329,25.15237 c 0.2219,13.80041 0.6658,26.04271 0.8877,27.04436 0.5548,1.7807 -0.4439,2.00328 -9.4315,2.00328 -9.2097,0 -10.0974,-0.22258 -10.0974,-2.11458 0,-3.67269 -1.2204,-5.67597 -3.4396,-5.67597 -1.1097,0 -1.9973,-0.33389 -1.8864,-0.89035 0.1111,-0.44518 -0.1109,-2.44846 -0.5547,-4.45175 -0.5548,-2.78235 -1.2206,-3.5614 -3.4398,-3.5614 -3.2178,0 -5.9917,-2.55976 -7.989,-7.45667 -2.1083,-5.00821 -2.1083,-5.00821 3.2179,-7.90185 6.1026,-3.33881 9.9862,-9.34867 10.0972,-15.80371 0.1109,-6.12114 -2.5521,-11.90841 -8.3219,-18.02957 -2.3302,-2.55975 -4.3275,-5.67597 -4.3275,-6.9002 -0.1109,-1.33553 -0.7767,-3.5614 -1.6643,-5.11951 -0.8877,-1.55812 -1.5534,-4.34045 -1.6645,-6.12115 0,-4.45175 -3.4395,-13.91171 -5.104,-13.91171 -2.1082,0 -5.2151,9.79384 -4.6603,14.91335 0.4438,3.89529 0.2219,5.00821 -1.5535,6.12115 -1.3314,0.77905 -1.8862,2.00329 -1.5533,3.11623 0.4438,1.11293 -1.5535,4.11786 -5.7699,8.56961 -7.7672,8.34702 -10.0973,14.13429 -8.1,20.70061 1.6645,5.56469 5.9918,10.79549 10.7631,12.79878 1.7074,0.73356 3.0333,8.48693 -3.9577,17.94206 -1.3395,1.13357 -4.7262,-1.90464 -5.1444,-1.71936 -1.4612,0.64741 -4.0509,-4.25124 -4.0509,-0.68984 0,1.6694 -1.6717,-0.83027 -1.6717,-0.83027 l -4.3782,-0.98614 c -0.5093,-8.22658 -0.552,0.41781 -3.6073,-0.14682 l -3.0919,-0.57142 -0.7335,-33.87212 c -0.8636,-39.87199 -1.6152,-53.34444 -3.0827,-55.25039 -1.6862,-2.18972 -7.4683,-1.6907 -9.5821,0.82697 -1.026,1.22197 -2.3434,2.22176 -2.9275,2.22176 -0.5842,0 -2.1356,1.08693 -3.4475,2.4154 -1.7706,1.79284 -2.3854,3.63709 -2.3854,7.15518 0,2.60686 -0.4638,5.04871 -1.0307,5.42632 -0.6716,0.44743 -1.0306,-5.89131 -1.0306,-18.19843 0,-11.39169 -0.409,-19.1574 -1.0307,-19.57154 -0.6121,-0.40773 -1.0306,-7.37208 -1.0306,-17.14821 0,-18.07596 -0.057,-18.24906 -6.3743,-19.52152 -5.57,-1.12185 -10.7438,1.05511 -12.0412,5.06642 -0.8056,2.49114 -1.6995,3.27583 -3.7314,3.27583 -1.4696,0 -4.0445,1.0938 -5.7221,2.43066 -2.9792,2.37405 -3.0502,2.65914 -3.0502,12.23604 l 0,9.80535 -3.3496,2.20128 c -1.8422,1.21071 -3.6974,2.20343 -4.1225,2.20543 -0.4252,0.002 -0.773,-2.18417 -0.773,-4.85879 0,-2.93268 -0.604,-5.4032 -1.5215,-6.22401 -1.2076,-1.08024 -1.5797,-5.17658 -1.8037,-19.85417 l -0.282,-18.49311 -5.9522,-1.5231 c -5.1089,-1.30741 -6.715,-1.29457 -11.337,0.0906 -4.6815,1.40297 -5.4529,2.03729 -5.9056,4.85574 -0.4804,2.99146 -0.9026,3.2683 -5.4657,3.58295 -3.2525,0.22428 -5.1508,0.91883 -5.5461,2.02914 -0.3306,0.92848 -1.6808,2.13064 -3.0006,2.67147 -2.2686,0.9297 -2.4156,1.60636 -2.6936,12.40446 l -0.2942,11.42114 -3.6072,1.83291 -3.6073,1.83293 -0.5153,52.49207 -0.5153,52.49207 -4.7632,1.49669 c -2.6198,0.82318 -5.2604,2.14244 -5.8682,2.93169 -0.6076,0.78925 -1.2469,4.41709 -1.4206,8.06187 -0.3125,6.56 -0.3488,6.63036 -3.6118,6.97069 l -3.2963,0.34383 -0.3109,-6.45368 -0.311,-6.45367 -4.287,-0.33669 c -3.2792,-0.25754 -9.5792,-3.61294 -26.7966,-14.27196 -31.4273,-19.45609 -42.288,-25.93853 -43.4575,-25.93853 -0.5548,0 -4.8805,1.95695 -9.6125,4.34879 -23.1318,11.69181 -52.7341,22.60903 -75.3988,27.80689 -15.7342,3.60842 -30.99166,4.38968 -90.89294,4.65409 -48.99002,0.21624 -56.95041,0.012 -66.47625,-1.70544 -25.57009,-4.61014 -55.15695,-14.65929 -87.16674,-29.60618 l -5.23089,-2.44255 -9.71338,6.43034 c -5.34237,3.53669 -15.82212,10.34766 -23.28839,15.13541 l -13.57522,8.7051 -7.77452,0 c -6.71985,0 -7.92418,-0.30141 -8.87775,-2.22188 -0.64826,-1.30561 -1.09519,-9.20815 -1.08389,-19.16271 0.0106,-9.31746 -0.13491,-18.44052 -0.32341,-20.27347 -0.18851,-1.83295 -0.41273,-4.51569 -0.49833,-5.96164 -0.12882,-2.17679 -0.59884,-2.53765 -2.73218,-2.09809 -2.46441,0.50779 -2.5766,0.29423 -2.5766,-4.90432 0,-3.80654 -0.46325,-5.62683 -1.54596,-6.07465 -0.85028,-0.3517 -1.54596,-1.54486 -1.54596,-2.65149 0,-3.51593 -1.19657,-5.56183 -4.24745,-7.26235 -1.63186,-0.90957 -2.96703,-2.39076 -2.96703,-3.29156 0,-0.90079 -0.92757,-8.44194 -2.06128,-8.44194 -1.1337,0 -2.06128,7.51995 -2.06128,8.39483 0,0.87486 -1.39136,2.65855 -3.09191,3.96373 -1.95406,1.49973 -3.09192,3.34694 -3.09192,5.01941 0,1.45549 -0.77715,3.11513 -1.727,3.68808 -1.34508,0.81135 -1.67525,2.4204 -1.493,7.27593 0.23337,6.21723 -0.4307,7.40933 -2.74053,4.91967 -2.04756,-2.20698 -2.73916,-0.0945 -3.8215,11.67301 l -1.03969,11.30372 -6.89609,0.327 c -6.06379,0.28751 -7.03219,0.0529 -8.02373,-1.94404 -0.89745,-1.80746 -2.14634,-2.27104 -6.11836,-2.27104 -3.17888,0 -5.45653,-0.60495 -6.27377,-1.66631 -1.80716,-2.34704 -2.26523,-2.14395 -5.02839,2.22934 -1.99757,3.16161 -3.10466,3.88051 -5.97593,3.88051 -2.99943,0 -3.73422,-0.53756 -4.93511,-3.61038 -1.35933,-3.47826 -1.62777,-3.61036 -7.33668,-3.61036 -5.65607,0 -5.96237,-0.14561 -6.73129,-3.20011 -0.44306,-1.76007 -1.72266,-4.25954 -2.84356,-5.55441 -1.12089,-1.29486 -2.35453,-3.72901 -2.74143,-5.40922 -0.79476,-3.45148 -1.70968,-3.80716 -3.57191,-1.3886 -0.70567,0.91647 -1.61192,1.66632 -2.0139,1.66632 -1.03326,0 -6.85864,-9.99812 -7.76704,-13.33058 -0.92745,-3.4024 -5.06104,-8.28687 -9.54356,-11.27724 -2.73224,-1.82271 -3.34957,-2.94163 -3.34957,-6.0711 0,-2.11013 -0.70629,-4.99844 -1.56954,-6.41849 -0.86325,-1.42005 -1.44298,-4.22248 -1.2883,-6.22761 0.18088,-2.34483 -0.23458,-3.84113 -1.16436,-4.19337 -1.14147,-0.43247 -1.31278,0.33452 -0.81427,3.64566 0.37323,2.47897 0.12697,5.15138 -0.60233,6.53665 -0.67852,1.28881 -1.29056,4.05654 -1.36006,6.15048 -0.0869,2.6189 -0.89529,4.42431 -2.58993,5.78445 -7.10433,5.70199 -8.54283,7.25433 -10.08932,10.88774 -2.59309,6.09234 -7.4211,14.51341 -8.3209,14.51341 -0.44358,0 -1.38387,-0.74985 -2.08954,-1.66632 -1.86223,-2.41856 -2.77715,-2.06288 -3.57191,1.3886 -0.3869,1.68021 -1.62055,4.11436 -2.74144,5.40922 -1.12089,1.29487 -2.40049,3.79434 -2.84356,5.55441 -0.76891,3.0545 -1.07521,3.20011 -6.73129,3.20011 -5.70891,0 -5.97735,0.1321 -7.33668,3.61036 -1.20623,3.08649 -1.92942,3.61038 -4.9839,3.61038 -2.97162,0 -3.94814,-0.65437 -5.80233,-3.8881 -2.47594,-4.31804 -3.27412,-4.66217 -5.1532,-2.22175 -0.81723,1.06136 -3.09488,1.66631 -6.27377,1.66631 -3.97065,0 -5.22103,0.46381 -6.11742,2.26913 -1.00009,2.01405 -1.95955,2.23261 -8.53904,1.94405 l -7.41236,-0.32509 -0.17762,-5.5544 c -0.25855,-8.08508 -1.09899,-15.85021 -1.85895,-17.17558 -0.8458,-1.47508 -3.63194,-1.50813 -3.63194,-0.0431 0,0.61099 -0.52868,1.11089 -1.17483,1.11089 -0.80795,0 -0.99202,-1.9092 -0.58943,-6.11352 0.50951,-5.32116 0.32142,-6.26579 -1.45131,-7.28839 -1.35785,-0.78326 -1.83366,-1.86438 -1.42755,-3.24352 0.4369,-1.48375 -0.42332,-2.9566 -3.04236,-5.20903 -2.00833,-1.72722 -3.65151,-3.76525 -3.65153,-4.52897 -2e-5,-0.76374 -1.05644,-9.02592 -2.19014,-9.02592 -1.1337,0 -1.93245,8.29314 -1.93245,9.09472 0,0.80158 -1.39136,2.56618 -3.09192,3.92135 -1.963,1.56431 -3.09192,3.45152 -3.09192,5.16878 0,1.53431 -0.85997,3.20094 -1.98716,3.85116 -1.71542,0.98954 -1.90711,1.98234 -1.40177,7.25982 0.37078,3.8722 0.19511,6.11352 -0.47917,6.11352 -0.58551,0 -1.35156,-0.80615 -1.70234,-1.79143 -0.49649,-1.39457 -0.95631,-1.50651 -2.07554,-0.5053 -0.96959,0.86732 -1.67301,5.15843 -2.16021,13.17796 -0.39735,6.54052 -0.7968,13.12119 -0.8877,14.62373 -0.11612,1.91987 -0.92553,2.9244 -2.72313,3.37959 -2.5146,0.63677 -2.56955,0.89131 -3.2468,15.04223 -0.3789,7.91697 -1.0095,16.54329 -1.40132,19.16958 l -0.7124,4.77508 -5.29785,-0.33154 -5.29783,-0.33157 -0.29554,-10.88076 c -0.26877,-9.89529 -0.58015,-11.3793 -3.43799,-16.3855 -1.72834,-3.02761 -3.68239,-5.49016 -4.34233,-5.47236 -0.65995,0.0178 -3.22141,3.03363 -5.69215,6.70183 -3.37048,5.00401 -4.95381,6.51154 -6.34065,6.03711 -1.01662,-0.34778 -6.64206,0.18911 -12.50099,1.19311 l -10.65259,1.82544 -3.21346,-4.00685 -3.21345,-4.00685 -14.83506,4e-5 -14.83504,3e-5 -2.9434,3.97611 c -2.87726,3.88681 -3.06248,3.95879 -8.24511,3.20472 -2.91595,-0.42428 -6.16684,-1.26218 -7.22419,-1.86203 -1.05736,-0.59984 -9.17365,-7.93465 -18.03619,-16.29957 -8.86255,-8.36493 -26.78085,-25.22607 -39.81844,-37.46921 -63.50037,-59.63093 -58.70265,-54.84015 -59.26178,-59.17606 -0.64048,-4.96672 -3.55026,-6.03149 -5.28272,-1.9331 -0.9785,2.31478 -1.6903,2.68876 -4.12044,2.1649 -2.3228,-0.50073 -3.10221,-0.15958 -3.72405,1.63 -0.84075,2.4196 -7.19706,8.49841 -95.721898,91.54288 -5.732664,5.37778 -10.91802,9.77776 -11.523013,9.77776 -0.604994,0 -1.248192,-1.12476 -1.42933,-2.49947 -0.300812,-2.28297 -1.2135,-2.62475 -10.535778,-3.94545 -8.381067,-1.18736 -12.52837,-1.18736 -23.189391,0 l -12.982955,1.44596 -0.51532,7.22073 -0.51532,7.22073 L 1.824492,369.16278 1.75,501.965 z M 203.036,298.81955 c 0,0.61099 -0.46379,1.11089 -1.03064,1.11089 -0.56685,0 -1.03064,-0.4999 -1.03064,-1.11089 0,-0.61098 0.46379,-1.11088 1.03064,-1.11088 0.56685,0 1.03064,0.4999 1.03064,1.11088 z m 478.21678,22.21763 c 0,1.22197 -0.46379,2.22177 -1.03064,2.22177 -0.56686,0 -1.03064,-0.9998 -1.03064,-2.22177 0,-1.22196 0.46378,-2.22175 1.03064,-2.22175 0.56685,0 1.03064,0.99979 1.03064,2.22175 z m -214.37304,0 c 0,1.22197 -0.46379,2.22177 -1.03064,2.22177 -0.56685,0 -1.03064,-0.9998 -1.03064,-2.22177 0,-1.22196 0.46379,-2.22175 1.03064,-2.22175 0.56685,0 1.03064,0.99979 1.03064,2.22175 z m 224.67943,0 c 0,2.59206 -0.45806,3.33265 -2.06128,3.33265 -1.60322,0 -2.06128,-0.74059 -2.06128,-3.33265 0,-2.59205 0.45806,-3.33264 2.06128,-3.33264 1.60322,0 2.06128,0.74059 2.06128,3.33264 z m -232.92455,0.13886 c 1.15947,5.65807 -2.00924,-1.05611 -3.74985,1.66633 -3.28702,5.14115 0.30829,-4.99897 2.17155,-4.99897 1.06658,0 1.12765,1.13353 1.5783,3.33264 z m 642.08868,23.67954 c 0,0.88042 -0.4638,1.90971 -1.0306,2.28732 -0.5669,0.37762 -1.0307,-0.34272 -1.0307,-1.60075 0,-1.25803 0.4638,-2.28733 1.0307,-2.28733 0.5668,0 1.0306,0.72034 1.0306,1.60076 z m -837.53601,3.08888 c -0.27272,0.47563 -2.91332,0.86477 -5.86802,0.86477 -5.94299,0 -3.66287,1.83816 -38.0507,-30.67524 -10.86963,-10.27715 -11.07937,-10.56613 -11.07937,-15.26524 0,-2.63437 0.28211,-5.09385 0.62691,-5.46549 0.84161,-0.90714 55.0031,49.43914 54.37118,50.5412 z m 508.63317,1.69793 -1.03064,-1.73189 1.03064,-1.04532 1.03064,1.73189 z m -525.22919,-0.69108 c -0.43104,0.45748 -3.15784,1.16828 -6.05956,1.57954 l -5.27582,0.74776 -13.53335,-13.019 -13.53334,-13.019 0,-5.36879 c 0,-2.95285 0.36464,-5.61171 0.81031,-5.90859 1.1689,-0.77866 38.52879,33.9936 37.59176,34.98808 z m -79.62765,2.40328 c -2.42952,1.68186 -16.49024,4.00094 -16.49024,2.71978 0,-1.66923 42.85,-40.91394 43.68725,-40.01151 0.8858,0.95478 0.75777,10.62861 -0.1585,11.97533 -1.26291,1.85619 -24.2779,23.40532 -27.03851,25.3164 z m 20.23861,-3.20067 c -4.17376,4.02634 -8.46379,7.28898 -9.53341,7.25018 -2.87892,-0.10423 -6.80615,-2.00694 -6.4113,-3.10621 0.64108,-1.78479 21.98204,-21.02717 22.76038,-20.52223 0.42514,0.27581 0.77298,2.4266 0.77298,4.77957 0,3.91337 -0.64696,4.90221 -7.58865,11.59869 z m 44.69168,8.12098 c 0,3.09268 -0.45021,4.73429 -1.2883,4.69769 -0.70856,-0.031 -6.04212,-4.56707 -11.85235,-10.0802 -9.97376,-9.46373 -10.56406,-10.26387 -10.56406,-14.31954 0,-2.36265 0.35407,-4.53159 0.78681,-4.81987 0.43276,-0.28827 5.76632,4.04157 11.85236,9.62189 10.87677,9.97292 11.06554,10.22711 11.06554,14.90003 z m -97.90852,-7.66044 c -16.64501,15.41531 -17.10521,15.74711 -21.84026,15.74711 -2.66033,0 -5.07916,-0.42238 -5.37517,-0.93863 -0.29601,-0.51623 5.34702,-6.39003 12.54008,-13.05286 7.19305,-6.66282 17.30874,-16.1134 22.47932,-21.00128 5.17058,-4.88788 17.20618,-16.13555 26.7458,-24.99484 9.53961,-8.85927 19.0567,-17.715 21.14909,-19.6794 2.09238,-1.96438 4.09736,-3.25579 4.45549,-2.86977 0.35813,0.38601 0.65114,2.80733 0.65114,5.38071 0,4.3307 -0.44101,5.07988 -5.92617,10.06733 -3.2594,2.96364 -13.11489,12.1848 -21.90109,20.49148 -8.78621,8.30666 -23.62641,22.18922 -32.97823,30.85015 z m -7.05249,-8.97001 -26.34127,24.71712 -4.886865,0 c -2.687773,0 -5.13087,-0.42555 -5.429104,-0.94567 -0.298233,-0.52012 3.490307,-4.64427 8.41898,-9.16477 4.928669,-4.52052 16.422959,-15.21765 25.542859,-23.77145 53.30741,-49.99838 67.80434,-63.35732 69.10408,-63.67943 1.07573,-0.2666 1.44324,0.87871 1.42604,4.44354 l -0.0232,4.80269 -20.73511,19.44043 c -11.4043,10.69224 -32.58866,30.56313 -47.07638,44.15754 z m 644.88756,26.66116 -1.03064,-2.1562 1.03064,-14.2293 0.51532,14.23704 z m 364.45994,0.75538 -6.7901,0.31116 c -3.7346,0.17114 -7.0971,-0.0196 -7.4721,-0.42396 -0.3752,-0.40433 -0.6821,-3.40126 -0.6821,-6.65985 0,-5.60387 0.1417,-5.9247 2.6176,-5.9247 2.5734,0 10.1789,3.59732 11.1225,5.26081 0.2648,0.46697 0.6441,2.33123 0.8428,4.14279 z m -946.93279,-5.16095 c -2.99379,3.18679 -6.00841,5.79418 -6.69915,5.79418 -0.798,0 -1.25589,-1.79019 -1.25589,-4.91011 0,-4.56751 0.40681,-5.30094 5.83031,-10.51116 3.20667,-3.08058 6.22129,-5.34059 6.69915,-5.02227 0.47787,0.31834 0.86885,2.44097 0.86885,4.71698 0,3.52325 -0.80886,4.9992 -5.44327,9.93238 z m 952.08599,4.60594 c 0,1.75392 -1.8184,2.7461 -2.8987,1.58168 -1.4159,-1.52619 -0.6815,-3.88338 1.095,-3.51461 0.992,0.20592 1.8037,1.07573 1.8037,1.93293 z m -823.82626,1.34111 c -0.37712,0.38956 -1.63665,1.01647 -2.79899,1.39311 -1.70289,0.55182 -3.00392,-0.60185 -6.69916,-5.94032 -4.64671,-6.71307 -6.74533,-8.06776 -7.82036,-5.04816 -0.32629,0.91648 -1.01106,1.66632 -1.52174,1.66632 -0.51066,0 -8.22949,-6.84373 -17.15294,-15.20829 -80.16189,-75.1413 -73.42495,-68.37382 -73.42495,-73.75781 0,-2.31926 0.34855,-4.44902 0.77457,-4.73281 0.74623,-0.4971 8.60536,6.70617 64.67104,59.27408 14.1713,13.2872 30.01673,28.09312 35.21209,32.90211 5.19536,4.80894 9.13755,9.06225 8.76044,9.45182 z m -22.35556,-0.0976 c -0.86483,1.80261 -1.82017,3.27747 -2.12297,3.27747 -0.30281,0 -3.0482,-2.54608 -6.10089,-5.65796 -4.44415,-4.53033 -5.61294,-6.46401 -5.86448,-9.70231 -0.30438,-3.9186 -0.48019,-4.07942 -5.65516,-5.17312 -5.9238,-1.25197 -5.09867,-0.55229 -45.0995,-38.24261 -20.81715,-19.61472 -21.71749,-20.63115 -22.02803,-24.86805 -0.17806,-2.4296 0.0813,-4.85409 0.57647,-5.38776 0.5132,-0.55316 5.30481,3.21685 11.14547,8.76922 9.38576,8.92244 42.05689,39.47841 66.68832,62.37083 5.51826,5.12867 10.03319,9.77752 10.03319,10.33082 0,0.55329 -0.70759,2.48085 -1.57242,4.28347 z m -162.85353,-1.24597 c -4.84248,4.81116 -6.66022,5.58028 -6.66022,2.81804 0,-0.93797 -0.69313,-2.84562 -1.5403,-4.23923 -1.49844,-2.46495 -1.22534,-2.82317 10.04874,-13.18068 11.43586,-10.50616 27.58933,-25.49352 47.9329,-44.47266 5.73046,-5.34612 10.93656,-9.72022 11.56913,-9.72022 0.73244,0 1.03697,1.97932 0.83859,5.45034 l -0.31153,5.45032 -25.58695,23.92243 c -17.24966,16.12749 -26.48486,24.03429 -28.34259,24.26576 -1.91942,0.23914 -2.85263,1.07755 -3.07526,2.76289 -0.17579,1.33076 -2.36843,4.45511 -4.87251,6.94301 z m 99.28977,4.88 c -0.17019,2.45835 -0.77569,4.63444 -1.34555,4.83576 -0.56987,0.20133 -4.04828,-2.44315 -7.7298,-5.87661 -14.30134,-13.3377 -14.42347,-13.49162 -14.42347,-18.17991 0,-2.38325 0.40548,-4.6033 0.90109,-4.93344 0.49559,-0.33015 5.85245,3.9638 11.90412,9.5421 10.89374,10.04162 10.99997,10.18677 10.69361,14.6121 z m -8.70895,4.35625 c -0.26541,0.46288 -2.93415,0.8416 -5.93052,0.8416 -6.71299,0 -8.85935,-2.0911 -8.85935,-8.63124 0,-2.51253 0.37074,-4.81519 0.82387,-5.11704 1.06716,-0.71088 14.60206,11.79739 13.966,12.90668 z m -32.49333,-3.46546 c -0.30493,3.4381 -0.64772,3.77991 -4.10189,4.09025 -5.50339,0.49443 -6.01137,-1.67707 -1.44696,-6.1857 4.40358,-4.34979 6.06484,-3.72243 5.54885,2.09545 z m 104.07167,6.43343 c -0.25944,2.40557 -0.89933,2.92615 -3.93591,3.20203 -5.16555,0.46929 -9.25689,-4.21582 -9.25689,-10.60031 0,-2.5272 0.41437,-4.87093 0.92081,-5.2083 0.50644,-0.33736 3.54453,1.71475 6.75129,4.56029 4.71851,4.18697 5.7714,5.72153 5.5207,8.04629 z m -158.71911,2.09498 c -1.82193,1.96378 -3.69809,1.62675 -4.94707,-0.8887 -0.60674,-1.22198 -1.78252,-2.22177 -2.61286,-2.22177 -0.83033,0 -1.5097,-0.39843 -1.5097,-0.88542 0,-1.75909 8.08655,-9.34926 9.18272,-8.61905 1.52095,1.01318 1.43187,10.9497 -0.11309,12.61494 z m 918.2006,0.84967 c -1.9992,3.8505 -4.2959,0.87402 -2.7365,-3.54658 0.7889,-2.23591 0.7689,-3.76349 -0.071,-5.4552 -0.6417,-1.29233 -1.0153,-4.01644 -0.8304,-6.0536 0.3074,-3.38628 0.8067,-3.87563 5.8212,-5.70635 4.4327,-1.61826 5.8725,-1.74379 7.5049,-0.65431 1.7775,1.18648 1.9851,2.41373 1.7295,10.23517 l -0.2904,8.88706 -5.1496,0.34977 c -3.1195,0.21188 -5.476,0.97826 -5.9774,1.94404 z m 43.5929,-14.03742 c 0,14.47856 -0.3048,18.94313 -1.2883,18.87493 -0.7086,-0.0492 -3.3754,-0.67409 -5.9262,-1.3886 l -4.6379,-1.2992 -0.073,-9.15053 c -0.04,-5.0328 -0.3879,-9.4902 -0.773,-9.90536 -0.3852,-0.41515 -0.7003,-3.90932 -0.7003,-7.7648 0,-7.5922 1.1742,-9.32568 7.4416,-10.98624 5.4082,-1.43288 5.9567,0.55793 5.9567,21.6198 z m -24.0037,16.74257 c -0.5176,2.13313 -3.7411,3.05166 -5.1981,1.48118 -0.9808,-1.05708 -0.8507,-5.68463 0.179,-6.37057 1.0337,-0.68862 0.9339,-7.98209 -0.1248,-9.12329 -0.4078,-0.43949 -0.7414,-3.70842 -0.7414,-7.26431 0,-6.38032 0.049,-6.48731 3.7331,-8.14647 2.0532,-0.92467 5.2998,-1.68123 7.2145,-1.68123 l 3.4814,0 0.1223,5.83213 c 0.067,3.20767 0.2722,9.33141 0.4553,13.6083 0.1831,4.2769 0.097,8.65099 -0.1919,9.72022 -0.5674,2.10274 -4.9783,2.70973 -6.0542,0.83316 -1.0208,-1.78022 -2.2931,-1.28864 -2.8752,1.11088 z m -301.80763,8.33162 -1.03064,-10.27566 0.90181,-15.96892 1.15947,15.96892 z m 391.18943,-4.97148 c -3.0683,1.2574 -5.9937,1.40115 -6.9756,0.34279 -0.3779,-0.40731 -0.6871,-3.65663 -0.6871,-7.22073 0,-7.42738 1.0139,-8.04561 6.8352,-4.16776 2.8537,1.90101 3.4712,2.99278 3.4712,6.13734 0,3.0837 -0.5123,4.03493 -2.6437,4.90836 z m -10.1629,-0.39678 c -0.5769,1.62013 -3.2587,2.00904 -4.0721,0.5905 -0.2806,-0.48932 -0.3664,-4.00118 -0.1906,-7.80413 0.2572,-5.5655 -0.08,-7.46224 -1.7295,-9.72221 -2.6469,-3.62702 -1.8058,-4.42855 2.2658,-2.15913 3.7294,2.07865 4.9407,4.56052 3.4604,7.08997 -0.6516,1.1134 -0.6959,3.38243 -0.1201,6.14501 0.5021,2.40889 0.6759,5.04589 0.3861,5.85999 z m -51.0931,-5.74056 c 0,4.07323 -0.4492,7.22072 -1.0306,7.22072 -0.5814,0 -1.0306,-3.14749 -1.0306,-7.22072 0,-4.07324 0.4492,-7.22073 1.0306,-7.22073 0.5814,0 1.0306,3.14749 1.0306,7.22073 z m -61.8646,4.51808 c -0.9089,2.57685 -3.4432,3.64249 -4.4458,1.86949 -1.0872,-1.92258 -0.5222,-19.03049 0.6617,-20.03315 1.9778,-1.67515 6.6856,-2.56314 9.5215,-1.79596 2.5369,0.68629 2.6099,0.95794 2.319,8.6305 l -0.3003,7.92191 -3.4015,0.35228 c -2.4905,0.25793 -3.6566,1.07599 -4.3546,3.05493 z m -7.7035,2.14721 -3.092,0.23345 c -14.2288,1.07429 -9.2042,19.22486 -9.7443,-6.24462 -3.9209,-8.2839 -2.3006,-11.86281 4.9971,-11.03773 1.619,0.18304 3.7169,-0.35897 4.6621,-1.20446 2.8524,-2.55163 1.3853,32.08299 2.5971,22.72993 z m 78.5751,-7.78618 c -0.2343,7.00814 -0.6368,8.94766 -1.9124,9.21242 -3.7319,0.77466 -4.2057,-2.26328 -3.8404,-24.62368 0.1941,-11.88609 0.7061,-21.99091 1.1376,-22.45518 0.4314,-0.46426 2.7504,0.31885 5.1532,1.74025 7.5015,4.4377 7.9759,5.20002 7.9759,12.81763 0,7.03306 -1.4938,10.09729 -6.494,13.32063 -1.3352,0.8608 -1.79,3.10929 -2.0199,9.98793 z m -817.28049,8.0639 c 0.29756,0.97532 -0.98225,1.3886 -4.30012,1.3886 -3.5893,0 -4.72376,-0.41553 -4.72376,-1.73019 0,-1.34451 0.95868,-1.65404 4.30012,-1.38861 2.36506,0.18789 4.49075,0.96647 4.72376,1.7302 z m 457.85609,4.72125 -6.95682,-0.11371 c -6.99842,-0.11439 -12.26029,-1.0472 -14.56407,-2.58185 -0.68391,-0.45561 -1.89332,-0.24705 -2.68756,0.46342 -0.79425,0.71049 -2.50433,1.12845 -3.80019,0.9288 -2.20593,-0.33985 -2.36743,-0.91413 -2.53042,-9.00994 l -0.17409,-8.64695 5.15463,-2.81529 c 6.97151,-3.8076 8.03765,-3.14289 8.03765,5.01187 0,3.64903 0.18105,15.11959 0.71725,15.47678 1.39128,0.92681 3.63648,-15.57154 2.35416,-16.95369 -0.55557,-0.59883 -1.01014,-3.21727 -1.01014,-5.81875 0,-4.39817 0.30726,-4.92042 4.38022,-7.44508 2.40912,-1.49332 5.88754,-3.05378 7.7298,-3.46773 l 3.34958,-0.75263 0,17.86237 z m 255.0833,-3.53225 c 0,2.867 -0.4939,4.13947 -1.7076,4.39984 -2.4684,0.52944 -2.7113,-0.44754 -2.5554,-10.26091 l 0.1404,-8.83789 4.0205,-0.89981 c 4.8851,-1.09331 5.4389,-0.64967 3.2991,2.64314 -0.9081,1.39742 -1.6511,3.59596 -1.6511,4.88565 0,1.28968 -0.3478,2.72548 -0.773,3.19065 -0.4251,0.46517 -0.7729,2.66087 -0.7729,4.87933 z m -8.69263,3.49316 c -2.3167,1.33638 -6.19756,1.52939 -6.37028,0.31681 -0.0653,-0.45825 -0.0282,-1.75856 0.0824,-2.88957 0.20077,-2.05273 -3.13914,-6.27521 -4.9636,-6.27521 -0.52991,0 -1.23042,0.74985 -1.55671,1.66633 -0.39967,1.12263 -2.03495,1.66632 -5.01187,1.66632 -3.91293,0 -4.57441,-0.37932 -5.77971,-3.3143 -2.40669,-5.86037 -1.38872,-7.27581 5.01458,-6.97258 3.0951,0.14658 5.79445,0.80651 5.99856,1.46652 0.20411,0.66002 1.04361,0.16518 1.86553,-1.09965 1.63456,-2.51534 5.70215,-3.00661 10.07088,-1.21631 2.46299,1.00935 2.64369,1.57615 2.64369,8.29254 0,5.99052 -0.33698,7.40352 -1.99352,8.3591 z m -210.83361,0.59453 -4.83047,0.33571 c -3.95501,0.27487 -5.02907,-0.0642 -5.92618,-1.87101 -1.16366,-2.3436 -1.53647,-36.57045 -0.4461,-40.95592 0.77588,-3.12061 3.85461,-3.25645 8.25515,-0.36421 l 3.23621,2.12699 -0.1443,20.36422 z m -21.06034,-0.59453 c -2.29348,1.32299 -11.0589,1.55955 -11.73929,0.31681 -0.25088,-0.45825 -0.44853,-9.75462 -0.44053,-20.65861 l 0.0156,-19.82546 5.4834,-3.78078 c 6.39884,-4.41197 6.61305,-4.4646 6.61305,-1.62459 0,1.18591 0.46379,2.46516 1.03064,2.84278 0.62669,0.41746 1.03064,8.70041 1.03064,21.13322 0,19.07808 -0.13343,20.52364 -1.99352,21.59663 z m 88.36111,0.9278 c -1.50853,1.62597 -8.727,1.51825 -11.90389,-0.17765 -2.15366,-1.14968 -2.31894,-1.9666 -2.31894,-11.4623 0,-10.16622 0.86731,-12.8065 3.44836,-10.49764 0.71323,0.63811 2.21399,0.90149 3.33501,0.58551 1.12104,-0.31598 3.2999,-0.0575 4.84192,0.57444 2.19825,0.90085 2.80367,1.87452 2.80367,4.50909 0,1.84808 -0.39948,3.36014 -0.88772,3.36014 -1.10506,0 -0.22912,5.36587 1.01078,6.19182 1.32323,0.88148 1.10982,5.36553 -0.32919,6.91659 z m -16.79943,0.77761 -5.24473,0.32956 c -7.33677,0.46102 -7.77012,-0.41135 -7.41657,-14.93156 l 0.29363,-12.05916 5.05786,0.2869 c 2.78184,0.1578 5.63459,0.80282 6.33949,1.43338 0.89495,0.80057 1.23483,4.73583 1.12597,13.04367 z m -15.45959,0 -5.77686,0.32835 c -8.31731,0.47275 -9.16741,-1.25182 -9.16741,-18.59764 0,-13.24978 0.0187,-13.35358 2.53237,-14.03358 3.33464,-0.9021 10.86136,1.86106 12.50758,4.59172 1.05926,1.75702 1.02906,2.99132 -0.16158,6.6044 -1.09224,3.31447 -1.18852,5.17848 -0.37892,7.33603 0.59696,1.59089 0.94126,5.34011 0.7651,8.33162 z M 804.5717,377.22049 c -0.096,10.68256 -0.55898,17.5737 -1.1879,17.67942 -2.82494,0.47493 -9.32559,-0.89235 -11.48139,-2.41485 -2.38745,-1.68612 -2.43225,-2.04371 -2.43225,-19.41775 l 0,-17.70001 4.35931,0.70082 c 2.39762,0.38545 5.83088,1.36348 7.6294,2.17352 l 3.2701,1.47271 z m 164.29751,18.20673 c -2.29703,1.32506 -10.04756,1.55508 -10.67394,0.3168 -0.23179,-0.45823 -0.37511,-4.83233 -0.31849,-9.72021 l 0.10296,-8.88706 4.63821,0.0525 c 7.86929,0.0889 8.24478,0.51324 8.24478,9.31611 0,6.54696 -0.31421,7.95319 -1.99352,8.92192 z m -54.17634,0.59458 -3.60723,0.21639 c -1.98398,0.11901 -4.88266,-0.29757 -6.4415,-0.92573 -2.68892,-1.08355 -2.83426,-1.50908 -2.83426,-8.29778 0,-6.74763 0.15829,-7.22051 2.77606,-8.29328 1.52683,-0.6257 4.42551,-0.98825 6.4415,-0.80567 l 3.66543,0.33196 0,8.88706 z m -29.63088,0.13886 c 1.07714,1.87854 2.31894,-7.23842 2.31894,-9.58135 0,-1.22197 -0.43642,-8.7482 -0.96982,-8.7482 -1.38342,0 -2.10067,17.01886 -1.34912,18.32955 z m 1.55789,-1.51271 c -2.31042,2.25368 -10.52776,2.64781 -12.43114,0.59623 -0.7203,-0.77638 -1.23677,-4.49901 -1.23677,-8.91454 0,-7.24715 0.125,-7.63297 2.83426,-8.74882 1.55884,-0.64204 4.45752,-0.85886 6.4415,-0.48183 1.98398,0.37702 6.62187,0.7897 10.30639,0.91709 l 6.69916,0.23161 0,4.99897 c 0,2.74943 0.38616,6.14772 0.85813,7.55176 0.55134,1.64015 0.41411,3.12946 -0.38386,4.16581 -1.75297,2.27665 -8.18269,2.06916 -9.80098,-0.31628 -1.24269,-1.83181 -1.40877,-1.83181 -3.28669,0 z m -15.91667,-2.30908 c -0.29811,3.34755 -0.65647,3.70423 -3.93522,3.91693 -3.99742,0.2593 -7.61846,-1.01961 -8.82003,-3.11512 -0.4322,-0.75378 -0.93263,-4.75911 -1.11205,-8.90073 l -0.32621,-7.53022 4.45247,-0.71967 c 7.14263,-1.15449 9.36297,-0.43498 9.7452,3.15797 0.18267,1.71716 -0.22196,3.84172 -0.89919,4.72125 -0.95237,1.23707 -0.95332,1.95999 -0.004,3.19291 0.67494,0.87656 1.07957,3.25107 0.89917,5.27668 z m 64.93459,1.67171 c -0.32027,3.0106 -0.55298,3.1289 -6.51597,3.31256 -3.40111,0.10476 -7.34331,-0.16628 -8.76044,-0.60229 -2.41933,-0.74436 -2.5948,-1.30607 -2.87506,-9.20273 l -0.29847,-8.41001 3.90571,-0.6957 c 6.07998,-1.08299 13.17053,-0.84302 14.40496,0.48751 0.80684,0.86966 1.31427,0.86966 1.81292,0 0.75849,-1.32281 8.13814,-1.57939 14.22679,-0.49465 l 3.8649,0.68856 0,8.03999 0,8.04 -4.38022,0.83167 c -2.40912,0.45742 -6.23537,0.89804 -8.50278,0.97944 l -4.12255,0.14775 0,-5.53403 c 0,-4.26659 -0.64874,-12.42055 -1.96519,-12.69779 -2.26781,-0.47759 -3.15221,8.49436 -1.65631,10.43713 0.65661,0.85277 1.04438,2.95544 0.86171,4.67259 z m 70.782,5.34387 c 0,0.61098 -1.7392,1.26602 -3.8649,1.45566 -3.0079,0.26832 -3.8649,-0.0545 -3.8649,-1.45566 0,-1.40127 0.857,-1.724 3.8649,-1.45567 2.1257,0.18964 3.8649,0.84468 3.8649,1.45567 z m 103.0639,2.22175 -6.4548,0.3311 c -6.9373,0.35585 -7.9544,-0.41608 -7.2827,-5.52699 0.3152,-2.39764 0.8134,-2.58027 7.0384,-2.58027 l 6.6991,0 0,3.88808 z m -201.48998,23.32699 -7.21448,-4.14832 -7.80973,-5.29417 -7.80877,5.55441 -7.02956,0.62918 -5.20279,-0.006 -3.06834,-0.71167 -10.43081,-3.31853 -5.87384,0.11966 -4.68085,0.5108 -9.7578,-0.10336 -24.22224,3.66844 -4.48027,2.16124 -1.07986,-5.16672 -10.41479,-5.82114 -5.3256,4.17527 -3.35524,3.65947 -3.83449,-2.49948 -5.20279,-0.006 -3.06834,-0.64876 -7.82365,-3.38924 -6.60531,4.59216 -3.46463,0.48989 -5.43996,-1.66633 -6.8412,-1.94404 -13.3425,-0.47374 -2.03702,1.3069 0.2229,-19.45161 98.68375,1.1776 119.02209,1.19318 21.38577,0.35511 -4.89554,1.73135 -6.44149,0.91243 -2.06128,10.19386 -2.5766,10.39414 -4.93212,2.61443 -5.8896,-2.35478 -4.58952,-1.94594 -14.79857,-0.73896 -4.36623,0.13831 -7.17639,1.33529 -6.17231,2.77721 z"
     id="path4828"
     style="fill:rgba(0, 0, 0, 0.87);stroke:#ffdd4c;stroke-width:4;stroke-miterlimit:4;stroke-opacity:1;stroke-dasharray:none;" />
    <script type="text/javascript">
        <![CDATA[


var path = document.querySelector('path');
var length = path.getTotalLength();
// Clear any previous transition
path.style.transition = path.style.WebkitTransition =
  'none';
// Set up the starting positions
path.style.strokeDasharray = length + ' ' + length;
path.style.strokeDashoffset = length;

path.style.fillOpacity=0;
// Trigger a layout so styles are calculated & the browser
// picks up the starting position before animating
path.getBoundingClientRect();
// Define our transition
path.style.transition = path.style.WebkitTransition =
  'all 20s ease-in-out';
// Go!
path.style.strokeDashoffset = '0';

path.style.fillOpacity=1;
        

]]>
    </script>
</svg>
