<svg version="1.0" xmlns="http://www.w3.org/2000/svg"
 width="1484.000000pt" height="711.000000pt" viewBox="0 0 1484.000000 711.000000"
 preserveAspectRatio="xMidYMid meet">
<g transform="translate(0.000000,711.000000) scale(0.100000,-0.100000)" class="path" stroke-width="20" stroke="#ffe765" fill="#2a2946">
<path d="M13061 3001 c-6 -10 -17 -60 -25 -112 -26 -157 -32 -178 -59 -199
-13 -11 -39 -49 -56 -85 -30 -61 -31 -68 -19 -103 15 -42 80 -112 104 -112 39
0 -21 -106 -66 -117 -29 -7 -40 -20 -40 -50 0 -12 -6 -26 -14 -30 -7 -4 -18
-18 -24 -30 -7 -12 -26 -24 -42 -28 -26 -6 -31 -11 -28 -33 2 -20 9 -28 28
-30 34 -5 50 -20 50 -46 0 -19 -12 -24 -92 -45 -146 -37 -240 -77 -351 -150
-124 -82 -204 -154 -234 -211 -27 -50 -28 -75 -2 -115 10 -16 24 -39 30 -51 6
-11 26 -29 45 -39 30 -16 33 -20 20 -34 -8 -9 -39 -29 -68 -44 -29 -16 -71
-44 -92 -62 -32 -29 -36 -36 -22 -41 9 -4 34 -4 54 -2 l37 5 3 -226 c2 -124 6
-234 8 -243 5 -16 -4 -18 -85 -18 -83 0 -91 2 -91 19 0 33 -11 51 -31 51 -10
0 -18 3 -17 8 1 4 -1 22 -5 40 -5 25 -11 32 -31 32 -29 0 -54 23 -72 67 -19
45 -19 45 29 71 55 30 90 84 91 142 1 55 -23 107 -75 162 -21 23 -39 51 -39
62 -1 12 -7 32 -15 46 -8 14 -14 39 -15 55 0 40 -31 125 -46 125 -19 0 -47
-88 -42 -134 4 -35 2 -45 -14 -55 -12 -7 -17 -18 -14 -28 4 -10 -14 -37 -52
-77 -70 -75 -91 -127 -73 -186 15 -50 54 -97 97 -115 19 -8 34 -21 34 -29 0
-23 17 -28 34 -11 14 15 18 13 36 -17 11 -18 30 -35 42 -38 12 -3 24 -12 26
-20 5 -13 3 -13 -11 -1 -17 14 -19 11 -21 -23 -1 -11 -7 -20 -14 -22 -7 -1 -8
0 -2 3 21 10 8 23 -34 34 -25 6 -47 17 -50 25 -7 19 -35 18 -42 -1 -4 -8 -17
-15 -30 -15 -31 0 -64 -33 -64 -65 0 -15 -6 -25 -14 -25 -8 0 -16 -6 -19 -14
-6 -14 -79 -36 -120 -36 l-24 0 -5 356 c-6 389 -4 374 -66 374 -26 0 -35 -5
-39 -20 -3 -11 -14 -20 -25 -20 -31 0 -47 -24 -50 -79 -5 -91 -23 -56 -26 51
-1 57 -6 193 -10 303 l-7 200 -43 9 c-58 12 -104 -2 -112 -34 -5 -20 -13 -26
-43 -28 -24 -2 -37 -8 -37 -18 0 -8 -9 -14 -20 -14 -18 0 -20 -7 -20 -87 0
-87 0 -88 -30 -105 l-30 -17 -3 -423 -2 -423 -3 468 c-1 295 -6 467 -12 467
-6 0 -11 64 -12 158 l-3 157 -56 14 c-47 12 -61 12 -100 0 -36 -12 -45 -19
-47 -41 -3 -26 -6 -28 -51 -28 -40 0 -50 -3 -54 -20 -3 -12 -14 -20 -26 -20
-20 0 -21 -5 -21 -99 l0 -98 -32 -9 -33 -10 -3 -432 c-2 -329 -5 -432 -14
-432 -7 0 -32 -7 -55 -16 l-43 -17 0 -63 0 -64 -30 0 c-30 0 -30 1 -30 55 l0
55 -40 0 c-34 0 -87 27 -331 166 l-290 167 -97 -46 c-164 -77 -381 -156 -544
-198 -189 -48 -229 -52 -628 -58 -569 -10 -777 -7 -890 14 -212 38 -473 122
-744 239 l-38 17 -207 -124 -206 -123 -70 4 c-39 3 -73 10 -77 16 -4 6 -7 85
-7 176 1 161 -9 229 -31 215 -5 -3 -10 -13 -10 -21 0 -8 -5 -14 -11 -14 -8 0
-10 18 -6 59 4 53 3 60 -15 64 -14 4 -18 11 -14 25 7 20 -15 52 -35 52 -5 0
-15 11 -21 25 -14 31 -26 32 -38 1 -5 -13 -18 -27 -29 -31 -22 -7 -36 -38 -26
-56 4 -6 -2 -13 -13 -16 -18 -4 -19 -11 -15 -64 4 -41 2 -59 -6 -59 -6 0 -11
6 -11 14 0 8 -5 18 -10 21 -17 10 -32 -45 -33 -124 l-2 -74 -55 -1 c-65 -2
-80 1 -80 20 0 10 -15 14 -55 14 -48 0 -57 3 -65 22 -7 18 -9 19 -9 5 -1 -10
-8 -20 -16 -23 -8 -3 -17 -14 -20 -25 -5 -14 -16 -19 -45 -19 -35 0 -39 3 -42
28 -3 26 -6 27 -64 30 -55 3 -61 5 -57 22 3 12 -5 29 -21 45 -16 16 -26 37
-26 55 0 37 -12 38 -38 3 l-19 -27 -21 47 c-12 26 -25 47 -29 47 -5 0 -14 19
-20 43 -8 30 -20 47 -44 61 -49 29 -69 53 -69 85 0 17 -4 33 -10 36 -13 8 -13
48 -1 60 6 6 4 15 -5 23 -15 14 -16 13 -20 -38 -5 -67 -22 -125 -40 -135 -40
-23 -85 -69 -91 -94 -3 -14 -17 -40 -30 -57 -12 -17 -23 -38 -23 -47 0 -23
-23 -21 -38 3 -18 29 -32 25 -32 -10 0 -18 -10 -39 -26 -55 -17 -17 -24 -33
-21 -46 5 -17 0 -19 -53 -19 -56 0 -59 -1 -69 -30 -8 -25 -15 -30 -44 -30 -26
0 -36 5 -45 25 -6 14 -16 25 -22 25 -5 0 -10 8 -11 18 0 13 -2 12 -9 -5 -8
-20 -17 -23 -65 -23 -42 0 -55 -3 -55 -15 0 -12 -15 -15 -71 -15 l-71 0 3 40
c2 21 0 42 -4 46 -4 4 -7 21 -7 38 0 69 -22 98 -40 54 -7 -18 -9 -8 -9 40 -1
48 -4 62 -16 62 -10 0 -15 10 -15 30 0 24 -7 35 -29 48 -17 9 -32 25 -35 35
-4 16 -10 13 -45 -21 -27 -26 -41 -48 -41 -65 0 -16 -6 -27 -17 -29 -14 -2
-16 -13 -14 -61 2 -37 -1 -57 -9 -57 -6 0 -9 4 -6 8 2 4 1 14 -4 21 -15 25
-30 0 -30 -50 0 -27 -3 -49 -7 -49 -5 0 -7 -34 -6 -75 3 -73 2 -75 -21 -75
-23 0 -24 -4 -30 -78 -4 -42 -5 -96 -2 -119 3 -24 0 -45 -5 -48 -5 -4 -9 -22
-9 -41 l0 -34 -50 0 -50 0 0 86 c0 78 -3 92 -31 140 -17 30 -34 54 -37 54 -4
0 -25 -25 -46 -55 -37 -51 -43 -55 -80 -56 -23 0 -76 -6 -118 -13 -61 -10 -78
-10 -78 0 0 6 -7 14 -15 18 -8 3 -15 12 -15 21 0 13 -21 15 -145 15 -93 0
-145 -4 -145 -10 0 -6 -7 -21 -15 -34 -14 -21 -18 -22 -74 -13 -58 9 -62 12
-277 200 -121 104 -237 206 -260 226 -23 20 -156 137 -298 260 -226 197 -256
227 -256 253 0 25 -4 29 -22 26 -13 -2 -24 -10 -24 -18 -1 -8 -3 -53 -5 -100
l-3 -85 -5 85 c-6 79 -8 85 -28 88 -15 2 -23 -2 -23 -11 0 -13 -106 -109 -535
-482 -88 -77 -162 -142 -165 -145 -3 -3 -59 -52 -125 -110 -112 -97 -120 -102
-125 -79 -5 21 -14 25 -90 36 -67 10 -112 11 -208 2 l-122 -12 0 -58 0 -59
-115 0 -115 0 0 -445 0 -445 7420 0 7420 0 0 365 c0 237 -4 365 -10 365 -5 0
-10 11 -10 25 0 24 -2 25 -66 25 -77 0 -154 17 -161 36 -3 8 -11 14 -19 14 -8
0 -14 10 -14 25 0 32 -33 65 -64 65 -13 0 -26 7 -30 15 -7 19 -35 20 -42 1 -3
-8 -25 -19 -50 -25 -42 -11 -55 -24 -34 -34 6 -3 5 -4 -2 -3 -7 2 -13 11 -14
22 -2 34 -4 37 -21 23 -14 -12 -16 -12 -11 1 2 8 14 17 26 20 12 3 31 20 42
38 18 30 22 32 36 17 17 -17 34 -12 34 11 0 8 15 21 34 29 43 18 82 65 97 115
18 59 -3 111 -73 186 -38 40 -56 67 -52 77 3 10 -2 21 -14 28 -16 10 -18 20
-14 55 5 46 -23 134 -42 134 -15 0 -46 -85 -46 -125 -1 -16 -7 -41 -15 -55 -8
-14 -14 -34 -15 -46 0 -11 -18 -39 -39 -62 -52 -55 -76 -107 -75 -162 1 -58
36 -112 92 -142 47 -26 47 -26 28 -71 -18 -44 -43 -67 -72 -67 -20 0 -26 -7
-31 -32 -4 -18 -6 -36 -5 -40 1 -5 -7 -8 -17 -8 -20 0 -31 -18 -31 -51 0 -17
-8 -19 -91 -19 -81 0 -90 2 -85 18 2 9 6 119 8 243 l3 226 37 -5 c20 -2 45 -2
54 2 14 5 10 12 -22 41 -21 18 -63 46 -92 62 -29 15 -60 35 -68 44 -13 14 -10
18 20 34 19 10 39 28 45 39 6 12 20 35 30 51 26 40 25 65 -1 115 -31 57 -111
129 -235 211 -106 70 -205 113 -330 145 -56 14 -73 22 -73 36 0 12 -8 18 -21
18 -31 0 -18 22 22 35 25 9 35 18 37 37 3 22 -2 27 -28 33 -16 4 -35 16 -42
28 -6 12 -17 26 -24 30 -8 4 -14 18 -14 30 0 30 -11 43 -40 50 -43 11 -105
117 -69 117 14 1 85 50 86 60 0 3 8 22 17 44 9 21 16 40 16 43 0 19 -67 137
-87 153 -27 21 -33 42 -59 199 -16 102 -27 131 -49 131 -8 0 -19 -8 -24 -19z
m-11513 -1391 c-29 -26 -217 -189 -416 -364 l-364 -316 -50 0 c-27 0 -48 4
-46 8 3 9 176 161 537 472 118 102 253 219 300 259 l86 75 3 -43 c3 -41 1 -46
-50 -91z m236 78 c33 -29 63 -56 66 -59 3 -3 129 -113 280 -244 151 -131 337
-291 412 -356 75 -66 140 -124 143 -129 4 -6 -7 -10 -27 -10 -28 0 -38 8 -72
55 -22 30 -42 55 -45 55 -4 0 -12 -9 -19 -20 -12 -20 -18 -16 -119 72 -58 51
-161 140 -227 198 -67 57 -130 113 -141 123 -11 10 -88 78 -172 150 -151 131
-152 132 -153 175 0 23 3 42 6 42 4 0 34 -24 68 -52z m11225 -95 c1 -48 -2
-63 -13 -63 -8 0 -16 -5 -18 -11 -3 -9 -34 -9 -119 0 -63 6 -148 11 -188 11
-40 0 -71 4 -69 9 6 15 92 76 128 90 19 8 39 18 45 23 5 4 21 8 35 8 14 0 30
4 36 9 5 5 41 16 79 24 l70 14 6 -26 c4 -14 7 -54 8 -88z m316 77 c3 -5 19
-10 34 -10 15 0 31 -4 37 -8 5 -5 25 -15 44 -23 34 -13 122 -74 128 -89 1 -4
-62 -10 -142 -13 -79 -4 -151 -10 -160 -13 -21 -8 -32 21 -19 49 23 49 33 79
33 97 0 21 34 28 45 10z m-11725 -103 c0 -38 -5 -47 -37 -74 -21 -17 -175
-150 -343 -297 l-305 -266 -53 0 c-30 0 -51 4 -48 9 4 5 86 78 184 162 326
282 455 394 521 452 36 31 69 57 73 57 4 0 8 -19 8 -43z m261 -73 c74 -64 161
-140 194 -169 115 -100 381 -330 413 -356 l31 -27 -18 -35 -18 -36 -51 45
c-41 36 -51 52 -54 82 -3 35 -5 36 -55 47 -48 9 -70 26 -309 235 -142 124
-263 231 -271 238 -14 15 -18 92 -4 92 5 0 69 -52 142 -116z m-261 -58 l0 -43
-222 -193 c-148 -129 -232 -195 -252 -200 -22 -4 -32 -12 -34 -27 -3 -22 -83
-103 -102 -103 -5 0 -10 13 -10 29 0 16 -6 31 -12 33 -8 3 1 17 22 35 281 246
594 513 601 513 5 0 9 -20 9 -44z m211 -28 c98 -84 367 -315 389 -335 12 -11
5 -13 -46 -13 -59 0 -61 1 -125 58 -36 31 -122 106 -192 167 -126 108 -127
110 -127 152 0 24 4 43 8 43 4 0 46 -33 93 -72z m-213 -110 l-3 -52 -126 -111
-126 -111 -72 -10 c-39 -5 -71 -7 -71 -4 0 4 70 67 157 141 86 74 172 149 192
166 20 18 40 33 44 33 4 0 7 -23 5 -52z m181 5 c31 -26 107 -93 170 -148 l114
-100 -42 -9 c-26 -6 -52 -6 -67 0 -13 5 -73 53 -134 107 l-110 98 0 50 c0 27
3 49 6 49 4 0 32 -21 63 -47z m-179 -137 c0 -41 -3 -46 -72 -105 -63 -55 -75
-62 -102 -57 -17 4 -34 10 -39 15 -6 6 196 191 210 191 2 0 3 -20 3 -44z m231
-52 c89 -77 95 -85 97 -123 2 -23 -2 -41 -7 -41 -5 0 -55 39 -110 86 -100 85
-101 87 -101 131 0 53 -5 55 121 -53z m11104 27 c121 -7 234 -17 250 -22 37
-11 -317 -3 -455 11 -52 5 -162 10 -245 10 -103 0 -145 3 -135 10 19 13 285 8
585 -9z m-3215 -156 c0 -76 -9 -95 -47 -95 -21 0 -23 -4 -24 -57 -1 -32 0 -70
1 -85 1 -22 -3 -28 -18 -28 -11 0 -24 6 -30 13 -12 14 -17 347 -5 347 4 0 30
-39 56 -85 27 -47 51 -85 53 -85 3 0 -8 24 -24 53 -17 28 -42 72 -56 97 -14
25 -26 49 -26 53 0 5 27 -6 60 -25 l60 -33 0 -70z m-227 60 c-14 -27 -22 -45
-16 -42 6 4 16 20 23 37 7 16 16 30 21 30 5 0 9 -78 9 -172 -1 -148 -3 -170
-14 -155 -8 10 -18 17 -22 15 -5 -1 -24 2 -42 6 l-32 8 1 61 c1 34 6 70 11 80
6 11 5 16 -2 15 -7 -2 -12 21 -14 60 l-2 64 50 23 c28 12 52 21 54 20 1 -1
-10 -24 -25 -50z m-2903 -25 c-17 -34 -27 -59 -22 -56 5 3 17 23 27 46 10 22
22 40 27 40 5 0 7 -80 6 -177 l-3 -178 -56 -3 c-68 -4 -64 -15 -64 187 l0 145
55 32 c30 18 56 32 58 30 2 -2 -11 -32 -28 -66z m-4762 -30 c91 -81 102 -94
100 -122 -1 -17 -8 -32 -14 -35 -7 -3 -56 33 -108 78 -93 81 -96 85 -96 126 0
24 4 43 8 43 5 0 54 -41 110 -90z m4925 61 c51 -22 57 -33 57 -109 l0 -57 -21
25 -20 25 19 -40 c15 -30 19 -60 18 -125 -1 -83 -1 -85 -27 -88 -14 -2 -37 2
-52 7 l-28 11 1 185 c1 102 3 185 5 185 2 0 23 -9 48 -19z m2647 -145 c0 -129
-1 -135 -21 -141 -17 -6 -31 2 -62 34 l-41 40 17 33 c9 18 30 57 47 86 18 28
29 52 26 52 -3 0 -24 -31 -47 -70 -23 -38 -43 -70 -45 -70 -2 0 -4 29 -4 64 0
52 3 65 18 69 9 3 35 13 57 21 22 8 43 15 48 16 4 0 7 -60 7 -134z m-2560 97
c0 -5 10 -19 21 -33 l21 -25 -16 27 c-9 15 -16 29 -16 32 0 2 23 -3 50 -12 57
-18 63 -30 58 -108 l-3 -49 -34 53 c-18 28 -35 52 -38 52 -3 0 1 -10 9 -22 8
-13 25 -40 37 -61 l24 -39 -59 -59 -59 -60 -7 48 c-10 78 -9 263 2 263 6 0 10
-3 10 -7z m-351 -162 l2 -149 -68 1 -68 2 1 57 c1 55 7 69 62 156 8 12 12 22
9 22 -4 0 -18 -20 -33 -45 -14 -25 -30 -45 -35 -45 -5 0 -9 20 -9 44 0 42 2
46 50 75 48 29 68 25 38 -9 -11 -12 -10 -12 4 -1 10 7 20 21 23 32 15 45 22 0
24 -140z m561 29 c59 -69 60 -72 60 -130 l0 -60 -61 0 c-56 0 -60 1 -48 17 12
15 12 16 -3 10 -20 -7 -19 -13 -24 141 -1 50 1 92 6 92 5 0 36 -32 70 -70z
m2019 43 c-11 -14 -9 -14 9 1 l23 20 -3 -80 -3 -79 -38 -3 c-29 -3 -37 -7 -35
-20 2 -11 -5 -18 -19 -20 -21 -3 -23 1 -24 40 -1 24 -2 60 -3 81 -2 48 1 52
49 65 57 14 59 14 44 -5z m4189 -23 c71 -38 110 -77 149 -153 25 -46 28 -63
28 -147 0 -89 -2 -99 -34 -158 -39 -71 -79 -110 -154 -149 -46 -25 -63 -28
-147 -28 -84 0 -101 3 -147 28 -75 39 -115 78 -154 149 -32 59 -34 69 -34 158
0 84 3 101 27 146 37 70 72 110 125 141 76 44 112 54 198 50 68 -3 89 -8 143
-37z m-6043 2 l30 -8 2 -103 3 -102 -58 3 -57 3 -3 112 -3 112 28 -4 c15 -3
42 -8 58 -13z m-875 -93 c0 -94 -4 -109 -25 -91 -6 5 -23 14 -40 20 -28 11
-28 11 -11 -3 19 -14 18 -15 -17 -15 -30 0 -37 4 -37 20 0 14 5 18 18 14 16
-5 16 -5 -1 6 -16 11 -16 14 12 48 16 20 39 47 50 59 12 12 21 26 21 30 0 4
-22 -17 -50 -47 -47 -53 -49 -54 -50 -27 0 22 9 33 43 55 24 15 54 28 65 29
21 2 22 -2 22 -98z m963 64 c12 -10 17 -12 12 -4 -6 11 -1 12 31 6 21 -4 42
-9 46 -11 9 -6 11 -74 3 -74 -3 0 -19 15 -35 33 -16 17 -30 27 -30 22 0 -6 14
-23 31 -39 l31 -30 -22 -18 c-12 -10 -17 -18 -12 -18 6 0 14 5 17 10 14 22 26
8 23 -27 -2 -32 -7 -39 -28 -41 -13 -2 -41 1 -62 7 l-38 12 0 94 c0 52 3 95 7
95 3 0 15 -8 26 -17z m234 -110 l3 -83 -55 0 c-29 0 -56 4 -60 10 -9 14 -18
160 -10 160 4 0 30 -16 59 -36 45 -32 47 -32 16 -5 -19 17 -39 31 -43 31 -5 0
-6 4 -3 8 3 5 24 6 48 3 l43 -6 2 -82z m49 65 c-5 9 4 12 38 12 l44 0 0 -80 0
-80 -54 0 -54 0 -1 33 c-1 17 -3 50 -4 72 -3 49 2 60 23 43 12 -10 14 -10 8 0z
m190 6 c19 -5 21 -13 21 -80 l0 -74 -54 0 c-29 0 -52 3 -52 8 1 4 1 9 0 12 -1
3 -3 33 -4 68 -1 46 1 61 11 57 6 -2 12 0 12 5 0 11 33 13 66 4z m479 -4 c-3
-6 1 -7 9 -4 14 5 16 -5 16 -71 0 -64 -2 -76 -15 -71 -8 3 -15 1 -15 -5 0 -6
-25 -9 -62 -7 -61 3 -63 4 -66 32 -2 16 2 33 10 38 10 7 10 11 1 15 -7 2 -13
20 -13 38 0 37 -11 33 118 43 13 1 21 -2 17 -8z m124 -7 c-11 -15 -10 -14 9 1
22 19 22 19 23 0 0 -10 3 -41 5 -67 6 -63 -6 -77 -67 -77 l-48 0 0 80 0 80 46
0 c42 0 44 -1 32 -17z m-449 -29 c0 -23 -4 -33 -11 -28 -8 5 -8 1 0 -14 6 -11
11 -34 11 -51 0 -30 -2 -31 -41 -31 -70 0 -79 11 -79 90 l0 70 60 0 60 0 0
-36z m175 5 c5 -21 3 -34 -6 -39 -10 -7 -10 -11 0 -24 7 -8 11 -25 9 -38 -3
-20 -10 -23 -48 -26 -24 -2 -59 -1 -77 3 l-33 6 0 74 0 75 74 0 74 0 7 -31z
m-815 -136 c267 -5 635 -8 818 -7 317 1 408 -6 267 -21 l-65 -7 0 -84 c0 -80
-1 -84 -22 -84 -13 0 -32 -7 -42 -15 -33 -25 -54 -19 -58 17 -4 40 -25 48 -38
14 -7 -20 -16 -26 -39 -26 -16 0 -33 5 -36 10 -3 6 -17 10 -30 10 -13 0 -26 4
-29 9 -7 11 -46 2 -46 -10 0 -5 -13 -6 -30 -3 -38 8 -80 -3 -80 -20 0 -8 -9
-16 -20 -19 -24 -6 -40 18 -40 62 l0 31 -65 0 -65 0 0 -35 c0 -33 -2 -35 -35
-35 -31 0 -35 3 -35 26 0 21 -4 25 -22 22 -15 -2 -24 -11 -26 -25 -5 -36 -22
-27 -22 12 l0 35 -60 0 c-55 0 -60 -2 -66 -24 -3 -14 -3 -29 0 -35 4 -5 2 -12
-4 -16 -6 -4 -10 5 -10 20 0 15 -5 35 -11 46 -10 20 -10 20 -28 -2 -20 -25
-65 -33 -82 -13 -14 17 -124 20 -134 3 -4 -6 -13 -8 -21 -5 -20 8 -94 -26 -94
-42 0 -7 -4 -10 -10 -7 -5 3 -10 26 -10 49 0 41 -2 44 -31 50 -17 3 -49 3 -70
0 -35 -6 -39 -10 -39 -35 0 -15 -4 -30 -8 -33 -16 -10 -50 6 -55 25 -7 26 -47
26 -47 -1 0 -11 -7 -20 -15 -20 -9 0 -15 9 -15 24 0 30 -18 37 -75 29 -43 -6
-45 -7 -45 -40 0 -39 -23 -42 -28 -5 -3 20 -10 22 -58 22 -30 0 -54 4 -54 9 0
29 -126 22 -133 -8 -3 -9 -5 26 -6 78 l-1 94 243 -6 c133 -4 460 -10 727 -14z">
</path>
<path d="M13011 823 c-88 -31 -161 -136 -161 -233 0 -132 118 -250 250 -250
60 0 130 30 175 75 188 188 -12 497 -264 408z"/>
</g>
</svg>
