<?xml version="1.0" encoding="UTF-8" standalone="no"?>
<!-- Created with Inkscape (http://www.inkscape.org/) -->

<svg
   xmlns:dc="http://purl.org/dc/elements/1.1/"
   xmlns:cc="http://creativecommons.org/ns#"
   xmlns:rdf="http://www.w3.org/1999/02/22-rdf-syntax-ns#"
   xmlns:svg="http://www.w3.org/2000/svg"
   xmlns="http://www.w3.org/2000/svg"
   xmlns:sodipodi="http://sodipodi.sourceforge.net/DTD/sodipodi-0.dtd"
   xmlns:inkscape="http://www.inkscape.org/namespaces/inkscape"
   height="100%"
     width="570.80835"
   height="539.78107"
     viewbox="0 0 570.80835 539.78107"
   id="svg3241"
   version="1.1"
   inkscape:version="0.48.4 r9939"
   sodipodi:docname="cover.svg">
  <defs
     id="defs3243">
    <filter
       color-interpolation-filters="sRGB"
       id="filter11916"
       inkscape:label="Drop Shadow">
      <feFlood
         id="feFlood11918"
         flood-opacity="0.932"
         flood-color="rgb(0,0,0)"
         result="flood" />
      <feComposite
         id="feComposite11920"
         in2="SourceGraphic"
         in="flood"
         operator="in"
         result="composite1" />
      <feGaussianBlur
         id="feGaussianBlur11922"
         stdDeviation="10.4"
         result="blur" />
      <feOffset
         id="feOffset11924"
         dx="5.4"
         dy="4.3"
         result="offset" />
      <feComposite
         id="feComposite11926"
         in2="offset"
         in="SourceGraphic"
         operator="over"
         result="composite2" />
    </filter>
  </defs>
  <sodipodi:namedview
     id="base"
     pagecolor="#ffffff"
     bordercolor="#666666"
     borderopacity="1.0"
     inkscape:pageopacity="0.0"
     inkscape:pageshadow="2"
     inkscape:zoom="0.35"
     inkscape:cx="326.11843"
     inkscape:cy="141.3191"
     inkscape:document-units="px"
     inkscape:current-layer="layer1"
     showgrid="false"
     fit-margin-top="0"
     fit-margin-left="0"
     fit-margin-right="0"
     fit-margin-bottom="0"
     inkscape:window-width="1333"
     inkscape:window-height="742"
     inkscape:window-x="33"
     inkscape:window-y="0"
     inkscape:window-maximized="1" />
  <metadata
     id="metadata3246">
    <rdf:RDF>
      <cc:Work
         rdf:about="">
        <dc:format>image/svg+xml</dc:format>
        <dc:type
           rdf:resource="http://purl.org/dc/dcmitype/StillImage" />
        <dc:title></dc:title>
      </cc:Work>
    </rdf:RDF>
  </metadata>
  <g
     inkscape:label="Layer 1"
     inkscape:groupmode="layer"
     id="layer1"
     transform="translate(-48.881573,-133.90021)">
    <path
       style="opacity:0.7;fill:#db7207;fill-opacity:1;filter:url(#filter11916)"
       d="M 310.0625 23.0625 C 309.83027 23.12302 309.65302 23.331301 309.625 23.5625 C 309.58746 23.87077 309.67087 24.109123 309.8125 24.125 C 309.95418 24.140886 310.26399 23.942265 310.5 23.65625 C 310.7361 23.370245 310.65264 23.100651 310.3125 23.0625 C 310.22745 23.052963 310.13991 23.042327 310.0625 23.0625 z M 331.78125 25.59375 C 331.12321 25.590801 330.83493 25.695695 330.9375 25.90625 C 331.1058 26.251845 331.57805 26.577715 332 26.625 C 333.43411 26.785797 337.10722 32.41771 338.53125 36.65625 C 339.31156 38.978979 340.11516 42.290497 340.3125 44.03125 C 340.50984 45.772003 340.75522 47.418927 340.875 47.6875 C 341.48117 49.046846 341.69199 47.094205 341.5625 41.40625 C 341.46243 37.010533 341.03021 33.936502 340.09375 31.125 C 339.35734 28.91411 338.82221 26.987059 338.9375 26.84375 C 339.05289 26.700446 337.2518 26.292841 334.90625 25.9375 C 333.47713 25.720996 332.43929 25.596699 331.78125 25.59375 z M 360.15625 28.78125 C 359.64295 28.79465 359.4596 28.913743 359.5625 29.125 C 359.73196 29.47293 360.26838 29.786247 360.78125 29.84375 C 361.29403 29.901248 362.49291 30.687164 363.4375 31.5625 C 365.37174 33.35505 373.78457 38.721691 377.09375 40.28125 C 379.59321 41.45922 379.75071 41.881347 380.53125 48.6875 C 381.3604 55.917886 383.5807 61.128042 388.1875 66.78125 C 390.48724 69.603362 392.19995 70.837427 395.59375 72.125 C 400.71455 74.06776 405.15447 74.29005 409.5 72.78125 C 413.59617 71.359064 416.05256 69.328543 419.09375 64.90625 C 420.15055 63.369549 421.4014 62.022376 421.875 61.90625 C 423.00474 61.629276 427.84493 64.931157 430.4375 67.75 C 432.62829 70.131973 433.77472 73.611225 433.0625 75.78125 C 432.52927 77.405732 430.99548 77.345324 429.8125 75.65625 C 427.80845 72.794838 421.85464 74.197807 421.4375 77.625 C 421.14789 80.0044 421.63679 81.059402 423.5 82.125 C 425.51913 83.279761 428.19996 83.248927 429.96875 82.0625 C 433.46314 79.718603 435.45256 73.053961 433.71875 69.4375 C 432.55277 67.005584 429.33954 64.152911 425.84375 62.4375 C 424.36005 61.709419 422.91172 60.850401 422.625 60.53125 C 422.33823 60.212094 422.32365 57.888383 422.59375 55.34375 C 423.16303 49.974661 422.24535 46.732451 419.4375 44.21875 C 416.56241 41.644805 414.44096 40.826123 409.78125 40.53125 C 404.29514 40.184086 400.86777 41.650257 398.65625 45.25 C 397.8504 46.561659 396.80867 47.729753 396.34375 47.84375 C 395.87883 47.957742 393.36457 46.984963 390.75 45.6875 L 386 43.34375 L 385.1875 40.15625 C 384.73926 38.41135 383.98902 35.989937 383.53125 34.78125 C 383.0732 33.572577 382.84157 32.275581 383.03125 31.90625 C 383.28234 31.417332 382.45065 31.14015 379.96875 30.875 C 377.01498 30.559487 376.69606 30.633283 377.5 31.375 C 378.48213 32.281118 379.68388 36.513987 379.46875 38.28125 C 379.27066 39.908819 377.01089 39.331466 372.8125 36.59375 C 368.27416 33.63441 365.51854 31.13248 365.8125 30.25 C 365.95992 29.807214 364.89163 29.40032 362.625 29.03125 C 361.4926 28.846867 360.66955 28.76785 360.15625 28.78125 z M 317.34375 30.53125 C 315.80991 30.52185 314.24955 31.60653 313.6875 33.375 C 313.48483 34.012685 312.77293 34.481134 312 34.5 C 311.26858 34.517848 310.65395 34.729703 310.625 34.96875 C 310.55836 35.516151 312.11357 37.219228 313.21875 37.78125 C 314.57964 38.473277 318.15513 38.146251 319.0625 37.25 C 320.44179 35.887656 320.59083 32.342057 319.3125 31.25 C 318.73632 30.757802 318.04095 30.535523 317.34375 30.53125 z M 424.1875 35.8125 L 424.34375 37.6875 C 424.51765 40.035978 425.1583 41.018543 427.25 42.1875 C 429.31602 43.342103 428.89683 43.295817 431.21875 42.65625 C 432.38454 42.335143 433.7702 41.317657 434.59375 40.1875 C 435.36224 39.13288 436.18935 38.315919 436.4375 38.34375 C 436.68565 38.371577 436.90014 38.120766 436.9375 37.8125 C 436.97883 37.472882 434.47731 36.966676 430.59375 36.53125 L 424.1875 35.8125 z M 499.28125 44.40625 C 498.71749 44.440686 498.471 44.530935 498.5625 44.71875 C 498.94359 45.501219 504.40997 46.114584 504.96875 45.4375 C 505.23698 45.112456 504.07704 44.781649 501.84375 44.53125 C 500.72715 44.406058 499.84501 44.371814 499.28125 44.40625 z M 409.84375 45.34375 C 413.93647 45.170493 417.68443 47.822455 419.40625 52.40625 C 420.83943 56.221733 420.71094 57.830699 418.875 58.78125 C 418.10291 59.181093 417.78524 59.52094 418.15625 59.5625 C 419.44219 59.706672 419.26828 61.942841 417.8125 64.3125 C 416.135 67.042941 411.29612 70.803126 408.03125 71.875 C 404.62274 72.99402 400.34731 72.606036 397.53125 70.9375 C 390.96266 67.045508 387.9561 61.698314 387.09375 52.375 C 386.39885 44.862527 386.64241 44.557595 391.5625 46.9375 C 393.50169 47.875513 395.3553 48.911418 395.6875 49.21875 C 396.01966 49.526068 396.20227 51.400986 396.09375 53.375 C 395.75515 59.53545 398.75937 63.659759 404.28125 64.65625 C 406.86799 65.123062 407.06563 65.080308 405.875 64.40625 C 401.42024 61.8842 400.98731 61.429969 400.125 58.65625 C 399.05256 55.206507 399.27491 52.463661 400.65625 52.125 C 401.20233 51.991101 403.41257 52.65273 405.5625 53.59375 C 410.53008 55.768048 411.16924 55.44242 406.375 53.1875 C 401.72823 51.001967 401.13713 50.150556 402.90625 48.3125 C 403.64023 47.549914 405.48683 46.488604 407 45.9375 C 407.9615 45.5873 408.89928 45.383732 409.84375 45.34375 z M 517.25 46.3125 C 516.5513 46.332959 516.48409 46.622117 516.59375 47.46875 C 516.70736 48.345454 515.90855 49.822803 514.125 52.0625 C 511.97371 54.763783 510.59723 55.801439 506.75 57.65625 C 500.30077 60.765562 495.44375 61.529387 487.375 60.71875 C 481.73442 60.152054 481.15039 60.19703 482.59375 60.96875 C 483.49603 61.451168 485.87716 62.262241 487.875 62.78125 C 497.33103 65.237831 508.71677 63.482272 514.21875 58.71875 C 516.82272 56.464259 518.78099 52.714399 518.84375 49.875 C 518.87177 48.608054 519.09434 47.597028 519.34375 47.625 C 519.59311 47.652958 519.83718 47.433275 519.875 47.125 C 519.91254 46.816734 519.15712 46.48372 518.1875 46.375 C 517.8039 46.33199 517.4829 46.30568 517.25 46.3125 z M 262.625 48.65625 C 261.13244 48.797142 260.11941 50.68363 261.28125 52.09375 C 262.13599 53.131087 264.87142 53.358875 265.84375 52.46875 C 266.48443 51.882254 266.43872 51.502054 265.6875 50.5625 C 265.16949 49.914681 264.29611 49.151395 263.71875 48.875 C 263.3419 48.694602 262.96944 48.623736 262.625 48.65625 z M 413.65625 57 C 413.50021 56.995107 413.82614 57.225741 414.6875 57.75 C 415.59688 58.303486 416.61683 58.803264 416.9375 58.84375 C 417.82278 58.955687 416.07625 57.823706 414.46875 57.25 C 414.02543 57.091781 413.74987 57.002936 413.65625 57 z M 320.8125 58.34375 C 319.93052 58.44482 317.8873 59.754741 314.375 62.4375 C 309.94088 65.824351 308.97703 66.785823 309.625 67.28125 C 310.22622 67.740973 310.60076 67.600367 311.0625 66.71875 C 311.845 65.224436 319.49723 59.325072 320.5 59.4375 C 320.91075 59.483548 321.27514 59.245775 321.3125 58.9375 C 321.36641 58.494662 321.2134 58.297809 320.8125 58.34375 z M 525 60.25 C 524.11254 60.372314 523.73616 61.255937 524.375 62.03125 C 524.9278 62.702174 526.00973 62.289453 526.34375 61.28125 C 526.54772 60.665489 526.2539 60.34154 525.4375 60.25 C 525.29148 60.233628 525.12678 60.232527 525 60.25 z M 324.03125 60.75 C 323.75344 60.744484 323.50805 60.947092 323.28125 61.375 C 322.54652 62.761155 314.05872 68.901939 313 68.8125 C 312.32864 68.755786 312.36679 68.961805 313.15625 69.6875 C 314.50621 70.928623 314.83363 70.927386 315.625 69.6875 C 315.98821 69.118445 318.31799 67.072028 320.8125 65.125 C 324.34994 62.363949 325.1967 61.458345 324.59375 61 C 324.39113 60.845986 324.19794 60.753309 324.03125 60.75 z M 516.46875 66.71875 C 515.94354 66.704287 515.32927 67.035911 515.09375 67.75 C 514.87694 68.407457 515.16426 68.750048 516 68.84375 C 516.83574 68.937457 517.24611 68.614615 517.34375 67.8125 C 517.43117 67.094328 516.99396 66.733213 516.46875 66.71875 z M 335.3125 68.53125 C 335.0513 68.541909 334.89912 68.763855 334.84375 69.21875 C 334.79038 69.657445 333.88868 70.683227 332.8125 71.5 C 330.59775 73.180953 329.99943 75.450716 331.3125 77.21875 C 332.84925 79.2879 336.17096 78.991326 337.8125 76.65625 C 339.47183 74.296 339.42923 72.417771 337.625 70.375 C 336.51171 69.114498 335.74783 68.513485 335.3125 68.53125 z M 324.4375 77.5 C 323.4931 77.488186 319.07979 82.206234 318.9375 83.375 C 318.8449 84.135872 319.35213 85.294759 320.15625 86.0625 C 322.02063 87.842591 322.89373 87.842171 325.15625 86.125 C 327.76194 84.147339 328.25502 80.787999 326.21875 78.84375 C 325.45021 78.109948 324.63746 77.502335 324.4375 77.5 z M 503.71875 80.59375 C 502.41768 80.628466 500.93139 80.9252 499.375 81.46875 C 493.73713 83.437693 484.55418 89.966508 478.65625 96.1875 L 477.28125 97.625 L 469.96875 96.6875 C 461.76198 95.626987 456.59544 95.918481 451.5 97.71875 C 447.0494 99.29116 443.00974 102.31165 440.6875 105.78125 C 438.98913 108.3187 438.59359 109.44698 438.09375 113.5 C 437.57084 117.73873 437.66013 118.62857 438.875 121.46875 C 439.62579 123.22418 441.37375 125.87566 442.75 127.375 C 444.12621 128.87434 445.20323 130.42628 445.15625 130.8125 C 444.88886 133.00909 437.44793 137.85065 433.4375 138.4375 C 430.45038 138.87461 427.16331 137.67016 427.34375 136.1875 C 427.4145 135.60622 428.01768 135.03058 428.6875 134.90625 C 430.12852 134.63876 431.98209 132.19452 432.21875 130.25 C 432.42099 128.58861 429.71666 125.651 427.8125 125.4375 C 426.19865 125.25655 423.80102 127.1178 422.9375 129.21875 C 422.46054 130.37934 421.89748 130.78032 420.71875 130.78125 C 419.82081 130.78216 419.08654 131.13971 419.03125 131.59375 C 418.91171 132.57613 419.59599 132.67968 420.65625 131.875 C 421.27671 131.40407 421.90977 131.91267 423.625 134.1875 C 424.82838 135.78345 426.92951 137.71853 428.28125 138.5 C 429.63294 139.28148 431.3752 139.9993 432.15625 140.09375 C 434.76591 140.40927 438.86367 138.53973 442.84375 135.1875 L 446.78125 131.84375 L 449.46875 132.96875 C 456.15469 135.69913 460.98592 135.57805 465.28125 132.5625 C 469.72998 129.43919 472.09715 122.69971 470.40625 118.03125 C 469.86835 116.54606 468.73315 114.71339 467.875 113.96875 C 467.01624 113.22359 466.39142 112.10411 466.46875 111.46875 C 466.63032 110.14153 472.9173 103.50599 474.34375 103.15625 C 474.86741 103.02782 476.28532 103.02006 477.5 103.15625 C 484.58856 103.95101 491.5725 101.9312 497.90625 97.25 C 503.20109 93.336626 505.81638 90.525623 507.625 86.78125 C 508.89614 84.149499 508.93485 83.811681 508.21875 82.4375 C 507.55857 81.17058 505.8872 80.53589 503.71875 80.59375 z M 279 85.96875 C 278.758 86.034662 278.52281 86.229891 278.40625 86.46875 C 278.2508 86.787238 278.55846 87.096235 279.09375 87.15625 C 279.62908 87.21627 280.01226 87.000552 279.9375 86.65625 C 279.86274 86.311962 279.55512 86.002932 279.25 85.96875 C 279.17371 85.960196 279.08067 85.946779 279 85.96875 z M 498.65625 86.34375 C 501.06042 86.337682 502.56005 87.278891 502.3125 89.3125 C 501.90105 92.693197 495.33208 97.786237 490.3125 98.625 C 486.26952 99.300594 480.52634 98.687072 480.21875 97.53125 C 479.91232 96.379972 482.0161 94.229254 486.625 91 C 490.97111 87.954852 495.56517 86.351552 498.65625 86.34375 z M 286.03125 90.8125 C 285.69432 90.86128 285.43427 91.050047 285.40625 91.28125 C 285.36871 91.58952 285.57278 91.872395 285.875 91.90625 C 286.17727 91.940143 286.63899 91.723519 286.875 91.4375 C 287.1111 91.151495 286.87573 90.868644 286.375 90.8125 C 286.24981 90.798463 286.14356 90.79624 286.03125 90.8125 z M 350.625 90.90625 C 348.91054 90.932517 347.09062 91.094617 345.46875 91.40625 L 341.25 92.21875 L 343.125 93.6875 C 345.46419 95.473554 345.45128 95.460445 346.34375 94 C 347.40405 92.264991 350.24501 91.55303 354.1875 92.03125 C 356.39487 92.298997 357.387 92.248749 356.90625 91.875 C 356.05788 91.215492 353.48243 90.862472 350.625 90.90625 z M 273.28125 93.46875 C 272.33403 93.50095 271.36437 93.673981 270.40625 93.96875 L 268.125 94.6875 L 271.59375 95.40625 C 273.49862 95.805729 276.07943 96.793429 277.34375 97.625 C 282.23307 100.84073 286.68076 108.1017 287.25 113.78125 C 287.40821 115.35996 287.50962 115.46617 287.8125 114.40625 C 288.74761 111.13451 286.98858 104.11946 284.21875 100 C 281.27921 95.628187 277.38586 93.329218 273.28125 93.46875 z M 301.96875 93.78125 C 300.9866 93.768091 300.18049 94.002158 299.625 94.46875 C 298.54513 95.37584 298.5083 95.646291 299.0625 97.4375 C 299.39867 98.524187 300.44406 100.32999 301.40625 101.4375 C 303.75306 104.13883 311.53946 109.83768 314.96875 111.375 C 316.49093 112.05738 317.82945 112.83887 317.96875 113.125 C 318.10814 113.41113 318.3174 115.14045 318.4375 116.96875 C 318.95112 124.78711 323.91506 133.64314 329.125 136.09375 C 336.6301 139.62392 344.67765 137.22252 348.75 130.21875 C 349.26862 129.32673 350.08035 128.63344 350.5625 128.6875 C 351.21238 128.76037 351.30481 128.58835 350.90625 128 C 350.61061 127.5635 350.55005 125.71119 350.78125 123.875 C 351.28637 119.86646 350.87065 118.1503 348.90625 115.90625 C 344.71351 111.11682 336.30079 111.0365 333.03125 115.75 C 332.26038 116.86121 331.45332 117.80927 331.25 117.875 C 330.70827 118.05012 330.59503 123.64187 331.09375 125.53125 C 331.64319 127.61282 334.23561 130.283 335.875 130.4375 C 337.04 130.54728 337.02774 130.48923 335.65625 129.5625 C 334.8327 129.00604 333.84485 127.76866 333.46875 126.8125 C 332.59024 124.57927 332.99013 121.12964 334.15625 120.84375 C 334.63868 120.72554 334.93723 120.21847 334.8125 119.75 C 334.54268 118.73618 336.38936 117.0627 338.71875 116.21875 C 342.68155 114.78303 347.0565 116.92655 348.65625 121.0625 C 349.60513 123.51532 349.61635 126.3229 348.6875 126.21875 C 348.39714 126.1862 348.16976 127.1075 348.1875 128.28125 C 348.21332 130.0053 347.84638 130.81183 346.25 132.46875 C 342.12777 136.74729 336.65863 138.26509 332.28125 136.3125 C 329.68069 135.15248 325.83705 130.95382 324.71875 128.0625 C 323.74535 125.54593 322.80861 119.52316 323.0625 117.4375 C 323.16028 116.63425 323.56608 115.99557 323.96875 116.03125 C 324.38179 116.06781 324.31075 115.819 323.78125 115.4375 C 323.26506 115.06558 321.93445 112.26295 320.84375 109.21875 C 318.59734 102.94867 317.12757 101.17991 310.65625 97.125 C 307.20466 94.962252 304.12947 93.810201 301.96875 93.78125 z M 306.09375 96.5625 C 307.83924 96.470328 311.66019 98.317422 313.59375 100.25 C 315.88625 102.54129 317.91128 107.47786 317.40625 109.53125 C 316.8987 111.59538 315.76812 111.44639 311.6875 108.71875 C 304.93287 104.20368 301.7208 97.620525 305.78125 96.625 C 305.87822 96.601224 305.97738 96.568645 306.09375 96.5625 z M 376.78125 97.59375 C 376.45776 97.551626 376.37423 97.805391 376.3125 98.3125 C 376.25838 98.757429 375.67175 99.413492 375.03125 99.75 C 372.20701 101.23394 371.17959 104.83357 373.09375 106.46875 C 374.76237 107.89422 376.47925 107.9708 378.09375 106.65625 C 381.02366 104.27073 381.30383 100.33941 378.65625 98.625 C 377.66051 97.980189 377.10474 97.635874 376.78125 97.59375 z M 458.03125 100.6875 C 459.75612 100.72397 461.63834 100.94848 463.8125 101.34375 C 472.35021 102.89594 472.4235 103.03775 467.9375 107.84375 C 465.20152 110.77489 464.94943 110.88918 463.34375 110.28125 C 462.41 109.92771 459.77358 109.42364 457.46875 109.15625 C 454.14313 108.77046 452.88769 108.8872 451.46875 109.65625 C 449.52732 110.70857 446.55697 114.59225 446.34375 116.34375 C 446.2603 117.02935 446.83057 116.5817 447.875 115.125 C 449.23272 113.23147 450.08087 112.66754 452.53125 112.09375 C 457.29211 110.97896 462.3639 112.86667 461.0625 115.25 C 460.71727 115.88239 460.92284 116.00974 462 115.875 C 463.02822 115.74637 463.59079 116.06007 464.125 117.09375 C 465.36298 119.48905 465.8003 122.85789 465.15625 124.84375 C 464.45869 126.99481 461.29811 129.97177 458.71875 130.90625 C 456.97611 131.53762 450.39302 131.12413 449.75 130.34375 C 448.94322 129.36456 449.87614 127.82597 453.5625 124 C 459.83895 117.48587 460.81921 116.38246 460 116.75 C 459.57496 116.94069 456.73874 119.73954 453.71875 122.96875 C 447.40088 129.7243 446.77011 129.93694 443.53125 126.125 C 441.03838 123.19095 439.10029 117.98702 439.09375 114.1875 C 439.08992 111.88486 439.4287 110.89266 441.03125 108.5 C 443.1851 105.28416 445.51207 103.57081 449.78125 102.09375 C 452.68026 101.09076 455.15647 100.62671 458.03125 100.6875 z M 517.875 101.25 C 516.78282 101.27896 516.09875 101.63592 515.15625 102.46875 C 512.38394 104.91846 512.66695 110.309 515.6875 112.65625 C 517.1183 113.76808 518.02011 113.98431 521.71875 114.125 C 524.1172 114.21624 527.93404 114.49734 530.1875 114.75 C 532.44091 115.00265 534.144 115.02516 533.96875 114.8125 C 533.79354 114.59984 530.95965 114.16069 527.6875 113.84375 L 521.75 113.28125 L 522.40625 111.5 C 524.6931 105.22165 523.59036 101.81315 519.125 101.3125 C 518.65115 101.25937 518.23906 101.24035 517.875 101.25 z M 219.03125 103.78125 C 218.51187 103.76833 217.97965 103.96715 217.5 104.40625 C 216.83405 105.01604 216.834 105.43819 217.46875 106.65625 C 218.30537 108.2617 220.39735 108.88545 221.6875 107.90625 C 222.25851 107.47289 222.18573 106.93167 221.4375 105.625 C 220.7585 104.43909 219.89689 103.80278 219.03125 103.78125 z M 357.46875 103.96875 C 357.3002 104.01128 357.25563 104.19693 357.21875 104.5 C 357.17752 104.83872 356.24733 105.75957 355.15625 106.53125 C 353.50878 107.69641 353.15548 108.29201 353.09375 110.0625 C 353.03762 111.67062 353.33851 112.40707 354.375 113.0625 C 356.24297 114.24367 356.79614 114.25689 358.71875 113.125 C 360.48525 112.085 361.72077 109.24489 361.3125 107.21875 C 361.17731 106.54805 360.36899 105.53149 359.5 104.96875 C 358.31991 104.20459 357.74967 103.89787 357.46875 103.96875 z M 269.6875 104.96875 C 268.71695 104.96826 267.73849 105.45167 267.21875 106.21875 C 266.7493 106.9114 266.04467 107.62422 265.625 107.8125 C 265.20291 108.00078 265.00001 108.49 265.1875 108.875 C 265.68202 109.89023 270.16384 109.93834 271 108.9375 C 271.38077 108.48171 271.58591 107.39364 271.46875 106.53125 C 271.29378 105.24285 270.99684 104.96922 269.6875 104.96875 z M 407.5 107.625 C 407.26496 107.64486 407.03628 107.8078 406.71875 108.125 C 405.57313 109.26934 405.25643 111.67131 406.09375 112.6875 C 406.44697 113.11616 407.52375 113.48277 408.5 113.5 C 411.09323 113.54583 411.43627 111.5649 409.28125 109.125 C 408.30733 108.02228 407.89173 107.5919 407.5 107.625 z M 223 112.40625 C 221.39423 112.22621 220.49102 114.19783 221.5 115.6875 C 222.20699 116.73124 225.19355 117.20073 225.875 116.375 C 226.63607 115.45274 224.55763 112.5809 223 112.40625 z M 420.71875 114 C 420.62369 114.06298 420.53686 114.3447 420.46875 114.875 C 420.37512 115.60341 419.45993 117.32885 418.4375 118.71875 C 414.46844 124.11458 405.87235 127.2919 397.1875 126.59375 L 395.09375 126.4375 L 396.78125 127.09375 C 397.71384 127.45662 400.45315 127.89817 402.875 128.0625 C 410.28997 128.56563 416.7243 126.30439 419.5625 122.21875 C 421.07072 120.04773 421.87392 115.95853 421.09375 114.4375 C 420.90806 114.07545 420.81381 113.93702 420.71875 114 z M 535.40625 114.28125 C 534.7087 114.2968 534.95328 114.53981 535.65625 115.21875 L 536.8125 116.34375 L 535.125 120.96875 C 531.49136 130.93397 531.43423 131.04132 529.46875 131.21875 C 526.67454 131.47098 515.79251 130.22552 515.5 129.625 C 515.35613 129.32959 515.7267 128.24111 516.34375 127.1875 C 517.19102 125.74089 517.41628 124.67865 517.21875 122.875 C 516.86866 119.67841 515.84075 118.57551 512.9375 118.25 C 509.55056 117.87025 507.47271 119.71007 507 123.59375 C 506.69773 126.07687 506.8853 126.70325 508.46875 128.625 L 510.28125 130.8125 L 519.125 131.375 C 523.99751 131.694 530.67361 132.10844 533.9375 132.28125 C 540.81289 132.64529 539.66984 133.70422 543.4375 123.34375 C 544.74763 119.74092 546.03969 116.31717 546.28125 115.75 C 546.68238 114.80783 546.45291 114.73193 543.875 114.78125 C 542.32326 114.81093 539.58418 114.66396 537.78125 114.46875 C 536.57881 114.33857 535.82478 114.27192 535.40625 114.28125 z M 541.3125 115.53125 C 542.3651 115.53154 543.02565 115.86074 543.1875 116.46875 C 543.59731 118.00823 539.25566 130.06203 537.9375 131.0625 C 536.49601 132.15656 535.38529 132.07332 534.53125 130.8125 C 533.99461 130.02023 534.20977 128.96021 535.84375 124.59375 C 538.88531 116.46565 539.44051 115.53078 541.3125 115.53125 z M 354 129.65625 C 353.65556 129.61763 354.35724 130.43332 355.53125 131.46875 C 358.01455 133.65903 359.81023 136.32611 359.71875 137.625 C 359.6799 138.1771 359.80659 138.26826 360.03125 137.875 C 360.68389 136.73281 359.30765 134.03686 356.9375 131.84375 C 355.67108 130.67194 354.34439 129.69482 354 129.65625 z M 485.46875 136.15625 L 483.46875 137.59375 C 481.52569 138.99313 481.49532 139.05254 482.53125 139.9375 C 483.74537 140.97465 483.53063 145.19382 482.125 147.8125 C 481.34567 149.26446 481.3668 149.2858 482.5 148.4375 C 483.44814 147.72772 483.84136 146.43708 484.5625 141.84375 L 485.46875 136.15625 z M 287.5 138.40625 C 287.18484 138.44393 286.79888 138.75611 286.125 139.40625 C 284.71083 140.77052 284.16103 142.30309 284.8125 143.09375 C 285.46733 143.8885 287.48374 143.76494 288.375 142.875 C 289.63288 141.61898 289.67883 140.38349 288.53125 139.125 C 288.06293 138.61144 287.81516 138.36857 287.5 138.40625 z M 353.4375 138.53125 C 352.68307 138.53017 351.99456 138.82596 351.3125 139.46875 C 350.02189 140.68507 350.05805 142.68751 351.375 143.8125 C 353.59278 145.70705 356.36309 145.2202 358.1875 142.625 C 359.50258 140.75432 359.58396 140.32177 358.59375 140.53125 C 358.176 140.61962 357.0102 140.169 356 139.5 C 355.02576 138.85485 354.19193 138.53233 353.4375 138.53125 z M 463.9375 141.4375 C 461.38475 141.56153 460.38763 144.80685 462.375 147.21875 C 463.96116 149.14381 467.09815 149.63247 468.78125 148.21875 C 469.85589 147.31611 469.86075 147.18086 469.09375 146.25 C 468.63551 145.69388 468.32359 144.89166 468.375 144.46875 C 468.51061 143.35453 466.32907 141.67733 464.46875 141.46875 C 464.28519 141.44817 464.10768 141.42923 463.9375 141.4375 z M 280.1875 144.21875 C 279.7898 144.16644 279.32056 144.49732 278.46875 145.25 C 276.7461 146.77218 276.24324 148.51696 277.34375 149.09375 C 278.80294 149.85848 280.04035 149.72927 280.75 148.75 C 281.81721 147.27726 281.8825 145.66977 280.90625 144.6875 C 280.63123 144.41078 280.42612 144.25014 280.1875 144.21875 z M 411.46875 147 C 410.00187 146.9814 408.41381 147.4145 405.34375 148.5 C 399.11497 150.70233 395.90254 152.866 401.40625 151.15625 C 407.63619 149.22087 411.48391 149.86404 411.125 152.8125 C 410.93434 154.37889 407.57748 157.48646 405.125 158.375 C 402.80108 159.21696 398.05232 159.19811 395.34375 158.3125 C 392.20931 157.28758 392.24005 155.87939 395.40625 153.75 L 397.875 152.0625 L 395.125 153.65625 C 389.83581 156.70314 390.41708 156.60427 386.46875 155.125 C 381.21356 153.15609 373.77548 152.45092 369.46875 153.5 C 359.39214 155.95453 354.99892 165.97108 360.25 174.46875 C 360.9216 175.55557 361.43379 176.82953 361.375 177.3125 C 361.31626 177.79548 361.7193 178.24835 362.28125 178.3125 C 362.8432 178.3768 364.51354 179.20969 366 180.15625 C 370.19209 182.82565 374.06169 182.82218 377.78125 180.15625 C 382.17002 177.01069 383.43706 172.32548 381.125 167.78125 C 380.35305 166.2639 379.21711 164.82241 378.59375 164.59375 C 377.97044 164.36507 376.36296 163.65112 375.03125 163 C 372.32964 161.67912 369.33882 161.78808 367.15625 163.28125 C 365.46484 164.43841 365.51118 165.29035 367.21875 164.40625 C 368.81467 163.57996 373.1652 163.87966 374.75 164.9375 C 375.33241 165.32628 375.75232 166.09242 375.6875 166.625 C 375.62268 167.1576 376.12685 167.89592 376.8125 168.28125 C 378.24633 169.08705 378.90898 172.41858 378.0625 174.5625 C 376.54405 178.40862 371.1945 180.45923 366.96875 178.8125 C 365.85577 178.37878 364.84572 177.63309 364.71875 177.15625 C 364.59187 176.6794 364.00276 176.22313 363.40625 176.15625 C 360.66341 175.84873 358.42731 170.39326 359 165.40625 C 359.35396 162.32421 359.70718 161.38142 361.25 159.625 C 364.95662 155.40513 372.49279 154.50307 380.4375 157.34375 C 383.38123 158.39629 384.5438 159.07479 384.65625 159.84375 C 384.77892 160.68222 385.05246 160.81502 385.96875 160.46875 C 386.6064 160.22781 389.96912 160.30768 393.4375 160.625 C 399.40935 161.17135 399.94415 161.11117 403.75 159.65625 C 405.96031 158.81127 409.45402 156.89152 411.5 155.375 C 417.22767 151.1295 417.76028 148.04155 412.9375 147.15625 C 412.42616 147.06238 411.95771 147.0062 411.46875 147 z M 294.53125 153.21875 C 294.42399 153.21773 294.27162 153.23764 294.09375 153.28125 C 293.55912 153.41234 292.99706 153.48593 292.84375 153.46875 C 292.69049 153.45157 292.71404 153.70071 292.875 154.03125 C 293.30942 154.92318 294.06033 154.88311 294.59375 153.90625 C 294.85232 153.43269 294.85303 153.22182 294.53125 153.21875 z M 490.65625 154.15625 C 490.58698 154.17785 490.50194 154.22497 490.375 154.3125 C 489.9834 154.58248 487.75461 158.4178 485.4375 162.84375 C 483.12044 167.26971 481.00617 171.32914 480.71875 171.84375 C 480.06985 173.00564 478.33788 172.87689 477.46875 171.59375 C 475.68637 168.96234 470.63811 167.47217 468.625 169 C 464.97834 171.7677 465.92682 176.60687 470.5 178.5 C 471.39294 178.86963 472.47622 179.20616 472.90625 179.28125 C 474.16091 179.50029 477.88021 178.12901 478.5625 177.1875 C 479.04567 176.52076 486.2884 163.04752 490.53125 154.90625 C 490.83053 154.33202 490.86405 154.09144 490.65625 154.15625 z M 244.90625 154.46875 C 244.51917 154.49399 244.81903 154.65283 245.65625 155.125 C 246.41788 155.55457 247.87017 156.3972 248.875 156.96875 C 249.87983 157.54031 251.56543 159.1763 252.59375 160.625 C 254.92365 163.90732 255.4923 163.7014 253.5625 160.28125 C 251.64316 156.87966 249.04725 154.81043 246.40625 154.5625 C 245.64149 154.49071 245.1385 154.4536 244.90625 154.46875 z M 264.65625 154.9375 C 262.90201 155.03932 262.86511 156.35754 264.53125 158.78125 C 265.24735 159.82294 265.89848 160.67611 266 160.6875 C 266.10157 160.69887 266.17866 159.6899 266.15625 158.4375 C 266.12973 156.9424 266.34729 156.17009 266.78125 156.21875 C 267.14474 156.2595 267.46264 156.05828 267.5 155.75 C 267.53754 155.44172 266.65543 155.0948 265.53125 154.96875 C 265.21163 154.93291 264.90686 154.92295 264.65625 154.9375 z M 431.84375 156 C 430.93475 155.89807 431.33278 157.64552 432.25 157.78125 C 432.80966 157.86407 435.32739 159.62446 437.84375 161.6875 C 440.36007 163.75053 442.54274 165.24188 442.6875 165 C 442.83226 164.75811 442.88328 164.45267 442.78125 164.34375 C 442.11801 163.63601 432.15139 156.03451 431.84375 156 z M 333.625 156.34375 C 333.04087 156.27826 332.75454 158.14871 333.25 158.75 C 333.69241 159.28707 334.81478 159.42514 335.375 159 C 335.85803 158.63337 334.4061 156.43133 333.625 156.34375 z M 315.65625 157.84375 C 313.89671 157.64698 311.35735 161.88955 312.96875 162.75 C 314.23606 163.4267 315.40408 163.11746 316.25 161.875 C 317.2178 160.4536 317.10018 158.49084 316 157.9375 C 315.89098 157.88267 315.77355 157.85687 315.65625 157.84375 z M 429.84375 160.28125 C 429.48941 160.26733 429.08227 160.66769 429 161.34375 C 428.92374 161.97013 429.25697 162.5072 429.75 162.5625 C 430.78574 162.67863 439.49815 169.26183 439.71875 170.09375 C 439.89681 170.76536 441.02041 169.54023 441.15625 168.53125 C 441.20808 168.14646 440.72748 167.7898 440.09375 167.71875 C 438.96779 167.59251 430.65915 161.68823 430.375 160.8125 C 430.26478 160.47288 430.05635 160.2896 429.84375 160.28125 z M 275.25 161.21875 C 275.1481 161.21905 275.18516 161.49451 275.34375 162.03125 C 275.53451 162.67761 275.62718 163.94481 275.5625 164.875 C 275.4975 165.80514 275.66072 167.25378 275.90625 168.0625 C 276.15169 168.87121 276.5952 170.98991 276.90625 172.78125 C 277.26937 174.87228 278.20632 177.0693 279.53125 178.90625 C 282.10883 182.47998 282.57393 182.58644 280.71875 179.21875 C 279.23206 176.5199 278.42605 173.04706 278.71875 170.59375 C 278.89223 169.14124 276.68399 162.70749 275.59375 161.5 C 275.4323 161.32119 275.31114 161.21857 275.25 161.21875 z M 302.8125 162.03125 C 302.33087 161.9584 301.7117 162.29764 300.90625 163.03125 C 299.46957 164.33978 299.01157 166.43434 300.03125 166.96875 C 301.44355 167.70893 302.16262 167.5654 303.28125 166.28125 C 304.19871 165.22806 304.32719 164.66246 303.9375 163.5 C 303.63549 162.59886 303.29413 162.1041 302.8125 162.03125 z M 243.4375 162.125 C 243.00719 162.07676 242.27219 162.64535 241.8125 163.375 C 241.0434 164.59584 241.10542 164.72564 242.4375 164.875 C 243.59208 165.00445 243.89522 164.74275 244.03125 163.625 C 244.12829 162.82775 243.88257 162.17489 243.4375 162.125 z M 342.25 162.625 C 342.0931 162.67264 341.78582 163.02477 341.21875 163.71875 C 339.58295 165.72056 338.78833 166.18452 334.34375 167.8125 C 330.74252 169.13159 330.73984 169.1707 333.0625 169.0625 C 334.36096 169.002 336.15462 168.67267 337.0625 168.34375 C 339.32861 167.52272 342.16425 164.84957 342.34375 163.375 C 342.40868 162.83348 342.4069 162.57736 342.25 162.625 z M 290 167.40625 C 288.67467 167.38724 287.90964 167.69212 286.96875 168.40625 C 284.8855 169.98735 284.14683 172.01302 284.65625 174.78125 C 285.14848 177.455 285.64497 177.82505 285.4375 175.375 C 285.17455 172.26969 288.73256 168.34246 291.53125 168.65625 C 293.47786 168.8745 295.93129 170.91041 296.53125 172.8125 L 297.125 174.6875 L 297.34375 173.09375 C 297.48319 172.0714 297.00558 170.87003 296.03125 169.6875 C 294.75731 168.14141 294.05896 167.81466 291.53125 167.53125 C 290.9353 167.46443 290.44178 167.41259 290 167.40625 z M 417.59375 169.21875 C 416.2667 169.19093 415.07397 169.63848 414.46875 170.5625 C 413.28559 172.36894 413.62508 174.2535 415.375 175.4375 C 418.2216 177.3635 421.36307 177.12784 422.96875 174.84375 C 424.20305 173.08799 424.37124 172.18793 423.53125 172.09375 C 423.19709 172.05628 422.25913 171.42642 421.4375 170.6875 C 420.37115 169.72843 418.9208 169.24657 417.59375 169.21875 z M 348.25 171.28125 C 347.93391 171.28332 347.59838 171.36735 347.15625 171.53125 C 346.36618 171.82414 345.49599 172.34352 345.21875 172.65625 C 344.34911 173.63707 344.24151 176.53246 345.03125 177.9375 C 345.44783 178.67868 345.88853 179.30003 346 179.3125 C 346.11142 179.32499 347.25661 178.63327 348.53125 177.78125 C 351.36688 175.88579 351.89708 173.65994 349.90625 172.0625 C 349.23317 171.52243 348.77681 171.27781 348.25 171.28125 z M 296.625 175.6875 C 296.55643 175.73955 296.46 175.95635 296.40625 176.28125 C 296.30898 176.86926 296.40828 177.19574 296.625 177.03125 C 296.84163 176.86676 296.9319 176.39226 296.8125 175.96875 C 296.74647 175.73473 296.69357 175.63545 296.625 175.6875 z M 428.5 177.90625 C 425.76581 178.10654 423.70292 180.72551 425.9375 183.4375 C 426.94798 184.66393 427.87393 185.09164 429.84375 185.3125 C 432.67835 185.63031 434.08947 184.81824 435.0625 182.34375 C 435.53134 181.15149 435.44758 180.83872 434.65625 180.75 C 434.10999 180.68875 433.0541 180.05185 432.3125 179.34375 C 431.13213 178.21673 429.74281 177.81521 428.5 177.90625 z M 358.25 180.21875 C 357.8869 180.28382 357.21555 180.49558 356.3125 180.8125 C 354.31928 181.51201 352.07909 181.85177 350.59375 181.6875 C 348.80086 181.489 348.43369 181.58077 349.25 182 C 349.86285 182.31473 350.77005 182.61857 351.25 182.6875 C 352.3577 182.84654 356.63337 181.50921 358.3125 180.46875 C 358.66464 180.25055 358.6131 180.15368 358.25 180.21875 z M 403.40625 182.125 L 401.09375 183.8125 C 398.98729 185.35473 398.86095 185.55826 399.9375 185.84375 C 400.63833 186.02961 401.19739 186.74606 401.3125 187.59375 C 401.51615 189.09321 400.6418 193.35399 399.6875 195.4375 C 398.89528 197.16713 399.61592 196.99176 400.90625 195.15625 C 401.67689 194.06012 402.19438 191.92635 402.6875 187.875 L 403.40625 182.125 z M 253.0625 182.46875 C 252.76219 182.41535 252.65663 183.18749 252.53125 185.4375 C 252.38607 188.04431 251.91972 189.74625 250.78125 191.84375 C 248.79868 195.49624 250.27257 194.69082 252.5625 190.875 C 254.34749 187.90054 254.74072 184.36295 253.4375 182.78125 C 253.28707 182.5987 253.1626 182.48655 253.0625 182.46875 z M 243.21875 183.75 C 242.13828 183.83644 241.66588 184.67063 242.375 185.53125 C 242.99602 186.28499 244.57727 185.87236 244.90625 184.875 C 245.13889 184.1695 244.83182 183.8748 243.71875 183.75 C 243.54029 183.72999 243.3731 183.73765 243.21875 183.75 z M 299.40625 184.875 C 297.79432 184.69427 297.06671 186.32541 298.28125 187.40625 C 299.46782 188.46221 299.40284 188.44313 300.90625 187.875 C 303.19567 187.00981 302.29936 185.19938 299.40625 184.875 z M 381.09375 187.84375 C 379.3577 187.89076 377.69843 188.95685 377.46875 190.84375 C 377.31937 192.07097 379.19169 194.93434 380.65625 195.71875 C 382.24843 196.57153 384.5219 196.29676 386.3125 195.03125 C 387.78065 193.99362 387.78459 193.98845 386.65625 193.4375 C 386.02897 193.13127 385.57256 192.52452 385.625 192.09375 C 385.67739 191.66299 385.2544 190.57438 384.6875 189.6875 C 383.8533 188.38226 382.44401 187.80718 381.09375 187.84375 z M 340.25 188.03125 C 339.6101 187.97577 338.62081 188.123 337.75 188.40625 C 335.17508 189.24382 334.16042 190.23769 336.15625 189.96875 C 337.90239 189.73348 339.59847 190.82366 339.46875 192.09375 C 339.38147 192.94834 339.46561 192.94242 340.34375 192.0625 C 341.64861 190.75503 341.86237 188.71574 340.75 188.15625 C 340.62795 188.09487 340.4633 188.04974 340.25 188.03125 z M 316.875 196.28125 C 314.40053 196.35193 312.74353 196.76424 311.4375 197.5625 C 309.97089 198.45891 310.02194 198.47376 313.4375 197.78125 C 316.31053 197.19877 317.50911 197.20871 320.21875 197.9375 C 323.55707 198.83538 329.63667 198.96632 331.5625 198.15625 C 332.69999 197.67779 330.12267 197.22693 322.3125 196.53125 C 320.13881 196.33763 318.35968 196.23884 316.875 196.28125 z M 260.8125 197.78125 C 260.74659 197.79 260.68657 197.81612 260.625 197.84375 C 259.66351 198.27508 257.7919 201.39948 257.65625 202.78125 C 257.58592 203.4986 257.87067 203.35341 258.65625 202.28125 C 259.55755 201.05104 260.06227 200.86477 261.4375 201.21875 C 263.39901 201.72364 263.69441 200.92273 262.34375 198.875 C 261.8435 198.11659 261.27388 197.72002 260.8125 197.78125 z M 315.4375 202.875 C 315.18955 202.85142 315.23211 202.91543 315.625 203.03125 C 316.41077 203.26289 317.45321 203.92609 317.9375 204.5 C 318.42179 205.07391 319.17619 205.89051 319.625 206.34375 C 320.73816 207.46776 320.21381 211.22895 318.75 212.59375 C 318.10726 213.193 316.46301 213.9255 315.125 214.21875 L 312.71875 214.75 L 315.03125 215 C 318.69407 215.42145 321.50509 213.12258 321.9375 209.3125 C 322.31257 206.00624 320.57694 203.86744 316.96875 203.15625 C 316.19972 203.00465 315.68545 202.89858 315.4375 202.875 z M 344.25 203.0625 C 342.87569 203.30903 342.33941 204.94936 343.375 206.34375 C 344.41205 207.7401 346.83856 208.19063 347.4375 207.09375 C 348.09261 205.8939 346.40255 203.23377 344.875 203.0625 C 344.64677 203.03691 344.44633 203.02728 344.25 203.0625 z M 381.03125 204.875 C 377.92687 204.94364 376.72145 208.24229 378.875 211.375 C 379.83252 212.76784 380.67957 213.3137 382.0625 213.46875 C 384.23144 213.71194 386.64081 212.68593 385.65625 211.9375 C 385.31307 211.67664 385.11345 210.77129 385.21875 209.90625 C 385.49403 207.64492 383.73012 205.13527 381.6875 204.90625 C 381.46412 204.8812 381.23821 204.87042 381.03125 204.875 z M 275.34375 205.03125 C 275.13105 205.02752 274.93897 205.03149 274.8125 205.0625 C 273.89089 205.28846 273.26029 207.55968 273.90625 208.34375 C 274.3651 208.90064 277.11962 209.17518 278 208.75 C 278.38576 208.56368 278.94764 207.87083 279.25 207.21875 C 279.72841 206.18692 279.51104 205.96355 277.75 205.4375 C 276.91534 205.18812 275.98185 205.04245 275.34375 205.03125 z M 284.09375 209.125 C 283.38379 209.18015 283.06572 209.42271 282.90625 209.90625 C 282.72754 210.44806 282.85497 211.29026 283.1875 211.78125 C 284.37599 213.53591 287.51407 212.81327 288.15625 210.625 C 288.43877 209.66231 288.16782 209.47582 285.875 209.21875 C 285.10343 209.13224 284.51973 209.09191 284.09375 209.125 z M 261.90625 210.4375 C 261.35601 210.44983 258.78282 212.26131 255.78125 214.78125 C 255.35537 215.13875 253.93336 216.15481 252.625 217.0625 C 250.13511 218.78979 246.82072 223.35372 246.65625 225.28125 C 246.60152 225.92281 247.06551 225.43167 247.71875 224.15625 C 248.70471 222.23129 250.92471 220.3378 256.0625 217.0625 C 257.29488 216.27688 261.92005 211.18833 262 210.53125 C 262.00914 210.45623 261.98486 210.43574 261.90625 210.4375 z M 348.28125 211.53125 C 347.98557 211.55282 347.68213 211.68338 347.375 211.875 C 345.99636 212.73523 346.0015 214.35794 347.375 215.53125 C 348.86706 216.80585 349.69815 216.9004 350.75 215.9375 C 351.41651 215.32724 351.39886 214.87018 350.75 213.625 C 349.99375 212.1738 349.1683 211.46655 348.28125 211.53125 z M 299.75 211.96875 C 299.19732 212.03867 298.69785 212.30728 298.53125 212.8125 C 298.35151 213.35744 298.31385 214.19194 298.4375 214.65625 C 298.94234 216.55287 302.00177 215.20313 301.84375 213.15625 C 301.77581 212.2761 300.67114 211.85221 299.75 211.96875 z M 310.46875 212.9375 C 310.35702 212.94321 310.26657 212.94009 310.15625 212.96875 C 309.66864 213.09543 309.79174 213.24056 310.46875 213.34375 C 311.08142 213.43712 311.42138 213.36426 311.25 213.15625 C 311.12143 213.00028 310.80394 212.92037 310.46875 212.9375 z M 224.625 213.09375 C 224.55433 213.08351 224.49376 213.08575 224.40625 213.125 C 224.0564 213.28203 223.88135 213.66106 224.03125 213.96875 C 224.43723 214.8023 224.81768 214.70327 224.9375 213.71875 C 224.98138 213.35828 224.837 213.12448 224.625 213.09375 z M 334.34375 216.3125 C 334.27308 216.30226 334.21251 216.30449 334.125 216.34375 C 333.77519 216.50079 333.60006 216.87981 333.75 217.1875 C 334.15594 218.02106 334.50518 217.92203 334.625 216.9375 C 334.66888 216.57704 334.55575 216.34323 334.34375 216.3125 z M 487.78125 218.71875 C 486.1721 218.68743 484.93024 221.22409 486.1875 222.75 C 486.89127 223.60407 490.0367 224.13171 490.125 223.40625 C 490.28186 222.11767 489.26863 219.29283 488.5 218.90625 C 488.26167 218.78638 488.01113 218.72322 487.78125 218.71875 z M 320.75 218.78125 C 320.43614 218.77958 320.11616 218.87304 319.8125 219.0625 C 318.63387 219.79783 318.53815 221.0895 319.5625 222.46875 C 320.52128 223.75967 321.96377 224.08392 323.0625 223.25 C 323.62669 222.82182 323.66806 222.28432 323.1875 221.0625 C 322.61736 219.61296 321.69159 218.78625 320.75 218.78125 z M 230.40625 220.96875 C 230.31242 220.98168 230.22332 221.0116 230.15625 221.0625 C 229.95639 221.21414 229.95334 221.61623 230.125 221.96875 C 230.52473 222.78942 232.0949 222.97948 232.1875 222.21875 C 232.25896 221.63163 231.06309 220.87823 230.40625 220.96875 z M 276.875 221.21875 C 276.73877 221.27605 276.65422 221.5343 276.59375 222.03125 C 276.51049 222.71502 276.84026 223.25605 277.34375 223.3125 C 277.82552 223.36652 278.21731 223.20803 278.25 222.9375 C 278.28292 222.66699 277.96633 222.06278 277.53125 221.625 C 277.2008 221.2925 277.01123 221.16145 276.875 221.21875 z M 215.90625 221.625 C 215.79452 221.63071 215.67282 221.65884 215.5625 221.6875 C 215.07484 221.81418 215.19799 221.95933 215.875 222.0625 C 216.48771 222.15587 216.82763 222.05175 216.65625 221.84375 C 216.52768 221.68778 216.24143 221.60787 215.90625 221.625 z M 177.46875 223.46875 C 177.15052 223.51661 176.9149 224.16443 177 225.34375 C 177.18344 227.88589 176.48018 229.05497 174.875 228.875 C 173.9107 228.76689 173.33105 228.10063 172.75 226.34375 C 172.22409 224.75345 171.67256 224.04559 171.09375 224.1875 C 170.61648 224.30453 169.61962 224.46544 168.84375 224.5625 C 167.62401 224.71508 167.48375 224.93645 167.8125 226.1875 C 168.02156 226.98332 168.04235 228.75022 167.875 230.125 C 167.62208 232.20292 167.32788 232.69676 166.1875 232.96875 C 165.43303 233.14874 164.00499 233.07367 163 232.8125 C 159.71813 231.95959 151.48258 233.05036 143.40625 235.40625 C 136.04839 237.55255 132.44174 239.21276 132.28125 240.53125 C 132.19117 241.27137 133.65875 240.90273 140.625 238.46875 C 148.05346 235.87327 152.96305 234.99999 158.71875 235.21875 C 163.12091 235.38606 163.61724 235.52686 164.625 236.75 C 165.84844 238.23485 165.82988 240.47877 164.59375 241.25 C 164.15205 241.52558 162.20843 241.58136 160.28125 241.375 C 158.25455 241.15798 155.94061 241.28492 154.78125 241.6875 C 153.67487 242.07172 152.27933 242.1759 151.65625 241.90625 C 150.95698 241.60362 150.48788 241.6797 150.4375 242.09375 C 150.3835 242.5374 149.7921 242.57239 148.65625 242.21875 C 147.36093 241.81545 146.92155 241.89205 146.84375 242.53125 C 146.70973 243.63229 145.07969 244.02252 144.21875 243.15625 C 143.32385 242.25579 131.58358 246.07368 130 247.78125 C 129.37742 248.45221 129.05763 249.07291 129.3125 249.1875 C 129.56736 249.30207 132.68119 248.48148 136.21875 247.34375 C 139.75631 246.20602 144.92311 244.84928 147.6875 244.34375 C 155.88721 242.84424 163.76528 244.33164 163.40625 247.28125 C 163.31559 248.0261 163.44453 248.0262 164.34375 247.34375 C 165.68772 246.32369 165.44247 246.25024 172.09375 249.34375 C 178.78347 252.45513 182.63832 254.79043 185.375 257.40625 C 187.49196 259.42969 187.36622 259.50872 188.65625 255.9375 C 189.14307 254.58996 188.83702 254.31242 183.21875 250.96875 C 179.96062 249.0297 174.81537 246.34575 171.78125 245 C 166.4431 242.63234 165.06641 241.43182 166.5 240.34375 C 168.51444 238.81484 185.84252 247.96548 190.40625 252.96875 C 191.78938 254.48506 191.63894 257.46218 190.0625 259.6875 C 189.04479 261.12415 189.05812 261.18547 192.0625 263.90625 C 194.05536 265.71095 195.73913 266.76031 196.96875 266.9375 C 199.10998 267.24606 201.85678 269.72203 206.1875 275.34375 C 207.73387 277.35105 209.09155 278.82777 209.21875 278.625 C 210.00574 277.37029 203.88933 268.09485 199.53125 263.9375 C 195.26311 259.86596 195.23692 258.9978 199.4375 259.46875 C 202.28349 259.78784 202.81393 260.06828 205.09375 262.5 C 206.47271 263.97079 208.4446 266.51374 209.5 268.15625 C 210.5554 269.79875 211.47587 270.76746 211.53125 270.3125 C 211.69488 268.96827 207.88252 262.34077 205.46875 259.75 C 201.34415 255.32303 200.79869 252.7735 203.8125 252.0625 C 205.46156 251.67345 207.52891 252.58976 209.15625 254.4375 C 209.79871 255.16699 210.50525 255.63081 210.71875 255.46875 C 211.5557 254.83358 210.54068 252.75996 208.71875 251.375 C 207.66512 250.57406 206.39082 249.36118 205.875 248.6875 C 205.35923 248.01383 204.6284 247.59422 204.28125 247.75 C 203.93406 247.90577 203.35565 247.50774 203 246.875 C 202.64435 246.24227 201.84351 245.56368 201.21875 245.375 C 200.52672 245.16601 200.08417 244.5118 200.0625 243.65625 C 200.04287 242.88378 199.5606 241.85391 199 241.375 C 198.43939 240.89608 198.02057 240.05567 198.0625 239.53125 C 198.11955 238.81545 197.94472 238.903 197.34375 239.8125 C 196.39917 241.24212 194.85151 240.95076 194.59375 239.3125 C 194.32449 237.60135 192.21007 234.9287 190.6875 234.375 C 189.72007 234.02318 189.22564 233.21967 188.90625 231.4375 L 188.46875 228.96875 L 187.8125 231.75 C 187.32802 233.79759 186.90066 234.54065 186.125 234.59375 C 185.54948 234.63315 184.9787 234.22569 184.84375 233.71875 C 184.70886 233.21182 184.25564 232.76493 183.84375 232.71875 C 183.43191 232.67258 182.55212 232.10256 181.875 231.4375 C 180.81955 230.40085 180.76591 230.10687 181.53125 229.40625 C 182.31244 228.69109 182.24635 228.58075 180.96875 228.4375 C 179.29145 228.24945 178.5901 227.39998 178.3125 225.15625 C 178.16768 223.9859 177.78698 223.42089 177.46875 223.46875 z M 258.34375 223.53125 C 257.29777 223.55881 256.25637 223.79217 255.65625 224.15625 C 254.30428 224.97642 254.33296 224.98993 257.5 225.15625 C 260.33143 225.30493 260.91576 225.54569 262.0625 226.9375 C 263.58011 228.77936 263.51411 231.19958 261.875 233.53125 C 260.95796 234.83594 260.91451 235.02562 261.65625 234.84375 C 262.1377 234.72571 263.0577 233.84057 263.6875 232.875 C 266.08497 229.19971 263.70311 224.07901 259.375 223.59375 C 259.03817 223.55599 258.69241 223.52206 258.34375 223.53125 z M 234.59375 225.40625 C 234.49992 225.41918 234.41081 225.4491 234.34375 225.5 C 234.14389 225.65164 234.14084 226.05374 234.3125 226.40625 C 234.71223 227.22692 236.2824 227.41698 236.375 226.65625 C 236.44646 226.06913 235.25057 225.31574 234.59375 225.40625 z M 321.15625 231.75 C 320.51614 231.80911 319.98901 232.30815 319.75 233.28125 C 319.49812 234.30659 319.73943 235.05144 320.59375 235.78125 C 322.07783 237.04905 322.20464 237.08684 323.6875 236.28125 C 324.82658 235.66243 324.82375 235.56282 323.75 233.6875 C 322.96984 232.32497 321.97924 231.674 321.15625 231.75 z M 270.34375 233.09375 C 269.29628 233.07724 268.9305 233.32664 268.71875 233.96875 C 268.52659 234.5515 268.81505 235.40446 269.34375 235.875 C 270.68125 237.06526 271.62516 237.06077 273.1875 235.875 C 275.12865 234.40177 274.62109 233.51991 271.65625 233.1875 C 271.13683 233.12926 270.69291 233.09925 270.34375 233.09375 z M 172.15625 233.25 C 173.10857 233.1483 174.6237 233.46016 176.0625 234.25 C 177.89192 235.25428 179.48752 236.76989 179.40625 237.4375 C 179.27391 238.52467 173.42024 236.46223 171.6875 234.71875 C 170.83979 233.86579 171.20393 233.3517 172.15625 233.25 z M 422.40625 234 C 419.72565 233.88694 418.66283 235.03777 419.84375 236.78125 C 421.08463 238.61323 424.44889 237.74818 424.71875 235.53125 C 424.87897 234.21507 424.73186 234.09811 422.40625 234 z M 220.03125 235.34375 C 219.58357 235.38298 219.30763 235.66426 219.5625 236.1875 C 219.71235 236.49519 220.40147 236.82863 221.09375 236.90625 C 222.25352 237.03628 222.26905 236.96463 221.5 236.03125 C 221.08073 235.52241 220.47893 235.30452 220.03125 235.34375 z M 258.4375 235.40625 C 258.09736 235.3681 257.78736 235.59798 257.75 235.90625 C 257.7125 236.21453 257.79591 236.48412 257.9375 236.5 C 258.07918 236.51588 258.38899 236.28602 258.625 236 C 258.8611 235.71399 258.77764 235.4444 258.4375 235.40625 z M 206.46875 235.46875 C 206.40018 235.5208 206.335 235.70635 206.28125 236.03125 C 206.18398 236.61925 206.28328 236.97699 206.5 236.8125 C 206.71658 236.64801 206.77565 236.17351 206.65625 235.75 C 206.59022 235.51598 206.53732 235.4167 206.46875 235.46875 z M 431.375 235.6875 C 429.50228 235.80344 428.88056 236.66618 429.34375 238.40625 C 429.84911 240.30492 434.36761 239.02069 434.625 236.90625 C 434.74333 235.93385 434.41599 235.77887 432.25 235.6875 C 431.93142 235.67406 431.64253 235.67094 431.375 235.6875 z M 180.875 237.75 C 181.2111 237.6832 181.75748 237.73819 182.46875 237.96875 C 183.48673 238.29873 184.67002 238.9838 185.125 239.46875 C 185.57997 239.9537 186.28004 240.39533 186.65625 240.4375 C 187.03246 240.47968 187.27502 240.88135 187.21875 241.34375 C 187.08121 242.47372 185.58793 242.20404 182.75 240.5625 C 180.55412 239.2923 179.86669 237.95039 180.875 237.75 z M 250.71875 241.4375 C 250.58796 241.44219 250.43031 241.46345 250.28125 241.5 C 249.33115 241.73292 248.68579 244.01396 249.34375 244.8125 C 249.53292 245.04203 250.34077 245.28707 251.125 245.375 C 252.38727 245.51655 252.52881 245.37269 252.34375 243.96875 C 252.10848 242.18349 251.63429 241.40464 250.71875 241.4375 z M 280.5625 241.53125 C 278.89541 241.73409 278.29429 242.90147 279.25 244.3125 C 280.21476 245.7368 282.44944 245.64926 283.75 244.15625 C 284.7432 243.01608 284.80949 242.74009 284.15625 242.21875 C 283.73462 241.88224 282.47508 241.5765 281.34375 241.53125 C 281.06377 241.52004 280.80066 241.50227 280.5625 241.53125 z M 223.71875 242.96875 C 223.35661 242.98859 223.11017 243.23353 223.0625 243.625 C 222.99923 244.14494 223.43889 244.54457 224.15625 244.625 C 225.57948 244.78457 225.55687 243.46823 224.125 243.03125 C 223.98419 242.98828 223.83946 242.96214 223.71875 242.96875 z M 117.5625 248.3125 C 117.27291 248.34949 116.42207 248.99777 115.5 249.875 C 114.44627 250.87756 113.92856 251.62053 114.375 251.53125 C 115.34712 251.33681 118.0012 248.76238 117.65625 248.34375 C 117.63959 248.32353 117.60387 248.30722 117.5625 248.3125 z M 192 248.40625 C 192.41312 248.45256 192.84846 248.86066 192.96875 249.3125 C 193.08897 249.76432 192.80343 250.52425 192.34375 251 C 191.61565 251.75362 191.43724 251.75273 190.90625 250.96875 C 190.19967 249.92559 190.90045 248.28297 192 248.40625 z M 151.15625 249.8125 C 147.35565 249.83865 142.10474 250.8228 135 252.84375 C 129.0055 254.54889 127.27886 255.30309 126.4375 256.5 C 125.85754 257.32492 125.5127 257.98394 125.65625 258 C 125.79974 258.01609 129.33074 256.99421 133.5 255.71875 C 142.75096 252.88872 149.71554 251.9802 155.25 252.90625 C 158.31918 253.4198 159.43263 253.85295 160.0625 254.78125 C 160.65156 255.64944 161.43971 256.00108 162.90625 256.03125 C 165.50942 256.08477 176.54513 261.48652 181.0625 264.90625 C 182.87003 266.27461 184.51613 267.4001 184.71875 267.4375 C 184.92145 267.47492 185.33848 266.70218 185.625 265.71875 C 186.02772 264.33655 185.87901 263.70061 185 262.84375 C 183.4866 261.36848 173.35736 255.67173 168.09375 253.34375 C 165.77933 252.32012 163.62863 251.22357 163.3125 250.90625 C 162.97832 250.57078 161.62464 250.42279 160.0625 250.53125 C 158.58489 250.63385 156.08676 250.43179 154.5 250.09375 C 153.54022 249.88928 152.42312 249.80378 151.15625 249.8125 z M 193.21875 255.9375 C 193.74279 255.98586 194.4634 256.45334 194.8125 256.96875 C 195.80418 258.43288 194.93091 258.53812 193.53125 257.125 C 192.55602 256.14041 192.48181 255.86948 193.21875 255.9375 z M 113.9375 256.71875 C 113.61659 256.68277 112.69998 257.34257 111.875 258.1875 C 111.05002 259.03243 110.45242 259.70638 110.5625 259.71875 C 110.67264 259.7311 111.6205 259.07129 112.65625 258.25 C 113.692 257.4287 114.2584 256.75475 113.9375 256.71875 z M 148.53125 258.71875 C 143.60713 258.73329 136.55654 260.02521 128.9375 262.4375 C 125.33008 263.57965 123.35825 264.53993 122.8125 265.40625 C 121.81023 266.99713 122.01444 267.03463 125.25 265.6875 C 126.68291 265.09089 131.59432 263.83665 136.15625 262.90625 C 143.59827 261.3885 145.01371 261.2713 150.03125 261.78125 C 155.77193 262.36467 157.34477 263.03814 157.125 264.84375 C 157.04129 265.53147 157.20378 265.61826 157.8125 265.15625 C 158.24296 264.82954 159.28854 264.62147 160.15625 264.71875 C 161.51136 264.87069 169.3176 268.71225 175.75 272.375 C 178.35329 273.85733 180.81633 274.10643 181.4375 272.96875 C 181.71554 272.45957 181.62818 271.92 181.25 271.75 C 180.88041 271.58385 179.43169 270.52885 178.03125 269.375 C 174.71636 266.64376 173.4648 265.9321 165.5625 262.4375 C 160.02374 259.98782 158.68322 259.57451 157.40625 259.96875 C 156.25716 260.32352 155.36915 260.23529 153.78125 259.53125 C 152.557 258.98845 150.76948 258.71214 148.53125 258.71875 z M 111.375 264.65625 C 111.01969 264.70937 109.8969 265.42324 108.65625 266.40625 C 107.23831 267.52968 106.63143 268.24567 107.3125 268 C 108.85839 267.44239 111.83721 265.09681 111.5 264.6875 C 111.48278 264.6666 111.42576 264.64866 111.375 264.65625 z M 189.15625 266.40625 C 188.57968 266.48266 188.24047 267.09131 187.90625 268.21875 C 187.36557 270.04277 187.49324 270.43072 189.25 272.3125 C 190.43228 273.5789 191.82073 274.49943 192.8125 274.625 C 195.10665 274.91546 197.0654 276.31389 199.71875 279.625 C 201.16241 281.42662 202.50683 282.52767 203.375 282.625 C 204.47168 282.74796 204.67192 283.01231 204.28125 283.84375 C 203.92444 284.60326 204.22421 285.28065 205.40625 286.34375 C 206.30031 287.14788 207.00891 288.32893 206.96875 288.96875 C 206.91267 289.86432 206.96183 289.9225 207.25 289.21875 C 208.42658 286.34557 201.48493 276.44342 192.96875 268.84375 C 191.02322 267.10762 189.89755 266.30801 189.15625 266.40625 z M 145.0625 267.75 C 141.7961 267.73817 138.52569 267.92704 136 268.375 C 127.23447 269.92964 118.79017 273.37287 118.53125 275.5 C 118.50302 275.7319 120.65628 275.24193 123.28125 274.40625 C 125.90623 273.57059 130.7788 272.27376 134.125 271.53125 C 139.65777 270.30358 140.77482 270.24595 146.53125 270.875 C 152.6191 271.54024 152.92387 271.62807 154 273.15625 C 154.87944 274.40503 155.34024 274.65615 156.15625 274.28125 C 157.60664 273.61491 160.93986 274.97864 170.34375 280.0625 C 174.62819 282.37873 178.24293 284.19398 178.375 284.09375 C 178.50707 283.99351 178.01146 282.74469 177.25 281.3125 C 176.16874 279.27889 174.85005 278.07778 171.3125 275.84375 C 168.82109 274.27042 165.07036 272.36101 162.96875 271.59375 C 160.86707 270.82648 158.51188 269.83396 157.75 269.40625 C 155.91411 268.37559 150.50649 267.76972 145.0625 267.75 z M 192.5625 270.0625 C 193.17388 270.13105 193.47995 271.89977 193.03125 272.8125 C 192.63789 273.61262 191.21871 273.55272 190.8125 272.71875 C 190.47919 272.03435 191.83273 269.98068 192.5625 270.0625 z M 107.84375 273.3125 C 107.08828 273.28075 105.06643 274.53622 103.6875 276 C 102.89338 276.84279 102.47213 277.56265 102.75 277.59375 C 103.45027 277.67227 108.37758 273.78863 108.0625 273.40625 C 108.01178 273.3447 107.95167 273.31704 107.84375 273.3125 z M 184.96875 276.8125 C 183.67113 276.87765 182.68972 278.16587 182.28125 280.59375 C 181.85788 283.11051 182.035 283.76729 183.78125 286.59375 C 184.85711 288.33513 185.89584 289.75561 186.125 289.78125 C 186.35416 289.80693 187.41549 289.49124 188.46875 289.0625 C 190.13961 288.38235 190.42572 287.97702 190.6875 285.875 C 191.02042 283.17442 190.28646 280.91171 188.46875 278.90625 C 187.1601 277.46241 185.97801 276.76183 184.96875 276.8125 z M 139.5 277.09375 C 135.85436 277.15457 132.09457 277.60221 131.46875 278.25 C 131.04923 278.68424 130.14711 278.98581 129.4375 278.90625 C 127.18006 278.65314 118.81013 281.18324 116.9375 282.6875 C 114.09597 284.97011 114.68046 285.28495 119.15625 283.90625 C 133.6601 279.43865 148.1236 278.74539 150.6875 282.40625 C 151.31568 283.30319 151.70429 283.43517 152.59375 283.03125 C 153.41423 282.65868 154.06695 282.71701 155 283.28125 C 155.70107 283.70522 158.53946 285.11488 161.3125 286.40625 C 164.08555 287.69763 168.58589 290.13962 171.3125 291.8125 C 174.03911 293.48538 176.49285 294.88248 176.75 294.9375 C 177.00731 294.99254 177.2402 294.10469 177.28125 292.9375 C 177.3538 290.87319 177.22393 290.72149 172.34375 287.65625 C 169.58439 285.92312 164.38066 283.19506 160.78125 281.59375 C 157.18177 279.99244 154.14514 278.48384 154.03125 278.25 C 153.91741 278.01614 152.53357 277.88248 150.96875 277.9375 C 149.40394 277.99255 146.83877 277.75903 145.25 277.4375 C 143.84495 277.15315 141.68739 277.05726 139.5 277.09375 z M 193.9375 281.59375 C 192.95709 281.48383 195.40147 285.82426 198.9375 290.5 C 202.47159 295.17319 204.17373 296.67827 204.34375 295.28125 C 204.50546 293.95264 195.21598 281.73709 193.9375 281.59375 z M 104.34375 281.875 C 103.33694 282.07556 97.692111 286.63253 97.5625 287.4375 C 97.467462 288.02668 101.85904 285.17226 103.5625 283.53125 C 104.25005 282.86898 104.66737 282.11517 104.46875 281.875 C 104.44561 281.84702 104.41087 281.86163 104.34375 281.875 z M 137.46875 286.34375 C 136.76237 286.35197 136.08404 286.38389 135.4375 286.4375 C 128.54415 287.00912 117.79424 289.53151 114.15625 291.4375 C 112.46469 292.32373 110.88853 294.79126 112.28125 294.375 C 125.09967 290.54383 132.66819 289.38287 139.9375 290.09375 C 144.40996 290.53112 145.20089 290.76224 146.6875 292.09375 C 147.64466 292.9511 148.79508 293.50952 149.34375 293.375 C 149.8765 293.24438 151.61171 293.69583 153.1875 294.375 C 158.12274 296.5021 169.90293 302.6954 171.59375 304.0625 C 172.48298 304.78147 173.39517 305.41298 173.59375 305.4375 C 174.11105 305.50086 175.18431 301.57426 174.84375 300.875 C 174.16937 299.49046 161.44176 292.70914 152.3125 288.875 C 148.57802 287.30656 142.41338 286.28621 137.46875 286.34375 z M 101.5 290.3125 C 101.26375 290.3632 100.90964 290.49213 100.4375 290.71875 C 99.123646 291.3494 96.103457 294.5251 96 295.375 C 95.925061 295.99069 99.098089 293.84491 100.4375 292.375 C 101.85126 290.82345 102.20876 290.16039 101.5 290.3125 z M 190.4375 292.34375 C 189.57746 292.51061 190.91374 294.31332 194.8125 298.25 C 197.42202 300.88489 200.20077 304.07854 201 305.375 C 202.84371 308.36574 203.48493 307.29395 201.90625 303.84375 C 200.25092 300.22609 194.37336 293.02158 192.875 292.75 C 192.19706 292.62711 191.33524 292.45084 190.9375 292.375 C 190.72596 292.33466 190.56036 292.31991 190.4375 292.34375 z M 181.6875 295.6875 C 181.11697 295.79401 180.84865 297.17198 181.21875 298.5625 C 181.3544 299.07198 181.72407 299.52804 182.03125 299.5625 C 182.85095 299.6544 182.76266 296.0853 181.9375 295.71875 C 181.84453 295.67745 181.769 295.67228 181.6875 295.6875 z M 131.1875 296.25 C 127.79559 296.35893 124.97116 297.03847 118.65625 298.71875 C 110.81665 300.80472 108.84744 301.76629 108.625 303.59375 C 108.46273 304.92687 108.51518 304.96097 110.21875 304.34375 C 117.34415 301.76222 130.82467 299.95034 137.53125 300.6875 C 142.89977 301.2776 144.32832 301.97911 144.09375 303.90625 C 143.97056 304.91831 144.04476 304.94724 145.5625 304.21875 C 147.08608 303.48743 147.35436 303.55402 151.1875 305.5 C 156.03861 307.96278 164.78499 313.32272 165.875 314.5 C 166.30767 314.96727 167.55436 315.80899 168.625 316.375 L 170.5625 317.40625 L 171.53125 314.625 C 172.0688 313.09618 172.44484 311.62998 172.34375 311.375 C 171.95395 310.39203 161.18386 304.05609 154.25 300.71875 L 146.96875 297.21875 L 138.78125 296.59375 C 135.4726 296.34094 133.22265 296.18464 131.1875 296.25 z M 186.6875 298.1875 C 186.43488 298.16974 186.27903 298.35516 186.09375 298.6875 C 184.97423 300.69551 185.302 301.50985 188.3125 304.09375 C 190.00751 305.54857 192.8124 308.32232 194.53125 310.25 C 197.62054 313.71461 199.03283 314.64439 199.1875 313.28125 C 199.37065 311.66815 194.58465 305.40392 189.25 300.25 C 187.77329 298.82334 187.10853 298.2171 186.6875 298.1875 z M 98.15625 299.4375 C 97.263492 299.57407 92.3977 303.54635 90.9375 305.40625 C 89.630632 307.07088 89.63037 307.08196 90.84375 306.40625 C 94.917589 304.13759 99.001841 300.34329 98.28125 299.46875 C 98.259104 299.44187 98.215767 299.4284 98.15625 299.4375 z M 179.1875 304.0625 C 178.94757 304.09688 178.72884 304.22552 178.5 304.4375 C 177.73761 305.14368 177.40168 308.05405 177.96875 309.1875 C 178.79479 310.83856 179.40522 310.31031 180.71875 306.6875 C 181.22863 305.28119 180.2272 303.91351 179.1875 304.0625 z M 183.4375 307.46875 C 183.35351 307.46324 183.32286 307.50867 183.3125 307.59375 C 183.27943 307.86543 182.99777 308.83214 182.6875 309.75 C 182.17591 311.26362 182.33002 311.52991 184.25 312.78125 C 185.41433 313.54008 188.21018 316.07014 190.46875 318.375 C 192.72738 320.67987 195.10141 322.61478 195.75 322.6875 C 196.91893 322.81856 196.90454 322.79805 195.875 321 C 193.75254 317.29315 184.69731 307.55141 183.4375 307.46875 z M 94.875 308.6875 C 94.754639 308.63479 94.360527 308.85012 93.59375 309.28125 C 91.991001 310.18244 87.800545 314.10928 87.71875 314.78125 C 87.54217 316.23197 93.66404 311.70467 94.5625 309.71875 C 94.852101 309.07865 94.995361 308.74021 94.875 308.6875 z M 141.46875 311.5625 C 140.60848 311.64294 139.74293 311.95375 139.09375 312.5 C 138.35648 313.12042 137.13692 314.87273 136.375 316.375 C 133.97028 321.11663 131.9013 322.82735 126.125 324.96875 C 123.22678 326.04319 120.05866 327.05919 119.0625 327.21875 C 118.06633 327.37832 115.70038 328.23615 113.8125 329.125 C 110.13396 330.8569 108.05699 330.9237 106.40625 329.40625 C 105.36557 328.4496 101.26047 327.71697 99.46875 328.15625 C 98.737629 328.33551 98.402604 329.18132 98.09375 331.71875 C 97.798237 334.14656 97.477715 335.00599 96.96875 334.78125 C 95.936381 334.32539 95.050639 331.42299 95.0625 328.625 C 95.068146 327.27768 94.849827 326.15372 94.59375 326.125 C 92.98104 325.94419 89.149189 332.24494 88.71875 335.78125 C 88.47742 337.76392 91.126192 341.53669 93.75 342.9375 C 94.824788 343.51129 96.14015 344.41269 96.65625 344.96875 C 97.517451 345.89662 97.549455 345.92134 97.3125 345.03125 C 97.028409 343.9638 100.22689 341.35257 101.25 341.8125 C 101.57435 341.95833 101.91094 342.87731 102 343.875 C 102.20513 346.17336 100.95973 347.5974 99.28125 346.96875 C 96.934995 346.08998 97.671512 347.4057 101.59375 351.1875 C 103.1721 352.7093 102.65028 353.88569 99.84375 355.125 C 97.130316 356.32322 97.494567 356.2876 103.5625 354.96875 C 106.3891 354.3544 109.159 353.91571 109.6875 353.96875 C 111.18457 354.11914 111.19163 355.45297 109.78125 359.46875 C 109.06489 361.50863 108.30621 364.58438 108.09375 366.28125 C 107.88158 367.97815 107.39516 370.09184 107 371 L 106.28125 372.65625 L 109.65625 372.8125 C 112.4916 372.93255 113.24369 373.14919 114.125 374.21875 C 114.70509 374.9228 116.25026 376.13953 117.5625 376.90625 C 120.62911 378.69795 120.32365 378.69736 121.71875 376.875 C 123.44298 374.62269 124.54824 374.55559 126.78125 376.625 C 128.63827 378.34594 129.71067 378.70632 133.78125 378.8125 C 134.59263 378.83365 135.79325 379.08815 136.4375 379.375 C 137.44338 379.82287 137.83922 379.49459 139.3125 377.0625 C 140.25616 375.50474 140.99271 373.97491 140.9375 373.65625 C 140.48325 371.03322 140.65428 370.49727 142.0625 370.0625 C 144.27157 369.38047 146.62756 370.7131 146.40625 372.53125 C 146.24427 373.86196 146.41008 373.96284 149.25 374.28125 C 151.21323 374.50137 152.65552 374.35734 153.40625 373.84375 C 154.23797 373.27477 155.02067 373.21281 156.15625 373.65625 C 158.53422 374.58485 160.30253 374.47987 164.625 373.125 C 172.03382 370.80274 182.1791 364.49736 186.125 359.75 C 189.17846 356.07638 191.31937 351.2649 191.53125 347.625 C 191.64822 345.61647 190.63869 346.66579 188.5625 350.71875 C 186.09261 355.54005 184.0103 358.31129 182.90625 358.1875 C 182.47987 358.1397 181.50006 357.32651 180.75 356.375 L 179.40625 354.625 L 182.28125 349.5625 C 185.74907 343.51404 186.93694 339.81909 185.78125 338.65625 C 184.56692 337.43436 183.97677 338.04999 181.65625 342.84375 C 178.97967 348.37297 176.45099 352.09646 175.1875 352.40625 C 174.02145 352.69214 173.57805 351.35839 174.25 349.65625 L 174.71875 348.46875 L 173.46875 349.59375 C 172.17942 350.77963 170.67021 350.95975 170.1875 349.96875 C 170.03339 349.65234 170.8426 348.14908 172 346.625 C 175.16245 342.46061 177.97459 336.90109 178.3125 334.125 C 178.56145 332.07974 178.38655 331.53152 177.375 331.09375 C 176.11052 330.54649 174.46469 331.64911 174.28125 333.15625 C 174.08912 334.73472 168.66656 343.58695 167.65625 343.96875 C 166.92716 344.24428 166.23884 344.06864 165.5 343.4375 C 164.53418 342.61244 164.26176 342.62391 163.21875 343.5 C 161.95544 344.56117 160.72796 344.66708 160.28125 343.75 C 160.1288 343.4369 161.45503 341.08416 163.21875 338.53125 C 166.7949 333.35498 169.08885 328.46331 169.09375 326.09375 C 169.09618 324.79768 168.81105 324.46756 167.3125 324.15625 C 165.54703 323.78949 165.42249 323.87363 163.40625 327.6875 C 158.68615 336.61602 158.29655 337.2216 157.15625 337.09375 C 156.54678 337.02542 155.56229 336.61904 155 336.1875 C 153.73634 335.21768 151.10423 336.31166 149.84375 338.3125 C 148.95734 339.71947 146.80454 339.8803 146.96875 338.53125 C 147.02417 338.07594 147.79179 337.38369 148.65625 336.96875 C 149.52071 336.55381 150.25782 335.82413 150.3125 335.375 C 150.36717 334.92588 151.21063 333.57781 152.15625 332.375 C 154.77564 329.04315 157.73731 323.19612 158.03125 320.78125 C 158.36287 318.05677 157.27199 316.82057 155 317.3125 C 153.65987 317.60265 152.95056 318.47129 151 322.21875 C 149.69682 324.72256 148.2611 327.31947 147.78125 327.96875 C 146.8815 329.18617 144.54757 329.39957 144.6875 328.25 C 144.73465 327.86268 144.30032 327.9229 143.59375 328.40625 C 142.94427 328.85059 142.19248 329.18483 141.9375 329.15625 C 141.68252 329.12766 139.57553 330.44663 137.25 332.09375 C 133.27422 334.90974 129.67949 336.85667 128.6875 336.75 C 127.63662 336.63727 128.64872 335.40071 132.5625 331.96875 C 142.11485 323.59241 146.38488 316.95385 144.75 312.96875 C 144.32683 311.93731 142.90254 311.42843 141.46875 311.5625 z M 175.71875 313.8125 C 175.67295 313.81635 175.62328 313.82134 175.59375 313.84375 C 175.38797 313.99996 175.64841 314.69119 176.15625 315.375 C 177.10053 316.64646 178.57906 317.20344 178.6875 316.3125 C 178.76369 315.68665 176.40582 313.75475 175.71875 313.8125 z M 180.78125 317.59375 C 180.52429 317.56493 180.24289 318.13198 180.15625 318.84375 C 180.06962 319.5555 179.56322 320.57808 179.03125 321.125 C 178.10735 322.07494 177.99333 322.07426 176.25 320.96875 C 171.93194 318.23038 171.64141 318.22037 174 320.78125 C 176.40309 323.39042 177.42708 323.92151 178.1875 323 C 179.40219 321.52812 183.49701 324.02788 188.03125 329 C 191.17853 332.45124 191.58578 332.67702 193.5 332.1875 C 194.39894 331.95762 194.04937 331.26619 191.34375 328.0625 C 187.8427 323.91691 181.53875 317.67868 180.78125 317.59375 z M 197.9375 325.4375 C 197.86683 325.42725 197.77501 325.4295 197.6875 325.46875 C 197.33752 325.62579 197.19385 326.00481 197.34375 326.3125 C 197.74972 327.14606 198.09892 327.04701 198.21875 326.0625 C 198.26263 325.70203 198.1495 325.46824 197.9375 325.4375 z M 195.09375 334.125 C 194.98237 334.14458 194.83822 334.43001 194.59375 335.03125 C 194.30572 335.73953 194.17946 336.57058 194.3125 336.84375 C 194.68508 337.60871 195.63797 337.54098 195.6875 336.75 C 195.71181 336.36213 195.60911 335.53371 195.4375 334.90625 C 195.2918 334.37361 195.20513 334.10542 195.09375 334.125 z M 125.125 338.0625 C 125.90697 338.15018 126.14199 338.45377 125.84375 339 C 125.60256 339.44167 125.04114 339.7689 124.59375 339.71875 C 124.14629 339.66858 123.81873 339.24365 123.875 338.78125 C 123.93131 338.31864 124.49235 337.99157 125.125 338.0625 z M 105.125 339.3125 C 105.2902 339.27749 105.5091 339.2855 105.75 339.3125 C 106.23179 339.36652 106.58752 339.78759 106.53125 340.25 C 106.47497 340.7124 106.79285 341.13627 107.25 341.1875 C 107.70715 341.23875 108.79575 341.99732 109.65625 342.875 C 110.51675 343.75268 111.74884 344.52004 112.40625 344.59375 C 113.06359 344.66745 113.70356 344.96216 113.84375 345.25 C 113.98394 345.53783 114.89617 346.01748 115.84375 346.3125 C 118.2146 347.05065 117.90548 348.74935 115.1875 349.96875 C 112.12163 351.34429 109.69574 351.41783 108.65625 350.15625 C 107.65302 348.93864 107.65808 348.8418 108.5625 347.59375 C 109.08658 346.8705 108.99113 346.37353 108.15625 345.46875 C 107.10976 344.33471 104.76907 340.11349 104.84375 339.5 C 104.8535 339.41985 104.9598 339.34751 105.125 339.3125 z M 110.21875 339.875 C 110.37415 339.84747 110.55433 339.85306 110.75 339.875 C 111.65844 339.97685 111.87663 340.28837 111.625 341.1875 C 111.04649 343.25471 109.14689 342.88078 109.40625 340.75 C 109.46699 340.25094 109.75256 339.9576 110.21875 339.875 z M 118.65625 353.34375 C 118.99406 353.3294 119.47906 353.40026 120.15625 353.53125 C 121.87967 353.8646 122.29593 354.17173 122.1875 355.0625 C 122.08547 355.90072 121.5909 356.1803 120.25 356.15625 C 118.20199 356.1196 117.66032 355.66322 117.84375 354.15625 C 117.91096 353.60405 118.09323 353.36767 118.65625 353.34375 z M 125.5625 360.125 C 125.99568 360.08972 126.74517 360.24501 127.78125 360.59375 C 129.24414 361.08614 130.89538 361.26312 132.25 361.0625 C 133.43445 360.88712 134.609 360.89158 134.875 361.09375 C 135.52698 361.58938 134.13419 362.83186 132.03125 363.59375 C 129.49141 364.51394 127.97828 364.08943 125.96875 361.875 C 124.9741 360.77893 124.84053 360.1838 125.5625 360.125 z M 147.3125 365.03125 C 148.07375 364.9626 148.52965 365.26797 148.28125 366 C 148.01303 366.79024 146.67743 367.41794 141.375 369.25 C 139.48764 369.9021 139.37086 369.90763 138.90625 369.34375 C 138.0215 368.26993 138.83969 367.43966 140.625 367.625 C 141.94609 367.76214 143.11209 367.36933 144.4375 366.34375 C 145.47555 365.54052 146.55125 365.0999 147.3125 365.03125 z M 114.53125 378.59375 C 114.44082 378.59451 114.38515 378.62194 114.34375 378.65625 C 113.27526 379.54178 112.53548 383.70277 113.375 384.125 C 113.86311 384.37051 114.04742 385.36473 113.875 386.78125 C 113.61715 388.89963 113.69728 389.04116 115.28125 389.21875 C 117.03026 389.41485 117.59412 390.30699 117.34375 392.5 C 117.13779 394.30199 118.34752 392.71575 119.125 390.15625 C 119.81676 387.87888 120.82548 387.35185 122.8125 388.34375 C 123.70249 388.78802 124.17074 389.574 124.1875 390.625 C 124.2083 391.92918 124.37906 391.7529 125.03125 389.625 C 125.99007 386.49679 125.78072 384.21354 124.46875 383.625 C 123.93769 383.38676 121.55256 382.064 119.1875 380.6875 C 116.94746 379.38379 115.16426 378.58841 114.53125 378.59375 z M 94.3125 386.15625 L 89.34375 389.8125 C 86.617769 391.81262 84.363885 393.44324 84.3125 393.4375 C 84.261087 393.43173 84.244826 394.2477 84.28125 395.25 C 84.337893 396.80439 84.607627 397.11581 86.15625 397.4375 C 87.598338 397.73704 87.98417 398.1201 88 399.25 C 88.01102 400.03243 88.522922 401.17035 89.15625 401.78125 C 90.696444 403.26681 93.328583 403.47966 96.3125 402.40625 C 97.661344 401.92104 99.158679 401.69331 99.65625 401.875 C 100.33984 402.12461 101.01402 401.29835 102.34375 398.5 C 103.3117 396.46301 104.35357 394.80985 104.65625 394.84375 C 106.24063 395.02139 104.94383 393.82341 102.25 392.59375 L 99.1875 391.1875 L 97.65625 392.53125 C 95.733481 394.23208 94.30267 394.2147 95.09375 392.5 C 96.560522 389.32088 96.618436 388.76698 95.46875 387.46875 L 94.3125 386.15625 z M 109.75 390.625 C 109.6065 390.64205 109.23252 391.09733 108.78125 391.84375 C 108.17955 392.83897 107.20037 393.9376 106.59375 394.28125 C 105.91548 394.66541 105.77123 394.93869 106.21875 395 C 107.15724 395.12852 106.63515 399.70961 105.59375 400.5 C 105.02189 400.93404 105.01345 401.31295 105.5 402.03125 C 106.29956 403.21169 107.67344 403.37549 109.28125 402.46875 C 110.84705 401.58566 111.45503 396.89433 110.4375 393.6875 C 110.05532 392.48289 109.77664 391.17786 109.8125 390.78125 C 109.82139 390.68209 109.79783 390.61932 109.75 390.625 z M 91.71875 390.875 C 92.042188 390.88009 92.032575 391.18767 91.9375 391.96875 C 91.831596 392.83881 91.106131 393.69613 89.9375 394.3125 C 88.927018 394.84543 87.820668 395.22691 87.46875 395.1875 C 85.804823 395.00094 88.005382 392.26485 90.71875 391.15625 C 91.18922 390.96402 91.524687 390.87194 91.71875 390.875 z M 122.8125 394.15625 C 122.78496 394.15973 122.72549 394.19192 122.6875 394.21875 C 121.91747 394.76251 119.44014 399.44092 119.375 400.46875 C 119.30954 401.50204 121.76103 397.70183 122.625 395.4375 C 122.92513 394.65089 123.0053 394.13191 122.8125 394.15625 z M 119.34375 403.71875 C 118.92973 403.84421 118.34641 404.58865 117.5625 406.0625 C 115.04682 410.79212 114.68376 412.28191 115.8125 413.09375 C 118.13884 414.76699 120.38043 414.37248 123.90625 411.65625 C 128.3872 408.20426 129.80448 406.81266 129.90625 405.71875 C 129.95267 405.21926 129.33906 405.69653 128.5625 406.78125 C 127.03563 408.9139 124.73912 409.32396 124.96875 407.4375 C 125.0566 406.71573 124.39185 406.12675 122.71875 405.40625 C 121.40394 404.84006 120.05884 404.1218 119.71875 403.8125 C 119.61181 403.71524 119.48176 403.67693 119.34375 403.71875 z M 99.25 405.21875 L 97.5625 407.65625 C 95.871806 410.05668 95.843192 410.05118 93.15625 409.5625 C 90.70212 409.11617 90.399065 409.21332 89.71875 410.46875 C 89.177242 411.46797 88.489256 411.80206 87.3125 411.71875 C 84.929527 411.55009 84.017578 411.23833 83.65625 410.5 C 83.068512 409.29906 80.259293 410.71845 79 412.84375 C 78.343043 413.95252 74.494781 421.64302 70.4375 429.9375 C 60.779132 449.68225 56.775543 457.63328 52.5625 465.34375 C 50.656439 468.83211 49.043335 471.98783 49 472.34375 C 48.95667 472.69972 49.952322 474.34534 51.21875 476 C 53.658245 479.18745 56.926445 484.97011 56.8125 485.90625 C 56.775124 486.21328 57.39493 487.66105 58.1875 489.125 C 58.98014 490.58891 59.606068 492.12461 59.5625 492.53125 C 26.755385 528.60947 25.786488 513.87359 71.96875 513.09375 C 73.392589 513.5851 73.550378 513.45797 74.90625 510.46875 C 75.694949 508.72989 76.30754 506.9554 76.28125 506.53125 C 76.254974 506.10705 76.661173 505.39471 77.1875 504.9375 C 77.713878 504.48029 78.686181 503.32734 79.34375 502.375 C 80.174429 501.17199 81.080824 500.59853 82.34375 500.5 C 84.080861 500.36449 84.165214 500.26214 83.96875 498.28125 C 83.855692 497.1411 83.850961 495.50235 83.96875 494.65625 C 84.118232 493.58241 83.899102 493.07635 83.21875 493 C 82.682701 492.93995 80.100908 491.92008 77.5 490.71875 C 63.686213 484.33816 62.429779 483.55479 62.6875 481.4375 C 62.763476 480.81325 64.767314 476.28846 67.125 471.375 C 69.482756 466.46154 72.393487 460.24025 73.59375 457.5625 C 74.794022 454.8848 76.241428 451.95188 76.8125 451.03125 C 77.383572 450.11062 77.923464 448.81637 78 448.1875 C 78.076546 447.55868 78.388326 446.94671 78.6875 446.8125 C 78.986622 446.67829 79.499121 445.61034 79.84375 444.4375 C 80.188369 443.26461 82.093333 438.93361 84.0625 434.8125 C 86.031667 430.69139 87.655466 427.10689 87.6875 426.84375 C 87.720814 426.58075 88.692435 424.32794 89.84375 421.84375 C 91.192304 418.93408 92.30738 417.24775 92.96875 417.125 C 93.533396 417.0202 98.271254 419.31988 103.5 422.21875 L 113 427.5 L 115.625 425.65625 C 117.06757 424.64851 118.28714 423.6456 118.3125 423.4375 C 118.40079 422.71217 115.79305 418.24839 115.25 418.1875 C 114.06671 418.05483 109.95229 414.09292 110.0625 413.1875 C 110.18974 412.14215 110.23588 412.18169 103.71875 408.0625 L 99.25 405.21875 z M 85.21875 416.375 C 85.769756 416.33666 86.377579 416.52607 86.875 416.96875 C 87.417335 417.4514 88.162895 417.75422 88.5625 417.65625 C 89.494839 417.42775 90.19669 418.80251 89.34375 419.1875 C 88.989838 419.34724 88.550212 420.11695 88.34375 420.875 C 88.099973 421.76991 87.54879 422.22902 86.78125 422.21875 C 84.471662 422.18788 81.827296 420.08982 83.28125 419.4375 C 83.645295 419.2742 83.838252 418.65552 83.71875 418.0625 C 83.525319 417.10268 84.300407 416.43891 85.21875 416.375 z M 83.5625 422.0625 C 83.696906 422.05798 83.840621 422.07588 84 422.09375 C 84.559062 422.15644 84.69784 422.53279 84.40625 423.25 C 84.163299 423.84741 84.198766 424.51349 84.46875 424.71875 C 84.738808 424.92403 84.885333 425.58915 84.8125 426.1875 C 84.669757 427.36018 82.714037 427.46445 81.3125 426.375 C 80.352208 425.62854 81.161522 424.04444 82.4375 424.1875 C 83.179292 424.27067 83.272928 424.10244 82.84375 423.46875 C 82.295619 422.65953 82.621656 422.09417 83.5625 422.0625 z M 81.25 427.5 C 81.371562 427.48315 81.508572 427.48344 81.65625 427.5 C 83.131834 427.66544 83.305731 428.14554 82.6875 430.3125 C 82.101704 432.36567 80.79386 432.54886 80.5 430.625 C 80.184901 428.56177 80.399067 427.61796 81.25 427.5 z M 75.53125 428.09375 C 76.409392 428.18511 77.473149 429.69468 76.9375 430.34375 C 76.678775 430.6572 75.967225 430.85116 75.34375 430.78125 C 74.103337 430.64218 73.962977 428.69162 75.15625 428.15625 C 75.267903 428.10616 75.405801 428.0807 75.53125 428.09375 z M 80.09375 432.6875 C 80.764853 432.78785 81.547335 434.0458 81.03125 434.4375 C 80.795215 434.61664 80.271994 434.73552 79.84375 434.6875 C 78.973794 434.58996 78.949212 433.10608 79.8125 432.71875 C 79.898691 432.68008 79.997878 432.67316 80.09375 432.6875 z M 70.5 438.25 C 70.681268 438.22891 70.914783 438.22293 71.15625 438.25 C 72.544179 438.40561 73.404033 439.84387 72.65625 440.75 C 72.202481 441.29976 70.346315 441.17248 69.84375 440.5625 C 69.654613 440.33297 69.556211 439.69017 69.625 439.125 C 69.689834 438.59238 69.956195 438.31326 70.5 438.25 z M 67.03125 443.46875 C 67.513042 443.52278 67.837534 443.94381 67.78125 444.40625 C 67.724961 444.86864 67.294297 445.21023 66.8125 445.15625 C 66.330703 445.10222 65.974961 444.68114 66.03125 444.21875 C 66.087529 443.75636 66.549449 443.41477 67.03125 443.46875 z M 89.28125 444.375 C 88.626465 444.53813 88.154224 445.24205 87.625 446.5 C 87.091477 447.7682 85.252657 451.96042 83.53125 455.8125 C 81.809825 459.66454 80.433517 462.88801 80.5 462.96875 C 80.566534 463.04954 81.878673 463.74151 83.40625 464.53125 C 87.163946 466.47399 87.746089 466.38479 88.8125 463.625 C 89.313811 462.32762 90.294804 460.9599 90.96875 460.59375 C 92.457993 459.78472 96.15965 460.13639 97 461.15625 C 97.335672 461.56368 97.721488 461.77794 97.84375 461.65625 C 98.846643 460.65796 101.9827 454.61524 102.4375 452.8125 L 103.03125 450.53125 L 99.1875 448.59375 C 97.083393 447.52355 94.910708 446.60592 94.34375 446.53125 C 93.776741 446.45663 92.686866 445.93682 91.9375 445.40625 C 90.761041 444.57327 89.936035 444.21187 89.28125 444.375 z M 71.90625 454.28125 C 72.019356 454.27072 72.12804 454.26758 72.25 454.28125 C 72.712819 454.33318 73.056284 454.75636 73 455.21875 C 72.897239 456.06299 71.616452 456.24813 71 455.5 C 70.578841 454.98884 71.114506 454.35496 71.90625 454.28125 z M 67 464.65625 C 67.218981 464.63533 67.433734 464.66711 67.625 464.8125 C 67.948961 465.05878 68.17907 465.61827 68.125 466.0625 C 68.010144 467.00639 66.495479 466.98438 66.03125 466.03125 C 65.72126 465.39485 66.343058 464.71902 67 464.65625 z M 76.53125 479.25 C 76.201534 479.34287 75.948466 479.62195 75.90625 479.96875 C 75.849971 480.43119 76.174449 480.85222 76.65625 480.90625 C 77.138047 480.96028 77.599961 480.64989 77.65625 480.1875 C 77.712529 479.72506 77.356801 479.30403 76.875 479.25 C 76.754551 479.2365 76.641155 479.21904 76.53125 479.25 z M 24.8125 489.34375 C 24.592683 489.40566 24.403123 489.58131 24.375 489.8125 C 24.337479 490.12079 24.585054 490.40154 24.90625 490.4375 C 25.227418 490.4735 25.525002 490.277 25.5625 489.96875 C 25.600021 489.6605 25.352418 489.37971 25.03125 489.34375 C 24.950951 489.33475 24.885772 489.32311 24.8125 489.34375 z "
       transform="translate(48.881573,133.90021)"
       id="path10625" />
  </g>
</svg>
