<?xml version="1.0" encoding="UTF-8" standalone="no"?>
<!-- Created with Inkscape (http://www.inkscape.org/) -->

<svg
   xmlns:dc="http://purl.org/dc/elements/1.1/"
   xmlns:cc="http://creativecommons.org/ns#"
   xmlns:rdf="http://www.w3.org/1999/02/22-rdf-syntax-ns#"
   xmlns:svg="http://www.w3.org/2000/svg"
   xmlns="http://www.w3.org/2000/svg"
   xmlns:sodipodi="http://sodipodi.sourceforge.net/DTD/sodipodi-0.dtd"
   xmlns:inkscape="http://www.inkscape.org/namespaces/inkscape"
   height="592.40887"
   viewbox="0 0 570.80835 539.78107"
   id="svg3241"
   version="1.1"
   inkscape:version="0.48.4 r9939"
   sodipodi:docname="cover.svg"
   width="626.47931">
  <defs
     id="defs3243">
    <filter
       color-interpolation-filters="sRGB"
       id="filter11916"
       inkscape:label="Drop Shadow">
      <feFlood
         id="feFlood11918"
         flood-opacity="0.932"
         flood-color="rgb(0,0,0)"
         result="flood" />
      <feComposite
         id="feComposite11920"
         in2="SourceGraphic"
         in="flood"
         operator="in"
         result="composite1" />
      <feGaussianBlur
         id="feGaussianBlur11922"
         stdDeviation="10.4"
         result="blur" />
      <feOffset
         id="feOffset11924"
         dx="5.4"
         dy="4.3"
         result="offset" />
      <feComposite
         id="feComposite11926"
         in2="offset"
         in="SourceGraphic"
         operator="over"
         result="composite2" />
    </filter>
  </defs>
  <sodipodi:namedview
     id="base"
     pagecolor="#ffffff"
     bordercolor="#666666"
     borderopacity="1.0"
     inkscape:pageopacity="0.0"
     inkscape:pageshadow="2"
     inkscape:zoom="0.35"
     inkscape:cx="239.66809"
     inkscape:cy="112.19232"
     inkscape:document-units="px"
     inkscape:current-layer="layer1"
     showgrid="false"
     fit-margin-top="0"
     fit-margin-left="0"
     fit-margin-right="0"
     fit-margin-bottom="0"
     inkscape:window-width="1333"
     inkscape:window-height="742"
     inkscape:window-x="33"
     inkscape:window-y="0"
     inkscape:window-maximized="1" />
  <metadata
     id="metadata3246">
    <rdf:RDF>
      <cc:Work
         rdf:about="">
        <dc:format>image/svg+xml</dc:format>
        <dc:type
           rdf:resource="http://purl.org/dc/dcmitype/StillImage" />
        <dc:title />
      </cc:Work>
    </rdf:RDF>
  </metadata>
  <g
     inkscape:label="Layer 1"
     inkscape:groupmode="layer"
     id="layer1"
     transform="translate(-21.046196,-107.58384)">
    <path
       style="opacity:0.7;fill:#db7207;fill-opacity:1;filter:url(#filter11916)"
       d="m 307.5155,202.677 c -0.23223,0.0605 -0.40948,0.2688 -0.4375,0.5 -0.0375,0.30827 0.0459,0.54662 0.1875,0.5625 0.14168,0.0159 0.45149,-0.18274 0.6875,-0.46875 0.2361,-0.28601 0.15264,-0.5556 -0.1875,-0.59375 -0.0851,-0.01 -0.17259,-0.0202 -0.25,0 z m 21.71875,2.53125 c -0.65804,-0.003 -0.94632,0.10194 -0.84375,0.3125 0.1683,0.34559 0.64055,0.67146 1.0625,0.71875 1.43411,0.16079 5.10722,5.79271 6.53125,10.03125 0.78031,2.32272 1.58391,5.63424 1.78125,7.375 0.19734,1.74075 0.44272,3.38767 0.5625,3.65625 0.60617,1.35934 0.81699,-0.5933 0.6875,-6.28125 -0.10007,-4.39572 -0.53229,-7.46975 -1.46875,-10.28125 -0.73641,-2.21089 -1.27154,-4.13795 -1.15625,-4.28125 0.11539,-0.14331 -1.6857,-0.55091 -4.03125,-0.90625 -1.42912,-0.21651 -2.46696,-0.34081 -3.125,-0.34375 z m 28.375,3.1875 c -0.5133,0.0134 -0.69665,0.13249 -0.59375,0.34375 0.16946,0.34793 0.70588,0.66124 1.21875,0.71875 0.51278,0.0575 1.71166,0.84341 2.65625,1.71875 1.93424,1.79255 10.34707,7.15919 13.65625,8.71875 2.49946,1.17797 2.65696,1.60009 3.4375,8.40625 0.82915,7.23038 3.04945,12.44054 7.65625,18.09375 2.29974,2.82211 4.01245,4.05617 7.40625,5.34375 5.1208,1.94276 9.56072,2.16505 13.90625,0.65625 4.09617,-1.42219 6.55256,-3.45271 9.59375,-7.875 1.0568,-1.53671 2.30765,-2.88388 2.78125,-3 1.12974,-0.27698 5.96993,3.0249 8.5625,5.84375 2.19079,2.38197 3.33722,5.86122 2.625,8.03125 -0.53323,1.62448 -2.06702,1.56407 -3.25,-0.125 -2.00405,-2.86142 -7.95786,-1.45845 -8.375,1.96875 -0.28961,2.3794 0.19929,3.4344 2.0625,4.5 2.01913,1.15476 4.69996,1.12392 6.46875,-0.0625 3.49439,-2.3439 5.48381,-9.00854 3.75,-12.625 -1.16598,-2.43192 -4.37921,-5.28459 -7.875,-7 -1.4837,-0.72809 -2.93203,-1.5871 -3.21875,-1.90625 -0.28677,-0.31916 -0.30135,-2.64287 -0.0312,-5.1875 0.56928,-5.36909 -0.3484,-8.6113 -3.15625,-11.125 -2.87509,-2.57395 -4.99654,-3.39263 -9.65625,-3.6875 -5.48611,-0.34717 -8.91348,1.119 -11.125,4.71875 -0.80585,1.31165 -1.84758,2.47975 -2.3125,2.59375 -0.46492,0.11399 -2.97918,-0.85879 -5.59375,-2.15625 l -4.75,-2.34375 -0.8125,-3.1875 c -0.44824,-1.7449 -1.19848,-4.16632 -1.65625,-5.375 -0.45805,-1.20868 -0.68968,-2.50567 -0.5,-2.875 0.25109,-0.48892 -0.5806,-0.7661 -3.0625,-1.03125 -2.95377,-0.31552 -3.27269,-0.24172 -2.46875,0.5 0.98213,0.90611 2.18388,5.13898 1.96875,6.90625 -0.19809,1.62756 -2.45786,1.05021 -6.65625,-1.6875 -4.53834,-2.95934 -7.29396,-5.46127 -7,-6.34375 0.14742,-0.44279 -0.92087,-0.84968 -3.1875,-1.21875 -1.1324,-0.18439 -1.95545,-0.2634 -2.46875,-0.25 z m -42.8125,1.75 c -1.53384,-0.009 -3.0942,1.07528 -3.65625,2.84375 -0.20267,0.63768 -0.91457,1.10613 -1.6875,1.125 -0.73142,0.0179 -1.34605,0.2297 -1.375,0.46875 -0.0666,0.5474 1.48857,2.25047 2.59375,2.8125 1.36089,0.69202 4.93638,0.365 5.84375,-0.53125 1.37929,-1.36235 1.52833,-4.90795 0.25,-6 -0.57618,-0.4922 -1.27155,-0.71448 -1.96875,-0.71875 z m 106.84375,5.28125 0.15625,1.875 c 0.1739,2.34847 0.81455,3.33104 2.90625,4.5 2.06602,1.1546 1.64683,1.10831 3.96875,0.46875 1.16579,-0.32111 2.55145,-1.3386 3.375,-2.46875 0.76849,-1.05462 1.5956,-1.87159 1.84375,-1.84375 0.24815,0.0278 0.46264,-0.22299 0.5,-0.53125 0.0413,-0.33962 -2.46019,-0.84583 -6.34375,-1.28125 L 421.6405,215.427 z m 75.09375,8.59375 c -0.56376,0.0344 -0.81025,0.12468 -0.71875,0.3125 0.38109,0.78246 5.84747,1.39583 6.40625,0.71875 0.26823,-0.32505 -0.89171,-0.65586 -3.125,-0.90625 -1.1166,-0.1252 -1.99874,-0.15944 -2.5625,-0.125 z m -89.4375,0.9375 c 4.09272,-0.17326 7.84068,2.4787 9.5625,7.0625 1.43318,3.81548 1.30469,5.42444 -0.53125,6.375 -0.77209,0.39984 -1.08976,0.73969 -0.71875,0.78125 1.28594,0.14417 1.11203,2.38034 -0.34375,4.75 -1.6775,2.73044 -6.51638,6.49062 -9.78125,7.5625 -3.40851,1.11902 -7.68394,0.73103 -10.5,-0.9375 -6.56859,-3.892 -9.57515,-9.23919 -10.4375,-18.5625 -0.6949,-7.51248 -0.45134,-7.81741 4.46875,-5.4375 1.93919,0.93801 3.7928,1.97391 4.125,2.28125 0.33216,0.30731 0.51477,2.18223 0.40625,4.15625 -0.3386,6.16045 2.66562,10.28475 8.1875,11.28125 2.58674,0.46681 2.78438,0.42405 1.59375,-0.25 -4.45476,-2.52205 -4.88769,-2.97629 -5.75,-5.75 -1.07244,-3.44975 -0.85009,-6.19259 0.53125,-6.53125 0.54608,-0.1339 2.75632,0.52773 4.90625,1.46875 4.96758,2.17429 5.60674,1.84867 0.8125,-0.40625 -4.64677,-2.18554 -5.23787,-3.03695 -3.46875,-4.875 0.73398,-0.76259 2.58058,-1.8239 4.09375,-2.375 0.9615,-0.3502 1.89928,-0.55377 2.84375,-0.59375 z M 514.703,225.927 c -0.6987,0.0205 -0.76591,0.30961 -0.65625,1.15625 0.11361,0.8767 -0.6852,2.35405 -2.46875,4.59375 -2.15129,2.70128 -3.52777,3.73893 -7.375,5.59375 -6.44923,3.10931 -11.30625,3.87313 -19.375,3.0625 -5.64058,-0.5667 -6.22461,-0.52172 -4.78125,0.25 0.90228,0.48241 3.28341,1.29349 5.28125,1.8125 9.45603,2.45658 20.84177,0.70102 26.34375,-4.0625 2.60397,-2.2545 4.56224,-6.00436 4.625,-8.84375 0.028,-1.26695 0.25059,-2.27798 0.5,-2.25 0.24936,0.028 0.49343,-0.19173 0.53125,-0.5 0.0375,-0.30827 -0.71788,-0.64128 -1.6875,-0.75 -0.3836,-0.043 -0.7046,-0.0693 -0.9375,-0.0625 z m -254.625,2.34375 c -1.49256,0.14089 -2.50559,2.02738 -1.34375,3.4375 0.85474,1.03733 3.59017,1.26512 4.5625,0.375 0.64068,-0.5865 0.59497,-0.9667 -0.15625,-1.90625 -0.51801,-0.64782 -1.39139,-1.41111 -1.96875,-1.6875 -0.37685,-0.1804 -0.74931,-0.25127 -1.09375,-0.21875 z m 151.03125,8.34375 c -0.15604,-0.005 0.16989,0.22574 1.03125,0.75 0.90938,0.55348 1.92933,1.05326 2.25,1.09375 0.88528,0.11193 -0.86125,-1.02005 -2.46875,-1.59375 -0.44332,-0.15822 -0.71888,-0.24707 -0.8125,-0.25 z m -92.84375,1.34375 c -0.88198,0.10107 -2.9252,1.41099 -6.4375,4.09375 -4.43412,3.38685 -5.39797,4.34832 -4.75,4.84375 0.60122,0.45972 0.97576,0.31911 1.4375,-0.5625 0.7825,-1.49432 8.43473,-7.39368 9.4375,-7.28125 0.41075,0.0461 0.77514,-0.19173 0.8125,-0.5 0.0539,-0.44284 -0.0991,-0.6397 -0.5,-0.59375 z m 204.1875,1.90625 c -0.88746,0.12231 -1.26384,1.00593 -0.625,1.78125 0.5528,0.67092 1.63473,0.2582 1.96875,-0.75 0.20397,-0.61577 -0.0898,-0.93971 -0.90625,-1.03125 -0.14602,-0.0164 -0.31072,-0.0175 -0.4375,0 z m -200.96875,0.5 c -0.27781,-0.005 -0.5232,0.19709 -0.75,0.625 -0.73473,1.38615 -9.22253,7.52693 -10.28125,7.4375 -0.67136,-0.0567 -0.63321,0.1493 0.15625,0.875 1.34996,1.24112 1.67738,1.23988 2.46875,0 0.36321,-0.56906 2.69299,-2.61548 5.1875,-4.5625 3.53744,-2.76106 4.3842,-3.66666 3.78125,-4.125 -0.20262,-0.15402 -0.39581,-0.2467 -0.5625,-0.25 z m 192.4375,5.96875 c -0.52521,-0.0145 -1.13948,0.31716 -1.375,1.03125 -0.21681,0.65745 0.0705,1.00004 0.90625,1.09375 0.83574,0.0937 1.24611,-0.22914 1.34375,-1.03125 0.0874,-0.71818 -0.34979,-1.07929 -0.875,-1.09375 z m -181.15625,1.8125 c -0.2612,0.0107 -0.41338,0.2326 -0.46875,0.6875 -0.0534,0.43869 -0.95507,1.46447 -2.03125,2.28125 -2.21475,1.68095 -2.81307,3.95071 -1.5,5.71875 1.53675,2.06915 4.85846,1.77257 6.5,-0.5625 1.65933,-2.36025 1.61673,-4.23848 -0.1875,-6.28125 -1.11329,-1.26051 -1.87717,-1.86152 -2.3125,-1.84375 z m -10.875,8.96875 c -0.9444,-0.0118 -5.35771,4.70623 -5.5,5.875 -0.0926,0.76087 0.41463,1.91975 1.21875,2.6875 1.86438,1.78009 2.73748,1.77967 5,0.0625 2.60569,-1.97767 3.09877,-5.33701 1.0625,-7.28125 -0.76854,-0.73381 -1.58129,-1.34142 -1.78125,-1.34375 z m 179.28125,3.09375 c -1.30107,0.0347 -2.78736,0.33145 -4.34375,0.875 -5.63787,1.96894 -14.82082,8.49775 -20.71875,14.71875 l -1.375,1.4375 -7.3125,-0.9375 c -8.20677,-1.06052 -13.37331,-0.76902 -18.46875,1.03125 -4.4506,1.57241 -8.49026,4.5929 -10.8125,8.0625 -1.69837,2.53745 -2.09391,3.66573 -2.59375,7.71875 -0.52291,4.23873 -0.43362,5.12857 0.78125,7.96875 0.75079,1.75543 2.49875,4.40691 3.875,5.90625 1.37621,1.49934 2.45323,3.05128 2.40625,3.4375 -0.26739,2.19659 -7.70832,7.03815 -11.71875,7.625 -2.98712,0.43711 -6.27419,-0.76734 -6.09375,-2.25 0.0707,-0.58128 0.67393,-1.15692 1.34375,-1.28125 1.44102,-0.26749 3.29459,-2.71173 3.53125,-4.65625 0.20224,-1.66139 -2.50209,-4.599 -4.40625,-4.8125 -1.61385,-0.18095 -4.01148,1.6803 -4.875,3.78125 -0.47696,1.16059 -1.04002,1.56157 -2.21875,1.5625 -0.89794,9.1e-4 -1.63221,0.35846 -1.6875,0.8125 -0.11954,0.98238 0.56474,1.08593 1.625,0.28125 0.62046,-0.47093 1.25352,0.0377 2.96875,2.3125 1.20338,1.59595 3.30451,3.53103 4.65625,4.3125 1.35169,0.78148 3.09395,1.4993 3.875,1.59375 2.60966,0.31552 6.70742,-1.55402 10.6875,-4.90625 l 3.9375,-3.34375 2.6875,1.125 c 6.68594,2.73038 11.51717,2.6093 15.8125,-0.40625 4.44873,-3.12331 6.8159,-9.86279 5.125,-14.53125 -0.5379,-1.48519 -1.6731,-3.31786 -2.53125,-4.0625 -0.85876,-0.74516 -1.48358,-1.86464 -1.40625,-2.5 0.16157,-1.32722 6.44855,-7.96276 7.875,-8.3125 0.52366,-0.12843 1.94157,-0.13619 3.15625,0 7.08856,0.79476 14.0725,-1.22505 20.40625,-5.90625 5.29484,-3.91338 7.91013,-6.72438 9.71875,-10.46875 1.27114,-2.63176 1.30985,-2.96957 0.59375,-4.34375 -0.66018,-1.26692 -2.33155,-1.90161 -4.5,-1.84375 z m -224.71875,5.375 c -0.242,0.0659 -0.47719,0.26114 -0.59375,0.5 -0.15545,0.31848 0.15221,0.62748 0.6875,0.6875 0.53533,0.06 0.91851,-0.1557 0.84375,-0.5 -0.0748,-0.34429 -0.38238,-0.65332 -0.6875,-0.6875 -0.0763,-0.009 -0.16933,-0.022 -0.25,0 z m 219.65625,0.375 c 2.40417,-0.006 3.9038,0.93514 3.65625,2.96875 -0.41145,3.38069 -6.98042,8.47373 -12,9.3125 -4.04298,0.67559 -9.78616,0.0621 -10.09375,-1.09375 -0.30643,-1.15128 1.79735,-3.302 6.40625,-6.53125 4.34611,-3.04515 8.94017,-4.64845 12.03125,-4.65625 z m -212.625,4.46875 c -0.33693,0.0488 -0.59698,0.23754 -0.625,0.46875 -0.0375,0.30827 0.16653,0.59114 0.46875,0.625 0.30227,0.0339 0.76399,-0.18274 1,-0.46875 0.2361,-0.28601 7.3e-4,-0.56886 -0.5,-0.625 -0.12519,-0.014 -0.23144,-0.0163 -0.34375,0 z m 64.59375,0.0937 c -1.71446,0.0263 -3.53438,0.18836 -5.15625,0.5 l -4.21875,0.8125 1.875,1.46875 c 2.33919,1.78605 2.32628,1.77294 3.21875,0.3125 1.0603,-1.73501 3.90126,-2.44697 7.84375,-1.96875 2.20737,0.26774 3.1995,0.21749 2.71875,-0.15625 -0.84837,-0.65951 -3.42382,-1.01253 -6.28125,-0.96875 z m -77.34375,2.5625 c -0.94722,0.0322 -1.91688,0.20523 -2.875,0.5 l -2.28125,0.71875 3.46875,0.71875 c 1.90487,0.39947 4.48568,1.38717 5.75,2.21875 4.88932,3.21573 9.33701,10.4767 9.90625,16.15625 0.15821,1.57871 0.25962,1.68492 0.5625,0.625 0.93511,-3.27174 -0.82392,-10.28679 -3.59375,-14.40625 -2.93954,-4.37182 -6.83289,-6.67079 -10.9375,-6.53125 z m 28.6875,0.3125 c -0.98215,-0.0132 -1.78826,0.2209 -2.34375,0.6875 -1.07987,0.90709 -1.1167,1.17754 -0.5625,2.96875 0.33617,1.08668 1.38156,2.89249 2.34375,4 2.34681,2.70133 10.13321,8.40018 13.5625,9.9375 1.52218,0.68238 2.8607,1.46387 3,1.75 0.13939,0.28613 0.34865,2.01545 0.46875,3.84375 0.51362,7.81836 5.47756,16.67439 10.6875,19.125 7.5051,3.53017 15.55265,1.12877 19.625,-5.875 0.51862,-0.89202 1.33035,-1.58531 1.8125,-1.53125 0.64988,0.0729 0.74231,-0.0992 0.34375,-0.6875 -0.29564,-0.4365 -0.3562,-2.28881 -0.125,-4.125 0.50512,-4.00854 0.0894,-5.7247 -1.875,-7.96875 -4.19274,-4.78943 -12.60546,-4.86975 -15.875,-0.15625 -0.77087,1.11121 -1.57793,2.05927 -1.78125,2.125 -0.54173,0.17512 -0.65497,5.76687 -0.15625,7.65625 0.54944,2.08157 3.14186,4.75175 4.78125,4.90625 1.165,0.10978 1.15274,0.0517 -0.21875,-0.875 -0.82355,-0.55646 -1.8114,-1.79384 -2.1875,-2.75 -0.87851,-2.23323 -0.47862,-5.68286 0.6875,-5.96875 0.48243,-0.11821 0.78098,-0.62528 0.65625,-1.09375 -0.26982,-1.01382 1.57686,-2.6873 3.90625,-3.53125 3.9628,-1.43572 8.33775,0.7078 9.9375,4.84375 0.94888,2.45282 0.9601,5.2604 0.0312,5.15625 -0.29036,-0.0326 -0.51774,0.88875 -0.5,2.0625 0.0258,1.72405 -0.34112,2.53058 -1.9375,4.1875 -4.12223,4.27854 -9.59137,5.79634 -13.96875,3.84375 -2.60056,-1.16002 -6.4442,-5.35868 -7.5625,-8.25 -0.9734,-2.51657 -1.91014,-8.53934 -1.65625,-10.625 0.0978,-0.80325 0.50358,-1.44193 0.90625,-1.40625 0.41304,0.0366 0.342,-0.21225 -0.1875,-0.59375 -0.51619,-0.37192 -1.8468,-3.17455 -2.9375,-6.21875 -2.24641,-6.27008 -3.71618,-8.03884 -10.1875,-12.09375 -3.45159,-2.16275 -6.52678,-3.3148 -8.6875,-3.34375 z m 4.125,2.78125 c 1.74549,-0.0922 5.56644,1.75492 7.5,3.6875 2.2925,2.29129 4.31753,7.22786 3.8125,9.28125 -0.50755,2.06413 -1.63813,1.91514 -5.71875,-0.8125 -6.75463,-4.51507 -9.9667,-11.09823 -5.90625,-12.09375 0.097,-0.0238 0.19613,-0.0564 0.3125,-0.0625 z m 70.6875,1.03125 c -0.32349,-0.0421 -0.40702,0.21164 -0.46875,0.71875 -0.0541,0.44492 -0.64075,1.10099 -1.28125,1.4375 -2.82424,1.48394 -3.85166,5.08357 -1.9375,6.71875 1.66862,1.42547 3.3855,1.50205 5,0.1875 2.92991,-2.38552 3.21008,-6.31684 0.5625,-8.03125 -0.99574,-0.64482 -1.55151,-0.98913 -1.875,-1.03125 z m 81.25,3.09375 c 1.72487,0.0365 3.60709,0.26098 5.78125,0.65625 8.53771,1.55219 8.611,1.694 4.125,6.5 -2.73598,2.93114 -2.98807,3.04543 -4.59375,2.4375 -0.93375,-0.35354 -3.57017,-0.85761 -5.875,-1.125 -3.32562,-0.38579 -4.58106,-0.26905 -6,0.5 -1.94143,1.05232 -4.91178,4.936 -5.125,6.6875 -0.0835,0.6856 0.48682,0.23795 1.53125,-1.21875 1.35772,-1.89353 2.20587,-2.45746 4.65625,-3.03125 4.76086,-1.11479 9.83265,0.77292 8.53125,3.15625 -0.34523,0.63239 -0.13966,0.75974 0.9375,0.625 1.02822,-0.12863 1.59079,0.18507 2.125,1.21875 1.23798,2.3953 1.6753,5.76414 1.03125,7.75 -0.69756,2.15106 -3.85814,5.12802 -6.4375,6.0625 -1.74264,0.63137 -8.32573,0.21788 -8.96875,-0.5625 -0.80678,-0.97919 0.12614,-2.51778 3.8125,-6.34375 6.27645,-6.51413 7.25671,-7.61754 6.4375,-7.25 -0.42504,0.19069 -3.26126,2.98954 -6.28125,6.21875 -6.31787,6.75555 -6.94864,6.96819 -10.1875,3.15625 -2.49287,-2.93405 -4.43096,-8.13798 -4.4375,-11.9375 -0.004,-2.30264 0.33495,-3.29484 1.9375,-5.6875 2.15385,-3.21584 4.48082,-4.92919 8.75,-6.40625 2.89901,-1.00299 5.37522,-1.46704 8.25,-1.40625 z m 59.84375,0.5625 c -1.09218,0.029 -1.77625,0.38592 -2.71875,1.21875 -2.77231,2.44971 -2.4893,7.84025 0.53125,10.1875 1.4308,1.11183 2.33261,1.32806 6.03125,1.46875 2.39845,0.0912 6.21529,0.37234 8.46875,0.625 2.25341,0.25265 3.9565,0.27516 3.78125,0.0625 -0.17521,-0.21266 -3.0091,-0.65181 -6.28125,-0.96875 l -5.9375,-0.5625 0.65625,-1.78125 c 2.28685,-6.27835 1.18411,-9.68685 -3.28125,-10.1875 -0.47385,-0.0531 -0.88594,-0.0721 -1.25,-0.0625 z m -298.84375,2.53125 c -0.51938,-0.0129 -1.0516,0.1859 -1.53125,0.625 -0.66595,0.60979 -0.666,1.03194 -0.0312,2.25 0.83662,1.60545 2.9286,2.2292 4.21875,1.25 0.57101,-0.43336 0.49823,-0.97458 -0.25,-2.28125 -0.679,-1.18591 -1.54061,-1.82222 -2.40625,-1.84375 z m 138.4375,0.1875 c -0.16855,0.0425 -0.21312,0.22818 -0.25,0.53125 -0.0412,0.33872 -0.97142,1.25957 -2.0625,2.03125 -1.64747,1.16516 -2.00077,1.76076 -2.0625,3.53125 -0.0561,1.60812 0.24476,2.34457 1.28125,3 1.86797,1.18117 2.42114,1.19439 4.34375,0.0625 1.7665,-1.04 3.00202,-3.88011 2.59375,-5.90625 -0.13519,-0.6707 -0.94351,-1.68726 -1.8125,-2.25 -1.18009,-0.76416 -1.75033,-1.07088 -2.03125,-1 z m -87.78125,1 c -0.97055,-4.9e-4 -1.94901,0.48292 -2.46875,1.25 -0.46945,0.69265 -1.17408,1.40547 -1.59375,1.59375 -0.42209,0.18828 -0.62499,0.6775 -0.4375,1.0625 0.49452,1.01523 4.97634,1.06334 5.8125,0.0625 0.38077,-0.45579 0.58591,-1.54386 0.46875,-2.40625 -0.17497,-1.2884 -0.47191,-1.56203 -1.78125,-1.5625 z m 137.8125,2.65625 c -0.23504,0.0199 -0.46372,0.1828 -0.78125,0.5 -1.14562,1.14434 -1.46232,3.54631 -0.625,4.5625 0.35322,0.42866 1.43,0.79527 2.40625,0.8125 2.59323,0.0458 2.93627,-1.9351 0.78125,-4.375 -0.97392,-1.10272 -1.38952,-1.5331 -1.78125,-1.5 z m -184.5,4.78125 c -1.60577,-0.18004 -2.50898,1.79158 -1.5,3.28125 0.70699,1.04374 3.69355,1.51323 4.375,0.6875 0.76107,-0.92226 -1.31737,-3.7941 -2.875,-3.96875 z m 197.71875,1.59375 c -0.0951,0.063 -0.18189,0.3447 -0.25,0.875 -0.0936,0.72841 -1.00882,2.45385 -2.03125,3.84375 -3.96906,5.39583 -12.56515,8.57315 -21.25,7.875 l -2.09375,-0.15625 1.6875,0.65625 c 0.93259,0.36287 3.6719,0.80442 6.09375,0.96875 7.41497,0.50313 13.8493,-1.75811 16.6875,-5.84375 1.50822,-2.17102 2.31142,-6.26022 1.53125,-7.78125 -0.18569,-0.36205 -0.27994,-0.50048 -0.375,-0.4375 z m 114.6875,0.28125 c -0.69755,0.0156 -0.45297,0.25856 0.25,0.9375 l 1.15625,1.125 -1.6875,4.625 c -3.63364,9.96522 -3.69077,10.07257 -5.65625,10.25 -2.79421,0.25223 -13.67624,-0.99323 -13.96875,-1.59375 -0.14387,-0.29541 0.2267,-1.38389 0.84375,-2.4375 0.84727,-1.44661 1.07253,-2.50885 0.875,-4.3125 -0.35009,-3.19659 -1.378,-4.29949 -4.28125,-4.625 -3.38694,-0.37975 -5.46479,1.46007 -5.9375,5.34375 -0.30227,2.48312 -0.1147,3.1095 1.46875,5.03125 l 1.8125,2.1875 8.84375,0.5625 c 4.87251,0.319 11.54861,0.73344 14.8125,0.90625 6.87539,0.36404 5.73234,1.42297 9.5,-8.9375 1.31013,-3.60283 2.60219,-7.02658 2.84375,-7.59375 0.40113,-0.94217 0.17166,-1.01807 -2.40625,-0.96875 -1.55174,0.0297 -4.29082,-0.11729 -6.09375,-0.3125 -1.20244,-0.13018 -1.95647,-0.19683 -2.375,-0.1875 z m 5.90625,1.25 c 1.0526,2.9e-4 1.71315,0.32949 1.875,0.9375 0.40981,1.53948 -3.93184,13.59328 -5.25,14.59375 -1.44149,1.09406 -2.55221,1.01082 -3.40625,-0.25 -0.53664,-0.79227 -0.32148,-1.85229 1.3125,-6.21875 3.04156,-8.1281 3.59676,-9.06297 5.46875,-9.0625 z m -187.3125,14.125 c -0.34444,-0.0386 0.35724,0.77707 1.53125,1.8125 2.4833,2.19028 4.27898,4.85736 4.1875,6.15625 -0.0389,0.5521 0.0878,0.64326 0.3125,0.25 0.65264,-1.14219 -0.7236,-3.83814 -3.09375,-6.03125 -1.26642,-1.17181 -2.59311,-2.14893 -2.9375,-2.1875 z m 131.46875,6.5 -2,1.4375 c -1.94306,1.39938 -1.97343,1.45879 -0.9375,2.34375 1.21412,1.03715 0.99938,5.25632 -0.40625,7.875 -0.77933,1.45196 -0.7582,1.4733 0.375,0.625 0.94814,-0.70978 1.34136,-2.00042 2.0625,-6.59375 l 0.90625,-5.6875 z m -197.96875,2.25 c -0.31516,0.0377 -0.70112,0.34986 -1.375,1 -1.41417,1.36427 -1.96397,2.89684 -1.3125,3.6875 0.65483,0.79475 2.67124,0.67119 3.5625,-0.21875 1.25788,-1.25602 1.30383,-2.49151 0.15625,-3.75 -0.46832,-0.51356 -0.71609,-0.75643 -1.03125,-0.71875 z m 65.9375,0.125 c -0.75443,-10e-4 -1.44294,0.29471 -2.125,0.9375 -1.29061,1.21632 -1.25445,3.21876 0.0625,4.34375 2.21778,1.89455 4.98809,1.4077 6.8125,-1.1875 1.31508,-1.87068 1.39646,-2.30323 0.40625,-2.09375 -0.41775,0.0884 -1.58355,-0.36225 -2.59375,-1.03125 -0.97424,-0.64515 -1.80807,-0.96767 -2.5625,-0.96875 z m 110.5,2.90625 c -2.55275,0.12403 -3.54987,3.36935 -1.5625,5.78125 1.58616,1.92506 4.72315,2.41372 6.40625,1 1.07464,-0.90264 1.0795,-1.03789 0.3125,-1.96875 -0.45824,-0.55612 -0.77016,-1.35834 -0.71875,-1.78125 0.13561,-1.11422 -2.04593,-2.79142 -3.90625,-3 -0.18356,-0.0206 -0.36107,-0.0395 -0.53125,-0.0312 z m -183.75,2.78125 c -0.3977,-0.0523 -0.86694,0.27857 -1.71875,1.03125 -1.72265,1.52218 -2.22551,3.26696 -1.125,3.84375 1.45919,0.76473 2.6966,0.63552 3.40625,-0.34375 1.06721,-1.47274 1.1325,-3.08023 0.15625,-4.0625 -0.27502,-0.27672 -0.48013,-0.43736 -0.71875,-0.46875 z m 131.28125,2.78125 c -1.46688,-0.0186 -3.05494,0.4145 -6.125,1.5 -6.22878,2.20233 -9.44121,4.366 -3.9375,2.65625 6.22994,-1.93538 10.07766,-1.29221 9.71875,1.65625 -0.19066,1.56639 -3.54752,4.67396 -6,5.5625 -2.32392,0.84196 -7.07268,0.82311 -9.78125,-0.0625 -3.13444,-1.02492 -3.1037,-2.43311 0.0625,-4.5625 l 2.46875,-1.6875 -2.75,1.59375 c -5.28919,3.04689 -4.70792,2.94802 -8.65625,1.46875 -5.25519,-1.96891 -12.69327,-2.67408 -17,-1.625 -10.07661,2.45453 -14.46983,12.47108 -9.21875,20.96875 0.6716,1.08682 1.18379,2.36078 1.125,2.84375 -0.0587,0.48298 0.3443,0.93585 0.90625,1 0.56195,0.0643 2.23229,0.89719 3.71875,1.84375 4.19209,2.6694 8.06169,2.66593 11.78125,0 4.38877,-3.14556 5.65581,-7.83077 3.34375,-12.375 -0.77195,-1.51735 -1.90789,-2.95884 -2.53125,-3.1875 -0.62331,-0.22868 -2.23079,-0.94263 -3.5625,-1.59375 -2.70161,-1.32088 -5.69243,-1.21192 -7.875,0.28125 -1.69141,1.15716 -1.64507,2.0091 0.0625,1.125 1.59592,-0.82629 5.94645,-0.52659 7.53125,0.53125 0.58241,0.38878 1.00232,1.15492 0.9375,1.6875 -0.0648,0.5326 0.43935,1.27092 1.125,1.65625 1.43383,0.8058 2.09648,4.13733 1.25,6.28125 -1.51845,3.84612 -6.868,5.89673 -11.09375,4.25 -1.11298,-0.43372 -2.12303,-1.17941 -2.25,-1.65625 -0.12688,-0.47685 -0.71599,-0.93312 -1.3125,-1 -2.74284,-0.30752 -4.97894,-5.76299 -4.40625,-10.75 0.35396,-3.08204 0.70718,-4.02483 2.25,-5.78125 3.70662,-4.21987 11.24279,-5.12193 19.1875,-2.28125 2.94373,1.05254 4.1063,1.73104 4.21875,2.5 0.12267,0.83847 0.39621,0.97127 1.3125,0.625 0.63765,-0.24094 4.00037,-0.16107 7.46875,0.15625 5.97185,0.54635 6.50665,0.48617 10.3125,-0.96875 2.21031,-0.84498 5.70402,-2.76473 7.75,-4.28125 5.72767,-4.2455 6.26028,-7.33345 1.4375,-8.21875 -0.51134,-0.0939 -0.97979,-0.15005 -1.46875,-0.15625 z m -116.9375,6.21875 c -0.10726,-10e-4 -0.25963,0.0189 -0.4375,0.0625 -0.53463,0.13109 -1.09669,0.20468 -1.25,0.1875 -0.15326,-0.0172 -0.12971,0.23196 0.0312,0.5625 0.43442,0.89193 1.18533,0.85186 1.71875,-0.125 0.25857,-0.47356 0.25928,-0.68443 -0.0625,-0.6875 z m 196.125,0.9375 c -0.0693,0.0216 -0.15431,0.0687 -0.28125,0.15625 -0.3916,0.26998 -2.62039,4.1053 -4.9375,8.53125 -2.31706,4.42596 -4.43133,8.48539 -4.71875,9 -0.6489,1.16189 -2.38087,1.03314 -3.25,-0.25 -1.78238,-2.63141 -6.83064,-4.12158 -8.84375,-2.59375 -3.64666,2.7677 -2.69818,7.60687 1.875,9.5 0.89294,0.36963 1.97622,0.70616 2.40625,0.78125 1.25466,0.21904 4.97396,-1.15224 5.65625,-2.09375 0.48317,-0.66674 7.7259,-14.13998 11.96875,-22.28125 0.29928,-0.57423 0.3328,-0.81481 0.125,-0.75 z m -245.75,0.3125 c -0.38708,0.0252 -0.0872,0.18408 0.75,0.65625 0.76163,0.42957 2.21392,1.2722 3.21875,1.84375 1.00483,0.57156 2.69043,2.20755 3.71875,3.65625 2.3299,3.28232 2.89855,3.0764 0.96875,-0.34375 -1.91934,-3.40159 -4.51525,-5.47082 -7.15625,-5.71875 -0.76476,-0.0718 -1.26775,-0.1089 -1.5,-0.0937 z m 19.75,0.46875 c -1.75424,0.10182 -1.79114,1.42004 -0.125,3.84375 0.7161,1.04169 1.36723,1.89486 1.46875,1.90625 0.10157,0.0114 0.17866,-0.9976 0.15625,-2.25 -0.0265,-1.4951 0.19104,-2.26741 0.625,-2.21875 0.36349,0.0408 0.68139,-0.16047 0.71875,-0.46875 0.0375,-0.30828 -0.84457,-0.6552 -1.96875,-0.78125 -0.31962,-0.0358 -0.62439,-0.0458 -0.875,-0.0312 z m 167.1875,1.0625 c -0.909,-0.10193 -0.51097,1.64552 0.40625,1.78125 0.55966,0.0828 3.07739,1.84321 5.59375,3.90625 2.51632,2.06303 4.69899,3.55438 4.84375,3.3125 0.14476,-0.24189 0.19578,-0.54733 0.0937,-0.65625 -0.66324,-0.70774 -10.62986,-8.30924 -10.9375,-8.34375 z M 331.078,335.9582 c -0.58413,-0.0655 -0.87046,1.80496 -0.375,2.40625 0.44241,0.53707 1.56478,0.67514 2.125,0.25 0.48303,-0.36663 -0.9689,-2.56867 -1.75,-2.65625 z m -17.96875,1.5 c -1.75954,-0.19677 -4.2989,4.0458 -2.6875,4.90625 1.26731,0.6767 2.43533,0.36746 3.28125,-0.875 0.9678,-1.4214 0.85018,-3.38416 -0.25,-3.9375 -0.10902,-0.0548 -0.22645,-0.0806 -0.34375,-0.0937 z m 114.1875,2.4375 c -0.35434,-0.0139 -0.76148,0.38644 -0.84375,1.0625 -0.0763,0.62638 0.25697,1.16345 0.75,1.21875 1.03574,0.11613 9.74815,6.69933 9.96875,7.53125 0.17806,0.67161 1.30166,-0.55352 1.4375,-1.5625 0.0518,-0.38479 -0.42877,-0.74145 -1.0625,-0.8125 -1.12596,-0.12624 -9.4346,-6.03052 -9.71875,-6.90625 -0.11022,-0.33962 -0.31865,-0.5229 -0.53125,-0.53125 z M 272.703,340.8332 c -0.1019,3e-4 -0.0648,0.27576 0.0937,0.8125 0.19076,0.64636 0.28343,1.91356 0.21875,2.84375 -0.065,0.93014 0.0982,2.37878 0.34375,3.1875 0.24544,0.80871 0.68895,2.92741 1,4.71875 0.36312,2.09103 1.30007,4.28805 2.625,6.125 2.57758,3.57373 3.04268,3.68019 1.1875,0.3125 -1.48669,-2.69885 -2.2927,-6.17169 -2,-8.625 0.17348,-1.45251 -2.03476,-7.88626 -3.125,-9.09375 -0.16145,-0.17881 -0.28261,-0.28143 -0.34375,-0.28125 z m 27.5625,0.8125 c -0.48163,-0.0728 -1.1008,0.26639 -1.90625,1 -1.43668,1.30853 -1.89468,3.40309 -0.875,3.9375 1.4123,0.74018 2.13137,0.59665 3.25,-0.6875 0.91746,-1.05319 1.04594,-1.61879 0.65625,-2.78125 -0.30201,-0.90114 -0.64337,-1.3959 -1.125,-1.46875 z m -59.375,0.0937 c -0.43031,-0.0482 -1.16531,0.52035 -1.625,1.25 -0.7691,1.22084 -0.70708,1.35064 0.625,1.5 1.15458,0.12945 1.45772,-0.13225 1.59375,-1.25 0.097,-0.79725 -0.14868,-1.45011 -0.59375,-1.5 z m 98.8125,0.5 c -0.1569,0.0476 -0.46418,0.39977 -1.03125,1.09375 -1.6358,2.00181 -2.43042,2.46577 -6.875,4.09375 -3.60123,1.31909 -3.60391,1.3582 -1.28125,1.25 1.29846,-0.0605 3.09212,-0.38983 4,-0.71875 2.26611,-0.82103 5.10175,-3.49418 5.28125,-4.96875 0.0649,-0.54152 0.0632,-0.79764 -0.0937,-0.75 z m -52.25,4.7813 c -1.32533,-0.019 -2.09036,0.28587 -3.03125,1 -2.08325,1.5811 -2.82192,3.60677 -2.3125,6.375 0.49223,2.67375 0.98872,3.0438 0.78125,0.59375 -0.26295,-3.10531 3.29506,-7.03254 6.09375,-6.71875 1.94661,0.21825 4.40004,2.25416 5,4.15625 l 0.59375,1.875 0.21875,-1.59375 c 0.13944,-1.02235 -0.33817,-2.22372 -1.3125,-3.40625 -1.27394,-1.54609 -1.97229,-1.87284 -4.5,-2.15625 -0.59595,-0.0668 -1.08947,-0.11866 -1.53125,-0.125 z m 127.59375,1.8125 c -1.32705,-0.0278 -2.51978,0.41973 -3.125,1.34375 -1.18316,1.80644 -0.84367,3.691 0.90625,4.875 2.8466,1.926 5.98807,1.69034 7.59375,-0.59375 1.2343,-1.75576 1.40249,-2.65582 0.5625,-2.75 -0.33416,-0.0375 -1.27212,-0.66733 -2.09375,-1.40625 -1.06635,-0.95907 -2.5167,-1.44093 -3.84375,-1.46875 z m -69.34375,2.0625 c -0.31609,0.002 -0.65162,0.0861 -1.09375,0.25 -0.79007,0.29289 -1.66026,0.81227 -1.9375,1.125 -0.86964,0.98082 -0.97724,3.87621 -0.1875,5.28125 0.41658,0.74118 0.85728,1.36253 0.96875,1.375 0.11142,0.0125 1.25661,-0.67923 2.53125,-1.53125 2.83563,-1.89546 3.36583,-4.12131 1.375,-5.71875 -0.67308,-0.54007 -1.12944,-0.78469 -1.65625,-0.78125 z m -51.625,4.40625 c -0.0686,0.0521 -0.165,0.26885 -0.21875,0.59375 -0.0973,0.58801 0.002,0.91449 0.21875,0.75 0.21663,-0.16449 0.3069,-0.63899 0.1875,-1.0625 -0.066,-0.23402 -0.11893,-0.3333 -0.1875,-0.28125 z m 131.875,2.21875 c -2.73419,0.20029 -4.79708,2.81926 -2.5625,5.53125 1.01048,1.22643 1.93643,1.65414 3.90625,1.875 2.8346,0.31781 4.24572,-0.49426 5.21875,-2.96875 0.46884,-1.19226 0.38508,-1.50503 -0.40625,-1.59375 -0.54626,-0.0613 -1.60215,-0.69815 -2.34375,-1.40625 -1.18037,-1.12702 -2.56969,-1.52854 -3.8125,-1.4375 z m -70.25,2.3125 c -0.3631,0.0651 -1.03445,0.27683 -1.9375,0.59375 -1.99322,0.69951 -4.23341,1.03927 -5.71875,0.875 -1.79289,-0.1985 -2.16006,-0.10673 -1.34375,0.3125 0.61285,0.31473 1.52005,0.61857 2,0.6875 1.1077,0.15904 5.38337,-1.17829 7.0625,-2.21875 0.35214,-0.2182 0.3006,-0.31507 -0.0625,-0.25 z m 45.15625,1.90625 -2.3125,1.6875 c -2.10646,1.54223 -2.2328,1.74576 -1.15625,2.03125 0.70083,0.18586 1.25989,0.90231 1.375,1.75 0.20365,1.49946 -0.6707,5.76024 -1.625,7.84375 -0.79222,1.72963 -0.0716,1.55426 1.21875,-0.28125 0.77064,-1.09613 1.28813,-3.2299 1.78125,-7.28125 l 0.71875,-5.75 z M 250.5155,362.0832 c -0.30031,-0.0534 -0.40587,0.71874 -0.53125,2.96875 -0.14518,2.60681 -0.61153,4.30875 -1.75,6.40625 -1.98257,3.65249 -0.50868,2.84707 1.78125,-0.96875 1.78499,-2.97446 2.17822,-6.51205 0.875,-8.09375 -0.15043,-0.18255 -0.2749,-0.2947 -0.375,-0.3125 z m -9.84375,1.28125 c -1.08047,0.0864 -1.55287,0.92063 -0.84375,1.78125 0.62102,0.75374 2.20227,0.34111 2.53125,-0.65625 0.23264,-0.7055 -0.0744,-1.0002 -1.1875,-1.125 -0.17846,-0.02 -0.34565,-0.0123 -0.5,0 z m 56.1875,1.125 c -1.61193,-0.18073 -2.33954,1.45041 -1.125,2.53125 1.18657,1.05596 1.12159,1.03688 2.625,0.46875 2.28942,-0.86519 1.39311,-2.67562 -1.5,-3 z m 81.6875,2.96875 c -1.73605,0.047 -3.39532,1.1131 -3.625,3 -0.14938,1.22722 1.72294,4.09059 3.1875,4.875 1.59218,0.85278 3.86565,0.57801 5.65625,-0.6875 1.46815,-1.03763 1.47209,-1.0428 0.34375,-1.59375 -0.62728,-0.30623 -1.08369,-0.91298 -1.03125,-1.34375 0.0524,-0.43076 -0.3706,-1.51937 -0.9375,-2.40625 -0.8342,-1.30524 -2.24349,-1.88032 -3.59375,-1.84375 z m -40.84375,0.1875 c -0.6399,-0.0555 -1.62919,0.0917 -2.5,0.375 -2.57492,0.83757 -3.58958,1.83144 -1.59375,1.5625 1.74614,-0.23527 3.44222,0.85491 3.3125,2.125 -0.0873,0.85459 -0.003,0.84867 0.875,-0.0312 1.30486,-1.30747 1.51862,-3.34676 0.40625,-3.90625 -0.12205,-0.0614 -0.2867,-0.10651 -0.5,-0.125 z m -23.375,8.25 c -2.47447,0.0707 -4.13147,0.48299 -5.4375,1.28125 -1.46661,0.89641 -1.41556,0.91126 2,0.21875 2.87303,-0.58248 4.07161,-0.57254 6.78125,0.15625 3.33832,0.89788 9.41792,1.02882 11.34375,0.21875 1.13749,-0.47846 -1.43983,-0.92932 -9.25,-1.625 -2.17369,-0.19362 -3.95282,-0.29241 -5.4375,-0.25 z m -56.0625,1.5 c -0.0659,0.009 -0.12593,0.0349 -0.1875,0.0625 -0.96149,0.43133 -2.8331,3.55573 -2.96875,4.9375 -0.0703,0.71735 0.21442,0.57216 1,-0.5 0.9013,-1.23021 1.40602,-1.41648 2.78125,-1.0625 1.96151,0.50489 2.25691,-0.29602 0.90625,-2.34375 -0.50025,-0.75841 -1.06987,-1.15498 -1.53125,-1.09375 z m 54.625,5.09375 c -0.24795,-0.0236 -0.20539,0.0404 0.1875,0.15625 0.78577,0.23164 1.82821,0.89484 2.3125,1.46875 0.48429,0.57391 1.23869,1.39051 1.6875,1.84375 1.11316,1.12401 0.58881,4.8852 -0.875,6.25 -0.64274,0.59925 -2.28699,1.33175 -3.625,1.625 l -2.40625,0.53125 2.3125,0.25 c 3.66282,0.42145 6.47384,-1.87742 6.90625,-5.6875 0.37507,-3.30626 -1.36056,-5.44506 -4.96875,-6.15625 -0.76903,-0.1516 -1.2833,-0.25767 -1.53125,-0.28125 z m 28.8125,0.1875 c -1.37431,0.24653 -1.91059,1.88686 -0.875,3.28125 1.03705,1.39635 3.46356,1.84688 4.0625,0.75 0.65511,-1.19985 -1.03495,-3.85998 -2.5625,-4.03125 -0.22823,-0.0256 -0.42867,-0.0352 -0.625,0 z m 36.78125,1.8125 c -3.10438,0.0686 -4.3098,3.36729 -2.15625,6.5 0.95752,1.39284 1.80457,1.9387 3.1875,2.09375 2.16894,0.24319 4.57831,-0.78282 3.59375,-1.53125 -0.34318,-0.26086 -0.5428,-1.16621 -0.4375,-2.03125 0.27528,-2.26133 -1.48863,-4.77098 -3.53125,-5 -0.22338,-0.025 -0.44929,-0.0358 -0.65625,-0.0312 z m -105.6875,0.15625 c -0.2127,-0.004 -0.40478,2.4e-4 -0.53125,0.0312 -0.92161,0.22596 -1.55221,2.49718 -0.90625,3.28125 0.45885,0.55689 3.21337,0.83143 4.09375,0.40625 0.38576,-0.18632 0.94764,-0.87917 1.25,-1.53125 0.47841,-1.03183 0.26104,-1.2552 -1.5,-1.78125 -0.83466,-0.24938 -1.76815,-0.39505 -2.40625,-0.40625 z m 8.75,4.09375 c -0.70996,0.0551 -1.02803,0.29771 -1.1875,0.78125 -0.17871,0.54181 -0.0513,1.38401 0.28125,1.875 1.18849,1.75466 4.32657,1.03202 4.96875,-1.15625 0.28252,-0.96269 0.0116,-1.14918 -2.28125,-1.40625 -0.77157,-0.0865 -1.35527,-0.12684 -1.78125,-0.0937 z m -22.1875,1.3125 c -0.55024,0.0123 -3.12343,1.82381 -6.125,4.34375 -0.42588,0.3575 -1.84789,1.37356 -3.15625,2.28125 -2.48989,1.72729 -5.80428,6.29122 -5.96875,8.21875 -0.0547,0.64156 0.40926,0.15042 1.0625,-1.125 0.98596,-1.92496 3.20596,-3.81845 8.34375,-7.09375 1.23238,-0.78562 5.85755,-5.87417 5.9375,-6.53125 0.009,-0.075 -0.0151,-0.0955 -0.0937,-0.0937 z m 86.375,1.09375 c -0.29568,0.0216 -0.59912,0.15213 -0.90625,0.34375 -1.37864,0.86023 -1.3735,2.48294 0,3.65625 1.49206,1.2746 2.32315,1.36915 3.375,0.40625 0.66651,-0.61026 0.64886,-1.06732 0,-2.3125 -0.75625,-1.4512 -1.5817,-2.15845 -2.46875,-2.09375 z m -48.53125,0.4375 c -0.55268,0.0699 -1.05215,0.33853 -1.21875,0.84375 -0.17974,0.54494 -0.2174,1.37944 -0.0937,1.84375 0.50484,1.89662 3.56427,0.54688 3.40625,-1.5 -0.0679,-0.88015 -1.17261,-1.30404 -2.09375,-1.1875 z m 10.71875,0.96875 c -0.11173,0.006 -0.20218,0.003 -0.3125,0.0312 -0.48761,0.12668 -0.36451,0.27181 0.3125,0.375 0.61267,0.0934 0.95263,0.0205 0.78125,-0.1875 -0.12857,-0.15597 -0.44606,-0.23588 -0.78125,-0.21875 z M 222.078,392.7082 c -0.0707,-0.0102 -0.13124,-0.008 -0.21875,0.0312 -0.34985,0.15703 -0.5249,0.53606 -0.375,0.84375 0.40598,0.83355 0.78643,0.73452 0.90625,-0.25 0.0439,-0.36047 -0.1005,-0.59427 -0.3125,-0.625 z m 109.71875,3.21875 c -0.0707,-0.0102 -0.13124,-0.008 -0.21875,0.0312 -0.34981,0.15704 -0.52494,0.53606 -0.375,0.84375 0.40594,0.83356 0.75518,0.73453 0.875,-0.25 0.0439,-0.36046 -0.0693,-0.59427 -0.28125,-0.625 z m 153.4375,2.40625 c -1.60915,-0.0313 -2.85101,2.50534 -1.59375,4.03125 0.70377,0.85407 3.8492,1.38171 3.9375,0.65625 0.15686,-1.28858 -0.85637,-4.11342 -1.625,-4.5 -0.23833,-0.11987 -0.48887,-0.18303 -0.71875,-0.1875 z M 318.203,398.3957 c -0.31386,-0.002 -0.63384,0.0918 -0.9375,0.28125 -1.17863,0.73533 -1.27435,2.027 -0.25,3.40625 0.95878,1.29092 2.40127,1.61517 3.5,0.78125 0.56419,-0.42818 0.60556,-0.96568 0.125,-2.1875 -0.57014,-1.44954 -1.49591,-2.27625 -2.4375,-2.28125 z m -90.34375,2.1875 c -0.0938,0.0129 -0.18293,0.0428 -0.25,0.0937 -0.19986,0.15164 -0.20291,0.55373 -0.0312,0.90625 0.39973,0.82067 1.9699,1.01073 2.0625,0.25 0.0715,-0.58712 -1.12441,-1.34052 -1.78125,-1.25 z m 46.46875,0.25 c -0.13623,0.0573 -0.22078,0.31555 -0.28125,0.8125 -0.0833,0.68377 0.24651,1.2248 0.75,1.28125 0.48177,0.054 0.87356,-0.10447 0.90625,-0.375 0.0329,-0.27051 -0.28367,-0.87472 -0.71875,-1.3125 -0.33045,-0.3325 -0.52002,-0.46355 -0.65625,-0.40625 z m -60.96875,0.40625 c -0.11173,0.006 -0.23343,0.0338 -0.34375,0.0625 -0.48766,0.12668 -0.36451,0.27183 0.3125,0.375 0.61271,0.0934 0.95263,-0.0108 0.78125,-0.21875 -0.12857,-0.15597 -0.41482,-0.23588 -0.75,-0.21875 z m -38.4375,1.84375 c -0.31823,0.0479 -0.55385,0.69568 -0.46875,1.875 0.18344,2.54214 -0.51982,3.71122 -2.125,3.53125 -0.9643,-0.10811 -1.54395,-0.77437 -2.125,-2.53125 -0.52591,-1.5903 -1.07744,-2.29816 -1.65625,-2.15625 -0.47727,0.11703 -1.47413,0.27794 -2.25,0.375 -1.21974,0.15258 -1.36,0.37395 -1.03125,1.625 0.20906,0.79582 0.22985,2.56272 0.0625,3.9375 -0.25292,2.07792 -0.54712,2.57176 -1.6875,2.84375 -0.75447,0.17999 -2.18251,0.10492 -3.1875,-0.15625 -3.28187,-0.85291 -11.51742,0.23786 -19.59375,2.59375 -7.35786,2.1463 -10.96451,3.80651 -11.125,5.125 -0.0901,0.74012 1.3775,0.37148 8.34375,-2.0625 7.42846,-2.59548 12.33805,-3.46876 18.09375,-3.25 4.40216,0.16731 4.89849,0.30811 5.90625,1.53125 1.22344,1.48485 1.20488,3.72877 -0.0312,4.5 -0.4417,0.27558 -2.38532,0.33136 -4.3125,0.125 -2.0267,-0.21702 -4.34064,-0.0901 -5.5,0.3125 -1.10638,0.38422 -2.50192,0.4884 -3.125,0.21875 -0.69927,-0.30263 -1.16837,-0.22655 -1.21875,0.1875 -0.054,0.44365 -0.6454,0.47864 -1.78125,0.125 -1.29532,-0.4033 -1.7347,-0.3267 -1.8125,0.3125 -0.13402,1.10104 -1.76406,1.49127 -2.625,0.625 -0.8949,-0.90046 -12.63517,2.91743 -14.21875,4.625 -0.62258,0.67096 -0.94237,1.29166 -0.6875,1.40625 0.25486,0.11457 3.36869,-0.70602 6.90625,-1.84375 3.53756,-1.13773 8.70436,-2.49447 11.46875,-3 8.19971,-1.49951 16.07778,-0.0121 15.71875,2.9375 -0.0907,0.74485 0.0383,0.74495 0.9375,0.0625 1.34397,-1.02006 1.09872,-1.09351 7.75,2 6.68972,3.11138 10.54457,5.44668 13.28125,8.0625 2.11696,2.02344 1.99122,2.10247 3.28125,-1.46875 0.48682,-1.34754 0.18077,-1.62508 -5.4375,-4.96875 -3.25813,-1.93905 -8.40338,-4.623 -11.4375,-5.96875 -5.33815,-2.36766 -6.71484,-3.56818 -5.28125,-4.65625 2.01444,-1.52891 19.34252,7.62173 23.90625,12.625 1.38313,1.51631 1.23269,4.49343 -0.34375,6.71875 -1.01771,1.43665 -1.00438,1.49797 2,4.21875 1.99286,1.8047 3.67663,2.85406 4.90625,3.03125 2.14123,0.30856 4.88803,2.78453 9.21875,8.40625 1.54637,2.0073 2.90405,3.48402 3.03125,3.28125 0.78699,-1.25471 -5.32942,-10.53015 -9.6875,-14.6875 -4.26814,-4.07154 -4.29433,-4.9397 -0.0937,-4.46875 2.84599,0.31909 3.37643,0.59953 5.65625,3.03125 1.37896,1.47079 3.35085,4.01374 4.40625,5.65625 1.0554,1.6425 1.97587,2.61121 2.03125,2.15625 0.16363,-1.34423 -3.64873,-7.97173 -6.0625,-10.5625 -4.1246,-4.42697 -4.67006,-6.9765 -1.65625,-7.6875 1.64906,-0.38905 3.71641,0.52726 5.34375,2.375 0.64246,0.72949 1.349,1.19331 1.5625,1.03125 0.83695,-0.63517 -0.17807,-2.70879 -2,-4.09375 -1.05363,-0.80094 -2.32793,-2.01382 -2.84375,-2.6875 -0.51577,-0.67367 -1.2466,-1.09328 -1.59375,-0.9375 -0.34719,0.15577 -0.9256,-0.24226 -1.28125,-0.875 -0.35565,-0.63273 -1.15649,-1.31132 -1.78125,-1.5 -0.69203,-0.20899 -1.13458,-0.8632 -1.15625,-1.71875 -0.0196,-0.77247 -0.5019,-1.80234 -1.0625,-2.28125 -0.56061,-0.47892 -0.97943,-1.31933 -0.9375,-1.84375 0.0571,-0.7158 -0.11778,-0.62825 -0.71875,0.28125 -0.94458,1.42962 -2.49224,1.13826 -2.75,-0.5 -0.26926,-1.71115 -2.38368,-4.3838 -3.90625,-4.9375 -0.96743,-0.35182 -1.46186,-1.15533 -1.78125,-2.9375 l -0.4375,-2.46875 -0.65625,2.78125 c -0.48448,2.04759 -0.91184,2.79065 -1.6875,2.84375 -0.57552,0.0394 -1.1463,-0.36806 -1.28125,-0.875 -0.13489,-0.50693 -0.58811,-0.95382 -1,-1 -0.41184,-0.0462 -1.29163,-0.61619 -1.96875,-1.28125 -1.05545,-1.03665 -1.10909,-1.33063 -0.34375,-2.03125 0.78119,-0.71516 0.7151,-0.8255 -0.5625,-0.96875 -1.6773,-0.18805 -2.37865,-1.03752 -2.65625,-3.28125 -0.14482,-1.17035 -0.52552,-1.73536 -0.84375,-1.6875 z m 80.875,0.0625 c -1.04598,0.0276 -2.08738,0.26092 -2.6875,0.625 -1.35197,0.82017 -1.32329,0.83368 1.84375,1 2.83143,0.14868 3.41576,0.38944 4.5625,1.78125 1.51761,1.84186 1.45161,4.26208 -0.1875,6.59375 -0.91704,1.30469 -0.96049,1.49437 -0.21875,1.3125 0.48145,-0.11804 1.40145,-1.00318 2.03125,-1.96875 2.39747,-3.67529 0.0156,-8.79599 -4.3125,-9.28125 -0.33683,-0.0378 -0.68259,-0.0717 -1.03125,-0.0625 z m -23.75,1.875 c -0.0938,0.0129 -0.18294,0.0428 -0.25,0.0937 -0.19986,0.15164 -0.20291,0.55374 -0.0312,0.90625 0.39973,0.82067 1.9699,1.01073 2.0625,0.25 0.0715,-0.58712 -1.12443,-1.34051 -1.78125,-1.25 z m 86.5625,6.34375 c -0.64011,0.0591 -1.16724,0.55815 -1.40625,1.53125 -0.25188,1.02534 -0.0106,1.77019 0.84375,2.5 1.48408,1.2678 1.61089,1.30559 3.09375,0.5 1.13908,-0.61882 1.13625,-0.71843 0.0625,-2.59375 -0.78016,-1.36253 -1.77076,-2.0135 -2.59375,-1.9375 z m -50.8125,1.34375 c -1.04747,-0.0165 -1.41325,0.23289 -1.625,0.875 -0.19216,0.58275 0.0963,1.43571 0.625,1.90625 1.3375,1.19026 2.28141,1.18577 3.84375,0 1.94115,-1.47323 1.43359,-2.35509 -1.53125,-2.6875 -0.51942,-0.0582 -0.96334,-0.0882 -1.3125,-0.0937 z m -98.1875,0.15625 c 0.95232,-0.1017 2.46745,0.21016 3.90625,1 1.82942,1.00428 3.42502,2.51989 3.34375,3.1875 -0.13234,1.08717 -5.98601,-0.97527 -7.71875,-2.71875 -0.84771,-0.85296 -0.48357,-1.36705 0.46875,-1.46875 z m 250.25,0.75 c -2.6806,-0.11306 -3.74342,1.03777 -2.5625,2.78125 1.24088,1.83198 4.60514,0.96693 4.875,-1.25 0.16022,-1.31618 0.0131,-1.43314 -2.3125,-1.53125 z m -202.375,1.34375 c -0.44768,0.0392 -0.72362,0.32051 -0.46875,0.84375 0.14985,0.30769 0.83897,0.64113 1.53125,0.71875 1.15977,0.13003 1.1753,0.0584 0.40625,-0.875 -0.41927,-0.50884 -1.02107,-0.72673 -1.46875,-0.6875 z m 38.40625,0.0625 c -0.34014,-0.0382 -0.65014,0.19173 -0.6875,0.5 -0.0375,0.30828 0.0459,0.57787 0.1875,0.59375 0.14168,0.0159 0.45149,-0.21398 0.6875,-0.5 0.2361,-0.28601 0.15264,-0.5556 -0.1875,-0.59375 z m -51.96875,0.0625 c -0.0686,0.0521 -0.13375,0.2376 -0.1875,0.5625 -0.0973,0.588 0.002,0.94574 0.21875,0.78125 0.21658,-0.16449 0.27565,-0.63899 0.15625,-1.0625 -0.066,-0.23402 -0.11893,-0.3333 -0.1875,-0.28125 z M 428.828,415.302 c -1.87272,0.11594 -2.49444,0.97868 -2.03125,2.71875 0.50536,1.89867 5.02386,0.61444 5.28125,-1.5 0.11833,-0.9724 -0.20901,-1.12738 -2.375,-1.21875 -0.31858,-0.0134 -0.60747,-0.0166 -0.875,0 z m -250.5,2.0625 c 0.3361,-0.0668 0.88248,-0.0118 1.59375,0.21875 1.01798,0.32998 2.20127,1.01505 2.65625,1.5 0.45497,0.48495 1.15504,0.92658 1.53125,0.96875 0.37621,0.0422 0.61877,0.44385 0.5625,0.90625 -0.13754,1.12997 -1.63082,0.86029 -4.46875,-0.78125 -2.19588,-1.2702 -2.88331,-2.61211 -1.875,-2.8125 z m 69.84375,3.6875 c -0.13079,0.005 -0.28844,0.0259 -0.4375,0.0625 -0.9501,0.23292 -1.59546,2.51396 -0.9375,3.3125 0.18917,0.22953 0.99702,0.47457 1.78125,0.5625 1.26227,0.14155 1.40381,-0.002 1.21875,-1.40625 -0.23527,-1.78526 -0.70946,-2.56411 -1.625,-2.53125 z m 29.84375,0.0937 c -1.66709,0.20284 -2.26821,1.37022 -1.3125,2.78125 0.96476,1.4243 3.19944,1.33676 4.5,-0.15625 0.9932,-1.14017 1.05949,-1.41616 0.40625,-1.9375 -0.42163,-0.33651 -1.68117,-0.64225 -2.8125,-0.6875 -0.27998,-0.0112 -0.54309,-0.029 -0.78125,0 z m -56.84375,1.4375 c -0.36214,0.0198 -0.60858,0.26478 -0.65625,0.65625 -0.0633,0.51994 0.37639,0.91957 1.09375,1 1.42323,0.15957 1.40062,-1.15677 -0.0312,-1.59375 -0.14081,-0.043 -0.28554,-0.0691 -0.40625,-0.0625 z M 115.0155,427.927 c -0.28959,0.037 -1.14043,0.68527 -2.0625,1.5625 -1.05373,1.00256 -1.57144,1.74553 -1.125,1.65625 0.97212,-0.19444 3.6262,-2.76887 3.28125,-3.1875 -0.0167,-0.0202 -0.0524,-0.0365 -0.0937,-0.0312 z m 74.4375,0.0937 c 0.41312,0.0463 0.84846,0.45441 0.96875,0.90625 0.12022,0.45182 -0.16532,1.21175 -0.625,1.6875 -0.7281,0.75362 -0.90651,0.75273 -1.4375,-0.0312 -0.70658,-1.04316 -0.006,-2.68578 1.09375,-2.5625 z m -40.84375,1.40625 c -3.8006,0.0262 -9.05151,1.0103 -16.15625,3.03125 -5.9945,1.70514 -7.72114,2.45934 -8.5625,3.65625 -0.57996,0.82492 -0.9248,1.48394 -0.78125,1.5 0.14349,0.0161 3.67449,-1.00579 7.84375,-2.28125 9.25096,-2.83003 16.21554,-3.73855 21.75,-2.8125 3.06918,0.51355 4.18263,0.9467 4.8125,1.875 0.58906,0.86819 1.37721,1.21983 2.84375,1.25 2.60317,0.0535 13.63888,5.45527 18.15625,8.875 1.80753,1.36836 3.45363,2.49385 3.65625,2.53125 0.2027,0.0374 0.61973,-0.73532 0.90625,-1.71875 0.40272,-1.3822 0.25401,-2.01814 -0.625,-2.875 -1.5134,-1.47527 -11.64264,-7.17202 -16.90625,-9.5 -2.31442,-1.02363 -4.46512,-2.12018 -4.78125,-2.4375 -0.33418,-0.33547 -1.68786,-0.48346 -3.25,-0.375 -1.47761,0.1026 -3.97574,-0.0995 -5.5625,-0.4375 -0.95978,-0.20447 -2.07688,-0.28997 -3.34375,-0.28125 z m 42.0625,6.125 c 0.52404,0.0484 1.24465,0.51584 1.59375,1.03125 0.99168,1.46413 0.11841,1.56937 -1.28125,0.15625 -0.97523,-0.98459 -1.04944,-1.25552 -0.3125,-1.1875 z m -79.28125,0.78125 c -0.32091,-0.036 -1.23752,0.62382 -2.0625,1.46875 -0.82498,0.84493 -1.42258,1.51888 -1.3125,1.53125 0.11014,0.0124 1.058,-0.64746 2.09375,-1.46875 1.03575,-0.8213 1.60215,-1.49525 1.28125,-1.53125 z m 34.59375,2 c -4.92412,0.0145 -11.97471,1.30646 -19.59375,3.71875 -3.60742,1.14215 -5.57925,2.10243 -6.125,2.96875 -1.00227,1.59088 -0.79806,1.62838 2.4375,0.28125 1.43291,-0.59661 6.34432,-1.85085 10.90625,-2.78125 7.44202,-1.51775 8.85746,-1.63495 13.875,-1.125 5.74068,0.58342 7.31352,1.25689 7.09375,3.0625 -0.0837,0.68772 0.0788,0.77451 0.6875,0.3125 0.43046,-0.32671 1.47604,-0.53478 2.34375,-0.4375 1.35511,0.15194 9.16135,3.9935 15.59375,7.65625 2.60329,1.48233 5.06633,1.73143 5.6875,0.59375 0.27804,-0.50918 0.19068,-1.04875 -0.1875,-1.21875 -0.36959,-0.16615 -1.81831,-1.22115 -3.21875,-2.375 -3.31489,-2.73124 -4.56645,-3.4429 -12.46875,-6.9375 -5.53876,-2.44968 -6.87928,-2.86299 -8.15625,-2.46875 -1.14909,0.35477 -2.0371,0.26654 -3.625,-0.4375 -1.22425,-0.5428 -3.01177,-0.81911 -5.25,-0.8125 z m -37.15625,5.9375 c -0.35531,0.0531 -1.4781,0.76699 -2.71875,1.75 -1.41794,1.12343 -2.02482,1.83942 -1.34375,1.59375 1.54589,-0.55761 4.52471,-2.90319 4.1875,-3.3125 -0.0172,-0.0209 -0.0742,-0.0388 -0.125,-0.0312 z m 77.78125,1.75 c -0.57657,0.0764 -0.91578,0.68506 -1.25,1.8125 -0.54068,1.82402 -0.41301,2.21197 1.34375,4.09375 1.18228,1.2664 2.57073,2.18693 3.5625,2.3125 2.29415,0.29046 4.2529,1.68889 6.90625,5 1.44366,1.80162 2.78808,2.90267 3.65625,3 1.09668,0.12296 1.29692,0.38731 0.90625,1.21875 -0.35681,0.75951 -0.057,1.4369 1.125,2.5 0.89406,0.80413 1.60266,1.98518 1.5625,2.625 -0.0561,0.89557 -0.007,0.95375 0.28125,0.25 1.17658,-2.87318 -5.76507,-12.77533 -14.28125,-20.375 -1.94553,-1.73613 -3.0712,-2.53574 -3.8125,-2.4375 z m -44.09375,1.34375 c -3.2664,-0.0118 -6.53681,0.17704 -9.0625,0.625 -8.76553,1.55464 -17.20983,4.99787 -17.46875,7.125 -0.0282,0.2319 2.12503,-0.25807 4.75,-1.09375 2.62498,-0.83566 7.49755,-2.13249 10.84375,-2.875 5.53277,-1.22767 6.64982,-1.2853 12.40625,-0.65625 6.08785,0.66524 6.39262,0.75307 7.46875,2.28125 0.87944,1.24878 1.34024,1.4999 2.15625,1.125 1.45039,-0.66634 4.78361,0.69739 14.1875,5.78125 4.28444,2.31623 7.89918,4.13148 8.03125,4.03125 0.13207,-0.10024 -0.36354,-1.34906 -1.125,-2.78125 -1.08126,-2.03361 -2.39995,-3.23472 -5.9375,-5.46875 -2.49141,-1.57333 -6.24214,-3.48274 -8.34375,-4.25 -2.10168,-0.76727 -4.45687,-1.75979 -5.21875,-2.1875 -1.83589,-1.03066 -7.24351,-1.63653 -12.6875,-1.65625 z m 47.5,2.3125 c 0.61138,0.0686 0.91745,1.83727 0.46875,2.75 -0.39336,0.80012 -1.81254,0.74022 -2.21875,-0.0937 -0.33331,-0.6844 1.02023,-2.73807 1.75,-2.65625 z m -84.71875,3.25 c -0.75547,-0.0317 -2.77732,1.22372 -4.15625,2.6875 -0.79412,0.84279 -1.215368,1.56265 -0.9375,1.59375 0.70027,0.0785 5.62758,-3.80512 5.3125,-4.1875 -0.0507,-0.0616 -0.11083,-0.0892 -0.21875,-0.0937 z m 77.125,3.5 c -1.29762,0.0652 -2.27903,1.35337 -2.6875,3.78125 -0.42337,2.51676 -0.24625,3.17354 1.5,6 1.07586,1.74138 2.11459,3.16186 2.34375,3.1875 0.22916,0.0257 1.29049,-0.29001 2.34375,-0.71875 1.67086,-0.68015 1.95697,-1.08548 2.21875,-3.1875 0.33292,-2.70058 -0.40104,-4.96329 -2.21875,-6.96875 -1.30865,-1.44384 -2.49074,-2.14442 -3.5,-2.09375 z M 136.953,456.7082 c -3.64564,0.0608 -7.40543,0.50846 -8.03125,1.15625 -0.41952,0.43424 -1.32164,0.73581 -2.03125,0.65625 -2.25744,-0.25311 -10.62737,2.27699 -12.5,3.78125 -2.84153,2.28261 -2.25704,2.59745 2.21875,1.21875 14.50385,-4.4676 28.96735,-5.16086 31.53125,-1.5 0.62818,0.89694 1.01679,1.02892 1.90625,0.625 0.82048,-0.37257 1.4732,-0.31424 2.40625,0.25 0.70107,0.42397 3.53946,1.83363 6.3125,3.125 2.77305,1.29138 7.27339,3.73337 10,5.40625 2.72661,1.67288 5.18035,3.06998 5.4375,3.125 0.25731,0.055 0.4902,-0.83281 0.53125,-2 0.0726,-2.06431 -0.0573,-2.21601 -4.9375,-5.28125 -2.75936,-1.73313 -7.96309,-4.46119 -11.5625,-6.0625 -3.59948,-1.60131 -6.63611,-3.10991 -6.75,-3.34375 -0.11384,-0.23386 -1.49768,-0.36752 -3.0625,-0.3125 -1.56481,0.055 -4.12998,-0.17847 -5.71875,-0.5 -1.40505,-0.28435 -3.56261,-0.38024 -5.75,-0.34375 z m 54.4375,4.5 c -0.98041,-0.10992 1.46397,4.23051 5,8.90625 3.53409,4.67319 5.23623,6.17827 5.40625,4.78125 0.16171,-1.32861 -9.12777,-13.54416 -10.40625,-13.6875 z m -89.59375,0.28125 c -1.00681,0.20056 -6.651637,4.75753 -6.781248,5.5625 -0.09504,0.58918 4.29654,-2.26524 5.999998,-3.90625 0.68755,-0.66227 1.10487,-1.41608 0.90625,-1.65625 -0.0231,-0.028 -0.0579,-0.0134 -0.125,0 z m 33.125,4.46875 c -0.70638,0.008 -1.38471,0.0401 -2.03125,0.0937 -6.89335,0.57162 -17.64326,3.09401 -21.28125,5 -1.69156,0.88623 -3.26772,3.35376 -1.875,2.9375 12.81842,-3.83117 20.38694,-4.99213 27.65625,-4.28125 4.47246,0.43737 5.26339,0.66849 6.75,2 0.95716,0.85735 2.10758,1.41577 2.65625,1.28125 0.53275,-0.13062 2.26796,0.32083 3.84375,1 4.93524,2.1271 16.71543,8.3204 18.40625,9.6875 0.88923,0.71897 1.80142,1.35048 2,1.375 0.5173,0.0634 1.59056,-3.86324 1.25,-4.5625 -0.67438,-1.38454 -13.40199,-8.16586 -22.53125,-12 -3.73448,-1.56844 -9.89912,-2.58879 -14.84375,-2.53125 z m -35.968748,3.9688 c -0.23625,0.0507 -0.59036,0.17963 -1.0625,0.40625 -1.313854,0.63065 -4.334043,3.80635 -4.4375,4.65625 -0.07494,0.61569 3.098089,-1.53009 4.4375,-3 1.41376,-1.55155 1.77126,-2.21461 1.0625,-2.0625 z m 88.937498,2.03125 c -0.86004,0.16686 0.47624,1.96957 4.375,5.90625 2.60952,2.63489 5.38827,5.82854 6.1875,7.125 1.84371,2.99074 2.48493,1.91895 0.90625,-1.53125 -1.65533,-3.61766 -7.53289,-10.82217 -9.03125,-11.09375 -0.67794,-0.12289 -1.53976,-0.29916 -1.9375,-0.375 -0.21154,-0.0403 -0.37714,-0.0551 -0.5,-0.0312 z m -8.75,3.34375 c -0.57053,0.10651 -0.83885,1.48448 -0.46875,2.875 0.13565,0.50948 0.50532,0.96554 0.8125,1 0.8197,0.0919 0.73141,-3.4772 -0.0937,-3.84375 -0.093,-0.0413 -0.1685,-0.0465 -0.25,-0.0312 z m -50.5,0.5625 c -3.39191,0.10893 -6.21634,0.78847 -12.53125,2.46875 -7.8396,2.08597 -9.80881,3.04754 -10.03125,4.875 -0.16227,1.33312 -0.10982,1.36722 1.59375,0.75 7.1254,-2.58153 20.60592,-4.39341 27.3125,-3.65625 5.36852,0.5901 6.79707,1.29161 6.5625,3.21875 -0.12319,1.01206 -0.049,1.04099 1.46875,0.3125 1.52358,-0.73132 1.79186,-0.66473 5.625,1.28125 4.85111,2.46278 13.59749,7.82272 14.6875,9 0.43267,0.46727 1.67936,1.30899 2.75,1.875 l 1.9375,1.03125 0.96875,-2.78125 c 0.53755,-1.52882 0.91359,-2.99502 0.8125,-3.25 -0.3898,-0.98297 -11.15989,-7.31891 -18.09375,-10.65625 l -7.28125,-3.5 -8.1875,-0.625 c -3.30865,-0.25281 -5.5586,-0.40911 -7.59375,-0.34375 z m 55.5,1.9375 c -0.25262,-0.0178 -0.40847,0.16766 -0.59375,0.5 -1.11952,2.00801 -0.79175,2.82235 2.21875,5.40625 1.69501,1.45482 4.4999,4.22857 6.21875,6.15625 3.08929,3.46461 4.50158,4.39439 4.65625,3.03125 0.18315,-1.6131 -4.60285,-7.87733 -9.9375,-13.03125 -1.47671,-1.42666 -2.14147,-2.0329 -2.5625,-2.0625 z m -88.531248,1.25 c -0.892758,0.13657 -5.75855,4.10885 -7.21875,5.96875 -1.306868,1.66463 -1.30713,1.67571 -0.09375,1 4.073839,-2.26866 8.158091,-6.06296 7.4375,-6.9375 -0.02215,-0.0269 -0.06548,-0.0403 -0.125,-0.0312 z m 81.031248,4.625 c -0.23993,0.0344 -0.45866,0.16302 -0.6875,0.375 -0.76239,0.70618 -1.09832,3.61655 -0.53125,4.75 0.82604,1.65106 1.43647,1.12281 2.75,-2.5 0.50988,-1.40631 -0.49155,-2.77399 -1.53125,-2.625 z m 4.25,3.40625 c -0.084,-0.006 -0.11464,0.0399 -0.125,0.125 -0.0331,0.27168 -0.31473,1.23839 -0.625,2.15625 -0.51159,1.51362 -0.35748,1.77991 1.5625,3.03125 1.16433,0.75883 3.96018,3.28889 6.21875,5.59375 2.25863,2.30487 4.63266,4.23978 5.28125,4.3125 1.16893,0.13106 1.15454,0.11055 0.125,-1.6875 -2.12246,-3.70685 -11.17769,-13.44859 -12.4375,-13.53125 z M 92.328002,488.302 c -0.120361,-0.0527 -0.514473,0.16262 -1.28125,0.59375 -1.602749,0.90119 -5.793205,4.82803 -5.875,5.5 -0.17658,1.45072 5.94529,-3.07658 6.84375,-5.0625 0.289601,-0.6401 0.432861,-0.97854 0.3125,-1.03125 z m 46.593748,2.875 c -0.86027,0.0804 -1.72582,0.39125 -2.375,0.9375 -0.73727,0.62042 -1.95683,2.37273 -2.71875,3.875 -2.40472,4.74163 -4.4737,6.45235 -10.25,8.59375 -2.89822,1.07444 -6.06634,2.09044 -7.0625,2.25 -0.99617,0.15957 -3.36212,1.0174 -5.25,1.90625 -3.67854,1.7319 -5.75551,1.7987 -7.40625,0.28125 -1.04068,-0.95665 -5.145778,-1.68928 -6.937498,-1.25 -0.731121,0.17926 -1.066146,1.02507 -1.375,3.5625 -0.295513,2.42781 -0.616035,3.28724 -1.125,3.0625 -1.032369,-0.45586 -1.918111,-3.35826 -1.90625,-6.15625 0.0056,-1.34732 -0.212673,-2.47128 -0.46875,-2.5 -1.61271,-0.18081 -5.444561,6.11994 -5.875,9.65625 -0.24133,1.98267 2.407442,5.75544 5.03125,7.15625 1.074788,0.57379 2.39015,1.47519 2.90625,2.03125 0.861201,0.92787 0.893205,0.95259 0.65625,0.0625 -0.284091,-1.06745 2.91439,-3.67868 3.9375,-3.21875 0.32435,0.14583 0.66094,1.06481 0.75,2.0625 0.20513,2.29836 -1.04027,3.7224 -2.71875,3.09375 -2.346255,-0.87877 -1.609738,0.43695 2.3125,4.21875 1.578348,1.5218 1.056528,2.69819 -1.75,3.9375 -2.713434,1.19822 -2.349183,1.1626 3.718748,-0.15625 2.8266,-0.61435 5.5965,-1.05304 6.125,-1 1.49707,0.15039 1.50413,1.48422 0.0937,5.5 -0.71636,2.03988 -1.47504,5.11563 -1.6875,6.8125 -0.21217,1.6969 -0.69859,3.81059 -1.09375,4.71875 l -0.71875,1.65625 3.375,0.15625 c 2.83535,0.12005 3.58744,0.33669 4.46875,1.40625 0.58009,0.70405 2.12526,1.92078 3.4375,2.6875 3.06661,1.7917 2.76115,1.79111 4.15625,-0.0312 1.72423,-2.25231 2.82949,-2.31941 5.0625,-0.25 1.85702,1.72094 2.92942,2.08132 7,2.1875 0.81138,0.0211 2.012,0.27565 2.65625,0.5625 1.00588,0.44787 1.40172,0.11959 2.875,-2.3125 0.94366,-1.55776 1.68021,-3.08759 1.625,-3.40625 -0.45425,-2.62303 -0.28322,-3.15898 1.125,-3.59375 2.20907,-0.68203 4.56506,0.6506 4.34375,2.46875 -0.16198,1.33071 0.004,1.43159 2.84375,1.75 1.96323,0.22012 3.40552,0.0761 4.15625,-0.4375 0.83172,-0.56898 1.61442,-0.63094 2.75,-0.1875 2.37797,0.9286 4.14628,0.82362 8.46875,-0.53125 7.40882,-2.32226 17.5541,-8.62764 21.5,-13.375 3.05346,-3.67362 5.19437,-8.4851 5.40625,-12.125 0.11697,-2.00853 -0.89256,-0.95921 -2.96875,3.09375 -2.46989,4.8213 -4.5522,7.59254 -5.65625,7.46875 -0.42638,-0.0478 -1.40619,-0.86099 -2.15625,-1.8125 l -1.34375,-1.75 2.875,-5.0625 c 3.46782,-6.04846 4.65569,-9.74341 3.5,-10.90625 -1.21433,-1.22189 -1.80448,-0.60626 -4.125,4.1875 -2.67658,5.52922 -5.20526,9.25271 -6.46875,9.5625 -1.16605,0.28589 -1.60945,-1.04786 -0.9375,-2.75 l 0.46875,-1.1875 -1.25,1.125 c -1.28933,1.18588 -2.79854,1.366 -3.28125,0.375 -0.15411,-0.31641 0.6551,-1.81967 1.8125,-3.34375 3.16245,-4.16439 5.97459,-9.72391 6.3125,-12.5 0.24895,-2.04526 0.074,-2.59348 -0.9375,-3.03125 -1.26448,-0.54726 -2.91031,0.55536 -3.09375,2.0625 -0.19213,1.57847 -5.61469,10.4307 -6.625,10.8125 -0.72909,0.27553 -1.41741,0.0999 -2.15625,-0.53125 -0.96582,-0.82506 -1.23824,-0.81359 -2.28125,0.0625 -1.26331,1.06117 -2.49079,1.16708 -2.9375,0.25 -0.15245,-0.3131 1.17378,-2.66584 2.9375,-5.21875 3.57615,-5.17627 5.8701,-10.06794 5.875,-12.4375 0.002,-1.29607 -0.2827,-1.62619 -1.78125,-1.9375 -1.76547,-0.36676 -1.89001,-0.28262 -3.90625,3.53125 -4.7201,8.92852 -5.1097,9.5341 -6.25,9.40625 -0.60947,-0.0683 -1.59396,-0.47471 -2.15625,-0.90625 -1.26366,-0.96982 -3.89577,0.12416 -5.15625,2.125 -0.88641,1.40697 -3.03921,1.5678 -2.875,0.21875 0.0554,-0.45531 0.82304,-1.14756 1.6875,-1.5625 0.86446,-0.41494 1.60157,-1.14462 1.65625,-1.59375 0.0547,-0.44912 0.89813,-1.79719 1.84375,-3 2.61939,-3.33185 5.58106,-9.17888 5.875,-11.59375 0.33162,-2.72448 -0.75926,-3.96068 -3.03125,-3.46875 -1.34013,0.29015 -2.04944,1.15879 -4,4.90625 -1.30318,2.50381 -2.7389,5.10072 -3.21875,5.75 -0.89975,1.21742 -3.23368,1.43082 -3.09375,0.28125 0.0471,-0.38732 -0.38718,-0.3271 -1.09375,0.15625 -0.64948,0.44434 -1.40127,0.77858 -1.65625,0.75 -0.25498,-0.0286 -2.36197,1.29038 -4.6875,2.9375 -3.97578,2.81599 -7.57051,4.76292 -8.5625,4.65625 -1.05088,-0.11273 -0.0388,-1.34929 3.875,-4.78125 9.55235,-8.37634 13.82238,-15.0149 12.1875,-19 -0.42317,-1.03144 -1.84746,-1.54032 -3.28125,-1.40625 z m 34.25,2.25 c -0.0458,0.004 -0.0955,0.009 -0.125,0.0312 -0.20578,0.15621 0.0547,0.84744 0.5625,1.53125 0.94428,1.27146 2.42281,1.82844 2.53125,0.9375 0.0762,-0.62585 -2.28168,-2.55775 -2.96875,-2.5 z m 5.0625,3.78125 c -0.25696,-0.0288 -0.53836,0.53823 -0.625,1.25 -0.0866,0.71175 -0.59303,1.73433 -1.125,2.28125 -0.9239,0.94994 -1.03792,0.94926 -2.78125,-0.15625 -4.31806,-2.73837 -4.60859,-2.74838 -2.25,-0.1875 2.40309,2.60917 3.42708,3.14026 4.1875,2.21875 1.21469,-1.47188 5.30951,1.02788 9.84375,6 3.14728,3.45124 3.55453,3.67702 5.46875,3.1875 0.89894,-0.22988 0.54937,-0.92131 -2.15625,-4.125 -3.50105,-4.14559 -9.805,-10.38382 -10.5625,-10.46875 z m 17.15625,7.84375 c -0.0707,-0.0102 -0.16249,-0.008 -0.25,0.0312 -0.34998,0.15704 -0.49365,0.53606 -0.34375,0.84375 0.40597,0.83356 0.75517,0.73451 0.875,-0.25 0.0439,-0.36047 -0.0693,-0.59426 -0.28125,-0.625 z m -2.84375,8.6875 c -0.11138,0.0196 -0.25553,0.30501 -0.5,0.90625 -0.28803,0.70828 -0.41429,1.53933 -0.28125,1.8125 0.37258,0.76496 1.32547,0.69723 1.375,-0.0937 0.0243,-0.38787 -0.0784,-1.21629 -0.25,-1.84375 -0.1457,-0.53264 -0.23237,-0.80083 -0.34375,-0.78125 z M 122.578,517.677 c 0.78197,0.0877 1.01699,0.39127 0.71875,0.9375 -0.24119,0.44167 -0.80261,0.7689 -1.25,0.71875 -0.44746,-0.0502 -0.77502,-0.4751 -0.71875,-0.9375 0.0563,-0.46261 0.61735,-0.78968 1.25,-0.71875 z m -20,1.25 c 0.1652,-0.035 0.3841,-0.027 0.625,0 0.48179,0.054 0.83752,0.47509 0.78125,0.9375 -0.0563,0.4624 0.2616,0.88627 0.71875,0.9375 0.45715,0.0512 1.54575,0.80982 2.40625,1.6875 0.8605,0.87768 2.09259,1.64504 2.75,1.71875 0.65734,0.0737 1.29731,0.36841 1.4375,0.65625 0.14019,0.28783 1.05242,0.76748 2,1.0625 2.37085,0.73815 2.06173,2.43685 -0.65625,3.65625 -3.06587,1.37554 -5.49176,1.44908 -6.53125,0.1875 -1.00323,-1.21761 -0.99817,-1.31445 -0.0937,-2.5625 0.52408,-0.72325 0.42863,-1.22022 -0.40625,-2.125 -1.04649,-1.13404 -3.38718,-5.35526 -3.3125,-5.96875 0.01,-0.0802 0.11605,-0.15249 0.28125,-0.1875 z m 5.09375,0.5625 c 0.1554,-0.0275 0.33558,-0.0219 0.53125,0 0.90844,0.10185 1.12663,0.41337 0.875,1.3125 -0.57851,2.06721 -2.47811,1.69328 -2.21875,-0.4375 0.0607,-0.49906 0.34631,-0.7924 0.8125,-0.875 z m 8.4375,13.46875 c 0.33781,-0.0143 0.82281,0.0565 1.5,0.1875 1.72342,0.33335 2.13968,0.64048 2.03125,1.53125 -0.10203,0.83822 -0.5966,1.1178 -1.9375,1.09375 -2.04801,-0.0367 -2.58968,-0.49303 -2.40625,-2 0.0672,-0.5522 0.24948,-0.78858 0.8125,-0.8125 z m 6.90625,6.78125 c 0.43318,-0.0353 1.18267,0.12001 2.21875,0.46875 1.46289,0.49239 3.11413,0.66937 4.46875,0.46875 1.18445,-0.17538 2.359,-0.17092 2.625,0.0312 0.65198,0.49563 -0.74081,1.73811 -2.84375,2.5 -2.53984,0.92019 -4.05297,0.49568 -6.0625,-1.71875 -0.99465,-1.09607 -1.12822,-1.6912 -0.40625,-1.75 z m 21.75,4.90625 c 0.76125,-0.0686 1.21715,0.23672 0.96875,0.96875 -0.26822,0.79024 -1.60382,1.41794 -6.90625,3.25 -1.88736,0.6521 -2.00414,0.65763 -2.46875,0.0937 -0.88475,-1.07382 -0.0666,-1.90409 1.71875,-1.71875 1.32109,0.13714 2.48709,-0.25567 3.8125,-1.28125 1.03805,-0.80323 2.11375,-1.24385 2.875,-1.3125 z m -32.78125,13.5625 c -0.0904,7.6e-4 -0.1461,0.0282 -0.1875,0.0625 -1.06849,0.88553 -1.80827,5.04652 -0.96875,5.46875 0.48811,0.24551 0.67242,1.23973 0.5,2.65625 -0.25785,2.11838 -0.17772,2.25991 1.40625,2.4375 1.74901,0.1961 2.31287,1.08824 2.0625,3.28125 -0.20596,1.80199 1.00377,0.21575 1.78125,-2.34375 0.69176,-2.27737 1.70048,-2.8044 3.6875,-1.8125 0.88999,0.44427 1.35824,1.23025 1.375,2.28125 0.0208,1.30418 0.19156,1.1279 0.84375,-1 0.95882,-3.12821 0.74947,-5.41146 -0.5625,-6 -0.53106,-0.23824 -2.91619,-1.561 -5.28125,-2.9375 -2.24004,-1.30371 -4.02324,-2.09909 -4.65625,-2.09375 z m -20.218748,7.5625 -4.96875,3.65625 c -2.725981,2.00012 -4.979865,3.63074 -5.03125,3.625 -0.05141,-0.006 -0.06767,0.8102 -0.03125,1.8125 0.05664,1.55439 0.326377,1.86581 1.875,2.1875 1.442088,0.29954 1.82792,0.6826 1.84375,1.8125 0.01102,0.78243 0.522922,1.92035 1.15625,2.53125 1.540194,1.48556 4.172333,1.69841 7.15625,0.625 1.348844,-0.48521 2.846179,-0.71294 3.34375,-0.53125 0.68359,0.24961 1.35777,-0.57665 2.6875,-3.375 0.967948,-2.03699 2.009818,-3.69015 2.312498,-3.65625 1.58438,0.17764 0.28758,-1.02034 -2.406248,-2.25 l -3.0625,-1.40625 -1.53125,1.34375 c -1.922769,1.70083 -3.35358,1.68345 -2.5625,-0.0312 1.466772,-3.17912 1.524686,-3.73302 0.375,-5.03125 l -1.15625,-1.3125 z M 107.203,570.2395 c -0.1435,0.017 -0.51748,0.47233 -0.96875,1.21875 -0.6017,0.99522 -1.58088,2.09385 -2.1875,2.4375 -0.67827,0.38416 -0.82252,0.65744 -0.375,0.71875 0.93849,0.12852 0.4164,4.70961 -0.625,5.5 -0.57186,0.43404 -0.5803,0.81295 -0.0937,1.53125 0.79956,1.18044 2.17344,1.34424 3.78125,0.4375 1.5658,-0.88309 2.17378,-5.57442 1.15625,-8.78125 -0.38218,-1.20461 -0.66086,-2.50964 -0.625,-2.90625 0.009,-0.0992 -0.0147,-0.16193 -0.0625,-0.15625 z m -18.031248,0.25 c 0.323438,0.005 0.313825,0.31267 0.21875,1.09375 -0.105904,0.87006 -0.831369,1.72738 -2,2.34375 -1.010482,0.53293 -2.116832,0.91441 -2.46875,0.875 -1.663927,-0.18656 0.536632,-2.92265 3.25,-4.03125 0.47047,-0.19223 0.805937,-0.28431 1,-0.28125 z m 31.093748,3.28125 c -0.0275,0.003 -0.087,0.0357 -0.125,0.0625 -0.77003,0.54376 -3.24736,5.22217 -3.3125,6.25 -0.0655,1.03329 2.38603,-2.76692 3.25,-5.03125 0.30013,-0.78661 0.3803,-1.30559 0.1875,-1.28125 z m -3.46875,9.5625 c -0.41402,0.12546 -0.99734,0.8699 -1.78125,2.34375 -2.51568,4.72962 -2.87874,6.21941 -1.75,7.03125 2.32634,1.67324 4.56793,1.27873 8.09375,-1.4375 4.48095,-3.45199 5.89823,-4.84359 6,-5.9375 0.0464,-0.49949 -0.56719,-0.0222 -1.34375,1.0625 -1.52687,2.13265 -3.82338,2.54271 -3.59375,0.65625 0.0879,-0.72177 -0.5769,-1.31075 -2.25,-2.03125 -1.31481,-0.56619 -2.65991,-1.28445 -3,-1.59375 -0.10694,-0.0973 -0.23699,-0.13557 -0.375,-0.0937 z m -20.093748,1.5 -1.6875,2.4375 c -1.690694,2.40043 -1.719308,2.39493 -4.40625,1.90625 -2.45413,-0.44633 -2.757185,-0.34918 -3.4375,0.90625 -0.541508,0.99922 -1.229494,1.33331 -2.40625,1.25 -2.382973,-0.16866 -3.294922,-0.48042 -3.65625,-1.21875 -0.587738,-1.20094 -3.396957,0.21845 -4.65625,2.34375 -0.656957,1.10877 -4.505219,8.79927 -8.5625,17.09375 -9.658368,19.74475 -13.661957,27.69578 -17.875,35.40625 -1.906061,3.48836 -3.519165,6.64408 -3.5625,7 -0.04333,0.35597 0.952322,2.00159 2.21875,3.65625 2.439495,3.18745 5.707695,8.97011 5.59375,9.90625 -0.03738,0.30703 0.58243,1.7548 1.375,3.21875 0.79264,1.46391 1.418568,2.99961 1.375,3.40625 -32.807115,36.07822 -33.776012,21.34234 12.40625,20.5625 1.423839,0.49135 1.581628,0.36422 2.9375,-2.625 0.788699,-1.73886 1.40129,-3.51335 1.375,-3.9375 -0.02628,-0.4242 0.379923,-1.13654 0.90625,-1.59375 0.526378,-0.45721 1.498681,-1.61016 2.15625,-2.5625 0.830679,-1.20301 1.737074,-1.77647 3,-1.875 1.737111,-0.13551 1.821464,-0.23786 1.625,-2.21875 -0.113058,-1.14015 -0.117789,-2.7789 0,-3.625 0.149482,-1.07384 -0.06965,-1.5799 -0.75,-1.65625 -0.536049,-0.06 -3.117842,-1.07992 -5.71875,-2.28125 -13.813787,-6.38059 -15.070221,-7.16396 -14.8125,-9.28125 0.07598,-0.62425 2.079814,-5.14904 4.4375,-10.0625 2.357756,-4.91346 5.268487,-11.13475 6.46875,-13.8125 1.200272,-2.6777 2.647678,-5.61062 3.21875,-6.53125 0.571072,-0.92063 1.110964,-2.21488 1.1875,-2.84375 0.07655,-0.62882 0.388326,-1.24079 0.6875,-1.375 0.299122,-0.13421 0.811621,-1.20216 1.15625,-2.375 0.344619,-1.17289 2.249583,-5.50389 4.21875,-9.625 1.969167,-4.12111 3.592966,-7.70561 3.625,-7.96875 0.03331,-0.263 1.004935,-2.51581 2.15625,-5 1.348554,-2.90967 2.46363,-4.596 3.125,-4.71875 0.564646,-0.1048 5.302504,2.19488 10.531248,5.09375 l 9.5,5.28125 2.625,-1.84375 c 1.44257,-1.00774 2.66214,-2.01065 2.6875,-2.21875 0.0883,-0.72533 -2.51945,-5.18911 -3.0625,-5.25 -1.18329,-0.13267 -5.29771,-4.09458 -5.1875,-5 0.12724,-1.04535 0.17338,-1.00581 -6.34375,-5.125 l -4.468748,-2.84375 z m -14.03125,11.15625 c 0.551006,-0.0383 1.158829,0.15107 1.65625,0.59375 0.542335,0.48265 1.287895,0.78547 1.6875,0.6875 0.932339,-0.2285 1.63419,1.14626 0.78125,1.53125 -0.353912,0.15974 -0.793538,0.92945 -1,1.6875 -0.243777,0.89491 -0.79496,1.35402 -1.5625,1.34375 -2.309588,-0.0309 -4.953954,-2.12893 -3.5,-2.78125 0.364045,-0.1633 0.557002,-0.78198 0.4375,-1.375 -0.193431,-0.95982 0.581657,-1.62359 1.5,-1.6875 z m -1.65625,5.6875 c 0.134406,-0.005 0.278121,0.0134 0.4375,0.0312 0.559062,0.0627 0.69784,0.43904 0.40625,1.15625 -0.242951,0.59741 -0.207484,1.26349 0.0625,1.46875 0.270058,0.20528 0.416583,0.8704 0.34375,1.46875 -0.142743,1.17268 -2.098463,1.27695 -3.5,0.1875 -0.960292,-0.74646 -0.150978,-2.33056 1.125,-2.1875 0.741792,0.0832 0.835428,-0.0851 0.40625,-0.71875 -0.548131,-0.80922 -0.222094,-1.37458 0.71875,-1.40625 z m -2.3125,5.4375 c 0.121562,-0.0168 0.258572,-0.0166 0.40625,0 1.475584,0.16544 1.649481,0.64554 1.03125,2.8125 -0.585796,2.05317 -1.89364,2.23636 -2.1875,0.3125 -0.315099,-2.06323 -0.100933,-3.00704 0.75,-3.125 z m -5.71875,0.59375 c 0.878142,0.0914 1.941899,1.60093 1.40625,2.25 -0.258725,0.31345 -0.970275,0.50741 -1.59375,0.4375 -1.240413,-0.13907 -1.380773,-2.08963 -0.1875,-2.625 0.111653,-0.0501 0.249551,-0.0756 0.375,-0.0625 z m 4.5625,4.59375 c 0.671103,0.10035 1.453585,1.3583 0.9375,1.75 -0.236035,0.17914 -0.759256,0.29802 -1.1875,0.25 -0.869956,-0.0975 -0.894538,-1.58142 -0.03125,-1.96875 0.08619,-0.0387 0.185378,-0.0456 0.28125,-0.0312 z m -9.59375,5.5625 c 0.181268,-0.0211 0.414783,-0.0271 0.65625,0 1.387929,0.15561 2.247783,1.59387 1.5,2.5 -0.453769,0.54976 -2.309935,0.42248 -2.8125,-0.1875 -0.189137,-0.22953 -0.287539,-0.87233 -0.21875,-1.4375 0.06483,-0.53262 0.331195,-0.81174 0.875,-0.875 z m -3.46875,5.21875 c 0.481792,0.054 0.806284,0.47506 0.75,0.9375 -0.05629,0.46239 -0.486953,0.80398 -0.96875,0.75 -0.481797,-0.054 -0.837539,-0.47511 -0.78125,-0.9375 0.05628,-0.46239 0.518199,-0.80398 1,-0.75 z m 22.25,0.90625 c -0.654785,0.16313 -1.127026,0.86705 -1.65625,2.125 -0.533523,1.2682 -2.372343,5.46042 -4.09375,9.3125 -1.721425,3.85204 -3.097733,7.07551 -3.03125,7.15625 0.06653,0.0808 1.378673,0.77276 2.90625,1.5625 3.757696,1.94274 4.339839,1.85354 5.40625,-0.90625 0.501311,-1.29738 1.482304,-2.6651 2.15625,-3.03125 1.489243,-0.80903 5.1909,-0.45736 6.03125,0.5625 0.335672,0.40743 0.721488,0.62169 0.84375,0.5 1.002893,-0.99829 4.13895,-7.04101 4.59375,-8.84375 l 0.593748,-2.28125 -3.843748,-1.9375 c -2.104107,-1.0702 -4.276792,-1.98783 -4.84375,-2.0625 -0.567009,-0.0746 -1.656884,-0.59443 -2.40625,-1.125 -1.176459,-0.83298 -2.001465,-1.19438 -2.65625,-1.03125 z m -17.375,9.90625 c 0.113106,-0.0105 0.22179,-0.0137 0.34375,0 0.462819,0.0519 0.806284,0.47511 0.75,0.9375 -0.102761,0.84424 -1.383548,1.02938 -2,0.28125 -0.421159,-0.51116 0.114506,-1.14504 0.90625,-1.21875 z m -4.90625,10.375 c 0.218981,-0.0209 0.433734,0.0109 0.625,0.15625 0.323961,0.24628 0.55407,0.80577 0.5,1.25 -0.114856,0.94389 -1.629521,0.92188 -2.09375,-0.0312 -0.30999,-0.6364 0.311808,-1.31223 0.96875,-1.375 z m 9.53125,14.59375 c -0.329716,0.0929 -0.582784,0.37195 -0.625,0.71875 -0.05628,0.46244 0.268199,0.88347 0.75,0.9375 0.481797,0.054 0.943711,-0.25636 1,-0.71875 0.05628,-0.46244 -0.299449,-0.88347 -0.78125,-0.9375 -0.120449,-0.0135 -0.233845,-0.031 -0.34375,0 z m -51.71875,10.09375 c -0.219817,0.0619 -0.409377,0.23756 -0.4375,0.46875 -0.03752,0.30829 0.210054,0.58904 0.53125,0.625 0.321168,0.036 0.618752,-0.1605 0.65625,-0.46875 0.03752,-0.30825 -0.210082,-0.58904 -0.53125,-0.625 -0.0803,-0.009 -0.145478,-0.0206 -0.21875,0 z"
       id="path10625"
       inkscape:connector-curvature="0"
       transform="matrix(1.2048052,0,0,1.1678522,-7.9306581,-114.0214)" />
  </g>
</svg>
