<?xml version="1.0" encoding="UTF-8" standalone="no"?>
<!-- Created with Inkscape (http://www.inkscape.org/) -->

<svg
   xmlns:osb="http://www.openswatchbook.org/uri/2009/osb"
   xmlns:dc="http://purl.org/dc/elements/1.1/"
   xmlns:cc="http://creativecommons.org/ns#"
   xmlns:rdf="http://www.w3.org/1999/02/22-rdf-syntax-ns#"
   xmlns:svg="http://www.w3.org/2000/svg"
   xmlns="http://www.w3.org/2000/svg"
   xmlns:sodipodi="http://sodipodi.sourceforge.net/DTD/sodipodi-0.dtd"
   xmlns:inkscape="http://www.inkscape.org/namespaces/inkscape"
   width="100%"
   height="100%"
   id="svg2985"
   version="1.1"
      viewBox="0 -410 3200 1630" preserveAspectRatio="xMinYMin meet"
   >
 
    <path
       
       d="m 2838.8927,747.29422 0,37.35555 c 0,15.77635 23.9366,16.13903 23.9366,0.18133 l 0,-37.53688 40.9823,-59.2974 c 9.4296,-12.14961 -10.6989,-25.38726 -20.3098,-12.14962 l -32.0968,47.32911 -31.734,-47.32911 c -9.4296,-14.14432 -29.0141,0.54402 -20.3099,12.14962 l 39.5316,59.2974 m -120.3719,4.17076 28.47,0 27.382,39.16893 c 10.8802,13.78164 29.7393,0.36266 20.3098,-13.60032 l -24.1179,-29.3767 c 38.4435,-15.41368 29.0139,-77.06848 -17.0458,-77.06848 l -48.2358,0 c -5.9841,0 -10.8802,4.71478 -10.8802,11.06159 l 0,102.99977 c 0,15.95769 24.1179,15.41368 24.1179,-0.36268 l 0,-32.82211 m 0,-58.93472 34.9981,0 c 25.0246,0 23.5739,38.0809 0,38.0809 l -34.9981,0 0,-38.0809 m -134.4258,97.3783 7.7975,-15.95771 66.9136,0 7.9788,15.95771 c 6.5282,14.14432 28.47,2.90138 21.0352,-11.24294 l -51.1372,-101.7304 c -4.5334,-9.97356 -17.5898,-9.61088 -22.4859,0 l -52.0439,101.7304 c -3.6267,7.61618 0,14.14434 5.8028,17.40842 6.5282,1.26936 13.2377,-10e-6 16.1391,-6.16548 m 19.0404,-39.89428 22.3046,-44.79039 20.4911,44.79039 -42.7957,0 m -71.4931,-1.81337 c 0,37.89952 -61.8361,35.72347 -61.8361,0 l 0,-65.64422 c 0,-17.04572 -23.7552,-16.32037 -23.7552,0 l 0,65.64422 c 0,67.8202 109.3466,67.8202 109.3466,0 l 0,-65.64422 c 0,-17.4084 -23.7553,-16.13903 -23.7553,0 l 0,65.64422 m -208.7826,35.36083 c 0,7.97885 5.8028,12.5123 12.3309,12.5123 6.5282,0 11.4243,-4.53345 11.4243,-12.5123 l 0,-69.99632 60.0227,76.1618 c 5.2588,4.89611 8.3416,6.34682 14.6884,6.34682 4.7147,-1.4507 9.6109,-4.53345 9.6109,-12.5123 l 0,-102.09308 c 0,-5.98413 -6.3469,-12.51229 -12.875,-12.51229 -6.1655,0 -11.4243,6.52816 -11.4243,12.51229 l 0,70.359 -60.0227,-75.07378 c -4.8961,-4.71477 -6.3468,-6.34681 -12.875,-6.34681 -9.4295,0 -10.8802,6.34682 -10.8802,12.87497 l 0,100.2797 m -110.4892,6.34682 7.7975,-15.95771 66.9136,0 7.9788,15.95771 c 6.5282,14.14432 28.47,2.90138 21.0352,-11.24294 l -51.1372,-101.7304 c -4.5334,-9.97356 -17.5898,-9.61088 -22.4859,0 l -52.0439,101.7304 c -3.6267,7.61618 0,14.14434 5.8028,17.40842 6.5282,1.26936 13.2377,-10e-6 16.1391,-6.16548 m 19.0404,-39.89428 22.3046,-44.79039 20.4911,44.79039 -42.7957,0 m -73.0373,3.08274 c -0.1813,17.95241 -9.0669,22.48587 -19.2217,22.84854 -7.9789,0.36268 -16.1391,-1.81339 -23.7553,-11.24293 -9.4295,-11.6056 -26.8379,4.35211 -17.5897,15.4137 11.2429,14.50699 24.1179,18.67777 39.5316,18.67777 31.3714,0 44.9717,-17.2271 44.9717,-45.69708 l 0,-71.62836 c 0,-15.23234 -23.9366,-15.23234 -23.9366,0 l 0,71.62836 m -160.4739,43.70237 c 27.2006,0 49.5052,-14.14437 49.5052,-42.79568 0,-33.36609 -34.4542,-45.51574 -62.9242,-37.89956 l 1.0881,-21.94185 44.4277,0 c 14.8697,0 15.2323,-22.84854 0,-22.84854 l -52.5879,0 c -8.1602,0 -14.507,3.26408 -14.507,12.69363 l -1.4507,42.97701 c -1.2694,9.61089 6.3468,15.59504 15.9577,12.87497 8.1602,-1.63203 15.9577,-3.26407 22.1232,-3.26407 11.4242,0 23.9365,4.53345 23.9365,17.40841 0,15.77636 -12.5123,20.49115 -25.5686,20.49115 -5.8028,0 -12.3309,-2.90141 -17.4084,-9.24822 -7.9788,-12.14961 -25.9313,1e-5 -19.0404,12.5123 7.7975,13.05629 21.0351,19.04045 36.4488,19.04045 m -75.967,-10.33625 c 0,13.78165 23.9366,13.41897 23.9366,0 l 0,-101.54906 c 0,-12.87496 -7.6162,-16.32038 -15.9578,-12.69364 l -25.5686,9.42956 c -16.5017,5.44012 -7.7975,26.83796 6.7095,22.12319 l 10.8803,-4.3521 0,87.04205 m -41.6404,-40.9823 c 13.7817,0 14.507,-21.94185 0,-21.94185 l -45.6971,0 c -15.051,0 -15.2323,21.94185 0,21.94185 l 45.6971,0 m -101.7,40.9823 c 0,13.96298 23.7553,13.78165 23.7553,0 l 0,-15.23236 7.9788,0 c 13.419,0 14.507,-22.84854 0,-22.84854 l -7.9788,0 0,-65.1002 c 0,-6.52815 -3.2641,-12.69363 -10.8803,-12.69363 -6.7095,0 -9.7922,2.9014 -12.875,6.16547 l -60.5667,73.07906 c -7.7975,9.79223 -4.8961,21.39784 9.4295,21.39784 l 51.1372,0 0,15.23236 m 1.6321,-79.60721 -0.3627,41.34498 -34.0915,0 34.4542,-41.34498 m -97.9089,79.60721 c 0,13.78165 23.9366,13.41897 23.9366,0 l 0,-101.54906 c 0,-12.87496 -7.6162,-16.32038 -15.9577,-12.69364 l -25.5686,9.42956 c -16.5017,5.44012 -7.7975,26.83796 6.7095,22.12319 l 10.8802,-4.3521 0,87.04205 M 1245.4592,210.20262 c 0,-45.16576 0,-45.16576 5.5826,-53.60398 3.0704,-4.64103 9.1504,-13.87888 13.511,-20.52852 4.3607,-6.64965 11.6062,-16.02374 16.1012,-20.83131 4.495,-4.80759 8.7294,-9.22647 9.4099,-9.81975 0.6804,-0.59327 6.113,-4.34715 12.0724,-8.341953 5.9595,-3.994831 16.9764,-10.847347 24.482,-15.227881 7.5057,-4.380518 14.1521,-8.696375 14.7697,-9.590798 0.6177,-0.894438 4.3888,-2.799869 8.3803,-4.234289 3.9915,-1.434435 13.8482,-5.958822 21.9037,-10.054186 8.0557,-4.095396 20.2727,-10.371077 27.1489,-13.94598 6.8763,-3.57492 19.6233,-11.122551 28.3267,-16.772532 8.7034,-5.649996 23.5343,-16.81398 32.9575,-24.8088707 9.4231,-7.9949061 20.4784,-19.0321183 24.5672,-24.5271393 4.0889,-5.495038 10.0672,-14.981832 13.2853,-21.081734 3.2181,-6.099917 7.2984,-17.110732 9.0675,-24.468499 1.769,-7.357782 3.6515,-13.761692 4.1833,-14.230912 0.5317,-0.469219 0.9668,17.508351 0.9668,39.950178 0,39.8003673 -0.1053,41.08773443 -4.2955,52.374894 -2.3626,6.364378 -6.8603,15.950232 -9.9949,21.301908 -3.1346,5.351645 -10.8298,15.072288 -17.1004,21.601371 -6.2706,6.529098 -17.3383,16.189722 -24.5949,21.46807 -7.2565,5.278347 -19.945,13.490466 -28.1965,18.249129 -8.2515,4.758664 -26.2549,14.327504 -40.0074,21.264074 -13.7526,6.93655 -33.6313,17.66134 -44.1749,23.83288 -10.5436,6.17153 -22.4156,13.8585 -26.3824,17.08215 -3.9666,3.22366 -10.1907,7.65236 -13.8312,9.8416 -3.6405,2.18924 -10.2219,7.69395 -14.6253,12.23271 -4.4034,4.53874 -10.6748,11.59749 -13.9365,15.68609 -3.2617,4.0886 -8.6814,12.36815 -12.0437,18.39902 -3.3623,6.03088 -7.9084,17.38359 -10.1024,25.22829 -2.194,7.84468 -3.5578,15.30606 -3.0308,16.58081 0.6064,1.46644 -0.025,2.28529 -1.7204,2.22936 -2.4001,-0.0792 -2.6788,-4.78766 -2.6788,-45.2542 z m 0.8731,-70.01144 c -0.7613,-4.22139 -0.8983,-27.51399 -0.3045,-51.761329 0.8273,-33.780069 1.6085,-44.634055 3.3418,-46.429936 1.2441,-1.289063 5.553,-7.959177 9.5751,-14.822436 4.0223,-6.863243 12.0362,-17.7263238 17.8089,-24.140153 5.7726,-6.413845 18.1586,-17.481019 27.5243,-24.593718 9.3658,-7.112684 21.1544,-14.865375 26.197,-17.228188 5.0426,-2.36283 23.2617,-11.469641 40.4868,-20.237332 17.225,-8.76769 39.4233,-20.883122 49.3293,-26.923195 9.9061,-6.040041 23.3096,-15.175343 29.7855,-20.300613 6.4759,-5.12527 15.7013,-13.15833 20.5009,-17.85129 4.7995,-4.69294 12.3815,-13.61987 16.8488,-19.83761 4.4673,-6.21775 10.283,-16.38359 12.9237,-22.59083 2.6408,-6.2072 5.7504,-15.37449 6.9102,-20.37169 1.1598,-4.99722 2.7402,-9.71733 3.5119,-10.48916 0.7718,-0.77181 1.4032,18.94142 1.4032,43.80719 0,34.85095 -0.4926,45.65625 -2.1498,47.1559 -1.1825,1.06998 -4.8415,7.072738 -8.1312,13.339482 -3.2897,6.266729 -8.6984,14.920181 -12.0194,19.229858 -3.321,4.309709 -6.0381,8.352501 -6.0381,8.984 0,0.631499 -9.1892,8.190681 -20.4205,16.7982 -13.2433,10.14957 -30.3805,21.119902 -48.759,31.213035 -15.5862,8.5596362 -36.717,19.6082404 -46.9572,24.552443 -10.2403,4.944218 -22.747,11.999149 -27.7927,15.677564 -5.0457,3.678464 -12.3686,8.299327 -16.273,10.268579 -3.9043,1.969268 -15.027,10.597067 -24.717,19.172897 -9.69,8.575782 -20.1061,18.322775 -23.147,21.659947 -3.0409,3.337172 -8.0319,10.657387 -11.0911,16.267123 -3.0593,5.609767 -7.5155,15.971702 -9.9027,23.026552 -2.3873,7.05482 -4.9524,17.61337 -5.7003,23.46343 -1.3598,10.63649 -1.3598,10.63649 -2.7439,2.96128 z m 0.8035,-164.390089 c 0.01,-16.15534 0.6904,-33.12756 1.5225,-37.715974 0.8321,-4.58843 3.1201,-12.208471 5.0844,-16.933464 1.9644,-4.724962 7.1709,-13.519177 11.5702,-19.54266 4.3992,-6.023483 12.7262,-15.421943 18.5044,-20.885503 5.7783,-5.46352 16.2021,-13.95442 23.1641,-18.86863 6.962,-4.91426 19.7845,-12.93076 28.4945,-17.81447 8.7099,-4.88371 22.3266,-11.96018 30.2593,-15.72552 7.9328,-3.76537 16.4885,-8.40241 19.0128,-10.30463 2.5243,-1.9022 5.4106,-3.43796 6.4141,-3.41281 1.0034,0.0252 6.3252,-2.50428 11.8263,-5.62096 5.501,-3.11664 14.5026,-8.36948 20.0037,-11.67295 5.501,-3.30346 11.3025,-7.2329 12.8921,-8.73206 1.5896,-1.49919 6.1907,-4.69544 10.2245,-7.1028 4.0338,-2.40733 13.1109,-9.8733 20.1712,-16.59103 7.0603,-6.71769 16.1192,-16.61974 20.1307,-22.00455 4.0116,-5.38481 9.5619,-14.90061 12.334,-21.14625 2.772,-6.24564 6.3224,-16.204 7.8896,-22.12974 1.7522,-6.62502 3.3579,-10.0243 4.1697,-8.82722 0.7262,1.07073 1.3318,17.41585 1.3458,36.32252 0.02,27.05782 -0.4723,35.0099 -2.313,37.35471 -1.2861,1.63845 -4.6521,8.37505 -7.4798,14.97027 -2.8277,6.5952 -8.7563,17.02192 -13.1746,23.17045 -4.4183,6.14858 -12.6798,15.96701 -18.3588,21.81876 -5.679,5.85179 -16.5139,14.85404 -24.0775,20.00502 -7.5637,5.15099 -22.7537,14.82433 -33.7558,21.49637 -11.002,6.672 -29.7555,16.86834 -41.6744,22.65853 -11.9188,5.7902 -25.4213,12.516169 -30.0055,14.946608 -4.5842,2.430422 -13.961,7.975179 -20.8372,12.321647 -6.8763,4.346469 -19.5176,13.914783 -28.0919,21.262916 -8.5743,7.348133 -18.903,17.476345 -22.9527,22.507169 -4.0496,5.030793 -9.5138,13.43368 -12.1425,18.673113 -2.6287,5.239386 -5.6682,13.4451196 -6.7544,18.2349649 -1.0862,4.7898295 -2.2967,8.6981809 -2.6901,8.6851884 -0.3934,-0.012676 -0.711,-13.241644 -0.7057,-29.3970153 z m 9.2825,237.227229 c -21.8773,0 -39.6113,17.73398 -39.6113,39.61129 l 0,60.20917 0,162.25777 0,60.20917 c 0,21.87732 17.734,39.61129 39.6113,39.61129 21.8774,0 39.6113,-17.73397 39.6113,-39.61129 l 0,-60.20917 0,-162.25777 0,-60.20917 c 0,-21.87731 -17.7339,-39.61129 -39.6113,-39.61129 z m 921.2192,147.4713 c -21.8774,0 -39.6113,-13.118 -39.6113,-29.30095 l 0,-164.57511 c 0,-16.18299 17.7339,-29.30104 39.6113,-29.30104 21.8773,0 39.6113,13.11805 39.6113,29.30104 l 0,164.57511 c 0,16.18295 -17.734,29.30095 -39.6113,29.30095 m 386.4074,217.64664 c -50.1459,0 -95.8792,-24.57485 -122.3375,-65.73891 -11.826,-18.40341 -6.4962,-42.91092 11.9072,-54.74091 18.4034,-11.82397 42.9109,-6.49625 54.7407,11.90716 11.8102,18.37774 32.6279,29.35007 55.6896,29.35007 21.8773,0 39.6113,17.73397 39.6113,39.61129 0,21.87732 -17.734,39.6113 -39.6113,39.6113 m 0,0 c -21.8774,0 -39.6113,-17.73398 -39.6113,-39.6113 0,-21.87732 17.7339,-39.61129 39.6113,-39.61129 44.949,0 84.5801,-28.41129 86.5388,-62.03921 1.2735,-21.84167 20.0452,-38.54179 41.8472,-37.24064 21.8417,1.27358 38.5141,20.00972 37.2407,41.84743 -2.2103,37.95744 -21.5348,73.12641 -54.4101,99.02618 -30.7997,24.26588 -70.2982,37.62883 -111.2166,37.62883 m 126.1198,-99.34545 c -0.7764,0 -1.5528,-0.0238 -2.3391,-0.0697 -21.8377,-1.27152 -38.512,-20.0056 -37.2405,-41.84331 0.4001,-6.90821 0.1724,-30.69289 -19.6372,-46.73942 -25.3394,-20.52452 -74.9367,-22.06746 -139.6636,-4.33934 -21.0891,5.77532 -42.8872,-6.64282 -48.6664,-27.74375 -5.7773,-21.09904 6.6428,-42.88715 27.7437,-48.66644 92.6133,-25.36311 163.4185,-18.90457 210.4488,19.18771 33.1488,26.84854 51.4115,69.05437 48.8605,112.90202 -1.224,21.05546 -18.6826,37.31193 -39.5062,37.31193 m -12.1987,-245.30166 -189.6391,0 c -21.8773,0 -39.6113,-17.73397 -39.6113,-39.61129 0,-21.87732 17.734,-39.6113 39.6113,-39.6113 l 189.6391,0 c 21.8773,0 39.6113,17.73398 39.6113,39.6113 0,21.87732 -17.734,39.61129 -39.6113,39.61129 m -197.1107,153.71623 c -0.6536,0 -1.3051,-0.0158 -1.9647,-0.046 -21.8496,-1.06744 -38.6982,-19.64514 -37.6327,-41.49869 l 7.5043,-153.71559 c 1.0676,-21.84959 19.6512,-38.69042 41.4968,-37.63279 21.8496,1.0676 38.6983,19.6453 37.6328,41.49679 l -7.5045,153.71765 c -1.0357,21.18998 -18.5439,37.67826 -39.532,37.67826 M 2283.6175,260.47999 c -16.7062,0 -32.2377,-10.65354 -37.6724,-27.40119 -6.7477,-20.80972 4.6504,-43.15049 25.4582,-49.90025 l 89.47,-29.0213 c 20.8078,-6.75375 43.1506,4.65037 49.9004,25.45818 6.7498,20.80987 -4.6485,43.15065 -25.4582,49.90041 l -89.47,29.02114 c -4.0583,1.31715 -8.1797,1.94301 -12.228,1.94301 m 89.2918,315.58667 c -21.8773,0 -39.6113,-17.73397 -39.6113,-39.61129 l 0,-344.61827 c 0,-21.87732 17.734,-39.61129 39.6113,-39.61129 21.8773,0 39.6113,17.73397 39.6113,39.61129 l 0,344.61827 c 0,21.87732 -17.734,39.61129 -39.6113,39.61129 M 1761.4916,445.93611 c -21.8775,0 -39.6113,-17.73398 -39.6113,-39.61129 l 0,-222.48476 c 0,-21.87732 17.7338,-39.61128 39.6113,-39.61128 21.8772,0 39.6113,17.73396 39.6113,39.61128 l 0,222.48476 c 0,21.87731 -17.7341,39.61129 -39.6113,39.61129 m 144.2794,128.69805 c -99.6799,0 -183.8915,-77.07582 -183.8915,-168.30855 0,-21.87732 17.734,-39.6113 39.6113,-39.6113 21.8773,0 39.6113,17.73398 39.6113,39.6113 0,47.45623 48.9121,89.0858 104.6689,89.0858 26.9951,0 54.206,-10.19595 74.6534,-27.97556 19.6947,-17.12396 30.5384,-38.82699 30.5384,-61.11024 0,-21.87732 17.734,-39.6113 39.6113,-39.6113 21.8772,0 39.6113,17.73398 39.6113,39.6113 0,91.23273 -84.4513,168.30855 -184.4145,168.30855 m 144.8038,-128.69805 c -21.8773,0 -39.6113,-17.73398 -39.6113,-39.61129 l 0,-222.48476 c 0,-21.87732 17.734,-39.61128 39.6113,-39.61128 21.8774,0 39.6113,17.73396 39.6113,39.61128 l 0,222.48476 c 0,21.87731 -17.7339,39.61129 -39.6113,39.61129 M 925.18187,574.74095 c -21.87731,0 -39.61129,-17.73398 -39.61129,-39.61129 l 0,-344.61827 c 0,-21.87732 17.73398,-39.61129 39.61129,-39.61129 21.87732,0 39.6113,17.73397 39.6113,39.61129 l 0,344.61827 c 0,21.87731 -17.73398,39.61129 -39.6113,39.61129 m 203.99813,0 -203.99813,0 c -21.87731,0 -39.61129,-17.73398 -39.61129,-39.61129 0,-21.87732 17.73398,-39.6113 39.61129,-39.6113 l 203.99813,0 c 21.8774,0 39.6113,17.73398 39.6113,39.6113 0,21.87731 -17.7339,39.61129 -39.6113,39.61129 m -354.80444,0 c -21.87732,0 -39.6113,-17.73398 -39.6113,-39.61129 l 0,-344.61827 c 0,-21.87732 17.73398,-39.61129 39.6113,-39.61129 21.87732,0 39.61129,17.73397 39.61129,39.61129 l 0,344.61827 c 0,21.87731 -17.73397,39.61129 -39.61129,39.61129 M 461.89767,458.72818 c -8.36986,0 -16.80105,-2.64017 -23.97275,-8.10257 -17.40314,-13.25394 -20.76614,-38.11002 -7.5103,-55.51317 L 603.29225,168.14955 c 13.25188,-17.40711 38.10813,-20.76618 55.51333,-7.51031 17.40124,13.256 20.76424,38.11003 7.50824,55.51333 L 493.43825,443.11531 c -7.7936,10.23366 -19.59967,15.61287 -31.54058,15.61287 m 2.34838,-2.46474 c -12.16859,0 -24.17271,-5.58519 -31.93652,-16.13764 L 265.32805,213.161 c -12.9628,-17.62306 -9.18784,-42.41775 8.43126,-55.38055 17.62505,-12.96478 42.41576,-9.1918 55.38054,8.43126 l 166.98141,226.96282 c 12.96478,17.62307 9.18792,42.41776 -8.43118,55.38055 -7.06872,5.20097 -15.29392,7.70836 -23.44403,7.70836 m -167.0115,117.65233 c -21.87732,0 -39.61129,-17.73398 -39.61129,-39.61126 l 0,-344.61832 c 0,-21.87732 17.73397,-39.61129 39.61129,-39.61129 21.8773,0 39.61128,17.73397 39.61128,39.61129 l 0,344.61832 c 0,21.87728 -17.73398,39.61126 -39.61128,39.61126 m 337.56801,2.46477 c -21.87732,0 -39.61129,-17.73397 -39.61129,-39.61129 l 0,-344.61843 c 0,-21.87732 17.73397,-39.61129 39.61129,-39.61129 21.87732,0 39.6113,17.73397 39.6113,39.61129 l 0,344.61843 c 0,21.87732 -17.73398,39.61129 -39.6113,39.61129 m 999.54244,0.95083 -229.7455,0 c -21.8774,0 -39.6113,-17.73413 -39.6113,-39.61145 0,-21.87732 17.7339,-39.6113 39.6113,-39.6113 l 229.7455,0 c 21.8773,0 39.6113,17.73398 39.6113,39.6113 0,21.87732 -17.734,39.61145 -39.6113,39.61145 m -33.6696,-172.30929 -196.0759,0 c -21.8774,0 -39.6113,-17.73398 -39.6113,-39.61129 0,-21.87732 17.7339,-39.6113 39.6113,-39.6113 l 196.0759,0 c 21.8773,0 39.6113,17.73398 39.6113,39.6113 0,21.87731 -17.734,39.61129 -39.6113,39.61129 m -196.0758,172.30929 c -21.8775,0 -39.6114,-17.73413 -39.6114,-39.61145 l 0,-344.61827 c 0,-21.87732 17.7339,-39.61129 39.6114,-39.61129 21.8773,0 39.6111,17.73397 39.6111,39.61129 l 0,344.61827 c 0,21.87732 -17.7339,39.61145 -39.6112,39.61145 m 229.7455,-344.61842 -229.7455,0 c -21.8774,0 -39.6113,-17.73398 -39.6113,-39.6113 0,-21.87732 17.7339,-39.61129 39.6113,-39.61129 l 229.7455,0 c 21.8773,0 39.6113,17.73397 39.6113,39.61129 0,21.87732 -17.734,39.6113 -39.6113,39.6113 M 962.68801,628.59049 c 0,99.57517 -80.72216,180.30232 -180.3023,180.30232 -99.57025,0 -180.29241,-80.72715 -180.29241,-180.30232 0,-99.58014 80.72216,-180.30236 180.29241,-180.30236 99.58014,0 180.3023,80.72222 180.3023,180.30236 M 2206.4647,789.32943 c 0,0 120.3761,-73.35333 220.0641,39.49796 99.6922,112.85541 99.6922,314.11791 265.2088,315.99601 165.5207,1.8781 150.4753,-197.48978 45.1447,-285.89683 -105.3307,-88.40706 -394.9919,-216.30794 -530.4176,-69.59714 m -468.3448,47.02523 c 0,0 132.6064,95.9236 348.4397,87.46181 215.8332,-8.46591 227.1183,-169.27693 145.2991,-146.70668 -81.8193,22.57026 -191.8513,146.70668 -493.7388,59.24487 m 428.8493,7.05424 c 0,44.40991 -36.0018,80.40757 -80.4076,80.40757 -44.4099,0 -80.4117,-35.99766 -80.4117,-80.40757 0,-44.40992 36.0018,-80.40758 80.4117,-80.40758 44.4058,0 80.4076,35.99766 80.4076,80.40758 m 589.6645,159.4043 c 0,60.7721 -49.2682,110.0362 -110.0362,110.0362 -60.7721,0 -110.0321,-49.2641 -110.0321,-110.0362 0,-60.76386 49.26,-110.02794 110.0321,-110.02794 60.768,0 110.0362,49.26408 110.0362,110.02794 M 2164.1438,528.82911 c 0,60.77211 -49.2641,110.03207 -110.0321,110.03207 -60.768,0 -110.0279,-49.25996 -110.0279,-110.03207 0,-60.77211 49.2599,-110.03207 110.0279,-110.03207 60.768,0 110.0321,49.25996 110.0321,110.03207 m 715.1602,233.5093 c 0,0 -127.5377,11.79284 -191.6078,-150.85501 -64.0619,-162.65611 -185.7671,-325.49796 -463.9699,-179.74479 0,0 229.3969,-173.87106 490.7793,1.67998 261.3865,175.55516 236.5048,301.23122 164.7984,328.91982 M 1131.3803,647.18593 c 0,0 71.0996,-104.54636 397.8978,93.0631 326.8064,197.60533 505.0735,164.15859 730.8628,23.45771 225.7934,-140.68849 321.1927,305.00806 604.4107,227.37843 283.2055,-77.62138 51.6292,-542.13199 -357.3267,-464.93576 -408.9683,77.19623 -425.5616,333.87719 -760.5946,243.6622 -335.0288,-90.22737 -468.0645,-260.97377 -615.25,-122.62568 m 14.0519,-21.78311 c 0,0 77.8278,-30.30144 153.6,27.60193 75.7804,57.89097 288.6334,251.17873 519.4502,173.37574 230.8127,-77.803 471.1273,-252.9454 706.2122,-47.7905 235.0848,205.15489 447.4137,-85.7901 186.2459,-324.22663 -261.1678,-238.42415 -632.4254,50.22997 -735.8036,145.94305 -103.3741,95.69658 -288.7532,166.68474 -524.1229,43.60914 -235.3614,-123.06734 -305.5818,-18.51273 -305.5818,-18.51273 m 1087.0481,-198.8713 c 0,0 -159.2136,79.80081 -252.2313,212.21326 -93.0301,132.42071 -311.4885,173.59451 -531.1234,47.08054 -219.6307,-126.50159 -254.6873,-89.93844 -303.6913,-60.42126 0,0 63.2116,-99.3372 295.2873,-33.9173 232.0675,65.41577 350.7223,95.51908 473.2242,26.07467 122.5018,-69.44853 204.8618,-149.50113 318.5345,-191.02991 M 867.64303,639.97442 c 0,0 -120.38021,73.35334 -220.06414,-39.49795 C 547.8867,487.62105 547.8867,286.36271 382.3701,284.48048 216.84937,282.60237 231.89483,481.97436 337.22545,570.37729 c 105.33063,88.40706 394.9919,216.30794 530.41758,69.59713 m 468.34277,-47.02109 c 0,0 -132.6023,-95.92773 -348.43559,-87.46594 -215.83738,8.46591 -227.12251,169.27693 -145.30326,146.7108 81.82338,-22.57438 191.85545,-146.7108 493.73885,-59.24486 M 907.13851,585.8995 c 0,-44.41404 36.00179,-80.4117 80.4117,-80.4117 44.40579,0 80.40759,35.99766 80.40759,80.4117 0,44.40992 -36.0018,80.40345 -80.40759,80.40345 -44.40991,0 -80.4117,-35.99353 -80.4117,-80.40345 M 317.47607,426.49107 c 0,-60.77211 49.26408,-110.0362 110.03207,-110.0362 60.76798,0 110.0362,49.26409 110.0362,110.0362 0,60.76386 -49.26822,110.02795 -110.0362,110.02795 -60.76799,0 -110.03207,-49.26409 -110.03207,-110.02795 M 124.68363,299.53213 c 0,-44.154 35.78715,-79.94115 79.94114,-79.94115 44.14575,0 79.93702,35.78715 79.93702,79.94115 0,44.14574 -35.79127,79.93289 -79.93702,79.93289 -44.15399,0 -79.94114,-35.78715 -79.94114,-79.93289 m 70.12052,367.43373 c 0,0 127.54177,-11.78871 191.60779,150.85914 64.06189,162.65611 185.76709,325.498 463.96988,179.74066 0,0 -229.39687,173.87104 -490.77928,-1.67585 C 98.215997,820.33465 123.09777,694.65859 194.80415,666.96586 m 1747.92325,115.1562 c 0,0 -71.0996,104.54636 -397.9019,-93.06723 C 1218.0232,491.4495 1039.7561,524.89624 813.96685,665.59712 588.17346,806.28974 492.76995,360.59318 209.55614,438.21869 c -283.209687,77.62138 -51.63339,542.13199 357.32664,464.93576 408.96829,-77.1921 425.56164,-333.87719 760.59462,-243.6622 335.0288,90.22737 468.0645,260.9779 615.25,122.62981 m -14.0519,21.77939 c 0,0 -77.8278,30.30144 -153.6041,-27.5978 -75.7763,-57.8951 -288.6335,-251.18286 -519.4461,-173.37574 -230.8127,77.79887 -471.12734,252.94127 -706.21218,47.78637 -235.08484,-205.15076 -447.41367,85.79423 -186.2459,324.23076 261.16364,238.42006 632.4254,-50.2341 735.80358,-145.94718 103.3741,-95.69657 288.7532,-166.68061 524.1229,-43.60501 235.3614,123.06322 305.5818,18.5086 305.5818,18.5086 M 841.62738,1002.7727 c 0,0 159.21362,-79.79663 252.23132,-212.21321 93.0301,-132.41659 311.4844,-173.59038 531.1234,-47.08054 219.6307,126.50572 254.6873,89.93844 303.6913,60.42126 0,0 -63.2116,99.33721 -295.2873,33.92143 -232.0675,-65.4199 -350.7223,-95.52321 -473.2242,-26.0788 C 1037.6601,881.1955 955.30009,961.24397 841.62738,1002.7727 M 0,-400 c 1066.6667,0 2133.3333,0 3200,0 0,533.33333 0,1066.6667 0,1600 -1066.6667,0 -2133.3333,0 -3200,0 C 0,666.6667 0,133.33333 0,-400 z"
       style="fill:white;stroke:#000000;stroke-width:6;stroke-miterlimit:4"
       id="path3"
       />
<script type="text/javascript">
        <![CDATA[


var path = document.querySelector('#path3');
var length = path.getTotalLength();
// Clear any previous transition
path.style.transition = path.style.WebkitTransition =
  'none';
// Set up the starting positions
path.style.strokeDasharray = length + ' ' + length;
path.style.strokeDashoffset = length;
path.style.opacity = '1';
path.style.stroke= getRandomColor() ;

// Trigger a layout so styles are calculated & the browser
// picks up the starting position before animating
path.getBoundingClientRect();
// Define our transition
path.style.transition = path.style.WebkitTransition =
  'all 10s cubic-bezier(.98, .06, 0, .15) ';
// Go!
path.style.strokeDashoffset = 2;
path.style.opacity = '0';
path.style.stroke= getRandomColor() ;
function getRandomColor() {
    var letters = '0123456789ABCDEF'.split('');
    var color = '#';
    for (var i = 0; i < 6; i++ ) {
        color += letters[Math.floor(Math.random() * 16)];
    }
    return color;
}
        

]]>
    </script>
</svg>
