<?xml version="1.0" encoding="UTF-8" standalone="no"?>
<!-- Created with Inkscape (http://www.inkscape.org/) -->

<svg
   xmlns:dc="http://purl.org/dc/elements/1.1/"
   xmlns:cc="http://creativecommons.org/ns#"
   xmlns:rdf="http://www.w3.org/1999/02/22-rdf-syntax-ns#"
   xmlns:svg="http://www.w3.org/2000/svg"
   xmlns="http://www.w3.org/2000/svg"
   xmlns:sodipodi="http://sodipodi.sourceforge.net/DTD/sodipodi-0.dtd"
   xmlns:inkscape="http://www.inkscape.org/namespaces/inkscape"
   id="svg2"
   version="1.1"
   inkscape:version="0.48.4 r9939"
   width="1000"
   height="1000"
   xml:space="preserve"
   sodipodi:docname="festi.svg"><metadata
     id="metadata8"><rdf:RDF><cc:Work
         rdf:about=""><dc:format>image/svg+xml</dc:format><dc:type
           rdf:resource="http://purl.org/dc/dcmitype/StillImage" /><dc:title></dc:title></cc:Work></rdf:RDF></metadata><defs
     id="defs6"><clipPath
       clipPathUnits="userSpaceOnUse"
       id="clipPath18"><path
         inkscape:connector-curvature="0"
         d="M 0,800 800,800 800,0 0,0 0,800 z"
         id="path20" /></clipPath><clipPath
       clipPathUnits="userSpaceOnUse"
       id="clipPath26"><path
         inkscape:connector-curvature="0"
         d="m 180.382,610.027 468.365,0 0,-468.14 -468.365,0 0,468.14 z"
         id="path28" /></clipPath><clipPath
       clipPathUnits="userSpaceOnUse"
       id="clipPath42"><path
         inkscape:connector-curvature="0"
         d="m 123.19,665.276 578.81,0 0,-578.8473 -578.81,0 0,578.8473 z"
         id="path44" /></clipPath><clipPath
       clipPathUnits="userSpaceOnUse"
       id="clipPath58"><path
         inkscape:connector-curvature="0"
         d="m 56.6475,733.504 715.8495,0 0,-715.6368 -715.8495,0 0,715.6368 z"
         id="path60" /></clipPath></defs><sodipodi:namedview
     pagecolor="#ffffff"
     bordercolor="#666666"
     borderopacity="1"
     objecttolerance="10"
     gridtolerance="10"
     guidetolerance="10"
     inkscape:pageopacity="0"
     inkscape:pageshadow="2"
     inkscape:window-width="1333"
     inkscape:window-height="742"
     id="namedview4"
     showgrid="false"
     inkscape:zoom="0.25"
     inkscape:cx="418.58624"
     inkscape:cy="606.76232"
     inkscape:window-x="33"
     inkscape:window-y="0"
     inkscape:window-maximized="1"
     inkscape:current-layer="g10" /><g
     id="g10"
     inkscape:groupmode="layer"
     inkscape:label="festive-carnival-01"
     transform="matrix(1.25,0,0,-1.25,0,1000)"><g
       id="g14"
       transform="translate(-13.625611,-4.6806497)"><g
         id="g16"
         clip-path="url(#clipPath18)"><g
           id="g22"><g
             id="g24" /><g
             id="g30"><g
               clip-path="url(#clipPath26)"
               id="g32"
               style="opacity:0.30000299"><g
                 transform="translate(441.7705,179)"
                 id="g34"><path
                   d="m 0,0 4.783,-35.088 c -7.961,-1.091 -16.064,-1.778 -24.099,-2.025 L -20.459,-1.72 C -13.643,-1.495 -6.766,-0.911 0,0 m -61.416,1.093 c 6.705,-1.168 13.568,-1.99 20.385,-2.453 l -2.414,-35.328 c -8.03,0.539 -16.094,1.518 -23.995,2.887 l 6.024,34.894 z m 101.22,8.626 11.908,-33.362 c -7.558,-2.684 -15.347,-5.046 -23.149,-6.93 L 20.159,3.819 c 6.594,1.617 13.218,3.612 19.645,5.9 m -140.628,2.533 C -94.5,9.719 -87.959,7.49 -81.396,5.65 l -9.635,-34.085 c -7.744,2.168 -15.444,4.792 -22.919,7.789 l 13.126,32.898 z M 76.738,27.435 95.299,-2.713 C 88.482,-6.922 81.352,-10.823 74.07,-14.306 L 58.739,17.627 c 6.159,2.953 12.229,6.257 17.999,9.808 m -213.868,3.857 c 5.681,-3.768 11.616,-7.281 17.655,-10.466 l -16.459,-31.357 c -7.13,3.745 -14.121,7.9 -20.803,12.333 l 19.607,29.49 z M 109.278,52.393 133.609,26.671 C 127.793,21.17 121.589,15.876 115.221,10.981 L 93.655,39.089 c 5.427,4.148 10.681,8.632 15.623,13.304 m -278.036,4.987 c 4.717,-4.807 9.815,-9.471 15.115,-13.83 l -22.5,-27.358 c -6.272,5.171 -12.259,10.659 -17.865,16.355 l 25.25,24.833 z m 304.805,26.117 29.085,-20.235 c -4.59,-6.6 -9.576,-13.044 -14.854,-19.129 l -26.799,23.143 c 4.425,5.158 8.671,10.614 12.568,16.221 m -330.459,5.905 c 3.701,-5.741 7.715,-11.346 11.982,-16.654 l -27.642,-22.157 c -5.008,6.258 -9.756,12.843 -14.127,19.615 l 29.787,19.196 z m 350.26,29.976 32.628,-13.826 c -3.162,-7.434 -6.727,-14.761 -10.614,-21.771 l -30.977,17.155 c 3.281,5.913 6.287,12.125 8.963,18.442 m -368.798,6.581 c 2.468,-6.417 5.262,-12.734 8.311,-18.744 l -31.589,-16.027 c -3.61,7.109 -6.907,14.551 -9.799,22.115 l 33.077,12.656 z m 380.808,32.595 34.746,-6.777 c -1.547,-7.964 -3.521,-15.868 -5.869,-23.508 l -33.831,10.408 c 1.981,6.463 3.64,13.158 4.954,19.877 m -391.362,7.002 c 1.061,-6.759 2.504,-13.509 4.26,-20.083 l -34.213,-9.13 c -2.094,7.735 -3.768,15.697 -5.023,23.639 l 34.976,5.574 z m -37.623,42.602 35.387,-1.607 c -0.143,-3.169 -0.239,-6.346 -0.239,-9.537 l 0.022,-2.554 c 0.053,-2.848 0.127,-5.674 0.285,-8.469 l -35.344,-1.985 c -0.193,3.293 -0.304,6.616 -0.342,9.955 l -0.031,3.053 c 0,3.733 0.098,7.452 0.262,11.144 m 467.005,11.549 c 0.628,-6.556 1.009,-13.173 1.076,-19.864 l 0.023,-2.994 c 0,-7.12 -0.33,-14.154 -0.949,-21.102 l -35.267,3.108 c 0.5,5.935 0.8,11.931 0.8,17.994 l -0.024,2.519 c -0.067,5.756 -0.381,11.364 -0.919,16.933 l 35.26,3.406 z m -459.762,36.25 34.275,-8.929 c -1.699,-6.514 -3.08,-13.284 -4.113,-20.082 l -35.012,5.301 c 1.211,8.024 2.839,15.988 4.85,23.71 m 450.155,11.117 c 2.438,-7.708 4.464,-15.601 6.026,-23.469 l -34.714,-6.981 c -1.345,6.642 -3.05,13.313 -5.105,19.823 l 33.793,10.627 z m -433.193,34.16 31.679,-15.82 c -3.021,-6.074 -5.771,-12.398 -8.163,-18.797 l -33.182,12.402 c 2.818,7.545 6.077,15.028 9.666,22.215 m 414.028,10.174 c 3.985,-7.072 7.587,-14.371 10.734,-21.685 l -32.524,-14.016 c -2.668,6.182 -5.726,12.363 -9.097,18.365 l 30.887,17.336 z M -211.066,342 l 27.807,-21.951 c -4.239,-5.363 -8.223,-10.988 -11.886,-16.748 l -29.9,18.987 c 4.307,6.769 9.023,13.418 13.979,19.712 m 360.328,8.857 c 5.292,-6.077 10.322,-12.479 14.943,-19.012 l -28.952,-20.422 c -3.901,5.542 -8.177,10.966 -12.677,16.139 l 26.686,23.295 z m -326.63,25.767 22.7,-27.176 c -5.209,-4.365 -10.277,-9.063 -15.054,-13.967 l -25.385,24.706 c 5.636,5.774 11.586,11.31 17.739,16.437 m 291.31,7.161 c 6.4,-4.858 12.633,-10.083 18.501,-15.559 l -24.136,-25.913 c -5.009,4.662 -10.287,9.105 -15.736,13.205 l 21.371,28.267 z m -251.304,19.85 16.684,-31.238 c -6.025,-3.222 -11.937,-6.773 -17.589,-10.6 l -19.809,29.377 c 6.66,4.471 13.62,8.664 20.714,12.461 m 209.953,5.166 c 7.324,-3.443 14.493,-7.296 21.34,-11.445 L 75.572,367.067 c -5.793,3.525 -11.892,6.776 -18.067,9.707 l 15.086,32.027 z m -165.2,13.044 9.89,-34.015 c -6.586,-1.922 -13.103,-4.18 -19.39,-6.725 l -13.336,32.805 c 7.4,3.008 15.077,5.67 22.836,7.935 m 119.585,2.952 c 7.88,-1.865 15.706,-4.159 23.263,-6.814 L 38.481,384.566 c -6.377,2.243 -12.977,4.179 -19.659,5.756 l 8.154,34.475 z m -72.043,5.632 2.682,-35.322 c -6.824,-0.52 -13.686,-1.383 -20.353,-2.591 l -6.295,34.86 c 7.857,1.421 15.922,2.449 23.966,3.053 m 24.167,0.598 c 8.08,-0.216 16.182,-0.848 24.114,-1.872 l -4.598,-35.136 c -6.705,0.874 -13.589,1.416 -20.436,1.595 l 0.92,35.413 z"
                   style="fill:#d14358;fill-opacity:1;fill-rule:nonzero;stroke:none"
                   id="path36"
                   inkscape:connector-curvature="0" /></g></g></g></g><g
           id="g38"><g
             id="g40" /><g
             id="g46"><g
               clip-path="url(#clipPath42)"
               id="g48"
               style="opacity:0.19999701"><g
                 transform="translate(435.4834,126.585)"
                 id="g50"><path
                   d="m 0,0 3.573,-38.976 c -7.542,-0.685 -15.159,-1.075 -22.867,-1.18 l -1.248,19.556 0,19.583 C -13.096,-0.926 -6.503,-0.582 0,0 m -62.014,2.033 c 6.782,-1.076 13.628,-1.861 20.549,-2.377 l -2.84,-39.042 c -8.028,0.583 -16.049,1.509 -23.875,2.759 l 6.166,38.66 z M 40.8,7.162 50.764,-30.715 C 43.05,-32.727 35.146,-34.46 27.314,-35.836 L 20.571,2.729 C 27.419,3.932 34.184,5.411 40.8,7.162 m -143.111,4.693 C -95.764,9.688 -89.125,7.76 -82.353,6.1 l -9.321,-38.026 c -7.722,1.906 -15.473,4.135 -23.023,6.653 l 12.386,37.128 z M 79.857,20.96 95.92,-14.727 C 88.654,-18 81.18,-21.004 73.667,-23.65 L 60.624,13.262 c 6.548,2.308 12.954,4.881 19.233,7.698 m -220.23,7.28 c 6.105,-3.252 12.348,-6.247 18.717,-9 l -15.474,-35.954 c -7.265,3.124 -14.546,6.622 -21.625,10.391 l 18.382,34.563 z M 116.059,41.076 137.811,8.536 C 131.218,4.127 124.325,-0.074 117.366,-3.961 L 98.365,30.274 c 6.047,3.349 11.936,6.96 17.694,10.802 m -291.274,9.612 c 5.471,-4.215 11.137,-8.2 16.961,-11.945 L -179.439,5.831 c -6.682,4.306 -13.268,8.955 -19.614,13.814 l 23.838,31.043 z M 148.471,66.894 175.297,38.377 C 169.482,32.905 163.39,27.628 157.163,22.687 L 132.81,53.318 c 5.412,4.3 10.622,8.837 15.661,13.576 m -354.395,11.684 c 4.756,-5.06 9.682,-9.926 14.817,-14.592 l -26.357,-28.958 c -5.906,5.368 -11.579,10.974 -17.051,16.804 l 28.591,26.746 z M 176.262,97.701 207.366,73.942 C 202.538,67.59 197.432,61.445 192.103,55.509 l -29.124,26.194 c 4.657,5.142 9.06,10.472 13.283,15.998 m -407.846,13.394 c 3.818,-5.77 7.885,-11.378 12.153,-16.804 l -30.7,-24.249 c -4.902,6.189 -9.635,12.708 -14.082,19.391 l 32.629,21.662 z m 430.145,21.521 34.625,-18.276 c -3.678,-6.968 -7.738,-13.95 -12.051,-20.707 l -33.025,21.05 c 3.723,5.83 7.221,11.803 10.451,17.933 m -450.12,14.755 c 2.827,-6.331 5.913,-12.521 9.217,-18.546 l -34.295,-18.866 c -3.842,6.996 -7.43,14.202 -10.668,21.469 l 35.746,15.943 z m 466.364,23.39 37.179,-12.285 c -2.495,-7.569 -5.343,-15.105 -8.461,-22.459 l -36.044,15.316 c 2.697,6.339 5.149,12.813 7.326,19.428 m -480.028,15.712 c 1.757,-6.742 3.752,-13.354 6.026,-19.849 l -36.943,-12.929 c -2.616,7.468 -4.963,15.182 -6.973,22.955 l 37.89,9.823 z m 489.706,24.571 38.669,-5.97 c -1.196,-7.852 -2.728,-15.766 -4.597,-23.515 l -38.1,9.112 c 1.63,6.683 2.968,13.474 4.028,20.373 m -496.672,16.221 c 0.605,-6.926 1.488,-13.773 2.624,-20.523 l -38.565,-6.634 c -1.338,7.861 -2.361,15.865 -3.05,23.812 l 38.991,3.345 z m 538.682,25.606 0.024,-3.664 c 0,-6.817 -0.254,-13.56 -0.696,-20.264 l -39.065,2.661 c 0.396,5.816 0.612,11.68 0.612,17.603 l -0.014,3.181 39.139,0.483 z m -577.941,18.882 39.027,-2.973 c -0.472,-6.405 -0.732,-12.867 -0.732,-19.407 l -39.14,-1.439 0,1.439 c 0,7.534 0.277,14.99 0.845,22.38 m 574.152,24.566 c 1.278,-7.807 2.25,-15.814 2.893,-23.804 l -39.034,-3.114 c -0.54,6.953 -1.391,13.804 -2.498,20.573 l 38.639,6.345 z m -566.558,22.725 38.026,-9.34 c -1.645,-6.672 -3.02,-13.486 -4.141,-20.356 l -38.646,6.232 c 1.27,7.937 2.878,15.757 4.761,23.464 m 554.904,23.752 c 2.594,-7.617 4.866,-15.35 6.796,-23.012 l -37.96,-9.523 c -1.697,6.758 -3.678,13.39 -5.897,19.898 l 37.061,12.637 z m -539.521,21.689 35.934,-15.548 c -2.736,-6.329 -5.263,-12.809 -7.498,-19.387 l -37.054,12.577 c 2.571,7.591 5.464,15.05 8.618,22.358 m 520.325,22.204 c 3.783,-7.038 7.356,-14.295 10.51,-21.54 l -35.865,-15.685 c -2.78,6.338 -5.808,12.568 -9.09,18.619 l 34.445,18.606 z m -497.623,20.048 32.824,-21.326 c -3.752,-5.801 -7.274,-11.744 -10.563,-17.836 l -34.49,18.512 c 3.76,7.004 7.872,13.956 12.229,20.65 m 471.447,20.09 c 4.843,-6.275 9.544,-12.843 13.909,-19.518 l -32.771,-21.43 c -3.789,5.811 -7.803,11.447 -12.048,16.893 l 30.91,24.055 z m -442.145,17.79 28.922,-26.387 c -4.679,-5.127 -9.15,-10.428 -13.388,-15.911 l -30.946,23.988 c 4.902,6.309 10.038,12.412 15.412,18.31 m 409.716,17.45 c 5.861,-5.419 11.564,-11.122 16.924,-16.975 l -28.83,-26.474 c -4.673,5.092 -9.57,9.988 -14.653,14.678 l 26.559,28.771 z m -374.56,15.13 24.16,-30.816 c -5.451,-4.265 -10.712,-8.757 -15.787,-13.462 l -26.605,28.722 c 5.898,5.461 12.02,10.678 18.232,15.556 m 336.775,14.338 c 6.644,-4.362 13.208,-9.056 19.51,-13.96 l -24.078,-30.868 c -5.458,4.249 -11.101,8.289 -16.878,12.083 l 21.446,32.745 z m -296.732,11.993 18.734,-34.374 c -6.077,-3.319 -12.013,-6.873 -17.761,-10.671 l -21.551,32.704 c 6.653,4.355 13.537,8.514 20.578,12.341 m 254.573,10.858 c 7.31,-3.185 14.568,-6.743 21.557,-10.563 l -18.68,-34.4 c -6.055,3.308 -12.259,6.339 -18.606,9.123 l 15.729,35.84 z m -210.76,8.506 12.781,-37.013 c -6.533,-2.264 -12.976,-4.787 -19.27,-7.572 l -15.818,35.806 c 7.304,3.236 14.81,6.181 22.307,8.779 m 165.416,7.049 c 7.727,-1.943 15.472,-4.237 22.984,-6.809 L 58.24,486.093 c -6.505,2.227 -13.129,4.197 -19.87,5.89 l 9.591,37.958 z m -118.988,4.766 6.509,-38.605 c -6.883,-1.155 -13.656,-2.587 -20.302,-4.276 l -9.643,37.944 c 7.685,1.947 15.565,3.606 23.436,4.937 m 71.699,3.035 c 7.946,-0.639 15.974,-1.622 23.808,-2.908 l -6.39,-38.628 c -6.766,1.103 -13.626,1.956 -20.585,2.519 l 3.167,39.017 z m -23.92,0.949 0,-39.128 -2.749,-0.042 c -6.063,-0.052 -12.036,-0.354 -17.948,-0.859 l -3.297,39.016 c 6.854,0.572 13.754,0.904 20.735,0.99 l 3.259,0.023 z"
                   style="fill:#f3c35b;fill-opacity:1;fill-rule:nonzero;stroke:none"
                   id="path52"
                   inkscape:connector-curvature="0" /></g></g></g></g><g
           id="g54"><g
             id="g56" /><g
             id="g62"><g
               clip-path="url(#clipPath58)"
               id="g64"
               style="opacity:0.10000598"><g
                 transform="translate(443.9014,73.1836)"
                 id="g66"><path
                   d="m 0,0 5.164,-53.806 c -7.945,-0.762 -15.974,-1.263 -24.092,-1.51 L -20.52,-1.271 C -13.59,-1.062 -6.759,-0.635 0,0 m -61.558,0.269 c 6.765,-0.687 13.626,-1.181 20.512,-1.451 l -2.056,-54.03 c -8.095,0.316 -16.109,0.882 -24.086,1.72 l 5.63,53.761 z M 40.514,6.667 52.87,-45.972 c -7.811,-1.824 -15.713,-3.393 -23.704,-4.724 L 20.383,2.653 c 6.788,1.115 13.501,2.467 20.131,4.014 m -142.482,0.644 c 6.601,-1.616 13.29,-3.021 20.07,-4.208 l -9.268,-53.261 c -7.983,1.376 -15.885,3.05 -23.682,4.965 l 12.88,52.504 z M 79.729,18.732 99.096,-31.739 C 91.613,-34.61 83.981,-37.24 76.26,-39.632 L 60.301,12.021 c 6.57,2.046 13.044,4.275 19.428,6.711 m -220.799,1.045 c 6.346,-2.524 12.797,-4.811 19.353,-6.898 l -16.424,-51.525 c -7.721,2.466 -15.331,5.179 -22.842,8.147 l 19.913,50.276 z m 257.925,16.222 26.067,-47.361 c -7.041,-3.879 -14.254,-7.534 -21.573,-10.936 L 98.58,26.746 c 6.205,2.87 12.304,5.972 18.275,9.253 m -295.024,1.451 c 5.958,-3.349 12.05,-6.524 18.262,-9.478 l -23.278,-48.798 c -7.295,3.469 -14.442,7.184 -21.468,11.108 l 26.484,47.168 z M 151.415,58.148 183.564,14.702 C 177.105,9.926 170.469,5.337 163.688,0.986 l -29.205,45.509 c 5.771,3.692 11.414,7.595 16.932,11.653 m -363.954,1.831 c 5.478,-4.14 11.1,-8.094 16.849,-11.885 l -29.654,-45.18 c -6.758,4.411 -13.321,9.031 -19.734,13.89 l 32.539,43.175 z m 395.221,24.788 37.705,-38.75 c -5.78,-5.623 -11.743,-11.041 -17.866,-16.266 l -35.049,41.187 c 5.223,4.434 10.308,9.045 15.21,13.829 m -426.19,2.1 c 4.843,-4.836 9.874,-9.485 15.047,-13.986 l -35.462,-40.828 c -6.077,5.293 -11.99,10.801 -17.708,16.46 l 38.123,38.354 z M 210.1,115.326 252.663,82.001 C 247.7,75.64 242.498,69.458 237.115,63.448 l -40.216,36.134 c 4.575,5.114 8.971,10.346 13.201,15.744 m -480.75,2.376 c 4.185,-5.441 8.536,-10.725 13.058,-15.869 l -40.611,-35.701 c -5.293,6.039 -10.421,12.258 -15.318,18.665 l 42.871,32.905 z m 503.81,31.605 46.696,-27.298 c -4.079,-6.961 -8.384,-13.784 -12.899,-20.438 l -44.754,30.334 c 3.827,5.665 7.497,11.466 10.957,17.402 m -526.513,2.556 c 3.402,-5.95 7.005,-11.781 10.779,-17.484 l -45.043,-29.894 c -4.434,6.685 -8.672,13.546 -12.686,20.542 l 46.95,26.836 z m 544.798,34.206 49.941,-20.69 c -3.117,-7.489 -6.458,-14.853 -10.038,-22.082 l -48.417,24.114 c 3.057,6.115 5.883,12.319 8.514,18.658 m -562.693,2.705 c 2.564,-6.368 5.353,-12.647 8.312,-18.791 l -48.64,-23.562 c -3.49,7.223 -6.772,14.568 -9.791,22.037 l 50.119,20.316 z m 575.819,36.214 52.28,-13.777 c -2.07,-7.837 -4.378,-15.573 -6.943,-23.184 l -51.234,17.313 c 2.182,6.455 4.156,13.014 5.897,19.648 m -588.542,2.752 c 1.682,-6.658 3.582,-13.24 5.703,-19.716 l -51.39,-16.797 c -2.496,7.639 -4.739,15.399 -6.727,23.24 l 52.414,13.273 z m 596.236,37.546 53.676,-6.574 c -1.002,-8.062 -2.242,-16.024 -3.767,-23.909 l -53.079,10.184 c 1.269,6.699 2.354,13.456 3.17,20.299 m -603.554,2.822 c 0.777,-6.844 1.779,-13.619 2.961,-20.328 l -53.17,-9.643 c -1.436,7.871 -2.594,15.85 -3.522,23.905 l 53.731,6.066 z m -55.891,42.115 54.045,-0.973 -0.059,-6.741 0.03,-3.925 c 0.036,-3.267 0.156,-6.653 0.283,-10.039 l -54.007,-2.337 c -0.178,3.873 -0.284,7.778 -0.343,11.677 l -0.023,4.624 0.074,7.714 z m 714.693,20.156 c 0.59,-7.748 0.948,-15.555 1.038,-23.435 l 0.045,-4.559 c 0,-6.548 -0.196,-13.055 -0.539,-19.535 l -53.985,2.829 c 0.291,5.523 0.435,11.103 0.435,16.706 l -0.016,3.95 c -0.082,6.661 -0.367,13.299 -0.889,19.872 l 53.911,4.172 z m -710.409,28.024 53.402,-8.315 c -1.047,-6.74 -1.899,-13.558 -2.504,-20.457 l -53.852,4.838 c 0.727,8.056 1.72,16.044 2.954,23.934 m 703.411,19.824 c 1.705,-7.834 3.139,-15.784 4.313,-23.809 l -53.499,-7.803 c -1.009,6.795 -2.205,13.537 -3.655,20.198 l 52.841,11.414 z m -692.669,27.367 51.765,-15.561 c -1.952,-6.525 -3.709,-13.159 -5.24,-19.86 l -52.707,12.038 c 1.809,7.883 3.872,15.691 6.182,23.383 m 679.311,19.105 c 2.728,-7.546 5.219,-15.211 7.468,-22.978 l -51.93,-15.025 c -1.905,6.605 -4.028,13.134 -6.368,19.543 l 50.83,18.46 z m -662.223,26.23 49.171,-22.462 c -2.834,-6.207 -5.48,-12.529 -7.894,-18.946 l -50.592,19.024 c 2.841,7.591 5.951,15.051 9.315,22.384 m 642.662,17.963 c 3.752,-7.121 7.264,-14.382 10.531,-21.771 l -49.439,-21.865 c -2.774,6.261 -5.757,12.405 -8.925,18.445 l 47.833,25.191 z m -619.639,24.582 45.695,-28.884 c -3.632,-5.79 -7.117,-11.698 -10.376,-17.738 l -47.555,25.759 c 3.863,7.109 7.937,14.072 12.236,20.863 m 594.305,16.523 c 4.656,-6.548 9.12,-13.261 13.342,-20.119 l -46.008,-28.375 c -3.611,5.845 -7.393,11.553 -11.362,17.136 l 44.028,31.358 z m -565.742,22.538 41.366,-34.815 c -4.396,-5.225 -8.626,-10.615 -12.67,-16.139 l -43.64,31.896 c 4.762,6.526 9.74,12.872 14.944,19.058 m 535.124,14.83 c 5.502,-5.864 10.786,-11.919 15.9,-18.138 l -41.795,-34.303 c -4.335,5.292 -8.864,10.443 -13.543,15.454 l 39.438,36.987 z m -501.623,19.996 36.338,-40.044 c -5.068,-4.608 -9.988,-9.374 -14.726,-14.307 l -38.946,37.502 c 5.584,5.801 11.363,11.426 17.334,16.849 m 466.243,12.928 c 6.243,-5.072 12.29,-10.338 18.179,-15.82 l -36.746,-39.633 c -5.053,4.668 -10.25,9.189 -15.572,13.533 l 34.139,41.92 z m -428.41,17.054 30.707,-44.499 c -5.659,-3.901 -11.174,-7.972 -16.543,-12.232 l -33.57,42.398 c 6.309,4.986 12.782,9.766 19.406,14.333 m 388.89,10.88 c 6.892,-4.22 13.672,-8.652 20.25,-13.309 l -31.239,-44.137 c -5.575,3.948 -11.287,7.695 -17.162,11.273 l 28.151,46.173 z m -347.345,13.785 24.408,-48.233 c -6.108,-3.095 -12.11,-6.388 -17.979,-9.875 l -27.605,46.488 c 6.922,4.103 13.986,7.975 21.176,11.62 m 304.429,8.536 c 7.394,-3.241 14.675,-6.716 21.821,-10.417 L 110.72,572.141 c -6.063,3.154 -12.259,6.126 -18.574,8.88 l 21.682,49.523 z m -259.884,10.293 17.633,-51.111 c -6.487,-2.231 -12.886,-4.687 -19.173,-7.343 l -21.05,49.79 c 7.386,3.137 14.935,6.025 22.59,8.664 m 214.287,6.025 c 7.82,-2.213 15.504,-4.664 23.091,-7.385 l -18.284,-50.88 c -6.384,2.299 -12.901,4.374 -19.51,6.246 l 14.703,52.019 z m -167.576,6.59 10.488,-53.033 c -6.727,-1.337 -13.38,-2.897 -19.965,-4.671 l -14.091,52.19 c 7.729,2.097 15.615,3.943 23.568,5.514 m 120.251,3.393 c 8.029,-1.129 16.013,-2.523 23.862,-4.182 L 33.6,599.762 c -6.668,1.401 -13.396,2.571 -20.19,3.539 l 7.496,53.544 z m -72.365,2.792 3.349,-53.958 c -6.876,-0.427 -13.703,-1.078 -20.453,-1.941 l -6.921,53.623 c 7.939,1.02 15.96,1.779 24.025,2.276 m 24.197,0.684 c 8.117,-0.052 16.13,-0.359 24.106,-0.93 l -3.849,-53.926 c -6.795,0.474 -13.656,0.766 -20.571,0.796 l 0.314,54.06 z"
                   style="fill:#d14358;fill-opacity:1;fill-rule:nonzero;stroke:none"
                   id="path68"
                   inkscape:connector-curvature="0" /></g></g></g></g><g
           id="g70"
           transform="translate(798.6963,352.9756)"><path
             d="M 0,0 C 0.311,0 0.628,0.059 0.935,0.183 1.274,0.32 1.449,0.396 1.449,0.396 2.715,0.945 3.297,2.416 2.749,3.682 2.201,4.948 0.733,5.532 -0.535,4.985 -0.549,4.979 -0.686,4.921 -0.938,4.819 -2.218,4.302 -2.836,2.845 -2.319,1.564 -1.926,0.591 -0.99,0 0,0"
             style="fill:#d14358;fill-opacity:1;fill-rule:nonzero;stroke:none"
             id="path72"
             inkscape:connector-curvature="0" /></g><g
           id="g74"
           transform="translate(787.9326,352.0225)"><path
             d="M 0,0 C -0.376,1.328 0.397,2.71 1.727,3.085 L 2.65,3.35 C 3.977,3.733 5.363,2.971 5.748,1.646 6.133,0.319 5.37,-1.067 4.044,-1.453 L 3.084,-1.728 C 2.857,-1.791 2.629,-1.822 2.404,-1.822 1.313,-1.822 0.311,-1.103 0,0 m -58.238,-2.319 c -0.325,0.089 -0.651,0.179 -0.977,0.274 -1.326,0.383 -2.091,1.769 -1.707,3.095 0.383,1.326 1.766,2.095 3.096,1.708 0.303,-0.087 0.605,-0.172 0.908,-0.255 1.332,-0.364 2.116,-1.739 1.752,-3.071 -0.305,-1.111 -1.312,-1.841 -2.41,-1.841 -0.219,0 -0.441,0.029 -0.662,0.09 m 49.622,0.46 c -0.271,1.354 0.609,2.671 1.964,2.94 l 0.94,0.191 c 1.349,0.276 2.675,-0.589 2.955,-1.941 0.28,-1.352 -0.589,-2.675 -1.941,-2.955 l -0.978,-0.199 c -0.166,-0.032 -0.33,-0.048 -0.491,-0.048 -1.169,0 -2.212,0.822 -2.449,2.012 m -40.832,-2.478 -0.984,0.187 c -1.355,0.264 -2.239,1.577 -1.975,2.932 0.264,1.356 1.581,2.24 2.932,1.976 l 0.941,-0.179 c 1.357,-0.253 2.253,-1.558 2.001,-2.915 -0.225,-1.203 -1.275,-2.043 -2.455,-2.043 -0.153,0 -0.306,0.014 -0.46,0.042 m 32.102,1.257 c -0.168,1.37 0.807,2.618 2.178,2.786 0.316,0.039 0.631,0.079 0.943,0.12 1.374,0.193 2.627,-0.777 2.811,-2.146 0.183,-1.368 -0.779,-2.626 -2.147,-2.809 -0.33,-0.045 -0.664,-0.087 -0.998,-0.128 -0.103,-0.013 -0.207,-0.018 -0.308,-0.018 -1.244,0 -2.322,0.928 -2.479,2.195 m -23.171,-2.527 c -0.333,0.033 -0.667,0.068 -1.002,0.105 -1.372,0.152 -2.361,1.389 -2.209,2.761 0.154,1.371 1.383,2.363 2.761,2.208 0.317,-0.035 0.631,-0.069 0.946,-0.1 1.374,-0.137 2.376,-1.361 2.24,-2.735 -0.129,-1.289 -1.215,-2.252 -2.485,-2.252 -0.083,0 -0.167,0.004 -0.251,0.013 m 14.377,1.955 c -0.065,1.379 0.999,2.55 2.378,2.616 l 0.954,0.051 c 1.378,0.085 2.56,-0.975 2.64,-2.354 0.078,-1.378 -0.975,-2.559 -2.353,-2.639 l -1.002,-0.052 c -0.041,-0.002 -0.081,-0.003 -0.122,-0.003 -1.326,0 -2.431,1.042 -2.495,2.381 m -5.387,-2.494 -0.993,0.024 c -1.38,0.037 -2.469,1.185 -2.432,2.566 0.036,1.38 1.206,2.48 2.565,2.432 l 0.965,-0.023 c 1.381,-0.029 2.477,-1.171 2.447,-2.552 -0.029,-1.363 -1.142,-2.447 -2.498,-2.447 -0.017,0 -0.036,0 -0.054,0"
             style="fill:#d14358;fill-opacity:1;fill-rule:nonzero;stroke:none"
             id="path76"
             inkscape:connector-curvature="0" /></g><g
           id="g78"
           transform="translate(721.0469,352.2754)"><path
             d="M 0,0 C 0.194,0 0.39,0.023 0.582,0.069 1.712,-0.072 2.833,0.56 3.249,1.671 3.733,2.964 3.079,4.405 1.786,4.89 L 1.317,5.065 C 0.646,5.317 -0.103,5.269 -0.735,4.932 -0.751,4.924 -0.878,4.856 -1.108,4.743 -2.347,4.132 -2.854,2.633 -2.244,1.395 -1.809,0.513 -0.922,0.001 0,0"
             style="fill:#d14358;fill-opacity:1;fill-rule:nonzero;stroke:none"
             id="path80"
             inkscape:connector-curvature="0" /></g><g
           id="g82"
           transform="translate(642.9785,353.7637)"><path
             d="m 0,0 c -0.297,0.164 -0.595,0.33 -0.893,0.499 -1.201,0.68 -1.625,2.205 -0.944,3.406 0.679,1.202 2.204,1.625 3.406,0.946 L 2.417,4.377 C 3.626,3.71 4.064,2.188 3.397,0.98 2.941,0.154 2.087,-0.312 1.206,-0.312 0.798,-0.312 0.383,-0.212 0,0 m 8.344,-3.998 c -0.316,0.13 -0.632,0.262 -0.948,0.396 -1.271,0.541 -1.862,2.01 -1.321,3.28 0.541,1.271 2.011,1.863 3.28,1.32 0.297,-0.127 0.595,-0.251 0.891,-0.373 1.277,-0.525 1.887,-1.986 1.361,-3.263 -0.397,-0.966 -1.33,-1.55 -2.313,-1.55 -0.316,0 -0.639,0.061 -0.95,0.19 m 59.065,0.79 c -0.455,1.304 0.233,2.729 1.535,3.186 l 0.924,0.325 c 1.297,0.465 2.731,-0.211 3.195,-1.512 0.465,-1.3 -0.21,-2.73 -1.511,-3.195 l -0.957,-0.339 c -0.274,-0.095 -0.552,-0.141 -0.825,-0.141 -1.034,0 -2,0.646 -2.361,1.676 M 17.095,-7.016 c -0.329,0.093 -0.659,0.188 -0.991,0.286 -1.323,0.392 -2.079,1.783 -1.686,3.107 0.392,1.323 1.78,2.073 3.106,1.687 0.31,-0.091 0.619,-0.18 0.927,-0.267 1.328,-0.374 2.103,-1.755 1.728,-3.084 -0.311,-1.103 -1.314,-1.823 -2.405,-1.823 -0.224,0 -0.453,0.031 -0.679,0.094 m 41.638,1.509 c -0.329,1.341 0.492,2.694 1.832,3.024 l 0.949,0.236 c 1.336,0.342 2.698,-0.469 3.038,-1.807 0.341,-1.339 -0.469,-2.699 -1.807,-3.039 l -0.987,-0.246 c -0.2,-0.05 -0.402,-0.073 -0.599,-0.073 -1.123,0 -2.145,0.765 -2.426,1.905 M 26.134,-9.003 c -0.336,0.054 -0.673,0.11 -1.011,0.168 -1.36,0.234 -2.273,1.528 -2.039,2.889 0.235,1.36 1.522,2.268 2.889,2.039 0.319,-0.056 0.638,-0.109 0.957,-0.16 1.362,-0.22 2.29,-1.503 2.07,-2.866 -0.198,-1.228 -1.26,-2.102 -2.466,-2.102 -0.132,0 -0.265,0.01 -0.4,0.032 m 23.747,2.024 c -0.198,1.367 0.75,2.634 2.116,2.833 0.322,0.045 0.643,0.094 0.959,0.144 1.361,0.204 2.643,-0.723 2.856,-2.086 0.211,-1.364 -0.722,-2.642 -2.086,-2.855 -0.336,-0.052 -0.673,-0.103 -1.014,-0.153 -0.121,-0.017 -0.241,-0.025 -0.359,-0.025 -1.223,0 -2.292,0.897 -2.472,2.142 m -14.547,-2.98 c -0.343,0.016 -0.687,0.035 -1.031,0.057 -1.378,0.085 -2.427,1.27 -2.341,2.648 0.084,1.379 1.276,2.418 2.648,2.342 0.321,-0.02 0.641,-0.037 0.96,-0.053 1.379,-0.065 2.445,-1.236 2.379,-2.615 -0.063,-1.339 -1.169,-2.382 -2.495,-2.382 -0.039,0 -0.08,10e-4 -0.12,0.003 m 5.595,2.368 c -0.065,1.379 1,2.55 2.38,2.614 l 0.972,0.05 c 1.382,0.089 2.56,-0.977 2.636,-2.356 0.078,-1.378 -0.977,-2.559 -2.355,-2.636 l -1.019,-0.052 c -0.04,-0.002 -0.079,-0.003 -0.119,-0.003 -1.327,0 -2.433,1.044 -2.495,2.383"
             style="fill:#d14358;fill-opacity:1;fill-rule:nonzero;stroke:none"
             id="path84"
             inkscape:connector-curvature="0" /></g><g
           id="g86"
           transform="translate(636.5596,358.2119)"><path
             d="M 0,0 C 0.791,0 1.569,0.374 2.056,1.073 2.844,2.206 2.563,3.765 1.43,4.553 L 1.04,4.827 C -0.086,5.626 -1.646,5.36 -2.445,4.235 -3.244,3.109 -2.979,1.549 -1.854,0.749 L -1.425,0.447 C -0.989,0.145 -0.492,0 0,0"
             style="fill:#d14358;fill-opacity:1;fill-rule:nonzero;stroke:none"
             id="path88"
             inkscape:connector-curvature="0" /></g><g
           id="g90"
           transform="translate(755.6182,339.416)"><path
             d="m 0,0 c -1.364,0.209 -2.301,1.484 -2.092,2.85 l 0.147,0.975 C -1.816,4.71 -1.236,5.418 -0.474,5.753 -0.869,7.06 -0.142,8.444 1.164,8.858 2.482,9.278 3.885,8.547 4.303,7.231 4.4,6.924 4.499,6.62 4.6,6.319 5.038,5.01 4.332,3.593 3.023,3.155 3.018,3.153 3.014,3.151 3.008,3.15 3.006,3.133 3.004,3.116 3.002,3.099 L 2.851,2.092 C 2.661,0.855 1.596,-0.029 0.383,-0.029 0.256,-0.029 0.129,-0.021 0,0 m -81.912,-0.263 c -0.254,0.013 -0.509,0.065 -0.759,0.159 -1.292,0.488 -1.944,1.93 -1.457,3.222 0.118,0.315 0.228,0.613 0.329,0.898 0.463,1.3 1.894,1.98 3.194,1.517 0.779,-0.277 1.335,-0.902 1.556,-1.638 0.903,-0.249 1.627,-0.994 1.802,-1.976 l 0.176,-0.971 c 0.251,-1.357 -0.648,-2.661 -2.005,-2.912 -0.154,-0.028 -0.307,-0.041 -0.457,-0.041 -1.08,0 -2.051,0.703 -2.379,1.742 m -53.935,-2.221 c -0.174,0.318 -0.339,0.627 -0.495,0.925 -0.638,1.224 -0.165,2.735 1.059,3.373 1.225,0.641 2.734,0.166 3.373,-1.058 0.142,-0.272 0.293,-0.553 0.451,-0.842 0.662,-1.212 0.217,-2.73 -0.995,-3.393 -0.381,-0.208 -0.791,-0.306 -1.196,-0.306 -0.885,0 -1.743,0.47 -2.197,1.301 M 3.591,-3.917 C 3.424,-3.61 3.259,-3.3 3.096,-2.983 2.462,-1.757 2.943,-0.249 4.17,0.385 5.396,1.02 6.905,0.537 7.538,-0.689 7.684,-0.972 7.831,-1.249 7.98,-1.522 8.642,-2.734 8.195,-4.253 6.982,-4.914 6.603,-5.122 6.192,-5.22 5.788,-5.22 c -0.886,0 -1.743,0.471 -2.197,1.303 m -90.462,-4.164 c -1.196,0.689 -1.607,2.219 -0.916,3.414 0.16,0.278 0.316,0.557 0.469,0.832 0.668,1.208 2.187,1.648 3.397,0.98 1.209,-0.668 1.648,-2.189 0.98,-3.398 -0.167,-0.303 -0.339,-0.606 -0.515,-0.912 -0.463,-0.803 -1.304,-1.251 -2.168,-1.251 -0.424,0 -0.854,0.107 -1.247,0.335 m 85.094,-0.771 c -1.35,0.291 -2.208,1.621 -1.918,2.97 l 0.203,0.961 c 0.279,1.352 1.599,2.217 2.955,1.942 1.351,-0.281 2.221,-1.603 1.941,-2.956 L 1.193,-6.933 c -0.252,-1.172 -1.289,-1.975 -2.441,-1.975 -0.175,0 -0.352,0.018 -0.529,0.056 m -78.299,-0.071 -0.237,0.991 c -0.315,1.344 0.519,2.69 1.864,3.005 1.346,0.314 2.689,-0.518 3.005,-1.862 l 0.227,-0.956 c 0.326,-1.342 -0.498,-2.693 -1.84,-3.019 -0.198,-0.048 -0.396,-0.071 -0.591,-0.071 -1.127,0 -2.151,0.768 -2.428,1.912 m -50.584,-1.434 c -0.219,0.275 -0.432,0.55 -0.642,0.825 -0.838,1.096 -0.628,2.666 0.469,3.504 1.099,0.84 2.666,0.63 3.505,-0.469 0.191,-0.251 0.387,-0.503 0.587,-0.755 0.857,-1.082 0.675,-2.654 -0.407,-3.512 -0.459,-0.364 -1.007,-0.541 -1.551,-0.541 -0.738,0 -1.468,0.325 -1.961,0.948 M 9.043,-11.742 c -0.234,0.264 -0.469,0.535 -0.699,0.811 -0.887,1.059 -0.747,2.635 0.311,3.522 1.06,0.886 2.636,0.746 3.523,-0.313 0.199,-0.239 0.402,-0.472 0.605,-0.702 0.916,-1.032 0.822,-2.612 -0.211,-3.529 -0.476,-0.422 -1.068,-0.63 -1.658,-0.63 -0.689,0 -1.377,0.284 -1.871,0.841 m -101.678,-3.252 c -1.006,0.945 -1.055,2.527 -0.109,3.534 0.209,0.223 0.415,0.45 0.618,0.68 0.913,1.034 2.492,1.133 3.528,0.22 1.035,-0.914 1.134,-2.494 0.221,-3.529 -0.237,-0.268 -0.478,-0.533 -0.724,-0.795 -0.492,-0.523 -1.156,-0.788 -1.822,-0.788 -0.614,0 -1.228,0.225 -1.712,0.678 m 88.551,-2.576 c -1.329,0.374 -2.104,1.754 -1.73,3.083 l 0.261,0.947 c 0.364,1.331 1.738,2.115 3.071,1.754 1.332,-0.363 2.117,-1.738 1.753,-3.07 l -0.272,-0.983 c -0.31,-1.103 -1.313,-1.825 -2.405,-1.825 -0.225,0 -0.451,0.03 -0.678,0.094 m -119.83,0.416 c -0.283,0.221 -0.563,0.448 -0.837,0.677 -1.061,0.884 -1.204,2.46 -0.32,3.521 0.884,1.061 2.461,1.203 3.521,0.319 0.236,-0.196 0.476,-0.389 0.718,-0.58 1.088,-0.851 1.279,-2.423 0.428,-3.51 -0.493,-0.629 -1.228,-0.959 -1.971,-0.959 -0.538,0 -1.082,0.174 -1.539,0.532 m 140.213,-0.902 c -0.297,0.197 -0.592,0.398 -0.887,0.605 -1.129,0.796 -1.398,2.355 -0.603,3.484 0.795,1.128 2.355,1.397 3.484,0.604 0.254,-0.18 0.51,-0.354 0.766,-0.523 1.15,-0.762 1.466,-2.313 0.704,-3.465 -0.482,-0.726 -1.277,-1.12 -2.087,-1.12 -0.474,0 -0.953,0.134 -1.377,0.415 m -93.965,0.291 -0.293,0.971 c -0.395,1.323 0.356,2.717 1.68,3.112 1.32,0.396 2.715,-0.356 3.111,-1.678 l 0.285,-0.946 c 0.403,-1.321 -0.342,-2.717 -1.662,-3.121 -0.243,-0.074 -0.488,-0.109 -0.73,-0.109 -1.071,0 -2.063,0.694 -2.391,1.771 m -22.607,-1.954 c -0.616,1.236 -0.112,2.737 1.124,3.352 0.262,0.131 0.521,0.268 0.777,0.411 1.207,0.674 2.728,0.242 3.401,-0.963 0.674,-1.205 0.243,-2.728 -0.962,-3.402 -0.325,-0.182 -0.655,-0.357 -0.989,-0.523 -0.357,-0.177 -0.737,-0.262 -1.111,-0.262 -0.919,0 -1.804,0.508 -2.24,1.387 m -15.075,-2.167 c -0.348,0.119 -0.693,0.245 -1.034,0.378 -1.287,0.5 -1.925,1.948 -1.425,3.236 0.5,1.287 1.949,1.927 3.237,1.424 0.277,-0.107 0.558,-0.21 0.842,-0.307 1.306,-0.448 2.002,-1.869 1.555,-3.176 -0.355,-1.037 -1.326,-1.69 -2.365,-1.69 -0.269,0 -0.542,0.043 -0.81,0.135 m 140.312,-0.367 c -0.335,0.112 -0.673,0.23 -1.011,0.353 -1.297,0.472 -1.965,1.908 -1.492,3.205 0.474,1.298 1.912,1.966 3.206,1.492 0.294,-0.108 0.587,-0.209 0.878,-0.306 1.31,-0.436 2.018,-1.852 1.581,-3.163 -0.349,-1.047 -1.325,-1.71 -2.371,-1.71 -0.263,0 -0.528,0.042 -0.791,0.129 m -134.149,1.451 c -0.032,1.38 1.061,2.525 2.442,2.557 0.299,0.007 0.594,0.02 0.886,0.04 1.38,0.096 2.571,-0.946 2.665,-2.324 0.093,-1.377 -0.947,-2.571 -2.325,-2.664 -0.366,-0.026 -0.736,-0.041 -1.11,-0.05 -0.02,-0.001 -0.04,-0.001 -0.06,-0.001 -1.353,0 -2.466,1.081 -2.498,2.442 m 149.251,-1.083 c -0.175,1.369 0.792,2.622 2.162,2.798 0.496,0.064 0.786,0.116 0.831,0.125 1.353,0.264 2.658,-0.62 2.924,-1.972 0.267,-1.352 -0.616,-2.667 -1.969,-2.936 0,0 -0.407,-0.081 -1.15,-0.176 -0.108,-0.014 -0.216,-0.02 -0.321,-0.02 -1.239,0 -2.314,0.92 -2.477,2.181 m -5.726,-2.287 c -0.345,0.029 -0.695,0.065 -1.053,0.104 -1.373,0.151 -2.362,1.385 -2.211,2.758 0.151,1.372 1.389,2.358 2.758,2.212 0.318,-0.035 0.631,-0.066 0.938,-0.093 1.376,-0.12 2.394,-1.331 2.275,-2.706 -0.113,-1.303 -1.205,-2.285 -2.488,-2.285 -0.073,0 -0.145,0.003 -0.219,0.01 m -41.354,-1.922 c -1.298,0.472 -1.967,1.906 -1.496,3.203 l 0.332,0.925 c 0.462,1.302 1.895,1.984 3.193,1.519 1.301,-0.462 1.981,-1.891 1.519,-3.193 l -0.345,-0.958 c -0.369,-1.016 -1.328,-1.647 -2.349,-1.647 -0.283,0 -0.572,0.049 -0.854,0.151 m -67.668,-0.367 c -0.123,0.319 -0.244,0.64 -0.364,0.96 -0.483,1.294 0.174,2.734 1.468,3.217 1.293,0.482 2.734,-0.174 3.216,-1.467 0.114,-0.305 0.229,-0.607 0.346,-0.911 0.496,-1.288 -0.145,-2.735 -1.433,-3.233 -0.296,-0.113 -0.6,-0.168 -0.899,-0.168 -1.004,0 -1.951,0.61 -2.334,1.602 m 63.963,-7.856 c -1.244,0.596 -1.77,2.089 -1.174,3.335 0.141,0.293 0.28,0.586 0.416,0.881 0.581,1.252 2.069,1.796 3.321,1.214 1.252,-0.582 1.796,-2.069 1.214,-3.321 -0.146,-0.313 -0.292,-0.624 -0.441,-0.935 -0.43,-0.896 -1.324,-1.42 -2.258,-1.42 -0.361,0 -0.728,0.079 -1.078,0.246 m -60.26,-0.613 c -0.152,0.307 -0.302,0.615 -0.451,0.922 -0.601,1.243 -0.082,2.738 1.162,3.34 1.242,0.597 2.737,0.08 3.338,-1.162 0.142,-0.292 0.284,-0.584 0.429,-0.875 0.614,-1.236 0.11,-2.737 -1.126,-3.352 -0.357,-0.177 -0.737,-0.261 -1.111,-0.261 -0.919,0 -1.804,0.509 -2.241,1.388 m 55.583,-7.085 c -1.157,0.754 -1.483,2.303 -0.729,3.459 0.176,0.27 0.35,0.539 0.521,0.812 0.739,1.167 2.28,1.515 3.45,0.779 1.167,-0.737 1.515,-2.281 0.778,-3.449 -0.185,-0.292 -0.372,-0.583 -0.56,-0.872 -0.48,-0.735 -1.28,-1.135 -2.097,-1.135 -0.468,0 -0.942,0.131 -1.363,0.406 m -50.918,-0.998 c -0.195,0.288 -0.387,0.578 -0.577,0.871 -0.753,1.159 -0.423,2.706 0.734,3.459 1.159,0.753 2.706,0.423 3.458,-0.734 0.174,-0.268 0.35,-0.534 0.528,-0.797 0.773,-1.144 0.472,-2.698 -0.673,-3.471 -0.428,-0.29 -0.915,-0.428 -1.396,-0.428 -0.803,0 -1.591,0.385 -2.074,1.1 m 44.979,-5.761 c -0.993,0.959 -1.021,2.542 -0.062,3.535 0.216,0.224 0.43,0.451 0.643,0.682 0.934,1.016 2.515,1.084 3.532,0.15 1.017,-0.934 1.084,-2.516 0.15,-3.532 -0.241,-0.261 -0.483,-0.519 -0.728,-0.773 -0.491,-0.508 -1.144,-0.764 -1.8,-0.764 -0.625,0 -1.25,0.234 -1.735,0.702 M -60.31,-50.35 c -0.251,0.248 -0.501,0.501 -0.747,0.758 -0.957,0.995 -0.925,2.577 0.069,3.534 0.996,0.959 2.58,0.927 3.535,-0.069 0.217,-0.226 0.435,-0.447 0.657,-0.666 0.983,-0.97 0.992,-2.553 0.023,-3.535 -0.491,-0.495 -1.135,-0.743 -1.78,-0.743 -0.635,0 -1.269,0.24 -1.757,0.721 m 31.58,-3.522 c -0.707,1.186 -0.317,2.721 0.87,3.427 0.26,0.155 0.517,0.314 0.772,0.479 1.161,0.747 2.707,0.412 3.455,-0.747 0.748,-1.16 0.414,-2.708 -0.746,-3.456 -0.306,-0.196 -0.613,-0.389 -0.925,-0.573 -0.401,-0.238 -0.841,-0.352 -1.276,-0.352 -0.852,0 -1.684,0.436 -2.15,1.222 m -23.782,-2.25 c -0.322,0.167 -0.64,0.341 -0.957,0.519 -1.201,0.68 -1.625,2.206 -0.945,3.407 0.68,1.202 2.203,1.624 3.407,0.945 0.264,-0.149 0.53,-0.294 0.799,-0.434 1.226,-0.635 1.703,-2.144 1.067,-3.37 -0.445,-0.857 -1.318,-1.349 -2.22,-1.349 -0.389,0 -0.783,0.091 -1.151,0.282 m 15.188,-0.314 c -0.293,1.349 0.562,2.681 1.911,2.975 0.296,0.065 0.588,0.135 0.878,0.209 1.339,0.349 2.701,-0.457 3.047,-1.794 0.345,-1.336 -0.458,-2.7 -1.795,-3.046 -0.352,-0.092 -0.707,-0.176 -1.066,-0.254 -0.178,-0.039 -0.358,-0.058 -0.534,-0.058 -1.15,0 -2.185,0.799 -2.441,1.968 m -5.727,-2.488 c -0.369,0.035 -0.734,0.077 -1.097,0.127 -1.368,0.188 -2.325,1.448 -2.137,2.817 0.187,1.367 1.445,2.322 2.816,2.136 0.293,-0.04 0.588,-0.074 0.885,-0.101 1.375,-0.129 2.385,-1.349 2.256,-2.723 -0.121,-1.296 -1.211,-2.267 -2.486,-2.267 -0.079,0 -0.158,0.004 -0.237,0.011"
             style="fill:#d14358;fill-opacity:1;fill-rule:nonzero;stroke:none"
             id="path92"
             inkscape:connector-curvature="0" /></g><g
           id="g94"
           transform="translate(118.8291,185.4697)" /><g
           id="g98"
           transform="translate(418.5195,317.0371)" /><g
           id="g102"
           transform="translate(166.7979,157.8262)" /><g
           id="g106"
           transform="translate(693.4141,185.4697)" /><g
           id="g110"
           transform="translate(393.7295,317.0371)" /><g
           id="g114"
           transform="translate(645.4492,157.8262)" /><g
           id="g118"
           transform="translate(403.46,606.9116)"><path
             d="m 0,0 c 0,0 -56.79,-177.029 -239.529,-222.714 l 100.886,0 c 0,0 129.762,111.357 138.643,222.714"
             style="fill:#d14358;fill-opacity:1;fill-rule:nonzero;stroke:none"
             id="path120"
             inkscape:connector-curvature="0" /></g><g
           id="g122"
           transform="translate(403.46,606.7144)"><path
             d="m 0,0 c 0,0 -38.707,-161.714 -165.608,-222.714 l 73.602,0 c 0,0 72.654,57.105 92.006,222.714"
             style="fill:#f3c35b;fill-opacity:1;fill-rule:nonzero;stroke:none"
             id="path124"
             inkscape:connector-curvature="0" /></g><g
           id="g126"
           transform="translate(408.2559,606.9116)"><path
             d="m 0,0 c 0,0 56.79,-177.029 239.53,-222.714 l -100.888,0 C 138.642,-222.714 8.882,-111.357 0,0"
             style="fill:#d14358;fill-opacity:1;fill-rule:nonzero;stroke:none"
             id="path128"
             inkscape:connector-curvature="0" /></g><g
           id="g130"
           transform="translate(408.2559,606.7144)"><path
             d="m 0,0 c 0,0 38.707,-161.714 165.608,-222.714 l -73.602,0 c 0,0 -72.654,57.105 -92.006,222.714"
             style="fill:#f3c35b;fill-opacity:1;fill-rule:nonzero;stroke:none"
             id="path132"
             inkscape:connector-curvature="0" /></g><g
           id="g134"
           transform="translate(440.8955,384.1973)"><path
             d="m 0,0 -68.528,0 31.092,222.714 4.796,0 c 0,0 -5.43,-116.116 32.64,-222.714"
             style="fill:#f3c35b;fill-opacity:1;fill-rule:nonzero;stroke:none"
             id="path136"
             inkscape:connector-curvature="0" /></g><g
           id="g138"
           transform="translate(303.8389,384)"><path
             d="m 0,0 76.143,0 c 0,0 28.872,75.189 23.478,222.713 C 99.621,222.713 86.612,85 0,0"
             style="fill:#d14358;fill-opacity:1;fill-rule:nonzero;stroke:none"
             id="path140"
             inkscape:connector-curvature="0" /></g><g
           id="g142"
           transform="translate(507.875,384)"><path
             d="m 0,0 -76.141,0 c 0,0 -28.873,75.189 -23.478,222.713 C -99.619,222.713 -86.61,85 0,0"
             style="fill:#d14358;fill-opacity:1;fill-rule:nonzero;stroke:none"
             id="path144"
             inkscape:connector-curvature="0" /></g><g
           id="g146"
           transform="translate(419.0488,609.373)"><path
             d="m 0,0 c 0,-7.317 -5.93,-13.247 -13.246,-13.247 -7.317,0 -13.243,5.93 -13.243,13.247 0,7.313 5.926,13.243 13.243,13.243 C -5.93,13.243 0,7.313 0,0"
             style="fill:#d14358;fill-opacity:1;fill-rule:nonzero;stroke:none"
             id="path148"
             inkscape:connector-curvature="0" /></g><path
           d="m 409.01,612.622 -4.758,0 0,106.598 4.758,0 0,-106.598 z"
           style="fill:#d14358;fill-opacity:1;fill-rule:nonzero;stroke:none"
           id="path150"
           inkscape:connector-curvature="0" /><g
           id="g152"
           transform="translate(404.252,725.4072)"><path
             d="m 0,0 c 0,0 34.423,-49.652 87.087,-52.507 0,0 -15.545,-9.199 -36.167,-8.882 0,0 5.394,-19.032 18.083,-23.159 0,0 -43.701,-8.525 -68.766,31.13 L 0,0 z"
             style="fill:#d14358;fill-opacity:1;fill-rule:nonzero;stroke:none"
             id="path154"
             inkscape:connector-curvature="0" /></g><path
           d="m 647.234,343 -484,0 0,25 484,0 0,-25 z"
           style="fill:#d14358;fill-opacity:1;fill-rule:nonzero;stroke:none"
           id="path156"
           inkscape:connector-curvature="0" /><g
           id="g158"
           transform="translate(183.4023,355.667)"><path
             d="M 0,0 C 0,4.143 -3.358,7.5 -7.5,7.5 -11.643,7.5 -15,4.143 -15,0 c 0,-4.143 3.357,-7.5 7.5,-7.5 4.142,0 7.5,3.357 7.5,7.5"
             style="fill:#f3c35b;fill-opacity:1;fill-rule:nonzero;stroke:none"
             id="path160"
             inkscape:connector-curvature="0" /></g><g
           id="g162"
           transform="translate(212.0684,355.667)"><path
             d="M 0,0 C 0,4.143 -3.357,7.5 -7.5,7.5 -11.642,7.5 -15,4.143 -15,0 c 0,-4.143 3.358,-7.5 7.5,-7.5 4.143,0 7.5,3.357 7.5,7.5"
             style="fill:#f3c35b;fill-opacity:1;fill-rule:nonzero;stroke:none"
             id="path164"
             inkscape:connector-curvature="0" /></g><g
           id="g166"
           transform="translate(240.7354,355.667)"><path
             d="M 0,0 C 0,4.143 -3.358,7.5 -7.5,7.5 -11.643,7.5 -15,4.143 -15,0 c 0,-4.143 3.357,-7.5 7.5,-7.5 4.142,0 7.5,3.357 7.5,7.5"
             style="fill:#f3c35b;fill-opacity:1;fill-rule:nonzero;stroke:none"
             id="path168"
             inkscape:connector-curvature="0" /></g><g
           id="g170"
           transform="translate(269.4014,355.667)"><path
             d="M 0,0 C 0,4.143 -3.357,7.5 -7.5,7.5 -11.642,7.5 -15,4.143 -15,0 c 0,-4.143 3.358,-7.5 7.5,-7.5 4.143,0 7.5,3.357 7.5,7.5"
             style="fill:#f3c35b;fill-opacity:1;fill-rule:nonzero;stroke:none"
             id="path172"
             inkscape:connector-curvature="0" /></g><g
           id="g174"
           transform="translate(298.0684,355.667)"><path
             d="M 0,0 C 0,4.143 -3.358,7.5 -7.5,7.5 -11.643,7.5 -15,4.143 -15,0 c 0,-4.143 3.357,-7.5 7.5,-7.5 4.142,0 7.5,3.357 7.5,7.5"
             style="fill:#f3c35b;fill-opacity:1;fill-rule:nonzero;stroke:none"
             id="path176"
             inkscape:connector-curvature="0" /></g><g
           id="g178"
           transform="translate(326.7344,355.667)"><path
             d="M 0,0 C 0,4.143 -3.357,7.5 -7.5,7.5 -11.642,7.5 -15,4.143 -15,0 c 0,-4.143 3.358,-7.5 7.5,-7.5 4.143,0 7.5,3.357 7.5,7.5"
             style="fill:#f3c35b;fill-opacity:1;fill-rule:nonzero;stroke:none"
             id="path180"
             inkscape:connector-curvature="0" /></g><g
           id="g182"
           transform="translate(355.4014,355.667)"><path
             d="M 0,0 C 0,4.143 -3.358,7.5 -7.5,7.5 -11.643,7.5 -15,4.143 -15,0 c 0,-4.143 3.357,-7.5 7.5,-7.5 4.142,0 7.5,3.357 7.5,7.5"
             style="fill:#f3c35b;fill-opacity:1;fill-rule:nonzero;stroke:none"
             id="path184"
             inkscape:connector-curvature="0" /></g><g
           id="g186"
           transform="translate(384.0674,355.667)"><path
             d="M 0,0 C 0,4.143 -3.357,7.5 -7.5,7.5 -11.642,7.5 -15,4.143 -15,0 c 0,-4.143 3.358,-7.5 7.5,-7.5 4.143,0 7.5,3.357 7.5,7.5"
             style="fill:#f3c35b;fill-opacity:1;fill-rule:nonzero;stroke:none"
             id="path188"
             inkscape:connector-curvature="0" /></g><g
           id="g190"
           transform="translate(412.7344,355.667)"><path
             d="M 0,0 C 0,4.143 -3.358,7.5 -7.5,7.5 -11.643,7.5 -15,4.143 -15,0 c 0,-4.143 3.357,-7.5 7.5,-7.5 4.142,0 7.5,3.357 7.5,7.5"
             style="fill:#f3c35b;fill-opacity:1;fill-rule:nonzero;stroke:none"
             id="path192"
             inkscape:connector-curvature="0" /></g><g
           id="g194"
           transform="translate(441.4004,355.667)"><path
             d="M 0,0 C 0,4.143 -3.357,7.5 -7.5,7.5 -11.643,7.5 -15,4.143 -15,0 c 0,-4.143 3.357,-7.5 7.5,-7.5 4.143,0 7.5,3.357 7.5,7.5"
             style="fill:#f3c35b;fill-opacity:1;fill-rule:nonzero;stroke:none"
             id="path196"
             inkscape:connector-curvature="0" /></g><g
           id="g198"
           transform="translate(470.0664,355.667)"><path
             d="M 0,0 C 0,4.143 -3.357,7.5 -7.5,7.5 -11.643,7.5 -15,4.143 -15,0 c 0,-4.143 3.357,-7.5 7.5,-7.5 4.143,0 7.5,3.357 7.5,7.5"
             style="fill:#f3c35b;fill-opacity:1;fill-rule:nonzero;stroke:none"
             id="path200"
             inkscape:connector-curvature="0" /></g><g
           id="g202"
           transform="translate(498.7324,355.667)"><path
             d="M 0,0 C 0,4.143 -3.357,7.5 -7.5,7.5 -11.643,7.5 -15,4.143 -15,0 c 0,-4.143 3.357,-7.5 7.5,-7.5 4.143,0 7.5,3.357 7.5,7.5"
             style="fill:#f3c35b;fill-opacity:1;fill-rule:nonzero;stroke:none"
             id="path204"
             inkscape:connector-curvature="0" /></g><g
           id="g206"
           transform="translate(527.3984,355.667)"><path
             d="M 0,0 C 0,4.143 -3.357,7.5 -7.5,7.5 -11.643,7.5 -15,4.143 -15,0 c 0,-4.143 3.357,-7.5 7.5,-7.5 4.143,0 7.5,3.357 7.5,7.5"
             style="fill:#f3c35b;fill-opacity:1;fill-rule:nonzero;stroke:none"
             id="path208"
             inkscape:connector-curvature="0" /></g><g
           id="g210"
           transform="translate(556.0645,355.667)"><path
             d="M 0,0 C 0,4.143 -3.357,7.5 -7.5,7.5 -11.643,7.5 -15,4.143 -15,0 c 0,-4.143 3.357,-7.5 7.5,-7.5 4.143,0 7.5,3.357 7.5,7.5"
             style="fill:#f3c35b;fill-opacity:1;fill-rule:nonzero;stroke:none"
             id="path212"
             inkscape:connector-curvature="0" /></g><g
           id="g214"
           transform="translate(584.7305,355.667)"><path
             d="M 0,0 C 0,4.143 -3.357,7.5 -7.5,7.5 -11.643,7.5 -15,4.143 -15,0 c 0,-4.143 3.357,-7.5 7.5,-7.5 4.143,0 7.5,3.357 7.5,7.5"
             style="fill:#f3c35b;fill-opacity:1;fill-rule:nonzero;stroke:none"
             id="path216"
             inkscape:connector-curvature="0" /></g><g
           id="g218"
           transform="translate(613.3965,355.667)"><path
             d="M 0,0 C 0,4.143 -3.357,7.5 -7.5,7.5 -11.643,7.5 -15,4.143 -15,0 c 0,-4.143 3.357,-7.5 7.5,-7.5 4.143,0 7.5,3.357 7.5,7.5"
             style="fill:#f3c35b;fill-opacity:1;fill-rule:nonzero;stroke:none"
             id="path220"
             inkscape:connector-curvature="0" /></g><g
           id="g222"
           transform="translate(642.0625,355.667)"><path
             d="M 0,0 C 0,4.143 -3.357,7.5 -7.5,7.5 -11.643,7.5 -15,4.143 -15,0 c 0,-4.143 3.357,-7.5 7.5,-7.5 4.143,0 7.5,3.357 7.5,7.5"
             style="fill:#f3c35b;fill-opacity:1;fill-rule:nonzero;stroke:none"
             id="path224"
             inkscape:connector-curvature="0" /></g><g
           id="g226"
           transform="translate(182.3184,331.6709)"><path
             d="m 0,0 3.22,-9.907 10.416,0 -8.428,-6.123 3.22,-9.908 -8.428,6.124 -8.428,-6.124 3.22,9.908 -8.428,6.123 10.416,0 L 0,0 z"
             style="fill:#d14358;fill-opacity:1;fill-rule:nonzero;stroke:none"
             id="path228"
             inkscape:connector-curvature="0" /></g><g
           id="g230"
           transform="translate(217.1514,336.2178)"><path
             d="m 0,0 2.967,-9.133 9.603,0 -7.768,-5.645 2.968,-9.133 -7.77,5.644 -7.77,-5.644 2.968,9.133 -7.768,5.645 9.603,0 L 0,0 z"
             style="fill:#f3c35b;fill-opacity:1;fill-rule:nonzero;stroke:none"
             id="path232"
             inkscape:connector-curvature="0" /></g><g
           id="g234"
           transform="translate(253.4854,336.6797)"><path
             d="m 0,0 2.285,-7.033 7.395,0 -5.983,-4.347 2.285,-7.033 -5.982,4.347 -5.982,-4.347 2.285,7.033 -5.984,4.347 7.396,0 L 0,0 z"
             style="fill:#d14358;fill-opacity:1;fill-rule:nonzero;stroke:none"
             id="path236"
             inkscape:connector-curvature="0" /></g><g
           id="g238"
           transform="translate(288.8174,338.7529)"><path
             d="m 0,0 2.34,-7.2 7.57,0 -6.125,-4.449 2.34,-7.201 -6.125,4.451 -6.124,-4.451 2.339,7.201 -6.124,4.449 7.57,0 L 0,0 z"
             style="fill:#f3c35b;fill-opacity:1;fill-rule:nonzero;stroke:none"
             id="path240"
             inkscape:connector-curvature="0" /></g><g
           id="g242"
           transform="translate(303.4775,500.0942)"><path
             d="m 0,0 4.368,-6.245 7.288,2.226 -4.589,-6.084 4.369,-6.244 -7.204,2.485 -4.589,-6.086 0.136,7.62 -7.204,2.484 7.288,2.224 L 0,0 z"
             style="fill:#d14358;fill-opacity:1;fill-rule:nonzero;stroke:none"
             id="path244"
             inkscape:connector-curvature="0" /></g><g
           id="g246"
           transform="translate(287.4717,524.9404)"><path
             d="m 0,0 5.064,-7.238 8.449,2.579 -5.32,-7.051 5.064,-7.239 -8.351,2.88 -5.318,-7.053 0.157,8.832 -8.35,2.879 8.447,2.579 L 0,0 z"
             style="fill:#f3c35b;fill-opacity:1;fill-rule:nonzero;stroke:none"
             id="path248"
             inkscape:connector-curvature="0" /></g><g
           id="g250"
           transform="translate(267.6162,553.7837)"><path
             d="m 0,0 5.836,-8.341 9.734,2.972 -6.129,-8.126 5.834,-8.341 -9.622,3.319 -6.129,-8.128 0.182,10.178 -9.622,3.318 9.734,2.971 L 0,0 z"
             style="fill:#d14358;fill-opacity:1;fill-rule:nonzero;stroke:none"
             id="path252"
             inkscape:connector-curvature="0" /></g><g
           id="g254"
           transform="translate(242.6074,581.4063)"><path
             d="m 0,0 7.805,-11.156 13.022,3.975 -8.198,-10.869 7.804,-11.158 -12.871,4.439 -8.198,-10.871 0.242,13.614 -12.871,4.437 13.022,3.975 L 0,0 z"
             style="fill:#f3c35b;fill-opacity:1;fill-rule:nonzero;stroke:none"
             id="path256"
             inkscape:connector-curvature="0" /></g><g
           id="g258"
           transform="translate(211.7588,609.3511)"><path
             d="m 0,0 9.658,-13.806 16.115,4.919 -10.146,-13.45 9.659,-13.809 -15.929,5.494 -10.145,-13.454 0.3,16.849 -15.928,5.49 16.113,4.92 L 0,0 z"
             style="fill:#d14358;fill-opacity:1;fill-rule:nonzero;stroke:none"
             id="path260"
             inkscape:connector-curvature="0" /></g><g
           id="g262"
           transform="translate(165.2441,636.9863)"><path
             d="m 0,0 11.281,-16.125 18.822,5.746 -11.85,-15.71 11.28,-16.128 -18.604,6.417 -11.85,-15.713 0.35,19.678 -18.602,6.413 18.82,5.745 L 0,0 z"
             style="fill:#f3c35b;fill-opacity:1;fill-rule:nonzero;stroke:none"
             id="path264"
             inkscape:connector-curvature="0" /></g><g
           id="g266"
           transform="translate(100.0039,656.7676)"><path
             d="m 0,0 16.134,-23.061 26.916,8.217 -16.947,-22.467 16.133,-23.063 -26.606,9.176 -16.945,-22.472 0.501,28.141 -26.605,9.172 26.916,8.217 L 0,0 z"
             style="fill:#d14358;fill-opacity:1;fill-rule:nonzero;stroke:none"
             id="path268"
             inkscape:connector-curvature="0" /></g><g
           id="g270"
           transform="translate(267.5498,457.6465)"><path
             d="m 0,0 6.021,-4.005 5.669,4.489 -1.947,-6.963 6.022,-4.004 -7.226,-0.3 -1.947,-6.964 -2.518,6.778 L -3.15,-11.27 2.518,-6.779 0,0 z"
             style="fill:#d14358;fill-opacity:1;fill-rule:nonzero;stroke:none"
             id="path272"
             inkscape:connector-curvature="0" /></g><g
           id="g274"
           transform="translate(244.8076,474.0557)"><path
             d="m 0,0 6.98,-4.642 6.571,5.204 -2.258,-8.072 6.979,-4.641 -8.375,-0.348 -2.256,-8.072 -2.919,7.857 -8.374,-0.348 6.57,5.204 L 0,0 z"
             style="fill:#f3c35b;fill-opacity:1;fill-rule:nonzero;stroke:none"
             id="path276"
             inkscape:connector-curvature="0" /></g><g
           id="g278"
           transform="translate(217.2783,492.6621)"><path
             d="m 0,0 8.043,-5.348 7.572,5.996 -2.601,-9.301 8.043,-5.35 -9.651,-0.399 -2.601,-9.303 -3.364,9.056 -9.649,-0.402 7.571,5.996 L 0,0 z"
             style="fill:#d14358;fill-opacity:1;fill-rule:nonzero;stroke:none"
             id="path280"
             inkscape:connector-curvature="0" /></g><g
           id="g282"
           transform="translate(185.6201,508.4072)"><path
             d="m 0,0 10.758,-7.154 10.128,8.021 -3.48,-12.441 10.758,-7.155 -12.908,-0.536 -3.479,-12.443 -4.5,12.113 -12.908,-0.537 10.129,8.02 L 0,0 z"
             style="fill:#f3c35b;fill-opacity:1;fill-rule:nonzero;stroke:none"
             id="path284"
             inkscape:connector-curvature="0" /></g><g
           id="g286"
           transform="translate(148.6885,522.415)"><path
             d="M 0,0 13.314,-8.854 25.848,1.072 21.542,-14.324 34.855,-23.179 18.881,-23.841 14.576,-39.24 9.008,-24.251 -6.967,-24.915 5.567,-14.989 0,0 z"
             style="fill:#d14358;fill-opacity:1;fill-rule:nonzero;stroke:none"
             id="path288"
             inkscape:connector-curvature="0" /></g><g
           id="g290"
           transform="translate(98.0254,530.7246)"><path
             d="M 0,0 15.55,-10.34 30.189,1.253 25.159,-16.73 40.71,-27.072 22.052,-27.845 17.022,-45.83 10.519,-28.324 -8.136,-29.099 6.502,-17.506 0,0 z"
             style="fill:#f3c35b;fill-opacity:1;fill-rule:nonzero;stroke:none"
             id="path292"
             inkscape:connector-curvature="0" /></g><g
           id="g294"
           transform="translate(33.5381,525.6118)"><path
             d="m 0,0 22.238,-14.788 20.936,16.58 -7.194,-25.717 22.24,-14.79 -26.684,-1.106 -7.19,-25.721 -9.301,25.036 -26.682,-1.108 L 9.299,-25.035 0,0 z"
             style="fill:#d14358;fill-opacity:1;fill-rule:nonzero;stroke:none"
             id="path296"
             inkscape:connector-curvature="0" /></g><g
           id="g298"
           transform="translate(334.7646,532.5063)"><path
             d="m 0,0 1.697,-6.514 6.719,-0.398 -5.67,-3.627 1.696,-6.513 -5.201,4.272 -5.67,-3.627 2.456,6.267 -5.201,4.272 6.718,-0.399 L 0,0 z"
             style="fill:#d14358;fill-opacity:1;fill-rule:nonzero;stroke:none"
             id="path300"
             inkscape:connector-curvature="0" /></g><g
           id="g302"
           transform="translate(329.1523,558)"><path
             d="m 0,0 1.968,-7.551 7.787,-0.462 -6.572,-4.203 1.966,-7.55 -6.029,4.953 -6.572,-4.206 2.846,7.265 -6.029,4.951 7.788,-0.462 L 0,0 z"
             style="fill:#f3c35b;fill-opacity:1;fill-rule:nonzero;stroke:none"
             id="path304"
             inkscape:connector-curvature="0" /></g><g
           id="g306"
           transform="translate(321.5791,587.9868)"><path
             d="m 0,0 2.268,-8.7 8.974,-0.533 -7.574,-4.843 2.267,-8.701 -6.947,5.707 -7.574,-4.846 3.279,8.373 -6.947,5.705 8.975,-0.533 L 0,0 z"
             style="fill:#d14358;fill-opacity:1;fill-rule:nonzero;stroke:none"
             id="path308"
             inkscape:connector-curvature="0" /></g><g
           id="g310"
           transform="translate(309.3662,618.5483)"><path
             d="m 0,0 3.031,-11.638 12.004,-0.712 -10.13,-6.479 3.033,-11.638 -9.293,7.634 -10.131,-6.481 4.386,11.198 -9.293,7.631 12.004,-0.712 L 0,0 z"
             style="fill:#f3c35b;fill-opacity:1;fill-rule:nonzero;stroke:none"
             id="path312"
             inkscape:connector-curvature="0" /></g><g
           id="g314"
           transform="translate(292.415,651.1719)"><path
             d="m 0,0 3.752,-14.401 14.855,-0.882 -12.536,-8.018 3.752,-14.403 -11.501,9.447 -12.537,-8.021 5.43,13.859 -11.5,9.444 14.854,-0.881 L 0,0 z"
             style="fill:#d14358;fill-opacity:1;fill-rule:nonzero;stroke:none"
             id="path316"
             inkscape:connector-curvature="0" /></g><g
           id="g318"
           transform="translate(262.3975,688.3564)"><path
             d="m 0,0 4.383,-16.821 17.35,-1.03 -14.641,-9.364 4.381,-16.822 -13.432,11.034 -14.643,-9.367 6.341,16.185 -13.43,11.03 17.349,-1.03 L 0,0 z"
             style="fill:#f3c35b;fill-opacity:1;fill-rule:nonzero;stroke:none"
             id="path320"
             inkscape:connector-curvature="0" /></g><g
           id="g322"
           transform="translate(214.4619,724.7944)"><path
             d="m 0,0 6.268,-24.056 24.812,-1.472 -20.939,-13.391 6.267,-24.058 -19.209,15.779 -20.941,-13.396 9.067,23.147 -19.208,15.774 L -9.07,-23.145 0,0 z"
             style="fill:#d14358;fill-opacity:1;fill-rule:nonzero;stroke:none"
             id="path324"
             inkscape:connector-curvature="0" /></g><g
           id="g326"
           transform="translate(366.4482,561.1055)"><path
             d="m 0,0 0.104,-6.203 5.931,-1.818 -5.867,-2.015 0.103,-6.203 -3.729,4.958 -5.867,-2.016 3.561,5.08 -3.728,4.956 5.929,-1.818 L 0,0 z"
             style="fill:#d14358;fill-opacity:1;fill-rule:nonzero;stroke:none"
             id="path328"
             inkscape:connector-curvature="0" /></g><g
           id="g330"
           transform="translate(366.9658,585.1602)"><path
             d="m 0,0 0.119,-7.191 6.875,-2.107 -6.799,-2.335 0.119,-7.19 -4.323,5.746 -6.802,-2.337 4.129,5.888 -4.322,5.746 L -4.13,-5.888 0,0 z"
             style="fill:#f3c35b;fill-opacity:1;fill-rule:nonzero;stroke:none"
             id="path332"
             inkscape:connector-curvature="0" /></g><g
           id="g334"
           transform="translate(366.7041,613.665)"><path
             d="m 0,0 0.139,-8.286 7.922,-2.428 -7.836,-2.692 0.137,-8.285 -4.981,6.622 -7.837,-2.693 4.758,6.785 -4.982,6.622 7.922,-2.43 L 0,0 z"
             style="fill:#d14358;fill-opacity:1;fill-rule:nonzero;stroke:none"
             id="path336"
             inkscape:connector-curvature="0" /></g><g
           id="g338"
           transform="translate(362.4111,643.6938)"><path
             d="m 0,0 0.185,-11.083 10.596,-3.248 -10.482,-3.6 0.185,-11.083 -6.664,8.858 -10.482,-3.602 6.363,9.076 -6.664,8.856 L -6.365,-9.075 0,0 z"
             style="fill:#f3c35b;fill-opacity:1;fill-rule:nonzero;stroke:none"
             id="path340"
             inkscape:connector-curvature="0" /></g><g
           id="g342"
           transform="translate(354.3223,676.6001)"><path
             d="m 0,0 0.229,-13.715 13.114,-4.021 -12.971,-4.454 0.229,-13.716 -8.247,10.962 -12.974,-4.458 7.877,11.232 -8.247,10.96 13.114,-4.02 L 0,0 z"
             style="fill:#d14358;fill-opacity:1;fill-rule:nonzero;stroke:none"
             id="path344"
             inkscape:connector-curvature="0" /></g><g
           id="g346"
           transform="translate(335.5234,716.4326)"><path
             d="m 0,0 0.269,-16.019 15.316,-4.695 -15.151,-5.203 0.266,-16.02 -9.631,12.803 -15.152,-5.205 9.199,13.117 -9.632,12.8 15.317,-4.695 L 0,0 z"
             style="fill:#f3c35b;fill-opacity:1;fill-rule:nonzero;stroke:none"
             id="path348"
             inkscape:connector-curvature="0" /></g><g
           id="g350"
           transform="translate(300.5127,759.4937)"><path
             d="m 0,0 0.383,-22.91 21.904,-6.715 -21.668,-7.439 0.382,-22.911 -13.773,18.309 -21.669,-7.444 13.154,18.76 -13.774,18.307 21.905,-6.715 L 0,0 z"
             style="fill:#d14358;fill-opacity:1;fill-rule:nonzero;stroke:none"
             id="path352"
             inkscape:connector-curvature="0" /></g><g
           id="g354"
           transform="translate(503.0381,499.6904)"><path
             d="m 0,0 -4.34,-6.202 -7.239,2.209 4.558,-6.042 -4.339,-6.202 7.156,2.467 4.558,-6.043 -0.135,7.568 7.154,2.467 -7.237,2.21 L 0,0 z"
             style="fill:#d14358;fill-opacity:1;fill-rule:nonzero;stroke:none"
             id="path356"
             inkscape:connector-curvature="0" /></g><g
           id="g358"
           transform="translate(518.9355,524.3696)"><path
             d="m 0,0 -5.03,-7.189 -8.392,2.562 5.283,-7.005 -5.029,-7.189 8.294,2.86 5.283,-7.006 -0.155,8.773 8.293,2.86 L 0.156,-8.772 0,0 z"
             style="fill:#f3c35b;fill-opacity:1;fill-rule:nonzero;stroke:none"
             id="path360"
             inkscape:connector-curvature="0" /></g><g
           id="g362"
           transform="translate(538.6572,553.0195)"><path
             d="m 0,0 -5.796,-8.285 -9.669,2.952 6.088,-8.071 -5.796,-8.286 9.559,3.297 6.087,-8.073 -0.18,10.11 9.559,3.294 -9.671,2.953 L 0,0 z"
             style="fill:#d14358;fill-opacity:1;fill-rule:nonzero;stroke:none"
             id="path364"
             inkscape:connector-curvature="0" /></g><g
           id="g366"
           transform="translate(563.499,580.4565)"><path
             d="m 0,0 -7.753,-11.082 -12.935,3.949 8.143,-10.796 -7.751,-11.083 12.785,4.41 8.143,-10.799 -0.24,13.523 12.784,4.407 L 0.241,-13.522 0,0 z"
             style="fill:#f3c35b;fill-opacity:1;fill-rule:nonzero;stroke:none"
             id="path368"
             inkscape:connector-curvature="0" /></g><g
           id="g370"
           transform="translate(594.1406,608.2139)"><path
             d="m 0,0 -9.595,-13.713 -16.006,4.885 10.078,-13.36 -9.594,-13.715 15.823,5.457 L 0.783,-43.81 0.484,-27.075 16.306,-21.621 0.3,-16.734 0,0 z"
             style="fill:#d14358;fill-opacity:1;fill-rule:nonzero;stroke:none"
             id="path372"
             inkscape:connector-curvature="0" /></g><g
           id="g374"
           transform="translate(640.3438,635.6641)"><path
             d="m 0,0 -11.206,-16.017 -18.695,5.707 11.77,-15.605 -11.205,-16.019 18.48,6.374 11.769,-15.607 -0.348,19.545 18.479,6.37 L 0.349,-19.545 0,0 z"
             style="fill:#f3c35b;fill-opacity:1;fill-rule:nonzero;stroke:none"
             id="path376"
             inkscape:connector-curvature="0" /></g><g
           id="g378"
           transform="translate(705.1445,655.3125)"><path
             d="m 0,0 -16.025,-22.906 -26.736,8.161 16.833,-22.316 -16.024,-22.908 26.428,9.114 L 1.308,-73.176 0.81,-45.224 27.236,-36.113 0.501,-27.951 0,0 z"
             style="fill:#d14358;fill-opacity:1;fill-rule:nonzero;stroke:none"
             id="path380"
             inkscape:connector-curvature="0" /></g><g
           id="g382"
           transform="translate(538.7236,457.5273)"><path
             d="m 0,0 -5.981,-3.979 -5.631,4.459 1.934,-6.916 -5.98,-3.977 7.177,-0.298 1.933,-6.917 2.501,6.733 7.176,-0.298 -5.63,4.459 L 0,0 z"
             style="fill:#d14358;fill-opacity:1;fill-rule:nonzero;stroke:none"
             id="path384"
             inkscape:connector-curvature="0" /></g><g
           id="g386"
           transform="translate(561.3125,473.8262)"><path
             d="m 0,0 -6.932,-4.61 -6.526,5.169 2.242,-8.018 -6.932,-4.61 8.318,-0.345 2.241,-8.019 2.9,7.804 8.318,-0.345 -6.526,5.169 L 0,0 z"
             style="fill:#f3c35b;fill-opacity:1;fill-rule:nonzero;stroke:none"
             id="path388"
             inkscape:connector-curvature="0" /></g><g
           id="g390"
           transform="translate(588.6582,492.3086)"><path
             d="m 0,0 -7.99,-5.313 -7.521,5.956 2.584,-9.239 -7.988,-5.313 9.586,-0.397 2.583,-9.24 3.341,8.994 L 4.18,-14.95 -3.341,-8.994 0,0 z"
             style="fill:#d14358;fill-opacity:1;fill-rule:nonzero;stroke:none"
             id="path392"
             inkscape:connector-curvature="0" /></g><g
           id="g394"
           transform="translate(620.1045,507.9478)"><path
             d="m 0,0 -10.687,-7.106 -10.06,7.966 3.456,-12.357 -10.686,-7.107 12.823,-0.531 3.455,-12.36 4.47,12.031 12.821,-0.534 -10.061,7.967 L 0,0 z"
             style="fill:#f3c35b;fill-opacity:1;fill-rule:nonzero;stroke:none"
             id="path396"
             inkscape:connector-curvature="0" /></g><g
           id="g398"
           transform="translate(656.7871,521.8613)"><path
             d="m 0,0 -13.225,-8.794 -12.449,9.859 4.278,-15.293 -13.226,-8.795 15.868,-0.658 4.276,-15.296 5.532,14.889 L 6.92,-24.747 -5.529,-14.889 0,0 z"
             style="fill:#d14358;fill-opacity:1;fill-rule:nonzero;stroke:none"
             id="path400"
             inkscape:connector-curvature="0" /></g><g
           id="g402"
           transform="translate(707.1104,530.1152)"><path
             d="m 0,0 -15.445,-10.271 -14.541,11.515 4.996,-17.862 -15.447,-10.272 18.535,-0.768 4.994,-17.863 6.459,17.387 18.531,-0.769 -14.54,11.514 L 0,0 z"
             style="fill:#f3c35b;fill-opacity:1;fill-rule:nonzero;stroke:none"
             id="path404"
             inkscape:connector-curvature="0" /></g><g
           id="g406"
           transform="translate(771.165,525.0366)"><path
             d="m 0,0 -22.09,-14.688 -20.794,16.468 7.145,-25.545 -22.09,-14.691 26.505,-1.098 7.142,-25.547 9.239,24.867 26.501,-1.101 L -9.236,-24.867 0,0 z"
             style="fill:#d14358;fill-opacity:1;fill-rule:nonzero;stroke:none"
             id="path408"
             inkscape:connector-curvature="0" /></g><g
           id="g410"
           transform="translate(471.96,531.8848)"><path
             d="m 0,0 -1.686,-6.47 -6.672,-0.396 5.631,-3.602 -1.686,-6.47 5.166,4.244 5.633,-3.603 -2.44,6.225 5.166,4.243 L 2.439,-6.225 0,0 z"
             style="fill:#d14358;fill-opacity:1;fill-rule:nonzero;stroke:none"
             id="path412"
             inkscape:connector-curvature="0" /></g><g
           id="g414"
           transform="translate(477.5342,557.2075)"><path
             d="m 0,0 -1.953,-7.5 -7.736,-0.458 6.528,-4.176 -1.953,-7.499 5.988,4.919 6.527,-4.177 -2.826,7.216 5.988,4.918 L 2.828,-7.216 0,0 z"
             style="fill:#f3c35b;fill-opacity:1;fill-rule:nonzero;stroke:none"
             id="path416"
             inkscape:connector-curvature="0" /></g><g
           id="g418"
           transform="translate(485.0557,586.9932)"><path
             d="m 0,0 -2.251,-8.642 -8.914,-0.529 7.522,-4.811 -2.252,-8.643 6.902,5.669 7.523,-4.812 -3.258,8.315 6.901,5.667 L 3.258,-8.315 0,0 z"
             style="fill:#d14358;fill-opacity:1;fill-rule:nonzero;stroke:none"
             id="path420"
             inkscape:connector-curvature="0" /></g><g
           id="g422"
           transform="translate(497.1885,617.3491)"><path
             d="m 0,0 -3.012,-11.559 -11.924,-0.708 10.063,-6.435 -3.012,-11.56 9.231,7.582 10.063,-6.437 -4.357,11.123 9.23,7.579 L 4.358,-11.122 0,0 z"
             style="fill:#f3c35b;fill-opacity:1;fill-rule:nonzero;stroke:none"
             id="path424"
             inkscape:connector-curvature="0" /></g><g
           id="g426"
           transform="translate(514.0254,649.7539)"><path
             d="m 0,0 -3.727,-14.305 -14.755,-0.876 12.452,-7.963 -3.727,-14.307 11.422,9.384 12.454,-7.967 -5.392,13.765 11.422,9.381 L 5.394,-13.763 0,0 z"
             style="fill:#d14358;fill-opacity:1;fill-rule:nonzero;stroke:none"
             id="path428"
             inkscape:connector-curvature="0" /></g><g
           id="g430"
           transform="translate(543.8428,686.689)"><path
             d="m 0,0 -4.355,-16.708 -17.234,-1.022 14.543,-9.302 -4.351,-16.709 13.341,10.96 14.544,-9.304 -6.298,16.076 13.341,10.956 L 6.298,-16.076 0,0 z"
             style="fill:#f3c35b;fill-opacity:1;fill-rule:nonzero;stroke:none"
             id="path432"
             inkscape:connector-curvature="0" /></g><g
           id="g434"
           transform="translate(591.4561,722.8828)"><path
             d="m 0,0 -6.226,-23.894 -24.647,-1.462 20.8,-13.302 -6.225,-23.896 19.08,15.672 20.8,-13.306 -9.007,22.992 19.08,15.669 L 9.008,-22.99 0,0 z"
             style="fill:#d14358;fill-opacity:1;fill-rule:nonzero;stroke:none"
             id="path436"
             inkscape:connector-curvature="0" /></g><g
           id="g438"
           transform="translate(440.4883,560.292)"><path
             d="m 0,0 -0.103,-6.161 -5.891,-1.806 5.827,-2.001 -0.102,-6.162 3.705,4.924 5.828,-2.002 L 5.726,-8.162 9.43,-3.239 3.538,-5.045 0,0 z"
             style="fill:#d14358;fill-opacity:1;fill-rule:nonzero;stroke:none"
             id="path440"
             inkscape:connector-curvature="0" /></g><g
           id="g442"
           transform="translate(439.9756,584.1851)"><path
             d="m 0,0 -0.119,-7.143 -6.829,-2.092 6.754,-2.32 -0.119,-7.142 4.294,5.708 6.755,-2.321 -4.1,5.848 4.294,5.708 L 4.102,-5.849 0,0 z"
             style="fill:#f3c35b;fill-opacity:1;fill-rule:nonzero;stroke:none"
             id="path444"
             inkscape:connector-curvature="0" /></g><g
           id="g446"
           transform="translate(440.2344,612.499)"><path
             d="m 0,0 -0.137,-8.23 -7.87,-2.412 7.785,-2.673 -0.137,-8.231 4.947,6.578 7.785,-2.675 -4.727,6.74 4.95,6.576 L 4.727,-6.739 0,0 z"
             style="fill:#d14358;fill-opacity:1;fill-rule:nonzero;stroke:none"
             id="path448"
             inkscape:connector-curvature="0" /></g><g
           id="g450"
           transform="translate(444.499,642.3262)"><path
             d="m 0,0 -0.184,-11.009 -10.525,-3.226 10.412,-3.576 -0.183,-11.008 6.618,8.798 10.413,-3.578 -6.322,9.016 6.62,8.796 L 6.322,-9.014 0,0 z"
             style="fill:#f3c35b;fill-opacity:1;fill-rule:nonzero;stroke:none"
             id="path452"
             inkscape:connector-curvature="0" /></g><g
           id="g454"
           transform="translate(452.5332,675.0117)"><path
             d="m 0,0 -0.228,-13.623 -13.025,-3.994 12.884,-4.424 -0.227,-13.625 8.192,10.889 12.885,-4.428 -7.823,11.157 L 20.85,-7.162 7.823,-11.155 0,0 z"
             style="fill:#d14358;fill-opacity:1;fill-rule:nonzero;stroke:none"
             id="path456"
             inkscape:connector-curvature="0" /></g><g
           id="g458"
           transform="translate(471.2061,714.5771)"><path
             d="m 0,0 -0.267,-15.912 -15.213,-4.664 15.049,-5.168 -0.263,-15.912 9.565,12.717 15.051,-5.17 -9.138,13.029 9.568,12.714 L 9.138,-13.029 0,0 z"
             style="fill:#f3c35b;fill-opacity:1;fill-rule:nonzero;stroke:none"
             id="path460"
             inkscape:connector-curvature="0" /></g><g
           id="g462"
           transform="translate(505.9824,757.3491)"><path
             d="m 0,0 -0.381,-22.756 -21.757,-6.67 21.522,-7.39 -0.379,-22.756 13.682,18.186 21.522,-7.395 -13.065,18.635 13.68,18.183 L 13.068,-18.632 0,0 z"
             style="fill:#d14358;fill-opacity:1;fill-rule:nonzero;stroke:none"
             id="path464"
             inkscape:connector-curvature="0" /></g><g
           id="g466"
           transform="translate(320.1514,340.1025)"><path
             d="m 0,0 2.118,-6.52 6.856,0 -5.546,-4.029 2.118,-6.52 -5.546,4.03 -5.546,-4.03 2.118,6.52 -5.546,4.029 6.856,0 L 0,0 z"
             style="fill:#d14358;fill-opacity:1;fill-rule:nonzero;stroke:none"
             id="path468"
             inkscape:connector-curvature="0" /></g><g
           id="g470"
           transform="translate(348.8174,338.8486)"><path
             d="m 0,0 1.763,-5.423 5.702,0 -4.613,-3.352 1.761,-5.423 -4.613,3.351 -4.613,-3.351 1.762,5.423 -4.614,3.352 5.703,0 L 0,0 z"
             style="fill:#f3c35b;fill-opacity:1;fill-rule:nonzero;stroke:none"
             id="path472"
             inkscape:connector-curvature="0" /></g><g
           id="g474"
           transform="translate(376.1514,340.0469)"><path
             d="m 0,0 1.694,-5.214 5.483,0 -4.436,-3.223 1.695,-5.213 -4.436,3.221 -4.436,-3.221 1.695,5.213 -4.436,3.223 5.483,0 L 0,0 z"
             style="fill:#d14358;fill-opacity:1;fill-rule:nonzero;stroke:none"
             id="path476"
             inkscape:connector-curvature="0" /></g><g
           id="g478"
           transform="translate(404.5771,340.0469)"><path
             d="m 0,0 1.694,-5.214 5.483,0 -4.436,-3.223 1.695,-5.213 -4.436,3.221 -4.436,-3.221 1.695,5.213 -4.436,3.223 5.483,0 L 0,0 z"
             style="fill:#f3c35b;fill-opacity:1;fill-rule:nonzero;stroke:none"
             id="path480"
             inkscape:connector-curvature="0" /></g><g
           id="g482"
           transform="translate(626.6738,331.6709)"><path
             d="m 0,0 -3.219,-9.907 -10.418,0 8.428,-6.123 -3.219,-9.908 8.428,6.124 8.428,-6.124 -3.219,9.908 8.428,6.123 -10.418,0 L 0,0 z"
             style="fill:#d14358;fill-opacity:1;fill-rule:nonzero;stroke:none"
             id="path484"
             inkscape:connector-curvature="0" /></g><g
           id="g486"
           transform="translate(591.8408,336.2178)"><path
             d="m 0,0 -2.968,-9.133 -9.603,0 7.769,-5.645 -2.967,-9.133 7.769,5.644 7.769,-5.644 -2.967,9.133 7.769,5.645 -9.603,0 L 0,0 z"
             style="fill:#f3c35b;fill-opacity:1;fill-rule:nonzero;stroke:none"
             id="path488"
             inkscape:connector-curvature="0" /></g><g
           id="g490"
           transform="translate(555.5078,336.6797)"><path
             d="m 0,0 -2.285,-7.033 -7.396,0 5.984,-4.347 -2.285,-7.033 5.982,4.347 5.982,-4.347 -2.285,7.033 5.983,4.347 -7.395,0 L 0,0 z"
             style="fill:#d14358;fill-opacity:1;fill-rule:nonzero;stroke:none"
             id="path492"
             inkscape:connector-curvature="0" /></g><g
           id="g494"
           transform="translate(520.1738,338.7529)"><path
             d="m 0,0 -2.339,-7.2 -7.57,0 6.124,-4.449 L -6.124,-18.85 0,-14.399 6.125,-18.85 3.785,-11.649 9.91,-7.2 2.34,-7.2 0,0 z"
             style="fill:#f3c35b;fill-opacity:1;fill-rule:nonzero;stroke:none"
             id="path496"
             inkscape:connector-curvature="0" /></g><g
           id="g498"
           transform="translate(488.8408,340.1025)"><path
             d="m 0,0 -2.118,-6.52 -6.856,0 5.546,-4.029 -2.118,-6.52 5.546,4.03 5.546,-4.03 -2.118,6.52 5.546,4.029 -6.856,0 L 0,0 z"
             style="fill:#d14358;fill-opacity:1;fill-rule:nonzero;stroke:none"
             id="path500"
             inkscape:connector-curvature="0" /></g><g
           id="g502"
           transform="translate(460.1738,338.8486)"><path
             d="m 0,0 -1.762,-5.423 -5.703,0 4.614,-3.352 -1.762,-5.423 4.613,3.351 4.613,-3.351 -1.761,5.423 4.613,3.352 -5.702,0 L 0,0 z"
             style="fill:#f3c35b;fill-opacity:1;fill-rule:nonzero;stroke:none"
             id="path504"
             inkscape:connector-curvature="0" /></g><g
           id="g506"
           transform="translate(432.8408,340.0469)"><path
             d="m 0,0 -1.694,-5.214 -5.483,0 4.436,-3.223 -1.695,-5.213 4.436,3.221 4.436,-3.221 -1.695,5.213 4.436,3.223 -5.483,0 L 0,0 z"
             style="fill:#d14358;fill-opacity:1;fill-rule:nonzero;stroke:none"
             id="path508"
             inkscape:connector-curvature="0" /></g><g
           id="g510"
           transform="translate(244.0244,264.6338)" /><g
           id="g514"
           transform="translate(280.4971,258.5693)" /><g
           id="g518"
           transform="translate(299.792,283.7568)" /><g
           id="g522"
           transform="translate(350.8887,284.8848)" /><g
           id="g526"
           transform="translate(430.8828,292.6172)" /><g
           id="g530"
           transform="translate(449.2295,280.8955)" /><g
           id="g534"
           transform="translate(528.9844,259.9746)" /><g
           id="g538"
           transform="translate(553.3008,280.7539)" /><g
           id="g542"
           transform="translate(240.6709,267.9863)" /><g
           id="g546"
           transform="translate(277.1455,261.9219)" /><g
           id="g550"
           transform="translate(296.4404,287.1094)" /><g
           id="g554"
           transform="translate(347.5361,288.2373)" /><g
           id="g558"
           transform="translate(427.5303,295.9697)" /><g
           id="g562"
           transform="translate(445.877,284.248)" /><g
           id="g566"
           transform="translate(525.6318,263.3271)" /><g
           id="g570"
           transform="translate(549.9482,284.1064)" /><g
           id="g574"
           transform="translate(4.6064,352.9756)"><path
             d="m 0,0 c -0.311,0 -0.628,0.059 -0.935,0.183 -0.339,0.137 -0.514,0.213 -0.514,0.213 -1.266,0.549 -1.848,2.02 -1.3,3.286 0.548,1.266 2.016,1.85 3.284,1.303 C 0.549,4.979 0.686,4.921 0.938,4.819 2.218,4.302 2.836,2.845 2.319,1.564 1.926,0.591 0.99,0 0,0"
             style="fill:#d14358;fill-opacity:1;fill-rule:nonzero;stroke:none"
             id="path576"
             inkscape:connector-curvature="0" /></g><g
           id="g578"
           transform="translate(12.9658,350.2002)"><path
             d="m 0,0 c -0.225,0 -0.453,0.031 -0.68,0.095 l -0.96,0.274 c -1.326,0.386 -2.089,1.773 -1.704,3.099 0.385,1.325 1.772,2.088 3.098,1.704 L 0.678,4.907 C 2.007,4.532 2.78,3.15 2.404,1.822 2.094,0.72 1.092,0 0,0 m 59.98,-0.587 c -1.098,0 -2.105,0.731 -2.41,1.841 -0.364,1.332 0.42,2.707 1.752,3.071 0.303,0.083 0.606,0.168 0.908,0.255 1.331,0.387 2.713,-0.382 3.096,-1.708 C 63.71,1.546 62.945,0.16 61.619,-0.223 61.293,-0.317 60.967,-0.408 60.643,-0.497 60.421,-0.558 60.199,-0.587 59.98,-0.587 M 8.571,-2.049 c -0.161,0 -0.325,0.016 -0.491,0.048 L 7.103,-1.802 C 5.75,-1.521 4.881,-0.198 5.161,1.153 5.441,2.505 6.768,3.37 8.116,3.095 L 9.057,2.903 c 1.354,-0.269 2.234,-1.586 1.964,-2.94 -0.238,-1.19 -1.281,-2.012 -2.45,-2.012 m 42.822,-0.508 c -1.181,0 -2.231,0.84 -2.455,2.043 -0.252,1.358 0.643,2.662 2,2.915 l 0.941,0.179 c 1.351,0.265 2.668,-0.62 2.933,-1.976 0.263,-1.355 -0.621,-2.667 -1.976,-2.932 l -0.983,-0.187 c -0.155,-0.028 -0.308,-0.042 -0.46,-0.042 M 17.271,-3.453 c -0.101,0 -0.205,0.006 -0.308,0.018 -0.334,0.041 -0.668,0.083 -0.998,0.128 -1.367,0.183 -2.329,1.441 -2.147,2.809 0.184,1.369 1.437,2.339 2.811,2.146 0.312,-0.041 0.627,-0.081 0.943,-0.12 1.371,-0.168 2.346,-1.416 2.178,-2.786 -0.156,-1.266 -1.234,-2.195 -2.479,-2.195 M 42.67,-3.798 c -1.27,0 -2.356,0.963 -2.484,2.252 -0.137,1.374 0.866,2.599 2.24,2.735 0.314,0.032 0.629,0.065 0.945,0.1 1.378,0.155 2.608,-0.837 2.761,-2.208 0.152,-1.372 -0.837,-2.608 -2.209,-2.761 -0.335,-0.037 -0.669,-0.072 -1.002,-0.105 -0.084,-0.009 -0.168,-0.013 -0.251,-0.013 M 26.049,-4.211 c -0.04,0 -0.08,0.001 -0.121,0.003 l -1.002,0.053 c -1.379,0.079 -2.432,1.26 -2.354,2.638 0.08,1.379 1.262,2.439 2.64,2.354 l 0.954,-0.051 c 1.379,-0.065 2.443,-1.237 2.378,-2.616 -0.064,-1.339 -1.169,-2.381 -2.495,-2.381 m 7.828,-0.113 c -1.356,0 -2.469,1.085 -2.498,2.447 -0.029,1.381 1.066,2.523 2.447,2.552 l 0.965,0.023 c 1.359,0.048 2.529,-1.052 2.565,-2.431 0.038,-1.381 -1.051,-2.53 -2.432,-2.567 l -0.992,-0.023 c -0.019,-10e-4 -0.037,-10e-4 -0.055,-10e-4"
             style="fill:#d14358;fill-opacity:1;fill-rule:nonzero;stroke:none"
             id="path580"
             inkscape:connector-curvature="0" /></g><g
           id="g582"
           transform="translate(82.2559,352.2754)"><path
             d="m 0,0 c -0.194,0 -0.39,0.023 -0.582,0.069 -1.13,-0.141 -2.251,0.491 -2.667,1.602 -0.484,1.293 0.17,2.734 1.463,3.219 l 0.469,0.175 C -0.646,5.317 0.103,5.269 0.735,4.932 0.751,4.924 0.878,4.856 1.108,4.743 2.347,4.132 2.854,2.633 2.244,1.395 1.809,0.513 0.922,0.001 0,0"
             style="fill:#d14358;fill-opacity:1;fill-rule:nonzero;stroke:none"
             id="path584"
             inkscape:connector-curvature="0" /></g><g
           id="g586"
           transform="translate(159.1182,353.4521)"><path
             d="M 0,0 C -0.881,0 -1.735,0.466 -2.191,1.292 -2.858,2.5 -2.42,4.021 -1.211,4.688 l 0.848,0.474 C 0.839,5.842 2.364,5.419 3.043,4.217 3.724,3.016 3.3,1.49 2.099,0.811 1.801,0.642 1.503,0.476 1.206,0.312 0.823,0.1 0.408,0 0,0 m -8.088,-3.876 c -0.983,0 -1.916,0.584 -2.313,1.55 -0.526,1.276 0.084,2.737 1.361,3.263 0.296,0.122 0.594,0.246 0.891,0.373 1.269,0.543 2.739,-0.049 3.28,-1.321 0.541,-1.269 -0.05,-2.738 -1.32,-3.279 -0.317,-0.135 -0.633,-0.267 -0.949,-0.397 -0.311,-0.128 -0.633,-0.189 -0.95,-0.189 m -60.475,-0.696 c -0.274,0 -0.552,0.046 -0.826,0.14 l -0.957,0.339 c -1.3,0.465 -1.976,1.896 -1.511,3.196 0.464,1.3 1.898,1.976 3.195,1.511 l 0.924,-0.325 c 1.302,-0.456 1.99,-1.882 1.535,-3.185 -0.36,-1.031 -1.327,-1.676 -2.36,-1.676 m 51.995,-2.227 c -1.091,0 -2.094,0.721 -2.405,1.823 -0.375,1.33 0.4,2.71 1.728,3.084 0.308,0.087 0.617,0.176 0.927,0.268 1.326,0.386 2.714,-0.364 3.106,-1.688 0.393,-1.324 -0.363,-2.714 -1.686,-3.107 -0.331,-0.098 -0.662,-0.192 -0.991,-0.285 -0.226,-0.064 -0.455,-0.095 -0.679,-0.095 m -43.385,-0.302 c -0.197,0 -0.399,0.024 -0.599,0.074 l -0.987,0.246 c -1.338,0.34 -2.148,1.7 -1.807,3.039 0.34,1.338 1.702,2.148 3.038,1.806 l 0.949,-0.236 c 1.34,-0.329 2.161,-1.682 1.832,-3.023 -0.281,-1.141 -1.303,-1.906 -2.426,-1.906 m 34.625,-1.623 c -1.206,0 -2.268,0.874 -2.466,2.103 -0.22,1.362 0.708,2.645 2.07,2.865 0.319,0.052 0.638,0.105 0.957,0.16 1.367,0.23 2.654,-0.678 2.889,-2.039 0.234,-1.36 -0.679,-2.654 -2.039,-2.888 -0.338,-0.058 -0.675,-0.115 -1.011,-0.168 -0.135,-0.023 -0.268,-0.033 -0.4,-0.033 M -51.146,-8.81 c -0.119,0 -0.239,0.008 -0.36,0.026 -0.341,0.05 -0.678,0.1 -1.014,0.152 -1.364,0.213 -2.297,1.491 -2.085,2.856 0.212,1.363 1.494,2.29 2.855,2.086 0.316,-0.05 0.637,-0.099 0.959,-0.145 1.366,-0.198 2.314,-1.466 2.116,-2.832 -0.179,-1.245 -1.249,-2.143 -2.471,-2.143 m 16.898,-0.84 c -1.326,0 -2.432,1.043 -2.495,2.381 -0.066,1.379 1,2.55 2.379,2.616 0.319,0.015 0.639,0.033 0.96,0.052 1.372,0.077 2.564,-0.962 2.648,-2.341 0.086,-1.378 -0.963,-2.564 -2.341,-2.649 -0.344,-0.021 -0.688,-0.041 -1.031,-0.056 -0.04,-0.002 -0.081,-0.003 -0.12,-0.003 m -7.97,-0.012 c -0.04,0 -0.079,0.001 -0.119,0.003 l -1.018,0.052 c -1.379,0.077 -2.434,1.257 -2.356,2.635 0.076,1.379 1.254,2.446 2.636,2.357 l 0.972,-0.05 c 1.38,-0.064 2.445,-1.235 2.38,-2.614 -0.062,-1.339 -1.168,-2.383 -2.495,-2.383"
             style="fill:#d14358;fill-opacity:1;fill-rule:nonzero;stroke:none"
             id="path588"
             inkscape:connector-curvature="0" /></g><g
           id="g590"
           transform="translate(166.7432,358.2119)"><path
             d="m 0,0 c -0.791,0 -1.569,0.374 -2.056,1.073 -0.788,1.133 -0.507,2.692 0.626,3.48 l 0.39,0.274 C 0.086,5.626 1.646,5.36 2.445,4.235 3.244,3.109 2.979,1.549 1.854,0.749 L 1.425,0.447 C 0.989,0.145 0.492,0 0,0"
             style="fill:#d14358;fill-opacity:1;fill-rule:nonzero;stroke:none"
             id="path592"
             inkscape:connector-curvature="0" /></g><g
           id="g594"
           transform="translate(47.3018,339.3867)"><path
             d="m 0,0 c -1.213,0 -2.278,0.885 -2.468,2.121 l -0.151,1.007 c -0.002,0.018 -0.004,0.034 -0.006,0.052 -0.006,10e-4 -0.01,0.003 -0.016,0.005 -1.308,0.437 -2.014,1.854 -1.576,3.164 0.101,0.3 0.199,0.604 0.297,0.912 0.418,1.315 1.82,2.047 3.139,1.627 C 0.524,8.474 1.252,7.089 0.856,5.782 1.619,5.447 2.199,4.739 2.328,3.854 L 2.475,2.879 C 2.684,1.514 1.747,0.238 0.383,0.029 0.254,0.009 0.127,0 0,0 m 79.916,-1.976 c -0.15,0 -0.303,0.013 -0.457,0.041 -1.357,0.251 -2.256,1.555 -2.005,2.913 l 0.176,0.97 c 0.175,0.983 0.899,1.728 1.802,1.976 0.22,0.736 0.777,1.361 1.556,1.639 1.3,0.462 2.731,-0.217 3.194,-1.518 0.101,-0.284 0.211,-0.583 0.329,-0.898 0.487,-1.292 -0.165,-2.734 -1.457,-3.221 -0.25,-0.095 -0.505,-0.147 -0.759,-0.159 -0.328,-1.039 -1.299,-1.743 -2.379,-1.743 m 54.117,-1.78 c -0.405,0 -0.815,0.099 -1.196,0.307 -1.212,0.662 -1.657,2.18 -0.995,3.392 0.158,0.289 0.308,0.571 0.451,0.842 0.639,1.225 2.147,1.699 3.373,1.059 1.224,-0.639 1.697,-2.15 1.059,-3.373 -0.157,-0.299 -0.322,-0.608 -0.496,-0.926 -0.454,-0.831 -1.311,-1.301 -2.196,-1.301 M -5.405,-5.19 c -0.405,0 -0.815,0.097 -1.195,0.305 -1.213,0.661 -1.659,2.18 -0.998,3.392 0.15,0.273 0.297,0.551 0.443,0.833 0.633,1.226 2.141,1.709 3.368,1.074 1.226,-0.634 1.708,-2.142 1.074,-3.368 C -2.876,-3.271 -3.041,-3.581 -3.208,-3.888 -3.662,-4.72 -4.52,-5.19 -5.405,-5.19 m 91.412,-3.197 c -0.864,0 -1.705,0.449 -2.168,1.251 -0.176,0.306 -0.348,0.61 -0.515,0.912 -0.668,1.209 -0.229,2.73 0.98,3.398 1.21,0.669 2.729,0.228 3.397,-0.98 0.153,-0.275 0.309,-0.553 0.469,-0.832 0.69,-1.195 0.28,-2.724 -0.916,-3.414 -0.394,-0.227 -0.823,-0.335 -1.247,-0.335 M 1.631,-8.879 c -1.152,0 -2.19,0.803 -2.442,1.976 l -0.21,0.998 c -0.28,1.352 0.589,2.675 1.941,2.955 1.355,0.275 2.676,-0.59 2.955,-1.942 L 4.078,-5.853 C 4.368,-7.202 3.51,-8.531 2.16,-8.822 1.982,-8.86 1.806,-8.879 1.631,-8.879 m 76.4,-1.927 c -0.195,0 -0.393,0.024 -0.592,0.072 -1.341,0.325 -2.166,1.676 -1.839,3.018 l 0.227,0.956 c 0.316,1.344 1.658,2.176 3.005,1.863 1.345,-0.316 2.179,-1.662 1.863,-3.005 l -0.236,-0.992 c -0.277,-1.144 -1.301,-1.912 -2.428,-1.912 m 51.051,-0.469 c -0.544,0 -1.092,0.176 -1.551,0.541 -1.082,0.857 -1.264,2.429 -0.407,3.511 0.2,0.252 0.396,0.504 0.587,0.755 0.839,1.099 2.406,1.309 3.505,0.469 1.097,-0.838 1.306,-2.407 0.469,-3.504 -0.21,-0.274 -0.423,-0.55 -0.642,-0.825 -0.493,-0.623 -1.224,-0.947 -1.961,-0.947 m -139.613,-1.279 c -0.59,0 -1.182,0.208 -1.658,0.63 -1.034,0.917 -1.127,2.497 -0.211,3.529 0.203,0.23 0.406,0.463 0.605,0.703 0.887,1.058 2.463,1.198 3.523,0.312 1.058,-0.887 1.198,-2.463 0.311,-3.521 -0.23,-0.277 -0.465,-0.547 -0.699,-0.812 -0.494,-0.557 -1.182,-0.841 -1.871,-0.841 m 101.837,-3.089 c -0.666,0 -1.33,0.265 -1.823,0.789 -0.245,0.261 -0.486,0.526 -0.723,0.794 -0.913,1.036 -0.815,2.616 0.22,3.53 1.037,0.912 2.616,0.813 3.529,-0.221 0.203,-0.229 0.409,-0.457 0.618,-0.68 0.946,-1.007 0.896,-2.589 -0.109,-3.534 -0.484,-0.453 -1.098,-0.678 -1.712,-0.678 M 3.789,-17.635 c -1.092,0 -2.096,0.722 -2.405,1.825 l -0.273,0.983 c -0.363,1.332 0.422,2.707 1.754,3.07 1.333,0.361 2.707,-0.423 3.071,-1.754 l 0.261,-0.947 c 0.373,-1.329 -0.401,-2.709 -1.73,-3.083 -0.227,-0.063 -0.453,-0.094 -0.678,-0.094 m 118.969,-0.021 c -0.743,0 -1.478,0.329 -1.971,0.959 -0.851,1.087 -0.66,2.658 0.428,3.509 0.242,0.191 0.482,0.384 0.718,0.581 1.06,0.883 2.636,0.742 3.521,-0.32 0.884,-1.06 0.74,-2.636 -0.32,-3.52 -0.275,-0.23 -0.554,-0.456 -0.837,-0.678 -0.457,-0.357 -1.001,-0.531 -1.539,-0.531 m -140.051,-0.785 c -0.811,0 -1.605,0.393 -2.087,1.12 -0.763,1.151 -0.446,2.702 0.704,3.465 0.256,0.168 0.512,0.342 0.766,0.522 1.129,0.793 2.688,0.524 3.484,-0.604 0.795,-1.128 0.526,-2.688 -0.603,-3.484 -0.295,-0.207 -0.59,-0.408 -0.887,-0.604 -0.424,-0.282 -0.903,-0.415 -1.377,-0.415 m 92.951,-1.066 c -0.242,0 -0.487,0.035 -0.73,0.11 -1.321,0.403 -2.065,1.799 -1.662,3.121 l 0.285,0.945 c 0.396,1.322 1.791,2.074 3.111,1.679 1.323,-0.396 2.075,-1.789 1.68,-3.113 l -0.293,-0.97 c -0.328,-1.078 -1.32,-1.772 -2.391,-1.772 m 22.758,-1.57 c -0.374,0 -0.754,0.085 -1.111,0.263 -0.334,0.166 -0.664,0.34 -0.99,0.522 -1.205,0.674 -1.635,2.197 -0.961,3.402 0.672,1.205 2.194,1.637 3.401,0.963 0.256,-0.142 0.515,-0.28 0.777,-0.411 1.236,-0.615 1.739,-2.116 1.124,-3.351 -0.436,-0.879 -1.321,-1.388 -2.24,-1.388 m 16.505,-0.915 c -1.039,0 -2.01,0.653 -2.365,1.69 -0.448,1.307 0.249,2.729 1.554,3.176 0.285,0.098 0.566,0.2 0.843,0.308 1.288,0.503 2.736,-0.138 3.236,-1.425 0.5,-1.287 -0.137,-2.736 -1.424,-3.236 -0.341,-0.132 -0.686,-0.258 -1.035,-0.377 -0.267,-0.092 -0.541,-0.136 -0.809,-0.136 m -140.293,-0.361 c -1.046,0 -2.023,0.664 -2.371,1.71 -0.437,1.311 0.27,2.727 1.581,3.164 0.291,0.096 0.584,0.198 0.878,0.305 1.294,0.474 2.732,-0.194 3.206,-1.492 0.473,-1.297 -0.195,-2.732 -1.492,-3.205 -0.338,-0.123 -0.676,-0.24 -1.011,-0.353 -0.263,-0.087 -0.528,-0.129 -0.791,-0.129 m 132.441,-0.862 c -0.019,0 -0.039,0 -0.059,0.001 -0.374,0.009 -0.744,0.025 -1.111,0.05 -1.378,0.094 -2.418,1.287 -2.324,2.664 0.094,1.378 1.284,2.42 2.665,2.324 0.292,-0.019 0.587,-0.033 0.886,-0.04 1.381,-0.032 2.474,-1.177 2.441,-2.556 -0.031,-1.362 -1.144,-2.443 -2.498,-2.443 M -42.16,-24.037 c -0.106,0 -0.213,0.007 -0.321,0.02 -0.744,0.095 -1.15,0.176 -1.15,0.176 -1.353,0.27 -2.236,1.584 -1.97,2.937 0.267,1.351 1.572,2.235 2.925,1.971 0.045,-0.008 0.335,-0.061 0.831,-0.125 1.369,-0.175 2.337,-1.428 2.161,-2.797 -0.162,-1.262 -1.237,-2.182 -2.476,-2.182 m 7.984,-0.115 c -1.283,0 -2.375,0.981 -2.488,2.284 -0.119,1.375 0.898,2.587 2.274,2.706 0.308,0.027 0.62,0.058 0.939,0.094 1.369,0.145 2.607,-0.84 2.758,-2.212 0.151,-1.373 -0.838,-2.608 -2.211,-2.759 -0.358,-0.039 -0.708,-0.074 -1.053,-0.104 -0.074,-0.006 -0.147,-0.009 -0.219,-0.009 m 40.719,-2.064 c -1.022,0 -1.98,0.631 -2.35,1.648 l -0.344,0.958 c -0.462,1.301 0.217,2.73 1.519,3.192 1.298,0.465 2.731,-0.217 3.193,-1.519 l 0.332,-0.924 c 0.471,-1.298 -0.199,-2.732 -1.497,-3.203 -0.281,-0.103 -0.57,-0.152 -0.853,-0.152 m 66.187,-1.817 c -0.298,0 -0.602,0.054 -0.898,0.168 -1.288,0.497 -1.93,1.944 -1.434,3.232 0.118,0.304 0.233,0.607 0.347,0.911 0.482,1.293 1.923,1.95 3.216,1.467 1.294,-0.482 1.951,-1.923 1.468,-3.217 -0.12,-0.32 -0.241,-0.64 -0.365,-0.96 -0.382,-0.992 -1.33,-1.601 -2.334,-1.601 m -62.707,-6.501 c -0.933,0 -1.828,0.524 -2.257,1.421 -0.149,0.31 -0.295,0.622 -0.441,0.934 -0.582,1.252 -0.038,2.74 1.214,3.322 1.252,0.582 2.739,0.038 3.32,-1.214 0.137,-0.295 0.276,-0.589 0.416,-0.882 0.597,-1.245 0.071,-2.738 -1.173,-3.335 -0.35,-0.167 -0.717,-0.246 -1.079,-0.246 m 59.098,-1.755 c -0.374,0 -0.754,0.084 -1.111,0.262 -1.237,0.614 -1.74,2.115 -1.126,3.351 0.144,0.291 0.287,0.583 0.429,0.875 0.601,1.242 2.096,1.759 3.337,1.162 1.245,-0.601 1.764,-2.096 1.163,-3.34 -0.149,-0.307 -0.299,-0.615 -0.452,-0.921 -0.436,-0.879 -1.321,-1.389 -2.24,-1.389 m -54.705,-6.103 c -0.817,0 -1.617,0.4 -2.098,1.135 -0.187,0.289 -0.375,0.58 -0.559,0.872 -0.738,1.168 -0.389,2.712 0.778,3.449 1.17,0.736 2.711,0.388 3.449,-0.779 0.172,-0.272 0.346,-0.542 0.522,-0.811 0.754,-1.157 0.428,-2.705 -0.729,-3.459 -0.422,-0.276 -0.895,-0.407 -1.363,-0.407 m 50.207,-1.692 c -0.481,0 -0.968,0.139 -1.396,0.429 -1.145,0.772 -1.446,2.326 -0.673,3.47 0.177,0.263 0.354,0.53 0.528,0.797 0.752,1.158 2.299,1.488 3.458,0.735 1.157,-0.753 1.486,-2.301 0.733,-3.459 -0.189,-0.293 -0.381,-0.583 -0.576,-0.871 -0.483,-0.715 -1.271,-1.101 -2.074,-1.101 m -44.641,-5.362 c -0.655,0 -1.308,0.256 -1.799,0.763 -0.245,0.254 -0.488,0.512 -0.728,0.773 -0.934,1.016 -0.867,2.598 0.149,3.532 1.018,0.935 2.599,0.866 3.533,-0.149 0.213,-0.232 0.426,-0.458 0.643,-0.683 0.959,-0.993 0.931,-2.576 -0.062,-3.535 -0.486,-0.468 -1.111,-0.701 -1.736,-0.701 m 38.954,-1.596 c -0.645,0 -1.29,0.248 -1.78,0.743 -0.969,0.983 -0.96,2.566 0.023,3.535 0.221,0.219 0.44,0.441 0.657,0.666 0.955,0.996 2.539,1.029 3.535,0.07 0.994,-0.957 1.025,-2.539 0.068,-3.535 -0.246,-0.256 -0.496,-0.509 -0.747,-0.757 -0.487,-0.482 -1.122,-0.722 -1.756,-0.722 m -31.973,-4.022 c -0.436,0 -0.875,0.113 -1.276,0.351 -0.312,0.185 -0.62,0.377 -0.925,0.573 -1.16,0.748 -1.494,2.296 -0.746,3.456 0.748,1.16 2.294,1.495 3.455,0.747 0.255,-0.165 0.511,-0.324 0.772,-0.479 1.187,-0.706 1.576,-2.24 0.87,-3.427 -0.467,-0.786 -1.299,-1.221 -2.15,-1.221 m 24.781,-1.311 c -0.902,0 -1.775,0.492 -2.221,1.35 -0.635,1.225 -0.158,2.734 1.068,3.37 0.268,0.139 0.535,0.284 0.799,0.433 1.204,0.679 2.727,0.257 3.407,-0.945 0.68,-1.201 0.256,-2.727 -0.945,-3.406 -0.317,-0.179 -0.635,-0.353 -0.957,-0.52 -0.369,-0.191 -0.762,-0.282 -1.151,-0.282 m -16.478,-2 c -0.176,0 -0.356,0.02 -0.535,0.059 -0.358,0.078 -0.713,0.162 -1.065,0.253 -1.337,0.346 -2.141,1.71 -1.795,3.046 0.346,1.337 1.708,2.143 3.047,1.794 0.29,-0.074 0.582,-0.144 0.878,-0.209 1.349,-0.294 2.204,-1.626 1.911,-2.974 -0.256,-1.17 -1.291,-1.969 -2.441,-1.969 m 7.931,-0.53 c -1.275,0 -2.365,0.97 -2.486,2.266 -0.129,1.374 0.881,2.594 2.256,2.723 0.297,0.027 0.592,0.062 0.885,0.102 1.371,0.185 2.628,-0.77 2.816,-2.137 0.187,-1.368 -0.77,-2.629 -2.137,-2.817 -0.363,-0.049 -0.728,-0.091 -1.097,-0.127 -0.08,-0.006 -0.159,-0.01 -0.237,-0.01"
             style="fill:#d14358;fill-opacity:1;fill-rule:nonzero;stroke:none"
             id="path596"
             inkscape:connector-curvature="0" /></g><g
           id="g598"
           transform="translate(332.1445,153.8164)" /><g
           id="g602"
           transform="translate(349.4243,176.0527)" /><g
           id="g606"
           transform="translate(373.2637,174.9912)" /><g
           id="g610"
           transform="translate(396.0635,173.5586)" /><g
           id="g614"
           transform="translate(434.9424,154.0293)" /><g
           id="g618"
           transform="translate(452.3018,154.4004)" /><g
           id="g622"
           transform="translate(470.7813,166.5537)" /><g
           id="g626"
           transform="translate(501.8203,154.0293)" /><g
           id="g630"
           transform="translate(413.9014,146.5479)" /><g
           id="g638"
           transform="translate(308.5264,25.1055)" /><g
           id="g642"
           transform="translate(317.3535,25.6895)" /><g
           id="g646"
           transform="translate(330.0659,23.7432)" /><g
           id="g650"
           transform="translate(333.4956,27.8145)" /><g
           id="g654"
           transform="translate(336.8633,25.1523)" /><g
           id="g658"
           transform="translate(345.8145,27.8418)" /><g
           id="g662"
           transform="translate(354.0957,25.6895)" /><g
           id="g666"
           transform="translate(362.2622,25.1055)" /><g
           id="g670"
           transform="translate(374.8247,25.0508)" /><g
           id="g674"
           transform="translate(383.2637,21.082)" /><g
           id="g678"
           transform="translate(417.6445,28.7051)" /><g
           id="g682"
           transform="translate(424.2813,23.9961)" /><g
           id="g686"
           transform="translate(429.7441,25.6895)" /><g
           id="g690"
           transform="translate(438.0273,25.6895)" /><g
           id="g694"
           transform="translate(449.9287,25.125)" /><g
           id="g698"
           transform="translate(455.1416,27.8145)" /><g
           id="g702"
           transform="translate(461.6895,22.166)" /><g
           id="g706"
           transform="translate(466.2842,21.3145)" /><g
           id="g710"
           transform="translate(476.0771,23.6152)" /><g
           id="g714"
           transform="translate(482.7852,25.0908)" /><g
           id="g718"
           transform="translate(492.293,24.9551)" /><g
           id="g722"
           transform="translate(403.0068,33.6582)" /><g
           id="g726"
           transform="translate(412.4229,31.1025)" /><g
           id="g730"
           transform="translate(408.7285,27.292)" /><g
           id="g734"
           transform="translate(395.1494,29.96)" /><g
           id="g738"
           transform="translate(405.8271,21.9219)" /></g></g></g></svg>