<?xml version="1.0" encoding="UTF-8" standalone="no"?>
<!-- Created with Inkscape (http://www.inkscape.org/) -->

<svg
   xmlns:dc="http://purl.org/dc/elements/1.1/"
   xmlns:cc="http://creativecommons.org/ns#"
   xmlns:rdf="http://www.w3.org/1999/02/22-rdf-syntax-ns#"
   xmlns:svg="http://www.w3.org/2000/svg"
   xmlns="http://www.w3.org/2000/svg"
   xmlns:sodipodi="http://sodipodi.sourceforge.net/DTD/sodipodi-0.dtd"
   xmlns:inkscape="http://www.inkscape.org/namespaces/inkscape"
   version="1.1"
   width="400"
   height="535"
   id="svg3142"
   inkscape:version="0.48.4 r9939"
   sodipodi:docname="hot.svg">
  <metadata
     id="metadata14">
    <rdf:RDF>
      <cc:Work
         rdf:about="">
        <dc:format>image/svg+xml</dc:format>
        <dc:type
           rdf:resource="http://purl.org/dc/dcmitype/StillImage" />
      </cc:Work>
    </rdf:RDF>
  </metadata>
  <sodipodi:namedview
     pagecolor="#ffffff"
     bordercolor="#666666"
     borderopacity="1"
     objecttolerance="10"
     gridtolerance="10"
     guidetolerance="10"
     inkscape:pageopacity="0"
     inkscape:pageshadow="2"
     inkscape:window-width="1333"
     inkscape:window-height="742"
     id="namedview12"
     showgrid="false"
     inkscape:zoom="0.88224299"
     inkscape:cx="154.30579"
     inkscape:cy="247.77594"
     inkscape:window-x="33"
     inkscape:window-y="0"
     inkscape:window-maximized="1"
     inkscape:current-layer="svg3142" />
  <defs
     id="defs3146" />
  <g
     id="g3192"
     transform="matrix(0.07835047,0,0,-0.09796131,-228.73554,745.93436)">
    <path
       inkscape:connector-curvature="0"
       d="m 6161.45,3644.73 -12.78,0 -238.59,-764.94 12.97,0 239.25,766.97 -0.85,-2.03"
       style="fill:#f7f7d8;fill-opacity:1;fill-rule:nonzero;stroke:none"
       id="path3206" />
    <path
       inkscape:connector-curvature="0"
       d="m 4831.16,3634.22 -12.87,0 236.52,-764.94 12.97,0 -236.62,764.94"
       style="fill:#f7f7d8;fill-opacity:1;fill-rule:nonzero;stroke:none"
       id="path3208" />
    <path
       inkscape:connector-curvature="0"
       d="m 5473.97,2876.27 11.1836,0 0,764.941 -11.1836,0 0,-764.941 z"
       style="fill:#f7f7d8;fill-opacity:1;fill-rule:nonzero;stroke:none"
       id="path3210" />
    <path
       inkscape:connector-curvature="0"
       d="m 6097.54,3455.9 -1228.98,0 -312.01,355.99 1832.98,0 -291.99,-355.99"
       style="fill:#b33d31;fill-opacity:1;fill-rule:nonzero;stroke:none"
       id="path3212" />
    <path
       inkscape:connector-curvature="0"
       d="M 7388.26,7200.63 C 6329.2,7959.22 5470.79,6814.9 5470.79,6814.9 c 0,0 -890.72,1187.48 -1917.48,385.73 C 2110.83,6074.26 3706.92,4467.42 4753.04,3559.9 l 1435.53,0 c 1046.18,907.52 2684.26,2577.37 1199.69,3640.73"
       style="fill:#db7207;fill-opacity:1;fill-rule:nonzero;stroke:none"
       id="path3214" />
    <path
       inkscape:connector-curvature="0"
       d="m 6367.81,3946 c -163.18,0 -306.15,85.05 -387.61,213.08 197.38,21.86 356.99,168.66 397.75,359.53 39.55,-184.75 190.23,-328.28 378.98,-357.16 C 6675.76,4032.11 6531.88,3946 6367.81,3946 z m -898.08,0 c -163.09,0 -306.14,85.05 -387.62,213.08 197.37,21.86 357.02,168.66 397.82,359.55 39.52,-184.73 190.38,-328.28 379.02,-357.18 C 5777.73,4032.11 5633.83,3946 5469.73,3946 z m -897.98,0 c -163.04,0 -306.09,85.05 -387.53,213.08 197.32,21.88 356.93,168.66 397.73,359.47 39.6,-184.71 190.33,-328.26 378.98,-357.1 C 4879.74,4032.11 4735.86,3946 4571.75,3946 z m 1855.67,637.88 c -1.68,0.87 -3.32,1.93 -4.88,2.96 -0.08,-0.06 -0.18,-0.1 -0.25,-0.15 -2.66,-1.82 -5.47,-3.33 -8.31,-4.87 -1.99,-1.11 -3.96,-2.18 -6.03,-3.15 -2.56,-1.18 -5.16,-2.24 -7.85,-3.2 -2.91,-1.07 -5.92,-1.92 -8.97,-2.7 -2.17,-0.54 -4.25,-1.16 -6.46,-1.56 -5.49,-1 -11.08,-1.65 -16.86,-1.65 -15.06,0 -29.1,3.65 -41.76,9.66 -79.53,-136.76 -227.36,-228.96 -397.03,-228.96 -169.64,0 -317.42,92.11 -396.93,228.76 -0.45,0.16 -0.92,0.25 -1.31,0.41 -0.27,-0.13 -0.57,-0.22 -0.86,-0.36 -2.91,-1.36 -5.88,-2.65 -8.94,-3.76 -0.06,-0.02 -0.12,-0.03 -0.16,-0.05 -3.3,-1.18 -6.66,-2.21 -10.1,-3.04 -0.52,-0.13 -1.07,-0.18 -1.6,-0.3 -2.99,-0.67 -5.99,-1.29 -9.08,-1.67 -3.67,-0.45 -7.4,-0.69 -11.19,-0.69 -5.93,0 -11.67,0.65 -17.27,1.7 -3.04,0.55 -5.9,1.49 -8.83,2.32 -2.22,0.66 -4.49,1.21 -6.66,2.02 -3.91,1.41 -7.61,3.17 -11.28,5.06 -0.82,0.43 -1.65,0.83 -2.46,1.28 -4.18,2.32 -8.13,4.89 -11.92,7.76 -0.04,0.03 -0.1,0.06 -0.14,0.09 -0.05,-0.02 -0.16,-0.12 -0.23,-0.18 0.88,-0.67 1.69,-1.49 2.61,-2.16 -78.25,-141.28 -228.62,-237.19 -401.65,-237.19 -170.62,0 -319.16,93.15 -398.34,231.15 -13.69,-7.33 -29.13,-11.85 -45.75,-11.85 -19.74,0 -37.97,5.93 -53.32,15.95 -78.57,-140.25 -228.35,-235.25 -400.58,-235.25 -180.27,0 -336.14,103.86 -411.27,254.87 -5.88,-2.17 -12.03,-3.74 -18.34,-4.86 258.67,-308.79 554.29,-597.22 830.81,-846.83 12.38,-1.02 24.88,-1.6 37.52,-1.6 220.51,0 404.64,155.41 449,362.4 44.35,-206.99 228.43,-362.4 448.98,-362.4 220.5,0 404.68,155.41 448.98,362.52 44.3,-207.11 228.48,-362.52 449.1,-362.52 13.32,0 26.47,0.68 39.49,1.79 224.71,203.44 463.38,434.36 685.22,681.41 -74.96,-53.29 -166.52,-84.78 -265.55,-84.78 -171.64,0 -320.76,94.34 -399.55,233.62"
       style="fill:#ffb74d;fill-opacity:1;fill-rule:nonzero;stroke:none"
       id="path3216" />
    <path
       inkscape:connector-curvature="0"
       d="m 7238.22,4605.13 c -1.11,-2.25 -2.42,-4.39 -3.57,-6.61 1.72,2.05 3.44,4.11 5.15,6.16 -0.5,0.18 -1.07,0.26 -1.58,0.45"
       style="fill:#f7f7d8;fill-opacity:1;fill-rule:nonzero;stroke:none"
       id="path3218" />
    <path
       inkscape:connector-curvature="0"
       d="m 4664.03,4607.79 c 2,2.55 3.91,5.18 5.67,7.92 2.51,3.97 4.85,8.08 6.76,12.41 0.68,1.6 1.15,3.31 1.78,4.93 1.46,3.82 2.7,7.77 3.69,11.8 0.39,1.73 0.76,3.44 1.12,5.19 0.99,5.63 1.72,11.38 1.72,17.35 0,54.01 -43.8,97.84 -97.84,97.84 -54.04,0 -97.83,-43.83 -97.83,-97.84 0,-6 0.73,-11.8 1.74,-17.51 0.29,-1.37 0.49,-2.69 0.83,-4 1.18,-5.41 2.75,-10.67 4.81,-15.68 0.47,-1.11 1.08,-2.14 1.56,-3.21 1.81,-3.98 3.89,-7.83 6.22,-11.52 0.94,-1.41 1.77,-2.86 2.73,-4.21 2.83,-4.03 5.95,-7.78 9.33,-11.34 1.41,-1.47 2.91,-2.79 4.41,-4.23 2.6,-2.39 5.34,-4.61 8.15,-6.67 1.6,-1.15 3.09,-2.44 4.73,-3.51 15.35,-10.02 33.58,-15.95 53.32,-15.95 16.62,0 32.06,4.52 45.75,11.85 10.86,5.78 20.44,13.6 28.45,22.86 0.97,1.16 1.97,2.31 2.9,3.52"
       style="fill:#6200ea;fill-opacity:1;fill-rule:nonzero;stroke:none"
       id="path3220" />
    <path
       inkscape:connector-curvature="0"
       d="m 5552.36,4593.48 c 0.59,0.55 1.35,1.09 2.02,1.66 2.57,2.36 5.03,4.91 7.34,7.52 1.44,1.53 2.79,3.19 4.06,4.92 1.86,2.32 3.71,4.62 5.27,7.11 2.68,4.2 5.08,8.51 7.17,13.08 0.67,1.68 1.27,3.52 1.98,5.3 1.44,3.75 2.61,7.61 3.63,11.55 0.41,1.79 0.82,3.52 1.07,5.28 1.14,5.71 1.8,11.49 1.8,17.49 0,54.01 -43.81,97.84 -97.85,97.84 -54.02,0 -97.87,-43.83 -97.87,-97.84 0,-6 0.78,-11.83 1.81,-17.58 0.23,-1.23 0.4,-2.47 0.7,-3.71 1.14,-5.28 2.77,-10.45 4.77,-15.36 0.54,-1.35 1.22,-2.63 1.82,-3.95 1.77,-3.94 3.81,-7.69 6.1,-11.32 0.82,-1.3 1.6,-2.66 2.46,-3.92 2.65,-3.84 5.7,-7.36 8.89,-10.71 1.48,-1.62 3.02,-3.2 4.61,-4.67 2.56,-2.39 5.5,-4.35 8.29,-6.47 3.79,-2.87 7.74,-5.44 11.92,-7.76 0.81,-0.44 1.64,-0.86 2.46,-1.28 3.67,-1.89 7.37,-3.65 11.28,-5.06 2.17,-0.8 4.43,-1.38 6.66,-2.02 2.93,-0.83 5.79,-1.77 8.83,-2.32 5.61,-1.03 11.35,-1.7 17.27,-1.7 3.8,0 7.52,0.24 11.19,0.69 3.09,0.38 6.09,1 9.08,1.67 0.53,0.12 1.08,0.17 1.6,0.3 3.44,0.83 6.8,1.86 10.1,3.04 0.04,0.02 0.1,0.03 0.16,0.05 3.06,1.11 6.03,2.4 8.94,3.76 0.61,0.29 1.25,0.5 1.84,0.79 7.46,3.68 14.35,8.28 20.6,13.62"
       style="fill:#6200ea;fill-opacity:1;fill-rule:nonzero;stroke:none"
       id="path3222" />
    <path
       inkscape:connector-curvature="0"
       d="m 6439.77,4601.62 c 2.22,2.41 4.33,4.98 6.28,7.63 1.68,2.19 3.23,4.5 4.69,6.79 2.11,3.38 3.95,6.83 5.67,10.44 0.7,1.5 1.42,3 2.03,4.56 1.97,4.88 3.55,9.89 4.7,15.1 0.24,1.22 0.45,2.46 0.77,3.69 0.91,5.74 1.72,11.56 1.72,17.56 0,54.01 -43.79,97.84 -97.82,97.84 -54.12,0 -97.89,-43.83 -97.89,-97.84 0,-6 0.78,-11.82 1.72,-17.54 0.39,-1.76 0.78,-3.5 1.19,-5.28 0.96,-3.97 2.19,-7.79 3.62,-11.52 0.7,-1.82 1.28,-3.66 2.1,-5.43 1.98,-4.61 4.46,-9.05 7.13,-13.27 1.59,-2.33 3.38,-4.49 5.1,-6.69 1.45,-1.9 2.97,-3.77 4.55,-5.55 2.25,-2.45 4.59,-4.83 6.99,-7.06 1.18,-1.02 2.39,-1.93 3.54,-2.87 6.15,-5.05 12.93,-9.51 20.19,-12.96 12.66,-6.01 26.7,-9.66 41.76,-9.66 5.76,0 11.37,0.67 16.86,1.65 2.21,0.4 4.29,1.02 6.46,1.56 3.05,0.77 6.04,1.64 8.97,2.7 2.69,0.96 5.29,2.02 7.85,3.2 2.07,0.96 4.04,2.05 6.03,3.15 2.84,1.54 5.65,3.05 8.31,4.87 4.17,2.85 8.26,5.85 11.97,9.3 1.95,1.75 3.79,3.71 5.51,5.63"
       style="fill:#6200ea;fill-opacity:1;fill-rule:nonzero;stroke:none"
       id="path3224" />
    <path
       inkscape:connector-curvature="0"
       d="m 3733.34,4610.46 c 1.09,0.57 2.17,1.11 3.22,1.76 3.43,1.95 6.73,4.15 9.91,6.51 1.21,0.88 2.27,1.86 3.41,2.79 4.83,3.94 9.2,8.44 13.18,13.24 1.59,1.92 3.3,3.69 4.73,5.71 1.43,2.03 2.6,4.28 3.87,6.37 1.72,2.89 3.38,5.8 4.8,8.83 0.97,2.05 1.79,4.23 2.63,6.4 1.36,3.57 2.46,7.25 3.42,11 0.47,1.89 1.01,3.77 1.37,5.67 1.08,5.8 1.79,11.75 1.79,17.85 0,54.05 -43.82,97.84 -97.85,97.84 -41.65,0 -76.97,-26.13 -91.08,-62.81 34.72,-44.15 70.32,-87.95 106.68,-131.35 6.31,1.12 12.46,2.69 18.34,4.86 3.99,1.49 7.85,3.36 11.58,5.33"
       style="fill:#6200ea;fill-opacity:1;fill-rule:nonzero;stroke:none"
       id="path3226" />
    <path
       inkscape:connector-curvature="0"
       d="m 7272.11,4794.43 c -54.04,0 -97.77,-43.79 -97.77,-97.84 0,-6.1 0.68,-12.05 1.71,-17.85 0.41,-1.9 0.94,-3.79 1.39,-5.69 0.92,-3.73 2.07,-7.41 3.4,-10.98 0.88,-2.15 1.74,-4.35 2.68,-6.4 1.38,-3.03 3.1,-5.9 4.74,-8.8 1.35,-2.12 2.46,-4.37 3.95,-6.42 1.38,-1.97 3.04,-3.75 4.59,-5.61 4.04,-4.84 8.41,-9.32 13.26,-13.32 1.19,-0.93 2.19,-1.91 3.42,-2.79 3.12,-2.38 6.46,-4.56 9.9,-6.51 1.07,-0.65 2.15,-1.19 3.28,-1.76 3.71,-1.97 7.56,-3.84 11.56,-5.33 0.51,-0.19 1.08,-0.27 1.58,-0.45 39.46,47.08 78.09,94.61 115.69,142.55 -17.19,28.2 -47.95,47.2 -83.38,47.2"
       style="fill:#6200ea;fill-opacity:1;fill-rule:nonzero;stroke:none"
       id="path3228" />
    <path
       inkscape:connector-curvature="0"
       d="m 5479.56,2196.64 c 175.13,0 380.28,117.75 437.47,254.86 59.88,143.54 0,496.12 0,496.12 l -874.97,0 c 0,0 -59.88,-352.58 0,-496.12 57.21,-137.11 262.34,-254.86 437.5,-254.86"
       style="fill:#db7207;fill-opacity:1;fill-rule:nonzero;stroke:none"
       id="path3234" />
    <path
       inkscape:connector-curvature="0"
       d="m 5527.09,2823.83 0.2,0.13 c -47.82,44.67 -58.99,131.33 -58.99,131.33 4.73,-60.58 -55.81,-129.16 -55.81,-129.16 l 0.09,0 c -19.14,-16.07 -31.4,-40.09 -31.4,-66.99 0,-48.3 39.19,-87.44 87.42,-87.44 48.22,0 87.3,39.14 87.3,87.44 0,25.72 -11.13,48.77 -28.81,64.69"
       style="fill:#f7f7d8;fill-opacity:1;fill-rule:nonzero;stroke:none"
       id="path3236" />
    <path
       inkscape:connector-curvature="0"
       d="m 5101.13,2812.46 0.23,0.14 c -47.83,44.69 -59.01,131.35 -59.01,131.35 4.73,-60.57 -55.81,-129.2 -55.81,-129.2 l 0.1,0 c -19.15,-16.04 -31.41,-40.04 -31.41,-67 0,-48.28 39.2,-87.4 87.43,-87.4 48.22,0 87.3,39.12 87.3,87.4 0,25.75 -11.13,48.77 -28.83,64.71"
       style="fill:#f7f7d8;fill-opacity:1;fill-rule:nonzero;stroke:none"
       id="path3238" />
    <path
       inkscape:connector-curvature="0"
       d="m 5966.43,2827.58 0.21,0.13 c -47.83,44.69 -59,131.33 -59,131.33 4.72,-60.54 -55.82,-129.16 -55.82,-129.16 l 0.09,0 c -19.14,-16.07 -31.4,-40.06 -31.4,-66.99 0,-48.28 39.22,-87.44 87.42,-87.44 48.24,0 87.3,39.16 87.3,87.44 0,25.74 -11.11,48.77 -28.8,64.69"
       style="fill:#f7f7d8;fill-opacity:1;fill-rule:nonzero;stroke:none"
       id="path3240" />
    <path
       inkscape:connector-curvature="0"
       d="m 5912.83,2943.81 c -24.37,-58.4 -80.86,-99.71 -154.9,-113.26 -99.84,-18.34 -209.26,17.32 -278.76,90.74 l -4.94,-4.69 -4.1,5.43 c -231.33,-175.04 -355.06,-81.19 -428.02,4.65 l -10.38,-8.85 c 61.77,-72.65 128.76,-108.96 203.74,-108.96 71.36,0 150.02,33.12 238.17,98.92 59.84,-60.66 145.97,-95.62 231.67,-95.62 18.46,0 36.92,1.64 55.06,4.96 78.67,14.39 138.83,58.65 165.06,121.44 l -12.6,5.24"
       style="fill:#f7f7d8;fill-opacity:1;fill-rule:nonzero;stroke:none"
       id="path3242" />
    <path
       inkscape:connector-curvature="0"
       d="m 5017.55,2913.77 938,0 0,50.3125 -938,0 0,-50.3125 z"
       style="fill:#b33d31;fill-opacity:1;fill-rule:nonzero;stroke:none"
       id="path3244" />
  </g>
  <text
     xml:space="preserve"
     style="font-size:40px;font-style:normal;font-variant:normal;font-weight:normal;font-stretch:normal;line-height:125%;letter-spacing:0px;word-spacing:0px;fill:#000000;fill-opacity:1;stroke:none;font-family:PRIMETIME;-inkscape-font-specification:PRIMETIME"
     x="45.338982"
     y="117.88136"
     id="text3554"
     sodipodi:linespacing="125%"><tspan
       sodipodi:role="line"
       id="tspan3556"
       x="45.338982"
       y="117.88136" /></text>
  <text
     xml:space="preserve"
     style="font-size:85.46203613px;font-style:normal;font-variant:normal;font-weight:normal;font-stretch:normal;text-align:center;line-height:124.00000095%;letter-spacing:-10.41034508px;word-spacing:0px;text-anchor:middle;fill:#000000;fill-opacity:1;stroke:none;font-family:Quicksand;-inkscape-font-specification:Quicksand"
     x="207.57086"
     y="148.0696"
     id="text3558"
     sodipodi:linespacing="124%"><tspan
       sodipodi:role="line"
       id="tspan3560"
       x="202.36568"
       y="148.0696">14th to 17th</tspan><tspan
       sodipodi:role="line"
       x="210.0132"
       y="254.04251"
       id="tspan3562">JANUARY </tspan></text>
</svg>
