<?xml version="1.0" encoding="UTF-8" standalone="no"?>
<!-- Created with Inkscape (http://www.inkscape.org/) -->

<svg
   xmlns:dc="http://purl.org/dc/elements/1.1/"
   xmlns:cc="http://creativecommons.org/ns#"
   xmlns:rdf="http://www.w3.org/1999/02/22-rdf-syntax-ns#"
   xmlns:svg="http://www.w3.org/2000/svg"
   xmlns="http://www.w3.org/2000/svg"
   xmlns:sodipodi="http://sodipodi.sourceforge.net/DTD/sodipodi-0.dtd"
   xmlns:inkscape="http://www.inkscape.org/namespaces/inkscape"
   version="1.1"
   width="400"
   height="535"
   id="svg3142"
   inkscape:version="0.48.4 r9939"
   sodipodi:docname="hot.svg">
  <metadata
     id="metadata14">
    <rdf:RDF>
      <cc:Work
         rdf:about="">
        <dc:format>image/svg+xml</dc:format>
        <dc:type
           rdf:resource="http://purl.org/dc/dcmitype/StillImage" />
      </cc:Work>
    </rdf:RDF>
  </metadata>
  <sodipodi:namedview
     pagecolor="#ffffff"
     bordercolor="#666666"
     borderopacity="1"
     objecttolerance="10"
     gridtolerance="10"
     guidetolerance="10"
     inkscape:pageopacity="0"
     inkscape:pageshadow="2"
     inkscape:window-width="1333"
     inkscape:window-height="742"
     id="namedview12"
     showgrid="false"
     inkscape:zoom="1.24768"
     inkscape:cx="273.20935"
     inkscape:cy="374.10189"
     inkscape:window-x="33"
     inkscape:window-y="0"
     inkscape:window-maximized="1"
     inkscape:current-layer="svg3142" />
  <defs
     id="defs3146" />
  <path
     style="fill:#e84e40"
     d="m 198.47083,11.109915 c -15.31895,-1.1540937 -48.23232,4.62697 -46.13395,7.581965 -16.26754,6.094212 -9.01379,2.735584 -14.33087,3.833046 -61.146687,24.800099 -104.254559,90.017934 -98.7023,156.477504 0.323815,35.31335 16.714476,68.08107 36.959789,96.12116 21.6463,53.36652 42.397021,107.17312 63.094791,160.94683 6.60802,18.50385 11.85221,37.73682 11.77473,57.4257 0.33167,15.1753 -12.82643,43.5682 14.39011,36.26683 28.13614,0.11337 56.27175,-0.2253 84.40751,-0.34678 -0.91622,-22.20494 -5.50545,-44.69059 0,-66.63289 5.82887,-30.03647 20.56656,-57.58296 30.82418,-86.30451 9.98811,-25.14324 19.95306,-50.29717 30.28434,-75.302 -8.23741,-0.20688 -27.07097,-1.53386 -6.81085,-1.05947 17.01879,-2.41947 16.31106,-33.4611 31.31452,-44.62267 C 374.17308,195.79205 365.22904,110.99161 315.1219,60.593353 285.07267,29.535822 242.01462,9.8325024 198.47083,11.109915 z m -94.06551,32.086706 c -6.420342,4.581496 -21.588085,18.47469 -7.700645,6.001888 2.496527,-2.089007 5.076675,-4.076175 7.700645,-6.001888 z M 63.653687,87.580709 c -3.742326,6.296258 -6.790104,11.718745 -1.321316,2.169463 l 1.321316,-2.169463 z M 48.821154,118.64579 c -1.232613,5.86565 -2.911606,7.67465 0,0 z m -2.686505,8.51357 c 0.149164,2.51466 -2.509634,7.43233 0,0 z m -1.362172,5.03247 c 0.622812,2.64752 -2.99135,8.50335 0,0 z m -3.670295,20.28122 c -1.127476,11.04999 -0.675597,39.05426 -0.900622,13.39294 0.104152,-4.47459 0.40076,-8.94501 0.900622,-13.39294 z m 34.167801,118.43324 c 5.548256,6.5974 7.380581,9.66682 0,0 z m 8.778439,12.29738 c 6.629178,6.87614 18.006858,11.52144 20.566718,21.29948 9.39554,33.37866 19.6019,66.54807 27.97956,100.19865 -9.00497,-16.88516 -14.93839,-36.99205 -22.72936,-55.13562 -8.43437,-22.17959 -18.110616,-43.94438 -25.816918,-66.36251 z m 208.639268,17.9731 c -14.26444,51.52272 -31.35651,102.25521 -47.676,153.16861 -11.75336,0.97879 -28.42236,3.03888 -19.58003,-15.17745 2.8633,-20.11152 5.47565,-40.28431 9.3259,-60.23388 19.00871,-11.16267 1.23484,-36.01946 10.49706,-53.18233 16.00697,-7.6826 33.11211,-13.52496 47.43307,-24.57495 z m -183.40126,2.80001 c 15.08266,12.98626 49.12625,12.39791 44.67536,38.79761 3.95524,10.41596 -8.79991,27.95975 4.95821,31.74619 10.37433,16.95731 7.67805,39.30114 12.11613,58.48683 2.69184,12.10569 6.91627,27.76254 -11.79756,21.85836 -17.79934,-5.50974 -13.5745,-36.6143 -22.35914,-52.3805 -9.27483,-32.81249 -18.89341,-65.53979 -27.593,-98.50849 z m 44.80031,20.16771 c 2.31918,-0.004 2.96159,30.38544 0.68108,8.05948 -1.35275,-2.90472 0.7894,-5.17071 -0.68108,-8.05948 z m 90.62224,0.34054 c -7.2019,9.11981 -3.4504,33.97782 -4.5406,35.83265 -3.75783,-6.53714 5.88516,-27.20004 -6.77793,-24.57978 -24.90214,-0.14734 -49.90211,1.44917 -74.72533,-0.65817 27.29388,0 54.58776,0 81.88164,0 4.53952,-9.34174 -8.51543,-4.08816 -13.72438,-5.33106 -13.83609,0.1228 -4.88358,-0.0183 3.51811,-0.0454 7.70568,1.19615 13.03838,-1.18639 12.96845,-4.8398 0.30186,1.26233 0.66052,-0.842 1.40004,-0.37843 z m -1.85407,4.27571 c -2.72275,6.75572 -0.27783,35.78667 -1.39175,30.07839 -0.37042,-9.94903 -0.98417,-20.33905 1.39175,-30.07839 z m -86.68708,0.18919 1.05947,0.41622 -1.05947,-0.41622 z m -0.3027,2.42164 c 1.83472,3.20909 0.48421,4.76294 0,0 z m 43.74084,3.85948 c -7.55172,-0.1055 -36.98702,0.3353 -14.51965,0.48659 8.94712,-0.003 40.01831,0.25833 34.34681,-0.33523 -6.60834,-0.11732 -13.2179,-0.14857 -19.82716,-0.15136 z m 29.96777,3.10273 c 12.88926,3.00904 8.13299,20.62536 5.22169,2.57299 -1.33493,-4.07399 -13.61377,-0.0922 -5.22169,-2.57299 z m -4.57841,2.49731 c -2.40185,11.64745 -3.28592,11.7195 -1.96754,1.17298 l 1.70272,-0.98379 0.26486,-0.18919 -4e-5,0 z m 5.60004,0.34054 c 5.21654,1.2873 8.53142,5.56304 0,0 z m -73.51942,1.05947 c -0.0236,7.38756 0.1946,14.96627 -1.59206,16.3086 1.16433,-5.36729 0.84803,-11.03422 1.59206,-16.3086 z m 67.73019,7.45411 c 6.26297,3.77543 7.59698,5.98568 0,0 z m -66.67072,2.64866 c -3.56664,10.61863 9.61971,4.90749 15.62453,6.19646 13.0767,-0.30212 7.12979,0.34478 22.35647,0.22901 9.34108,0.13085 43.12939,-0.16023 16.8854,-0.48406 -21.52208,0.052 15.92454,-0.46552 23.17669,0.36984 6.68597,2.52103 -12.7925,0.71025 -17.38338,1.25637 -20.23098,0.24323 -40.52922,-0.69159 -60.70366,0.86646 -8.12252,9.90798 36.39855,2.77391 8.83484,5.29347 -18.49673,3.45888 -8.93277,-0.6735 -8.79089,-13.72755 z m 78.1735,0.52974 c -7.57154,4.51777 -7.95997,3.99321 0,0 z m -38.85972,2.57299 c 0.87927,0.13527 4.46724,-0.13517 0,0 z m 40.78947,10.51899 c 15.35125,-0.98391 -12.96408,16.97674 0.35627,5.79892 -17.65529,0.68747 -38.35795,-1.00382 -57.91365,-0.27138 -10.02843,1.30319 -24.6352,0.23482 -20.40009,1.93688 -12.64225,-7.36039 25.89949,-0.38158 33.8492,-2.54978 11.20579,0.13018 30.74192,-0.16001 21.68762,-0.44705 3.61321,-0.73429 36.3899,1.83237 22.42065,-4.46759 z m -84.07625,0.15135 c 1.03253,8.46122 -1.14642,1.385 0,0 z m 33.18401,6.73518 c 11.306,3.04281 41.28438,-6.38905 40.41018,7.08851 -3.75575,11.16336 -20.57761,14.44806 -26.11392,3.1542 -5.33986,-12.43149 -7.82609,15.64861 -21.24803,6.2761 -11.48481,-2.93888 -19.42814,-21.19846 -0.61935,-16.49115 l 3.5241,-0.0297 4.04702,0.002 0,6e-5 z m 10.74602,9.11898 c 2.40495,12.80956 21.31174,4.0635 22.10395,12.46996 -0.42794,9.26436 -0.65959,14.63653 -0.35111,2.07263 0.0862,-2.09884 0.63859,14.72369 -9.4779,8.80352 -10.82687,0 -21.65374,0 -32.48061,0 -1.84138,-13.56459 2.37283,6.75783 13.49751,-0.20604 8.42789,-1.06822 20.53869,1.46525 27.13016,-1.61704 2.24677,-10.62956 0.89833,-14.8295 -11.2978,-12.38218 -6.87394,0.15218 12.26306,1.28784 -2.74341,0.88619 -8.118,0 -16.23601,0 -24.35401,0 7.51524,-0.37166 20.11029,-0.89245 5.58057,-0.97744 -16.3482,-0.61853 -0.69328,0.48993 7.00042,-1.15201 2.86065,-1.83715 16.734,4.96113 5.39207,-7.89767 l 1.6e-4,8e-5 z m 32.95698,0.15135 c 0.084,1.26634 -3.5449,2.44507 0,0 z m -3.21624,5.03247 c -1.95296,22.49373 -5.24509,45.34862 -8.89195,67.80589 -13.4744,-0.31381 -27.11914,0.87082 -40.44893,-1.21082 -3.40315,-22.01129 -7.56231,-44.2555 -8.69384,-66.40058 9.63072,5.9186 0.16174,25.06103 16.02751,19.78405 11.68166,0 23.36333,0 35.045,0 1.00628,-6.93937 -0.6732,-16.27447 6.96221,-19.97854 z m -28.3029,3.78381 c -11.80404,0.82325 11.22948,0.77551 0,0 z m -58.95175,37.53539 c 3.1333,-3.82185 -1.08618,9.20766 0,0 z m 116.65485,2.34597 c -2.88748,8.37544 -1.33969,3.97245 0,0 z m -109.95751,14.34063 c 0.68302,9.76302 6.76329,12.07343 15.67505,10.4741 21.21109,0.0845 42.42232,0.34199 63.6336,0.19625 -23.11389,2.35508 37.87118,1.0912 3.78381,0.0757 -5.23234,-1.49881 29.08159,0.29868 12.64133,1.47566 -30.57434,0 -61.14867,0 -91.72301,0 -2.85036,-1.5974 -0.29111,13.03979 -3.37476,-2.51844 -6.33692,-18.61894 5.84217,12.96263 0.65886,-5.45407 l -1.2948,-4.24918 -8e-5,10e-6 z m 103.22233,3.10273 -2.23245,3.59462 2.23245,-3.59462 z m -2.80002,6.20545 c 1.60173,2.73506 0.51472,0.28639 0,0 z m -78.6654,1.43784 c -13.72229,-0.1925 -17.68666,1.79871 -0.84828,1.28936 8.99813,-0.0604 10.98183,-1.35925 0.84828,-1.28936 z m 29.43804,0.41622 c -25.3317,0.0633 2.26961,1.13309 13.0364,0.31003 -4.336,-0.33633 -8.69099,-0.27706 -13.0364,-0.31003 z m 49.5679,2.68651 c -0.97588,7.31608 -0.22412,1.58628 0,0 z m -0.60541,3.82165 c -21.79804,0.8693 -45.90002,-0.0413 -68.54422,0.74007 -8.91365,0.0182 -19.89692,0.47762 -4.6142,0.58431 24.2184,0.18014 48.46532,0.7139 72.66653,-0.34065 -17.63072,3.21426 -44.90135,-0.61231 -66.06167,0.89497 -8.1611,0.53759 -43.31275,0.90787 -21.70065,-1.29591 29.41791,-0.21766 58.8361,-0.40416 88.25421,-0.58279 z m 1.02163,0.7946 c 0.64218,6.20676 -2.33689,0.84172 0,0 z m -99.0223,0.83243 c 2.58341,1.53679 -0.89339,5.67768 0,0 z m 98.30338,3.29192 c 0.212,2.83202 -0.76133,0.51013 0,0 z m -97.05472,0.26486 c 0.11748,2.64574 -1.49884,1.1412 0,0 z m 1.09731,0.60541 c 4.76435,10.57907 1.84688,1.7785 0.34054,12.25955 1.86076,-3.87961 -4.34662,-9.34638 -0.34054,-12.25955 z m 95.6547,1.21082 c -1.94456,12.9096 0.35002,38.1511 -0.9576,43.76174 -6.26578,-10.06163 2.99181,8.9718 -3.69841,-4.28743 4.03244,3.77875 3.42129,-18.13182 3.43612,-27.92621 1.38468,-8.83406 -3.15128,-5.2663 1.21989,-11.5481 z m -1.17298,0.75677 c -2.38305,7.67565 -12.88217,6.53944 -1.47564,2.27024 l 1.47568,-2.27029 -4e-5,5e-5 z m -47.71384,1.43784 c -0.32344,0.64706 -5.09793,2.79996 0,0 z m -13.84874,1.32434 c 8.61744,3.83065 4.54903,3.12622 0,0 z m -5.60004,0.37838 c -7.14921,2.50253 -10.11252,2.87039 0,0 z m -27.09208,18.80553 c 0.39947,9.50921 -1.52101,29.09354 -0.31071,8.12321 0.10648,-2.70761 0.26337,-5.41352 0.31071,-8.12321 z m 72.45996,15.81633 c -6.6204,3.99292 -9.74088,4.92906 0,0 z m -67.88155,1.21082 c 2.73744,-0.47588 -10.31107,3.95203 0,0 z m 34.09213,0 c 11.95431,6.26501 11.0022,4.27505 -2.80521,1.08698 -6.01096,3.56982 0.93282,-2.25297 2.80521,-1.08698 z m 16.1947,0 c 11.36738,1.98301 -13.05308,2.10137 0,0 z m -33.86509,0.0378 c 14.01496,6.81358 2.8549,3.01474 0,0 z m 55.01659,0.0378 c 4.11773,2.81156 3.98281,5.31102 0,0 z m -68.8275,0.34054 c 13.68458,8.44277 -1.97097,-0.75444 -1.85406,0.34055 l 1.19935,-0.22029 0.65471,-0.12026 0,0 z m 76.35728,0.22703 c -1.79368,4.56007 -3.41163,2.33059 0,0 z m -65.27072,0.30271 c 1.22904,1.84268 -5.57467,3.31843 -4e-5,0 l 4e-5,0 z m 40.94083,0.18931 c 8.51264,2.6112 -0.22304,3.09061 0,0 z m -59.67068,2.04326 c -0.54803,2.17329 -0.76816,-0.095 0,0 z m 14.90821,0.3027 -1.36217,0.41622 1.36217,-0.41622 z m -13.77307,0.0757 -1.40001,2.6865 1.40001,-2.6865 z m 65.53558,0.0378 c -0.56877,3.07476 -5.41386,0.36267 0,0 z m -33.94077,0.64331 c -0.099,2.12465 -6.5061,2.21457 0,0 z m 17.1785,0.22703 -1.62704,1.40001 1.62704,-1.40001 z m -50.62738,2.42164 c 4.08457,2.00786 -1.35227,1.24943 0,0 z m 94.7466,0.90811 -0.34055,0.87028 0.34055,-0.87028 z m 1.92974,0.30271 c 7.17024,9.65437 -5.52585,0.82071 0,0 z m -96.86553,0.26486 c 8.66066,6.45909 36.80506,0.10019 53.47332,1.87945 11.73724,0.33901 36.01137,-0.66514 40.52196,1.1401 -30.77422,-0.43612 -61.7041,-1.67063 -92.40608,0.53718 31.56782,0.0459 63.1563,0.98341 94.70876,-0.11352 4.50456,10.95875 -13.26558,4.52285 -19.65299,6.16331 -10.70319,-0.0564 -21.40622,-0.16434 -32.10953,-0.18489 17.01638,-1.56121 36.90009,2.56555 52.33009,-2.76214 -15.33534,-5.24907 -35.16111,-0.99484 -52.091,-2.42164 -14.61801,-0.23095 -30.65355,0.45932 -44.39615,-0.34054 -3.28181,5.83057 -0.17984,7.56545 14.16796,6.67799 11.94181,0.10884 18.54896,0.11762 2.71389,0.047 -8.81793,-1.35261 -25.1554,4.68344 -17.26023,-10.6223 z m 0.37838,3.89733 c 3.04409,0.13188 0.001,-1.12529 0,0 z m 98.11419,2.3838 c -0.14339,3.59934 -0.22314,1.73852 0,0 z"
     id="path3184"
     inkscape:connector-curvature="0" />
  <path
     style="font-size:62.09207535px;font-style:normal;font-variant:normal;font-weight:normal;font-stretch:normal;text-align:center;line-height:94.99999881%;letter-spacing:0px;word-spacing:0px;text-anchor:middle;fill:#ffffff;fill-opacity:1;stroke:none;font-family:Airstrike;-inkscape-font-specification:Airstrike"
     inkscape:connector-curvature="0"
     id="path2998"
     d="m 76.124715,131.78009 c 0.681204,-12.21127 1.362409,-24.42254 2.043614,-36.63382 -6.748518,-4.390104 -21.718443,6.87008 -12.502064,9.33126 2.839529,4.16073 -0.47725,15.04939 0.06203,21.72395 -2.861747,9.89338 5.641409,4.00577 10.39642,5.57861 z" />
  <path
     style="font-size:62.09207535px;font-style:normal;font-variant:normal;font-weight:normal;font-stretch:normal;text-align:center;line-height:94.99999881%;letter-spacing:0px;word-spacing:0px;text-anchor:middle;fill:#ffffff;fill-opacity:1;stroke:none;font-family:Airstrike;-inkscape-font-specification:Airstrike"
     inkscape:connector-curvature="0"
     id="path3000"
     d="m 112.5602,131.78009 c -8.6445,1.94874 -12.907704,-0.8941 -10.06965,-11.50317 1.32634,-15.55315 -0.38944,-0.0329 -7.933715,-1.6297 -5.294926,-1.54184 -17.577416,4.55135 -14.270739,-6.38909 1.68045,-6.289 -2.773455,-20.219829 6.450264,-17.11186 10.475629,-4.345061 0.171374,13.98436 6.495158,14.16969 9.126122,2.72168 11.575652,-2.88025 10.583042,-12.773462 4.05614,-3.638254 14.68147,-2.472998 10.29018,7.550102 -0.51484,9.22916 -1.02969,18.45833 -1.54454,27.68749 z" />
  <path
     style="font-size:62.09207535px;font-style:normal;font-variant:normal;font-weight:normal;font-stretch:normal;text-align:center;line-height:94.99999881%;letter-spacing:0px;word-spacing:0px;text-anchor:middle;fill:#ffffff;fill-opacity:1;stroke:none;font-family:Airstrike;-inkscape-font-specification:Airstrike"
     inkscape:connector-curvature="0"
     id="path3002"
     d="m 125.96357,131.78009 c 8.42679,1.94836 13.0076,-0.89392 11.3548,-11.50091 1.1326,-6.95741 -2.1981,-19.47438 7.46852,-15.80165 11.49724,-11.986887 -4.13566,-9.265744 -11.9922,-9.33126 -6.75445,-4.373946 -21.77219,6.84566 -12.54841,9.33126 10.21381,-3.72329 6.46418,7.81335 6.38885,15.33456 -0.22385,3.98933 -0.44771,7.97867 -0.67156,11.968 z" />
  <path
     style="font-size:62.09207535px;font-style:normal;font-variant:normal;font-weight:normal;font-stretch:normal;text-align:center;line-height:94.99999881%;letter-spacing:0px;word-spacing:0px;text-anchor:middle;fill:#ffffff;fill-opacity:1;stroke:none;font-family:Airstrike;-inkscape-font-specification:Airstrike"
     inkscape:connector-curvature="0"
     id="path3004"
     d="m 150.01713,131.78009 c 8.42894,1.94923 13.00661,-0.89432 11.34209,-11.50609 2.89608,-3.11433 16.22565,-4.08057 11.71582,6.04395 -4.04681,8.36141 13.34273,8.16888 10.58274,0.34995 0.58615,-10.50721 1.1723,-21.01442 1.75844,-31.52163 -8.42847,-1.998474 -12.86788,0.976169 -11.255,11.49611 -1.76701,5.48618 -12.27241,0.2444 -12.59267,9.93122 -0.95788,-6.45753 3.80939,-19.172095 -0.99356,-21.42733 -9.64006,-3.458693 -9.39215,5.39596 -9.29849,14.05851 -0.41979,7.52511 -0.83958,15.05021 -1.25937,22.57531 z" />
  <path
     style="font-size:62.09207535px;font-style:normal;font-variant:normal;font-weight:normal;font-stretch:normal;text-align:center;line-height:94.99999881%;letter-spacing:0px;word-spacing:0px;text-anchor:middle;fill:#ffffff;fill-opacity:1;stroke:none;font-family:Airstrike;-inkscape-font-specification:Airstrike"
     inkscape:connector-curvature="0"
     id="path3006"
     d="m 199.59114,118.30162 c 6.04271,-7.24894 6.37282,-11.31049 -4.12367,-9.33126 -5.4843,-0.28122 -12.88336,13.24091 -2.17551,9.33126 2.09973,0 4.19946,0 6.29918,0 z" />
  <path
     style="font-size:62.09207535px;font-style:normal;font-variant:normal;font-weight:normal;font-stretch:normal;text-align:center;line-height:94.99999881%;letter-spacing:0px;word-spacing:0px;text-anchor:middle;fill:#ffffff;fill-opacity:1;stroke:none;font-family:Airstrike;-inkscape-font-specification:Airstrike"
     inkscape:connector-curvature="0"
     id="path3008"
     d="m 221.67145,131.78009 c 0.6812,-12.21127 1.36241,-24.42254 2.04361,-36.63382 -6.74852,-4.390103 -21.71844,6.87007 -12.50207,9.33126 2.83953,4.16073 -0.47725,15.04939 0.062,21.72395 -2.86175,9.89338 5.64141,4.00577 10.39642,5.57861 z" />
  <path
     style="font-size:62.09207535px;font-style:normal;font-variant:normal;font-weight:normal;font-stretch:normal;text-align:center;line-height:94.99999881%;letter-spacing:0px;word-spacing:0px;text-anchor:middle;fill:#ffffff;fill-opacity:1;stroke:none;font-family:Airstrike;-inkscape-font-specification:Airstrike"
     inkscape:connector-curvature="0"
     id="path3010"
     d="m 226.31325,131.78009 c 7.17578,0.86021 13.71288,0.60623 15.62922,-7.70869 5.4558,-9.64171 10.91159,-19.28342 16.36738,-28.92513 -9.31499,0 -18.62998,0 -27.94497,0 -11.33976,12.0329 3.02076,9.27567 10.64409,9.33126 -4.89858,9.10086 -9.79715,18.2017 -14.69572,27.30256 z" />
  <path
     style="font-size:62.09207535px;font-style:normal;font-variant:normal;font-weight:normal;font-stretch:normal;text-align:center;line-height:94.99999881%;letter-spacing:0px;word-spacing:0px;text-anchor:middle;fill:#ffffff;fill-opacity:1;stroke:none;font-family:Airstrike;-inkscape-font-specification:Airstrike"
     inkscape:connector-curvature="0"
     id="path3012"
     d="m 269.11357,131.78009 c 8.42679,1.94836 13.0076,-0.89392 11.3548,-11.50091 1.13259,-6.95742 -2.19809,-19.47439 7.46852,-15.80165 11.49725,-11.986896 -4.13565,-9.265739 -11.99219,-9.33126 -6.75446,-4.373946 -21.7722,6.84566 -12.54842,9.33126 10.21381,-3.72329 6.46418,7.81335 6.38885,15.33456 -0.22386,3.98933 -0.44771,7.97867 -0.67156,11.968 z" />
  <path
     style="font-size:62.09207535px;font-style:normal;font-variant:normal;font-weight:normal;font-stretch:normal;text-align:center;line-height:94.99999881%;letter-spacing:0px;word-spacing:0px;text-anchor:middle;fill:#ffffff;fill-opacity:1;stroke:none;font-family:Airstrike;-inkscape-font-specification:Airstrike"
     inkscape:connector-curvature="0"
     id="path3014"
     d="m 293.16714,131.78009 c 8.42894,1.94923 13.00661,-0.89432 11.34209,-11.50609 2.89607,-3.11433 16.22565,-4.08057 11.71582,6.04395 -4.04681,8.36141 13.34273,8.16888 10.58274,0.34995 0.58615,-10.50721 1.17229,-21.01442 1.75843,-31.52163 -8.42846,-1.998474 -12.86787,0.976169 -11.25499,11.49611 -1.76701,5.48618 -12.27242,0.2444 -12.59267,9.93122 -0.95788,-6.45753 3.80939,-19.172095 -0.99357,-21.42733 -9.64005,-3.458693 -9.39214,5.39596 -9.29849,14.05851 -0.41979,7.52511 -0.83957,15.05021 -1.25936,22.57531 z" />
  <path
     style="font-size:62.09207535px;font-style:normal;font-variant:normal;font-weight:normal;font-stretch:normal;text-align:center;line-height:94.99999881%;letter-spacing:0px;word-spacing:0px;text-anchor:middle;fill:#ffffff;fill-opacity:1;stroke:none;font-family:Airstrike;-inkscape-font-specification:Airstrike"
     inkscape:connector-curvature="0"
     id="path3016"
     d="m 97.629346,197.4445 c 16.025314,2.0371 12.311124,-20.37222 13.864634,-33.64415 0.0817,-5.97169 -14.87576,-4.76155 -10.85122,4.67987 -0.37242,8.586 0.4992,22.20707 -9.848487,19.63302 -10.156808,-3.7345 -13.888279,14.23785 -1.508062,9.33126 2.781045,0 5.56209,0 8.343135,0 z" />
  <path
     style="font-size:62.09207535px;font-style:normal;font-variant:normal;font-weight:normal;font-stretch:normal;text-align:center;line-height:94.99999881%;letter-spacing:0px;word-spacing:0px;text-anchor:middle;fill:#ffffff;fill-opacity:1;stroke:none;font-family:Airstrike;-inkscape-font-specification:Airstrike"
     inkscape:connector-curvature="0"
     id="path3018"
     d="m 152.2512,197.4445 c -4.84127,-11.89004 -7.7235,-24.57175 -14.06266,-35.8735 -7.72681,-3.11283 -14.41556,0.0225 -15.5802,8.74252 -3.34862,9.0929 -7.46057,17.81681 -10.35024,27.13098 7.93191,-0.87927 17.75728,1.7589 24.50872,-1.31329 3.41657,-13.92356 3.77971,7.89939 15.48438,1.31329 z m -24.79256,-9.95334 c 2.54719,-2.95488 4.52449,-22.28292 7.5961,-10.17085 6.8282,11.44745 1.12368,12.22096 -7.08456,10.86206 l -0.34697,0 -0.16457,-0.69121 z" />
  <path
     style="font-size:62.09207535px;font-style:normal;font-variant:normal;font-weight:normal;font-stretch:normal;text-align:center;line-height:94.99999881%;letter-spacing:0px;word-spacing:0px;text-anchor:middle;fill:#ffffff;fill-opacity:1;stroke:none;font-family:Airstrike;-inkscape-font-specification:Airstrike"
     inkscape:connector-curvature="0"
     id="path3020"
     d="m 154.86494,197.4445 c 8.43008,1.94969 13.00608,-0.89455 11.33535,-11.50883 -0.88514,-15.2791 3.00071,-2.91504 6.22488,5.61519 1.2026,9.70493 12.58942,5.9542 15.86654,4.61559 0.65744,-11.78525 1.31487,-23.57052 1.97231,-35.35578 -8.42859,-1.99852 -12.86781,0.97619 -11.25425,11.49642 0.86191,15.25954 -3.03518,2.96321 -6.28647,-5.59375 -1.22727,-9.70807 -12.59984,-5.96847 -15.88605,-4.62462 -0.65744,11.78525 -1.31487,23.57052 -1.97231,35.35578 z" />
  <path
     style="font-size:62.09207535px;font-style:normal;font-variant:normal;font-weight:normal;font-stretch:normal;text-align:center;line-height:94.99999881%;letter-spacing:0px;word-spacing:0px;text-anchor:middle;fill:#ffffff;fill-opacity:1;stroke:none;font-family:Airstrike;-inkscape-font-specification:Airstrike"
     inkscape:connector-curvature="0"
     id="path3022"
     d="m 192.03645,175.85762 c 0.2763,-8.06671 -1.9915,-19.13954 7.93137,-15.80775 5.30079,1.39133 -1.06784,37.66252 14.46443,24.56001 2.80898,-7.20749 1.23809,-16.86822 2.00932,-25.20761 8.51503,-2.35384 12.65982,0.48863 10.17399,11.21505 1.46016,14.87317 -3.2124,29.2482 -17.42968,26.06508 -10.84454,3.10813 -19.12691,-8.55806 -17.1494,-20.82482" />
  <path
     style="font-size:62.09207535px;font-style:normal;font-variant:normal;font-weight:normal;font-stretch:normal;text-align:center;line-height:94.99999881%;letter-spacing:0px;word-spacing:0px;text-anchor:middle;fill:#ffffff;fill-opacity:1;stroke:none;font-family:Airstrike;-inkscape-font-specification:Airstrike"
     inkscape:connector-curvature="0"
     id="path3024"
     d="m 268.92825,197.4445 c -4.84126,-11.89004 -7.72348,-24.57174 -14.06265,-35.8735 -7.72681,-3.11283 -14.41556,0.0225 -15.5802,8.74252 -3.34861,9.0929 -7.46058,17.81681 -10.35024,27.13098 7.9319,-0.87927 17.75727,1.7589 24.50872,-1.31329 3.41655,-13.92356 3.77971,7.89938 15.48437,1.31329 z m -24.79255,-9.95334 c 2.54719,-2.95488 4.52449,-22.28292 7.59609,-10.17085 6.8282,11.44745 1.12369,12.22096 -7.08455,10.86206 l -0.34698,0 -0.16456,-0.69121 z" />
  <path
     style="font-size:62.09207535px;font-style:normal;font-variant:normal;font-weight:normal;font-stretch:normal;text-align:center;line-height:94.99999881%;letter-spacing:0px;word-spacing:0px;text-anchor:middle;fill:#ffffff;fill-opacity:1;stroke:none;font-family:Airstrike;-inkscape-font-specification:Airstrike"
     inkscape:connector-curvature="0"
     id="path3026"
     d="m 271.542,197.4445 c 8.42974,1.94954 13.00624,-0.89449 11.33737,-11.50801 3.79388,-2.61918 11.59335,12.12971 17.35257,11.50801 11.45486,2.11377 8.91944,-2.2732 -0.23991,-9.73805 -10.70892,-7.68452 19.07709,-6.06344 4.41873,-23.2324 -8.18777,-6.90098 -17.1888,-2.34858 -25.70486,-3.66338 -8.97543,-2.67303 -4.29616,11.65795 -6.11843,17.89266 -0.34849,6.24705 -0.69698,12.49411 -1.04547,18.74117 z m 24.93415,-25.29808 c -2.45597,3.38048 -13.97526,2.95989 -13.24885,7.43164 -2.20926,-10.80365 4.67922,-10.26878 11.75116,-9.50525 1.07723,-0.17454 1.3052,1.24938 1.49769,2.07361 z" />
  <path
     style="font-size:62.09207535px;font-style:normal;font-variant:normal;font-weight:normal;font-stretch:normal;text-align:center;line-height:94.99999881%;letter-spacing:0px;word-spacing:0px;text-anchor:middle;fill:#ffffff;fill-opacity:1;stroke:none;font-family:Airstrike;-inkscape-font-specification:Airstrike"
     inkscape:connector-curvature="0"
     id="path3028"
     d="m 316.03921,197.4445 c 8.42599,1.94802 13.00796,-0.89378 11.35952,-11.49899 0.22072,-11.351 9.18427,-16.5471 13.33012,-25.13484 -7.24515,-0.62533 -14.25463,-0.81639 -16.81585,7.18971 -3.12734,-2.59789 -9.68904,-10.92705 -16.80621,-7.18971 -0.34665,5.09798 10.07761,14.76678 9.77269,21.77082 -0.28009,4.95433 -0.56018,9.90867 -0.84027,14.86301 z" />
  <path
     style="font-size:62.09207535px;font-style:normal;font-variant:normal;font-weight:normal;font-stretch:normal;text-align:center;line-height:94.99999881%;letter-spacing:0px;word-spacing:0px;text-anchor:middle;fill:#ffffff;fill-opacity:1;stroke:none;font-family:Airstrike;-inkscape-font-specification:Airstrike"
     inkscape:connector-curvature="0"
     id="path3030"
     d="m 156.17712,253.36292 c 7.77599,1.13087 15.5455,0.15993 23.319,0.48385 -0.8469,12.83362 -12.25899,8.6678 -20.61771,9.26214 -16.51963,6.39897 -15.96665,-21.83511 -2.21513,-22.46414 3.96514,1.11694 18.47859,-0.35782 10.22348,-4.76931 -6.66819,0 -13.33639,0 -20.00459,0 0.84429,-12.89477 12.38622,-8.85828 20.8079,-9.40037 16.73864,-5.85791 15.22086,23.57126 1.48725,23.15533 -4.13558,1.2591 -12.59011,-3.20293 -13.0002,3.7325 z" />
  <path
     style="font-size:62.09207535px;font-style:normal;font-variant:normal;font-weight:normal;font-stretch:normal;text-align:center;line-height:94.99999881%;letter-spacing:0px;word-spacing:0px;text-anchor:middle;fill:#ffffff;fill-opacity:1;stroke:none;font-family:Airstrike;-inkscape-font-specification:Airstrike"
     inkscape:connector-curvature="0"
     id="path3032"
     d="m 220.27111,243.27135 c -1.39704,-18.72739 -21.45592,-19.09242 -30.16076,-14.93002 -15.32239,7.29605 -4.0902,41.53516 14.30325,34.76758 9.86149,1.10355 16.64645,-8.439 15.8575,-19.83756 z m -26.9493,2.07361 c -2.4155,-11.97808 17.01774,-13.92506 16.55976,0.20736 -0.11755,9.17302 -13.72492,13.03522 -16.55977,-0.20736" />
  <path
     style="font-size:62.09207535px;font-style:normal;font-variant:normal;font-weight:normal;font-stretch:normal;text-align:center;line-height:94.99999881%;letter-spacing:0px;word-spacing:0px;text-anchor:middle;fill:#ffffff;fill-opacity:1;stroke:none;font-family:Airstrike;-inkscape-font-specification:Airstrike"
     inkscape:connector-curvature="0"
     id="path3034"
     d="m 237.30442,263.10891 c 0.6812,-12.21127 1.3624,-24.42255 2.04361,-36.63382 -6.74852,-4.3901 -21.71845,6.87006 -12.50207,9.33125 2.83953,4.16074 -0.47725,15.0494 0.062,21.72395 -2.86174,9.89339 5.64142,4.00578 10.39643,5.57862 z" />
  <path
     style="font-size:62.09207535px;font-style:normal;font-variant:normal;font-weight:normal;font-stretch:normal;text-align:center;line-height:94.99999881%;letter-spacing:0px;word-spacing:0px;text-anchor:middle;fill:#ffffff;fill-opacity:1;stroke:none;font-family:Airstrike;-inkscape-font-specification:Airstrike"
     inkscape:connector-curvature="0"
     id="path3036"
     d="m 263.16806,253.84677 c -6.29575,0.87204 -14.57491,-1.7214 -19.67246,1.24416 -8.81681,12.48587 8.02784,6.76678 14.67361,8.01798 13.27975,5.60618 24.54513,-13.66392 6.65272,-22.46414 -3.27525,0.24763 -16.00897,1.25944 -11.52821,-4.76931 6.80335,-1.6294 17.92879,4.10723 20.54098,-4.70019 4.80019,-8.88673 -11.4228,-3.01219 -16.82201,-4.70018 -5.54057,1.5514 -17.21688,-4.55352 -15.23554,6.38388 -3.43891,11.65603 10.55544,19.65739 18.34691,16.77145 2.18963,-0.8125 5.00651,1.04516 3.044,4.21635 z" />
</svg>
