<?xml version="1.0" encoding="UTF-8" standalone="no"?>
<!-- Created with Inkscape (http://www.inkscape.org/) -->

<svg
   xmlns:dc="http://purl.org/dc/elements/1.1/"
   xmlns:cc="http://creativecommons.org/ns#"
   xmlns:rdf="http://www.w3.org/1999/02/22-rdf-syntax-ns#"
   xmlns:svg="http://www.w3.org/2000/svg"
   xmlns="http://www.w3.org/2000/svg"
   version="1.1"
   width="400"
   height="535"
   id="svg3142">
  <metadata
     id="metadata3148">
    <rdf:RDF>
      <cc:Work
         rdf:about="">
        <dc:format>image/svg+xml</dc:format>
        <dc:type
           rdf:resource="http://purl.org/dc/dcmitype/StillImage" />
        <dc:title></dc:title>
      </cc:Work>
    </rdf:RDF>
  </metadata>
  <defs
     id="defs3146" />
  <path
     d="m 198.47083,11.109915 c -11.55009,0 -23.10017,0.749209 -30.27048,2.270286 -5.73898,1.21744 -11.22558,2.643454 -16.53525,4.275705 1.64954,-0.221665 3.42847,-0.346053 5.33517,-0.340543 -6.26017,1.742934 -12.35075,3.857659 -18.2758,6.318962 0.95482,-0.986401 2.00451,-1.880251 3.21624,-2.648667 -21.1799,7.964329 -39.19845,19.825347 -56.151736,36.778631 -23.545598,23.545612 -37.284513,49.084701 -44.346249,82.373541 -3.042154,14.34062 -3.042154,46.20032 0,60.54095 4.692209,22.11894 13.55616,43.13345 25.389363,60.20041 3.470862,5.00601 7.241193,10.54509 8.400057,12.29738 1.819728,2.75159 11.843324,26.8524 11.843324,28.49209 0,0.32383 13.151881,33.98547 29.248851,74.80592 27.47565,69.67577 31.05112,80.11799 31.32994,91.0763 0.0322,1.26413 0.85126,3.80966 1.81623,5.67571 2.03678,3.9387 2.30885,24.65298 0.45406,34.39483 -1.59671,8.38637 -2.49581,18.9792 -1.77839,20.84879 0.47785,1.24509 10.81392,1.50094 51.19494,1.24866 l 50.58954,-0.3027 -0.15135,-4.84328 c -0.0708,-2.6638 -0.53749,-8.38492 -1.05947,-12.7136 -1.60273,-13.29104 -2.06308,-36.3776 -0.75676,-37.95161 0.66472,-0.80095 1.54208,-5.81543 1.96758,-11.1244 0.80493,-10.04348 2.55078,-14.96317 29.47588,-82.90327 14.52645,-36.65462 24.40397,-61.26812 31.63264,-78.70324 -2.27653,-0.14679 -4.53415,-0.27195 -6.81085,-0.41622 -3.53498,-0.10232 -7.05823,-0.20468 -10.59467,-0.30271 0.30587,-0.22198 0.6039,-0.457 0.90811,-0.68108 3.23242,0.10594 6.44897,0.24695 9.68656,0.34054 2.36158,0.14955 4.71437,0.30108 7.07572,0.45406 5.67105,-13.66159 9.61826,-22.61539 12.67576,-28.87047 22.28071,-27.45264 35.64349,-62.4242 35.64349,-100.53583 0,-61.04231 -34.27376,-114.074298 -84.60598,-140.946906 -13.88646,-7.687808 -29.02986,-13.17944 -46.276,-16.837953 -7.17031,-1.521077 -18.72039,-2.270286 -30.27047,-2.270286 z m -94.06551,32.086706 c -1.07538,0.804229 -2.16205,1.629013 -3.21624,2.459477 -0.28156,0.221711 -0.55211,0.457534 -0.83244,0.681085 -0.808547,0.64582 -1.62602,1.268652 -2.421637,1.929743 -0.846847,0.699947 -1.664234,1.442189 -2.497314,2.156772 -0.970048,0.832073 -1.926244,1.685634 -2.875695,2.535152 -1.017512,0.910419 -2.035678,1.79696 -3.027048,2.724343 1.534156,-1.468009 3.089659,-2.930373 4.691924,-4.351381 3.268255,-2.898523 6.68424,-5.570675 10.17845,-8.135191 z M 63.653687,87.580709 c -1.737713,2.870077 -3.47246,5.82766 -5.070304,8.778438 1.589661,-2.971265 3.286298,-5.896858 5.070304,-8.778438 z M 48.821154,118.64579 c -0.360794,1.25031 -0.526176,1.97556 -0.491896,2.19461 -0.198796,0.5993 -0.375707,1.21379 -0.567571,1.81622 -0.158466,0.18146 -0.34747,0.50374 -0.60541,1.09731 0.528845,-1.70618 1.077122,-3.41951 1.664877,-5.10814 z m -2.686505,8.51357 c -0.04877,0.3233 -0.07568,0.63087 -0.07568,0.87027 0,0.10789 0.0308,0.1434 0.03784,0.22703 -0.25841,0.92897 -0.552649,1.86433 -0.7946,2.80002 -0.06815,-0.10861 -0.129983,-0.18023 -0.189191,-0.18919 0.321669,-1.24431 0.669175,-2.47186 1.021629,-3.70813 z m -1.362172,5.03247 c -0.01253,0.35236 0.0023,0.65546 0.03784,0.90811 -0.239532,0.97959 -0.459721,1.96478 -0.681085,2.95137 -0.06559,-0.17487 -0.176071,-0.0832 -0.340543,0.37838 0.311753,-1.41956 0.632456,-2.82767 0.98379,-4.23786 z m -3.670295,20.28122 c -0.131992,1.77308 -0.215484,3.70297 -0.302705,5.67571 -0.345833,4.29004 -0.529733,8.63722 -0.529733,13.0163 0,2.75597 0.05123,5.48918 0.18919,8.21087 -0.546714,-9.0308 -0.354032,-18.02808 0.643248,-26.90288 z m 34.167801,118.43324 c 0.702386,0.87664 1.398583,1.74946 2.118934,2.61083 1.12911,1.51536 2.085079,2.75077 2.724343,3.44326 -1.417985,-1.53605 -3.064588,-3.62246 -4.843277,-6.05409 z m 8.778439,12.29738 c 0.269903,-0.26989 4.6826,3.35576 9.837905,8.05951 l 9.383843,8.55141 14.87038,51.8382 c 8.1751,28.50841 14.68927,52.38306 14.45415,53.04901 -0.23512,0.66595 -0.9873,-0.15135 -1.66488,-1.81623 -0.67757,-1.66488 -9.71716,-24.54936 -20.09203,-50.8544 -10.37487,-26.30505 -20.76851,-52.44318 -23.081235,-58.08148 -2.312737,-5.63829 -3.978037,-10.47612 -3.708133,-10.74602 z m 208.639268,17.9731 c 0.22487,0.67464 -3.70289,14.42769 -8.7406,30.57318 -5.03771,16.14548 -11.34528,36.44565 -14.0001,45.10301 -2.6548,8.65736 -7.05866,22.55151 -9.80007,30.87589 -2.7414,8.32438 -7.27555,22.21853 -10.06493,30.87588 l -5.0703,15.74065 -10.55683,0.34054 c -10.07288,0.33343 -10.55683,0.21507 -10.55683,-2.23244 0,-5.15509 9.69923,-70.84095 10.85953,-73.51943 0.65743,-1.51758 3.16829,-3.92272 5.5622,-5.33517 4.30347,-2.5391 4.35918,-2.63476 3.59462,-8.7406 -1.66403,-13.28908 -2.05,-27.69074 -0.75676,-28.98398 0.71538,-0.71538 1.32433,-3.36673 1.32433,-5.90274 0,-4.30168 0.34512,-4.74399 5.14598,-6.62167 1.20757,-0.47229 2.7455,-1.16025 4.42706,-1.92974 13.85945,-4.99209 26.85427,-11.82789 38.6327,-20.24338 z m -183.40126,2.80001 c 0.24378,-0.24378 3.91607,1.65402 8.17303,4.23787 7.62573,4.6286 14.46632,8.05086 27.88668,13.92442 6.46324,2.8287 6.85164,3.25239 7.68113,8.24871 1.27096,7.65535 1.38816,27.31679 0.18919,34.50834 l -1.02163,6.16761 4.65409,2.30812 c 6.17715,3.01641 6.68182,4.79491 12.03251,44.04355 2.40589,17.64769 4.64806,33.31266 4.99463,34.81105 0.6178,2.67094 0.41269,2.72434 -10.3298,2.72434 -6.02645,0 -11.26239,-0.48684 -11.61629,-1.05947 -1.11055,-1.7969 -43.10999,-149.44809 -42.64354,-149.91454 z m 44.80031,20.16771 c 0.90849,0.27187 1.80914,0.53855 2.72434,0.7946 -1.14982,0.10437 -1.92974,0.22041 -1.92974,0.34054 0,0.54996 0.25472,1.72346 0.60541,2.72435 -0.0172,0.014 -0.0202,0.0202 -0.0378,0.0378 -0.26605,0.26605 -0.19447,1.31522 0.15135,2.57299 -0.0955,0.17089 -0.20604,0.57909 -0.37838,1.24866 -0.31818,1.23615 0.0283,2.86622 0.75676,3.59462 0.26739,0.26739 0.49283,1.09194 0.68109,2.27029 -0.16028,0.0317 -0.25591,1.02414 -0.26487,2.80002 -0.004,0.66593 0.0127,1.23067 0.0378,1.70271 -0.3551,-2.21079 -0.97862,-6.02746 -1.66488,-10.0271 l -0.6054,-3.4432 c 0.0771,0.008 0.14101,0.0109 0.22702,-0.0757 0.68122,-0.68122 0.37087,-2.8128 -0.3027,-4.54057 z m 90.62224,0.34054 c -0.69555,0.85384 -1.13186,1.87379 -1.5892,3.32976 0.007,0 -0.004,0.031 0,0.0378 -0.1028,0.0291 -0.50376,0.59735 -1.28649,1.77839 -0.22634,0.34152 -0.42223,1.05139 -0.60541,2.04326 -1.1868,6.42602 -1.41876,24.67848 -0.30271,31.4813 l -0.0757,-0.22703 -0.68109,-2.61083 c 0.0276,-0.16524 -0.10014,-5.49832 -0.30271,-12.2217 l -0.37838,-12.4109 -39.31378,0.3406 c -26.84846,0.22898 -38.52717,-0.0483 -41.50839,-0.94595 l 40.2219,0 41.65974,0 0.52973,-2.72434 0.15136,-0.68109 0.37838,-2.04326 -0.15136,0 -23.53529,0.1892 c 0.0762,-0.008 0.15088,-0.0292 0.22703,-0.0378 l 23.30826,-0.15135 0.37839,-2.72435 0.15135,-1.13514 c 0.097,0.15997 0.14262,0.33616 0.15135,0.52973 0.0601,1.33077 0.32701,1.5432 0.71892,0.56757 0.2003,-0.49865 0.26858,-1.22406 0.22703,-1.92974 0.0764,-0.0214 0.1507,-0.0541 0.22703,-0.0757 0.0716,0.62128 0.28847,0.54513 0.7946,-0.22702 0.19906,-0.0572 0.40668,-0.0935 0.60541,-0.15136 z m -1.85407,4.27571 c -1.45224,5.61809 -1.79895,24.43972 -0.75676,33.97861 -0.0727,-0.35214 -0.13906,-0.67636 -0.22703,-1.05947 -1.30648,-5.69022 -0.83344,-27.90248 0.68109,-32.04887 0.14068,-0.38514 0.20966,-0.60763 0.3027,-0.87027 z m -86.68708,0.18919 c 0.24718,0.1449 0.58477,0.30344 1.05947,0.41622 -0.63693,-0.11842 -0.9385,-0.26258 -1.05947,-0.41622 z m -0.3027,2.42164 c 0.0559,0.16546 0.0878,0.3247 0.15135,0.49189 l 0.90812,2.42164 c -0.30452,-0.14342 -0.52494,-0.21546 -0.64325,-0.22703 -0.18585,-0.55137 -0.30797,-1.16321 -0.34054,-1.77839 -0.0208,-0.39442 -0.053,-0.6477 -0.0757,-0.90811 z m 43.74084,3.85948 c -7.24221,-1.4e-4 -14.53138,0.0513 -20.12987,0.15136 -2.79924,0.05 -4.36323,0.10788 -4.7676,0.15135 0.80099,0.10933 9.59709,0.22671 24.36774,0.22703 21.97636,4.6e-4 31.13629,-0.17791 20.35689,-0.37838 -5.3897,-0.10026 -12.58495,-0.15121 -19.82716,-0.15136 z m 29.96777,3.10273 c 1.11956,-0.0503 2.25497,0.074 3.32975,0.41622 -0.33556,0.17652 0.29415,0.94697 1.5892,1.85406 1.48009,1.03669 2.74747,2.80752 2.80002,3.93516 0.0638,1.36953 0.29538,1.51185 0.71893,0.45406 0.0792,-0.19791 0.0979,-0.4214 0.0757,-0.68108 0.3097,1.26409 0.37112,2.61016 0.18919,3.93516 -0.0878,-1.13649 -0.25371,-1.11386 -0.71892,0.15135 -0.38315,1.04204 -0.93895,1.97107 -1.5892,2.80002 2.10466,-3.08407 2.11525,-7.62931 -1.17298,-10.29196 -1.48893,-1.20566 -3.65893,-2.19461 -4.84328,-2.19461 -1.28735,0 -2.47328,0.34504 -3.4811,0.94595 0.31975,-0.34522 0.47807,-0.632 0.37838,-0.7946 0.86049,-0.31451 1.78335,-0.48745 2.72434,-0.52973 z m -4.57841,2.49731 c -2.75208,2.80813 -3.45397,7.79782 -0.56757,11.1244 -1.06347,-1.02735 -1.79562,-2.26234 -1.85407,-3.44327 -0.0682,-1.37745 -0.26276,-1.48177 -0.71892,-0.34054 -0.022,0.055 -0.0259,0.12549 -0.0378,0.18919 -0.4261,-2.03406 -0.12218,-4.26457 1.21082,-6.3568 0.30317,-0.14095 0.83559,-0.46305 1.70272,-0.98379 0.0998,-0.0599 0.17014,-0.12855 0.26486,-0.18919 z m 5.60004,0.34054 c 1.32209,7.8e-4 2.63448,0.35117 3.6703,1.21082 0.63321,0.52552 1.05008,1.28403 1.32433,2.11894 -0.83888,-2.04822 -2.8733,-3.19056 -4.99463,-3.32976 z m -73.51942,1.05947 c 0.22318,3.66756 0.23145,7.96903 0.0378,11.31359 -0.0271,-0.6323 -0.0858,-1.27845 -0.18919,-1.81623 -0.28962,-1.50615 -0.5163,-0.54487 -0.52974,2.11894 -0.0121,2.33079 0.16803,3.56812 0.41622,3.06488 -0.1526,0.8972 -0.33616,1.52186 -0.56757,1.66488 -0.43154,0.26671 -0.86442,1.48576 -1.24866,2.98921 1.39738,-8.23138 2.06327,-15.32123 1.66488,-17.89742 0.0737,0.0542 0.17453,-0.0712 0.26487,-0.41622 0.0758,-0.28941 0.11224,-0.63097 0.15135,-1.02163 z m 67.73019,7.45411 c 0.23133,0.34398 0.52132,0.7117 0.87028,1.0973 1.70094,1.87953 3.83208,2.4965 5.71355,2.11893 -2.65146,0.67353 -5.41712,-0.7789 -6.58383,-3.21623 z m -66.67072,2.64866 -0.22703,6.3568 26.18396,-0.26486 c -8.06442,0.18944 -0.40633,0.34002 18.61634,0.34054 14.04739,3.9e-4 22.30227,-0.10486 22.58935,-0.22703 -0.28115,-0.045 -1.60328,-0.1005 -4.04868,-0.15135 -4.82342,-0.10026 -11.25467,-0.14979 -17.74607,-0.15135 23.34753,-0.18975 34.40476,0.0856 35.26511,0.94595 0.39761,0.39761 0.49909,0.47331 0.75676,0.71892 l -41.16785,0 c -36.23291,0 -41.66973,0.23759 -41.69758,1.81623 -0.0176,0.99893 -0.37634,2.3611 -0.7946,3.02705 -0.36021,0.5735 7.12295,0.93188 21.87042,1.0973 -17.5391,0.24042 -21.75111,0.64095 -22.47583,1.77839 0.12669,-1.60013 0.59767,-3.89142 1.32433,-5.97842 0.71061,-2.04088 1.23627,-5.54246 1.55137,-9.30817 z m 78.1735,0.52974 c -0.1051,0.12127 -0.18957,0.26525 -0.3027,0.37838 -1.8306,1.8306 -3.88575,2.50272 -5.86491,2.42164 2.17881,0 4.54713,-1.18683 6.16761,-2.80002 z m -38.85972,2.57299 c 0.27959,0.0289 0.62025,0.0378 1.02163,0.0378 0.38653,0 0.70995,-0.0109 0.98379,-0.0378 -0.68077,0.13757 -1.32666,0.12757 -2.00542,0 z m 40.78947,10.51899 3.36759,0 c 0.68521,2.04451 1.09665,2.11944 1.05946,0.71892 0.18848,1.0707 0.32152,1.87092 0.34055,2.49732 -0.0834,-0.12242 -0.15869,-0.18919 -0.26487,-0.18919 -0.29367,0 -0.87491,0.54486 -1.2865,1.21081 -0.36921,0.5974 -0.20445,1.07639 0.34055,1.17299 -0.5313,0.24597 -1.26243,0.47856 -2.23245,0.75676 -2.05903,0.59053 -4.03456,2.25038 -5.75139,4.69192 1.19524,-2.02112 2.70967,-3.75135 3.82165,-4.20003 2.05023,-0.82725 1.46021,-1.08925 -2.83786,-1.13514 -3.79278,-0.0406 -4.94152,0.27936 -3.70813,1.05947 -0.97454,-0.6164 -15.70111,-1.12546 -32.7678,-1.13515 -23.35126,-0.0139 -31.22755,0.0896 -32.80563,2.19461 0.0522,-0.13068 0.14584,-0.24271 0.22703,-0.34054 0.50298,-0.60605 0.0343,-1.02744 -1.40001,-1.24866 -0.0165,-0.0462 -0.0632,-0.0632 -0.11345,-0.11345 -0.40236,-0.4023 -1.43407,-0.46328 -2.30812,-0.11345 -0.0366,0.0147 -0.0427,0.0235 -0.0757,0.0378 -0.0437,-0.001 -0.0691,10e-4 -0.11345,0 -3.91783,-0.0966 -4.44993,0.099 -2.3838,0.87028 0.83615,0.3121 2.00608,1.35837 3.10272,2.72434 -1.31863,-1.5504 -2.88575,-2.63495 -4.72976,-3.40543 -0.93216,-0.38948 -1.63031,-0.68103 -2.19461,-0.98379 0.0413,-0.33876 -0.0109,-0.94101 -0.22703,-1.77839 0.27811,0.5667 0.79593,0.99649 1.51352,1.13515 1.0698,0.20669 10.12921,0.27633 21.60556,0.26486 -1.04861,0.13371 6.67464,0.22657 20.6596,0.22703 13.11089,4.4e-4 20.80049,-0.10643 21.07582,-0.22703 -0.25966,-0.0446 -1.46684,-0.10001 -3.74597,-0.15135 -1.0129,-0.0228 -2.3329,-0.0201 -3.48111,-0.0378 15.61067,-0.18068 28.52163,-0.4836 28.79479,-0.75676 0.3472,-0.34721 0.28411,-1.46113 -0.11345,-2.49731 -0.21892,-0.57052 -0.96947,-0.98538 -3.36759,-1.24866 z m -84.07625,0.15135 c -0.16434,1.54073 -0.21893,2.9318 -0.0378,3.70813 -0.41742,-0.76154 -0.30756,-1.84126 0.0378,-3.70813 z m 33.18401,6.73518 c 3.28955,0.0121 7.04936,0.075 11.35143,0.11345 35.1778,0.31513 34.56037,0.0579 26.41099,10.36764 l -4.91896,6.24329 -7.1514,0 c -6.42894,0 -7.3899,-0.3376 -9.49736,-3.32975 -1.28987,-1.83137 -2.71318,-4.55571 -3.1784,-6.0541 -1.27832,-4.1172 -2.52931,-3.33082 -5.29733,3.32975 l -2.53515,6.0541 -7.3406,0 c -7.90719,0 -8.70288,-0.48225 -15.05956,-8.81628 -5.36712,-7.03666 -5.8105,-7.9899 17.21634,-7.90816 z m 10.74602,9.11898 3.36759,4.42706 c 3.24465,4.25396 3.59655,4.38922 11.1244,4.38922 l 7.79464,0 -0.37838,7.56762 -0.34054,7.56762 0.11345,-5.75139 0.11346,-5.78923 -0.4919,5.48652 -0.49189,5.44869 -20.50825,0 -20.50825,0 0,-6.62167 c 0.0596,2.87704 0.41404,5.40866 0.83244,5.82707 0.45986,0.45983 9.5864,0.71211 20.28122,0.52973 l 19.44878,-0.34054 0.34054,-6.3568 0.34055,-5.48653 c 0.46907,0.0693 0.78908,0.0836 0.83243,0.11346 0.16649,0.1149 0.30271,-0.31784 0.30271,-0.98379 0,-0.70827 -3.39223,-1.14388 -8.17303,-1.02163 l -8.17303,0.22703 7.87033,0.7946 -13.28118,0 -18.38931,0 5.94058,-0.30271 8.17303,-0.45405 -8.77844,-0.22703 -8.77844,-0.22703 7.56762,-0.0378 c 5.90336,-0.0145 8.20184,-0.19116 9.87574,-1.8919 -0.0278,0.0291 -0.0482,0.086 -0.0757,0.11345 -2.18473,2.18473 -1.5757,2.27201 2.49731,0.41622 0.25599,-0.1166 0.4903,-0.21234 0.71893,-0.30271 -0.0857,0.0768 -0.17326,0.13542 -0.26487,0.22703 -1.13009,1.1301 -0.78451,1.47569 1.47569,1.47569 2.2602,0 2.56794,-0.34559 1.43784,-1.47569 -0.32207,-0.32208 -0.60445,-0.50475 -0.87027,-0.64324 0.89443,-0.0566 1.59536,0.22236 2.42164,0.90811 3.35281,2.78259 3.0804,0.56343 -0.45406,-3.6703 -1.91693,-2.29617 -2.75169,-3.28041 -3.29192,-3.21623 l 0.37838,-0.71893 z m 32.95698,0.15135 c -0.10074,0.25692 -0.24483,0.49231 -0.34054,0.75677 -0.20184,0.55766 -0.59478,0.78153 -0.9838,0.64324 0.27033,-0.0318 0.77857,-0.55131 1.32434,-1.40001 z m -3.21624,5.03247 c 0.0703,-0.001 0.11503,0.0386 0.15135,0.0757 0.46783,0.4766 -6.47707,53.70082 -8.32438,63.79503 l -0.71892,3.93516 -19.865,0 c -11.77509,0 -20.14516,-0.50087 -20.58393,-1.21082 -0.76692,-1.24089 -9.08114,-60.5182 -9.08114,-64.74098 0,-2.28064 0.12469,-2.25847 2.72434,0.34054 2.04957,2.04906 2.87429,4.58568 3.32975,10.25413 l 0.60541,7.52978 22.40016,0 22.40015,0 0.60541,-7.52978 c 0.45282,-5.63568 1.27935,-8.20424 3.29191,-10.21629 1.2949,-1.29457 2.57278,-2.22516 3.06489,-2.23245 z m -28.3029,3.78381 c -1.0973,-0.002 -2.25814,0.05 -3.1784,0.18919 -1.84051,0.27831 -0.60541,0.52005 2.72435,0.52974 3.32981,0.008 4.81898,-0.24234 3.32975,-0.52974 -0.74462,-0.14366 -1.77839,-0.1862 -2.8757,-0.18919 z m -58.95175,37.53539 c 0.0415,-0.0209 0.0952,-0.0165 0.15135,0 0.08,0.0235 0.19273,0.0856 0.30271,0.18919 0.17535,0.16505 0.57698,1.05125 1.05946,2.19461 -0.17183,-0.3546 -0.31878,-0.61826 -0.45405,-0.83243 -1.21538,-1.92418 -1.38213,-0.90135 -0.75677,1.96758 -0.44719,-1.99513 -0.62729,-3.35499 -0.3027,-3.51895 z m 116.65485,2.34597 c -0.0748,0.22802 -0.11079,0.40935 -0.18919,0.64324 -0.45408,1.35497 -0.95175,2.73707 -1.43785,4.08652 0.57884,-1.6264 1.12949,-3.22284 1.62704,-4.72976 z m -109.95751,14.34063 3.48111,10.40548 47.07059,0.26487 c 11.74734,0.0665 21.30625,0.0747 28.75695,0 -3.02602,0.01 -4.9496,0.21533 -4.80544,0.52973 -0.4969,-0.11648 -1.14417,-0.0494 -1.74055,0.18919 -0.9659,0.38652 -0.69162,0.66081 0.71893,0.71893 1.27639,0.0525 1.99154,-0.20307 1.5892,-0.60541 -0.0556,-0.0556 -0.14902,-0.10958 -0.22703,-0.15136 1.2251,0.44621 6.41664,0.75704 12.07035,0.68109 12.45096,-0.16723 10.68449,-0.76363 -3.82165,-1.2865 -1.26251,-0.0455 -2.43069,-0.0751 -3.4811,-0.0757 12.22495,-0.12641 18.61514,-0.46383 19.48662,-0.98379 -0.42908,0.72184 -0.24056,1.32433 0.45405,1.32433 0.20774,0 0.3749,0.0894 0.52974,0.22703 -0.50443,-0.16542 -1.23637,-0.11103 -1.89191,0.15135 -0.9659,0.38652 -0.69162,0.66081 0.71893,0.71893 0.79774,0.0328 1.36573,-0.0496 1.5892,-0.22703 0.0417,0.10582 0.0805,0.21952 0.11345,0.34054 l -48.73547,0 -47.86519,0 c 0.13386,-0.14422 0.25038,-0.323 0.37838,-0.41622 0.9075,-0.66094 0.78382,-0.81547 -0.41622,-0.49189 -0.41782,0.1126 -0.83575,0.43854 -1.17298,0.90811 l -0.0378,0 0,0.0757 c -0.44515,0.64789 -0.76327,1.51448 -0.83244,2.42163 -0.0881,1.15603 -0.0982,1.77197 -0.0378,1.85407 0.0604,0.0821 0.19134,-0.3696 0.45405,-1.32433 0.0986,-0.35818 0.25179,-0.73234 0.41622,-1.09731 l 0,1.09731 0,2.64866 c -0.33964,-0.19483 -0.59141,-0.2842 -0.7946,-0.26486 -0.0152,-0.1713 -0.0242,-0.36118 -0.0378,-0.52974 -0.0132,-0.1641 -0.0202,-0.35635 -0.0378,-0.52973 -0.387,-3.80069 -1.82712,-9.72605 -3.40543,-14.37848 2.04008,5.42343 3.98608,9.59518 4.38922,9.34601 0.42817,-0.26462 -1.01433,-5.65458 -2.8757,-11.54062 z m 103.22233,3.10273 c -1.15934,2.49443 -2.02261,3.96742 -2.23245,3.59462 0.25846,0.0788 1.15931,-1.38293 2.23245,-3.59462 z m -2.80002,6.20545 c 0.34487,0.14282 0.60155,0.5193 0.7946,1.13514 -0.0794,-0.16953 -0.17282,-0.34662 -0.26487,-0.4919 -0.1814,-0.28629 -0.36559,-0.4882 -0.52973,-0.64324 z m -78.6654,1.43784 c -4.10733,0.0277 -9.31345,0.2349 -13.54604,0.68109 -1.99785,0.21061 1.64364,0.49886 8.09735,0.60541 6.45372,0.10655 11.98648,-0.21946 12.29738,-0.71892 0.26106,-0.4194 -2.74136,-0.59529 -6.84869,-0.56758 z m 29.43804,0.41622 c -3.84056,0 -7.68114,0.0403 -10.59467,0.15136 -5.82707,0.22196 -1.05947,0.41621 10.59467,0.41621 11.65413,0 16.42173,-0.19425 10.59466,-0.41621 -2.91353,-0.11104 -6.7541,-0.15136 -10.59466,-0.15136 z m 49.5679,2.68651 c 0.0109,1.08705 -0.11575,2.29565 -0.45405,3.36759 l 0.3027,-2.27029 0.15135,-1.0973 z m -0.60541,3.82165 c -0.11018,0.29225 -0.2421,0.54425 -0.37838,0.7946 -3.22343,-0.69755 -38.7349,-0.65159 -79.46,0.15135 -1.74812,0.0345 -2.6956,0.0743 -2.8757,0.11345 0.57932,0.16393 13.57624,0.37872 33.97862,0.4919 24.62602,0.13665 45.28293,-0.13006 48.24357,-0.56757 -0.19974,0.32959 -0.43333,0.62681 -0.68109,0.83243 -0.69462,0.57649 -1.06342,1.0596 -1.13514,1.55137 -0.0239,-0.30945 -0.0132,-0.59223 0.15135,-0.75677 0.4382,-0.43818 -20.33924,-0.7946 -46.20031,-0.7946 -25.86108,0 -46.67635,0.35642 -46.23816,0.7946 0.25298,0.25299 0.21814,0.71526 0.0378,1.24866 0.0804,-0.69008 -0.37359,-1.29205 -1.32433,-2.34596 -0.32175,-0.35667 -0.62356,-0.64107 -0.90812,-0.87028 l 48.13006,-0.34054 48.65979,-0.3027 z m 1.02163,0.7946 c -0.13782,0.9124 -0.32166,1.83614 -0.52973,2.83785 -0.034,-0.27925 -0.11866,-0.56172 -0.22703,-0.83244 -0.11515,-0.2879 -0.20861,-0.46101 -0.3027,-0.52973 0.13267,-0.4617 0.32132,-0.84606 0.60541,-1.02163 0.16398,-0.10134 0.3216,-0.25751 0.45405,-0.45405 z m -99.0223,0.83243 c 0.12939,0.19152 0.27096,0.38479 0.45406,0.60541 0.29623,0.35693 0.50497,0.83247 0.64325,1.36217 -0.23836,0.13719 -0.48144,0.46214 -0.71893,0.90812 -0.14697,-0.96225 -0.26702,-1.90021 -0.37838,-2.8757 z m 98.30338,3.29192 c -0.0626,0.39959 -0.13139,0.82369 -0.18919,1.28649 0.0109,-0.32332 -0.022,-0.66472 -0.0757,-0.98379 0.0463,-0.0165 0.10111,-0.0632 0.15135,-0.11345 0.0467,-0.0467 0.0765,-0.12635 0.11346,-0.18919 z m -97.05472,0.26486 c -0.023,0.35755 -0.0806,0.70918 -0.18919,1.02163 -0.12565,0.36181 -0.19355,0.56084 -0.26487,0.7946 -0.0712,-0.37438 -0.1591,-0.70227 -0.22703,-1.0973 0.0667,-0.0639 0.11418,-0.077 0.1892,-0.15135 0.19314,-0.19171 0.35205,-0.36856 0.49189,-0.56758 z m 1.09731,0.60541 c -0.49851,1.0152 -0.29202,2.11692 0.68108,3.93517 0.87717,1.639 2.56748,2.66222 4.35138,2.95137 -1.57589,-10e-4 -3.06008,-0.37373 -3.82165,-1.13514 -0.44477,-0.44468 -0.72478,2.05972 -0.87027,6.50815 -0.11806,-3.34047 -0.3952,-5.58017 -0.87028,-6.88654 -0.29078,-0.79956 -0.61507,-2.13599 -0.90811,-3.59462 0.23622,-0.23121 0.63178,-0.72174 1.24865,-1.51352 0.0735,-0.0943 0.12201,-0.17677 0.1892,-0.26487 z m 95.6547,1.21082 c -0.59778,5.37367 -0.90059,14.14717 -0.7946,23.87584 0.12348,11.3335 0.27639,17.56165 0.60541,21.49204 -0.13711,0.10304 -0.29328,0.23945 -0.45405,0.41622 0.17289,-1.18775 -0.41839,-2.72952 -1.77839,-4.42706 -1.81899,-2.27043 -1.83958,-2.2521 -0.60541,0.30271 0.7027,1.4546 1.28649,3.22543 1.28649,3.93516 -0.0484,-0.70553 -0.69633,-2.4969 -1.43785,-4.12435 -0.76384,-1.67647 -2.02871,-2.65047 -3.44326,-2.98921 1.30806,0.0545 2.52083,0.47757 3.40543,1.36217 1.75911,1.75916 1.65684,3.02774 1.8919,-18.54067 l 0.18919,-17.67039 -1.8919,1.21082 1.21082,-1.36217 c 1.00066,-1.14685 1.59205,-2.33427 1.81622,-3.48111 z m -1.17298,0.75677 c -0.20875,0.61939 -0.5592,1.34878 -1.0973,2.23244 l -1.40001,2.27029 -0.0378,0.0378 c -1.89035,1.23531 -3.96462,1.32007 -6.20545,0.26486 2.64888,0.9817 5.24691,0.12024 7.26492,-2.53515 0.71231,-0.93731 1.20452,-1.64032 1.47568,-2.27029 z m -47.71384,1.43784 c 0.16498,-0.008 0.31488,0.008 0.4919,0.0378 -0.95033,-0.0466 -1.80512,0.57342 -3.1784,1.81623 0.0933,-0.0995 0.17626,-0.19594 0.26486,-0.30271 0.82454,-0.9935 1.57349,-1.50952 2.42164,-1.55136 z m -13.84874,1.32434 c 0.74183,0.38889 1.57253,0.85562 2.64867,1.47568 0.78573,0.45274 1.61671,0.77817 2.42163,0.94595 -1.5855,-0.21442 -3.45049,-0.97388 -4.46489,-1.8919 -0.21991,-0.19901 -0.39954,-0.36258 -0.60541,-0.52973 z m -5.60004,0.37838 c -0.82903,0.99892 -3.28094,1.81623 -5.44868,1.81623 -0.51775,0 -1.06502,-0.0667 -1.5892,-0.15136 2.46125,0.27503 5.356,-0.26626 7.03788,-1.66487 z m -27.09208,18.80553 c 0.0604,9.32089 -0.316,17.77226 -0.87027,19.63797 0.21928,-3.74565 0.45866,-9.05639 0.7946,-16.9893 0.042,-0.99095 0.0437,-1.73015 0.0757,-2.64867 z m 72.45996,15.81633 c 0.0605,-3.8e-4 0.1286,-0.002 0.18919,0 -1.45814,0.0674 -2.96918,0.83096 -4.38922,2.30812 -0.0604,-0.0643 -0.56198,0.2757 -1.51352,1.02163 -0.24792,0.19435 -0.53933,0.38376 -0.83244,0.52973 0.40679,-0.32442 0.86179,-0.74531 1.43785,-1.28649 1.81363,-1.70384 3.45417,-2.56286 5.10814,-2.57299 z m -67.88155,1.21082 c 0.44936,-0.0178 0.93089,-0.007 1.40001,0.0757 l -0.87027,-0.0378 c -0.23116,-0.0121 -0.45048,-0.0232 -0.68109,0 -1.61428,0.16242 -3.19794,1.16231 -4.31354,2.3838 1.16777,-1.4932 2.65065,-2.27419 4.31354,-2.3838 0.0512,-0.004 0.0998,-0.0358 0.15135,-0.0378 z m 34.09213,0 c 0.26494,8e-5 0.53524,0.007 0.7946,0.0378 -0.10256,0.1922 0.23422,0.5995 0.94595,1.05947 0.99893,0.64556 2.3611,1.17298 3.02705,1.17298 0.0832,0 0.13486,-0.0222 0.18919,-0.0378 0.084,0.0838 0.18237,0.13848 0.26487,0.22703 l 2.42163,2.57299 2.15678,-1.70271 c -0.0674,0.0731 -0.12149,0.11442 -0.18919,0.18919 -0.90403,0.99892 -1.36317,1.86352 -1.21082,2.23245 -0.62259,-0.20047 -1.32269,-0.67944 -2.0811,-1.43785 -3.74788,-3.7479 -8.91342,-4.43128 -11.46494,-1.96758 0.21633,-0.36011 0.4419,-0.7264 0.52973,-0.90812 1.58605,-0.96555 3.13834,-1.4383 4.61625,-1.43784 z m 16.1947,0 c 0.49732,-0.0208 1.02511,0.0494 1.55137,0.15135 -0.0191,0.20857 0.30936,0.53455 0.94595,0.94595 0.58153,0.37581 1.04812,0.64453 1.40001,0.83244 -3.63197,-1.75255 -6.39776,-1.65206 -8.05952,0.3027 0.12797,-0.31136 0.22368,-0.56612 0.26487,-0.75676 1.3864,-0.90481 2.59755,-1.42122 3.89732,-1.47568 z m -33.86509,0.0378 c 1.92416,-0.17471 3.75022,0.64829 5.63787,2.42164 l 1.85407,1.74055 c -0.116,-0.031 -0.20813,-0.0929 -0.3027,-0.15135 -0.94059,-0.58131 -1.15665,-0.40002 -0.60541,0.4919 0.13833,0.22383 0.2605,0.40047 0.41622,0.56757 -0.2042,-0.19006 -0.40091,-0.42056 -0.56758,-0.68109 -2.23543,-3.49422 -4.68777,-4.59716 -7.37842,-3.40543 0.41676,-0.32314 0.57367,-0.64341 0.37838,-0.87027 0.1916,-0.0361 0.37817,-0.0963 0.56757,-0.11346 z m 55.01659,0.0378 c 0.50434,0.34777 1.0263,0.75539 1.55136,1.24866 l 1.77839,1.66487 c -0.30316,0.088 -0.54036,0.1864 -0.64324,0.34055 -0.39294,-0.44193 -0.80172,-0.94493 -1.24866,-1.62704 -0.43205,-0.65939 -0.93737,-1.19277 -1.43785,-1.62704 z m -68.8275,0.34054 c 0.63567,0.2241 1.28243,0.54568 1.92975,0.94596 0.19346,0.27486 0.60691,0.79486 1.43784,1.77839 1.13525,1.34368 2.59239,1.97288 3.74597,1.92974 -0.94222,0.58055 -1.70912,0.18901 -3.4811,-1.47569 -2.22963,-2.09462 -5.0581,-2.82709 -7.30275,-2.15677 0.60259,-0.29966 1.21652,-0.56874 1.81623,-0.68108 l 1.85406,-0.34055 z m 76.35728,0.22703 c -0.45444,0.54835 -0.85295,1.20274 -1.13514,1.96758 -0.11321,0.30693 -0.21634,0.55817 -0.34054,0.7946 -0.0791,-0.20598 -0.39051,-0.35215 -0.7946,-0.45405 l 1.55136,-1.62704 c 0.22508,-0.2416 0.47224,-0.47228 0.71892,-0.68109 z m -65.27072,0.30271 c -1.10851,1.11684 -1.00077,1.27115 0.41622,0.75676 -0.87702,0.5341 -1.78305,1.18179 -2.53515,1.77839 0.0146,-0.11043 0.0378,-0.21867 0.0378,-0.34054 0,-0.42067 -0.1301,-0.63505 -0.34054,-0.64325 0.12619,-0.0961 0.2402,-0.15868 0.37838,-0.26487 0.70364,-0.54075 1.38326,-0.94559 2.04325,-1.28649 z m 40.94083,0.18931 c 0.50468,0.24378 1.02717,0.50987 1.5892,0.83244 0.88767,0.50945 1.55839,0.89123 2.11893,1.13514 -0.0574,-0.0164 -0.13556,-0.0173 -0.18919,-0.0378 -1.04424,-0.40073 -1.50811,-0.24214 -1.17298,0.37838 l -1.62704,-0.90811 c -0.26028,-0.14628 -0.50482,-0.24939 -0.75676,-0.37838 0.59576,0.22976 0.58329,-0.12765 0.0378,-1.02163 z m -59.67068,2.04326 c -0.18618,0.26377 -0.35422,0.52452 -0.4919,0.7946 0.005,-0.07 -0.005,-0.11782 0,-0.1892 0.11757,-0.14727 0.33207,-0.39312 0.4919,-0.6054 z m 14.90821,0.3027 c -0.4402,0.36036 -0.8661,0.48761 -1.36217,0.41622 0.4249,0.0239 0.85811,-0.11818 1.36217,-0.41622 z m -13.77307,0.0757 c -0.76944,1.07835 -1.38087,2.23523 -1.40001,2.6865 0.0355,-0.83552 0.58262,-1.79503 1.40001,-2.6865 z m 65.53558,0.0378 -1.36217,1.70272 -1.13514,-0.64325 c 0.80372,-0.0195 1.67816,-0.37514 2.49731,-1.05947 z m -33.94077,0.64331 c -0.50653,1.13706 -1.50232,1.69463 -2.53515,1.62704 0.82159,-0.0553 1.70185,-0.61391 2.53515,-1.62704 z m 17.1785,0.22703 c -0.41685,0.85758 -0.9555,1.35267 -1.62704,1.40001 0.50791,-0.19683 1.10337,-0.7226 1.62704,-1.40001 z m -50.62738,2.42164 c 0.16032,0.27194 0.36959,0.52244 0.68109,0.71892 0.29097,0.18354 0.53081,0.34132 0.71892,0.4919 -0.14384,-0.0638 -0.28871,-0.12575 -0.45405,-0.18919 -0.49416,-0.18963 -0.84487,-0.24605 -1.05947,-0.18919 0.0293,-0.27273 0.0848,-0.51483 0.11345,-0.83244 z m 94.7466,0.90811 c -0.17459,0.33593 -0.28051,0.62694 -0.34055,0.87028 -0.0992,-0.3517 0.004,-0.66175 0.34055,-0.87028 z m 1.92974,0.30271 c 0.26579,1.81159 0.60748,3.01692 1.09731,4.12435 0.043,0.0971 0.0748,0.23279 0.11345,0.34054 -0.36369,-0.82685 -0.97417,-1.54045 -1.85407,-2.15677 -0.43398,-0.30397 -0.75496,-0.5937 -1.02163,-0.87027 0.56853,-0.0938 1.25646,-0.67287 1.66488,-1.43785 z m -96.86553,0.26486 c 0.39148,0.63344 1.19825,1.13437 1.81623,1.17299 -0.22985,0.31027 -0.57701,0.68852 -1.0973,1.17298 -1.12507,1.04756 -1.41676,1.48984 -0.64325,0.98379 0.97174,-0.63574 20.94762,-1.11285 42.30299,-1.32434 0.19158,0.14638 0.83812,0.22703 1.81623,0.22703 1.10298,0 1.73087,-0.12361 1.81623,-0.3027 5.03307,-0.0419 9.93453,-0.067 14.79469,-0.0757 0.42217,0.10716 1.57707,0.22182 3.36759,0.22703 2.08114,0.006 3.45142,-0.0909 3.82165,-0.22703 2.39759,0.005 4.61665,0.0225 6.81086,0.0378 0.3255,0.11273 1.25471,0.2198 2.6865,0.22703 1.4324,0.007 2.42017,-0.0803 2.8757,-0.18919 8.48542,0.10473 14.37361,0.31752 14.98389,0.64324 0.26221,0.13995 0.4866,0.35624 0.71892,0.60541 -3.53336,-0.43981 -23.61149,-0.75676 -47.48681,-0.75676 -29.86261,0 -42.03798,0.0377 -46.99492,1.13515 l 47.29762,0.34054 c 24.46465,0.16686 44.5847,-0.0309 47.41114,-0.45406 0.68198,0.86576 1.17298,2.13073 1.17298,3.29192 l 0,2.42163 c -0.5166,0.21633 -1.28378,0.41892 -2.53515,0.56757 l -46.99492,-0.3027 c -1.20888,-0.008 -2.21856,0.006 -3.40543,0 l 3.48111,-0.0378 c 47.90878,-0.3106 48.84898,-0.34797 48.84898,-2.72434 0,-2.38132 -0.80722,-2.42164 -48.43276,-2.42164 l -48.20574,0 0.15135,-0.34054 c -2.00585,0.70845 -2.18186,1.75317 -2.11893,3.29191 0.0466,1.13901 0.50232,0.79956 1.17298,-0.87027 l 0.41622,-1.05947 -0.26487,1.70271 -0.37838,2.76219 2.57299,0 c -1.76409,0.0837 -2.86621,0.15786 -2.80002,0.26486 0.23368,0.37771 12.77293,0.65143 30.34616,0.68109 -17.4693,-0.0154 -30.01089,-0.23231 -30.34616,-0.56757 -1.09655,-1.09655 -1.04365,-5.84288 0.0757,-6.96221 0.42411,-0.42412 0.69437,-1.11925 0.94595,-3.14057 z m 0.37838,3.89733 c 0.34522,-0.12193 0.74632,-0.2377 1.21082,-0.34054 l -1.05946,0 -0.15136,0.34054 z m 98.11419,2.3838 c 0.051,0.65196 0.0607,1.30429 -0.0378,1.81623 -0.0338,0.17536 -0.0947,0.34297 -0.18919,0.49189 l 0.15135,-1.51352 c 0.0317,-0.27395 0.074,-0.53883 0.0757,-0.7946 z"
     id="path3184"
     style="fill:#e84e40" />
  <text
     x="180.84494"
     y="118.38034"
     transform="matrix(0.89831729,0,0.2650238,1.1131924,0,0)"
     id="text3231"
     xml:space="preserve"
     style="font-size:62.09207535px;font-style:normal;font-variant:normal;font-weight:normal;font-stretch:normal;text-align:center;line-height:94.99999881%;letter-spacing:0px;word-spacing:0px;text-anchor:middle;fill:#ffffff;fill-opacity:1;stroke:none;font-family:Airstrike;-inkscape-font-specification:Airstrike"><tspan
       x="180.84494"
       y="118.38034"
       id="tspan3235">14th-17th</tspan><tspan
       x="180.84494"
       y="177.36781"
       id="tspan3241"><tspan
   rotate="0 0 0 358.19998 0"
   id="tspan3243">january</tspan></tspan><tspan
       x="189.51601"
       y="236.35529"
       id="tspan3245">2015    </tspan></text>
</svg>
