<?xml version="1.0" encoding="UTF-8" standalone="no"?>
<!-- Created with Inkscape (http://www.inkscape.org/) -->

<svg
   xmlns:osb="http://www.openswatchbook.org/uri/2009/osb"
   xmlns:dc="http://purl.org/dc/elements/1.1/"
   xmlns:cc="http://creativecommons.org/ns#"
   xmlns:rdf="http://www.w3.org/1999/02/22-rdf-syntax-ns#"
   xmlns:svg="http://www.w3.org/2000/svg"
   xmlns="http://www.w3.org/2000/svg"
   xmlns:xlink="http://www.w3.org/1999/xlink"
   xmlns:sodipodi="http://sodipodi.sourceforge.net/DTD/sodipodi-0.dtd"
   xmlns:inkscape="http://www.inkscape.org/namespaces/inkscape"
   width="1600"
   height="600"
   id="svg6325"
   version="1.1"
   inkscape:version="0.48.4 r9939"
   sodipodi:docname="logo.svg">
  <defs
     id="defs6327">
    <linearGradient
       id="linearGradient5686"
       osb:paint="solid">
      <stop
         style="stop-color:#ffffff;stop-opacity:1;"
         offset="0"
         id="stop5688" />
    </linearGradient>
    <linearGradient
       id="linearGradient4032"
       osb:paint="solid">
      <stop
         style="stop-color:#ffffff;stop-opacity:1;"
         offset="0"
         id="stop4034" />
    </linearGradient>
    <linearGradient
       id="linearGradient3978"
       osb:paint="solid">
      <stop
         style="stop-color:#000000;stop-opacity:0.43315509;"
         offset="0"
         id="stop3980" />
    </linearGradient>
    <linearGradient
       id="linearGradient5369"
       osb:paint="solid">
      <stop
         style="stop-color:#000000;stop-opacity:1;"
         offset="0"
         id="stop5371" />
    </linearGradient>
    <linearGradient
       inkscape:collect="always"
       id="linearGradient4717">
      <stop
         style="stop-color:#000000;stop-opacity:1;"
         offset="0"
         id="stop4719" />
      <stop
         style="stop-color:#000000;stop-opacity:0;"
         offset="1"
         id="stop4721" />
    </linearGradient>
    <linearGradient
       inkscape:collect="always"
       xlink:href="#linearGradient4032"
       id="linearGradient4036"
       x1="720.46645"
       y1="879.98028"
       x2="770.46645"
       y2="879.98028"
       gradientUnits="userSpaceOnUse" />
    <linearGradient
       inkscape:collect="always"
       xlink:href="#linearGradient4032"
       id="linearGradient4038"
       x1="720.46645"
       y1="879.98025"
       x2="894.21645"
       y2="879.98025"
       gradientUnits="userSpaceOnUse" />
    <linearGradient
       inkscape:collect="always"
       xlink:href="#linearGradient4032"
       id="linearGradient4040"
       x1="720.46645"
       y1="771.23025"
       x2="915.46645"
       y2="771.23025"
       gradientUnits="userSpaceOnUse" />
    <linearGradient
       inkscape:collect="always"
       xlink:href="#linearGradient4032"
       id="linearGradient4042"
       x1="720.46645"
       y1="988.73028"
       x2="915.46645"
       y2="988.73028"
       gradientUnits="userSpaceOnUse" />
    <linearGradient
       inkscape:collect="always"
       xlink:href="#linearGradient4032"
       id="linearGradient4044"
       x1="20.12735"
       y1="879.38019"
       x2="70.12734"
       y2="879.38019"
       gradientUnits="userSpaceOnUse" />
    <linearGradient
       inkscape:collect="always"
       xlink:href="#linearGradient4032"
       id="linearGradient4046"
       x1="20.126282"
       y1="842.25213"
       x2="175.51572"
       y2="842.25213"
       gradientUnits="userSpaceOnUse" />
    <linearGradient
       inkscape:collect="always"
       xlink:href="#linearGradient4032"
       id="linearGradient4048"
       x1="125.51288"
       y1="842.25202"
       x2="284.62336"
       y2="842.25202"
       gradientUnits="userSpaceOnUse" />
    <linearGradient
       inkscape:collect="always"
       xlink:href="#linearGradient4032"
       id="linearGradient4050"
       x1="234.62214"
       y1="879.38019"
       x2="284.62214"
       y2="879.38019"
       gradientUnits="userSpaceOnUse" />
    <linearGradient
       inkscape:collect="always"
       xlink:href="#linearGradient4032"
       id="linearGradient4052"
       x1="322.71128"
       y1="878.34541"
       x2="372.71128"
       y2="878.34541"
       gradientUnits="userSpaceOnUse" />
    <linearGradient
       inkscape:collect="always"
       xlink:href="#linearGradient4032"
       id="linearGradient4054"
       x1="417.89014"
       y1="987.09542"
       x2="596.64014"
       y2="987.09542"
       gradientUnits="userSpaceOnUse" />
    <linearGradient
       inkscape:collect="always"
       xlink:href="#linearGradient4032"
       id="linearGradient4056"
       x1="417.89014"
       y1="878.34541"
       x2="467.89014"
       y2="878.34541"
       gradientUnits="userSpaceOnUse" />
    <linearGradient
       inkscape:collect="always"
       xlink:href="#linearGradient4032"
       id="linearGradient4058"
       x1="1128.1628"
       y1="835.5937"
       x2="1178.1628"
       y2="835.5937"
       gradientUnits="userSpaceOnUse" />
    <linearGradient
       inkscape:collect="always"
       xlink:href="#linearGradient4032"
       id="linearGradient4060"
       x1="945.71291"
       y1="835.5937"
       x2="995.71291"
       y2="835.5937"
       gradientUnits="userSpaceOnUse" />
    <linearGradient
       inkscape:collect="always"
       xlink:href="#linearGradient4032"
       id="linearGradient4062"
       x1="945.71241"
       y1="946.41548"
       x2="1178.1624"
       y2="946.41548"
       gradientUnits="userSpaceOnUse" />
    <linearGradient
       inkscape:collect="always"
       xlink:href="#linearGradient4032"
       id="linearGradient4064"
       x1="1331.5988"
       y1="879.18211"
       x2="1381.5988"
       y2="879.18211"
       gradientUnits="userSpaceOnUse" />
    <linearGradient
       inkscape:collect="always"
       xlink:href="#linearGradient4032"
       id="linearGradient4066"
       x1="1275.2417"
       y1="779.5894"
       x2="1381.7227"
       y2="779.5894"
       gradientUnits="userSpaceOnUse" />
    <linearGradient
       inkscape:collect="always"
       xlink:href="#linearGradient4032"
       id="linearGradient4068"
       x1="1399.7057"
       y1="820.23348"
       x2="1454.4436"
       y2="820.23348"
       gradientUnits="userSpaceOnUse" />
    <linearGradient
       inkscape:collect="always"
       xlink:href="#linearGradient4032"
       id="linearGradient4070"
       x1="1404.4427"
       y1="771.72623"
       x2="1574.1302"
       y2="771.72623"
       gradientUnits="userSpaceOnUse" />
    <linearGradient
       inkscape:collect="always"
       xlink:href="#linearGradient4032"
       id="linearGradient4072"
       x1="1399.7004"
       y1="893.29859"
       x2="1581.9118"
       y2="893.29859"
       gradientUnits="userSpaceOnUse" />
    <linearGradient
       inkscape:collect="always"
       xlink:href="#linearGradient4032"
       id="linearGradient4074"
       x1="1452.2308"
       y1="957.89276"
       x2="1581.8064"
       y2="957.89276"
       gradientUnits="userSpaceOnUse" />
    <linearGradient
       inkscape:collect="always"
       xlink:href="#linearGradient4032"
       id="linearGradient4076"
       x1="1396.0483"
       y1="974.23983"
       x2="1502.2308"
       y2="974.23983"
       gradientUnits="userSpaceOnUse" />
    <linearGradient
       inkscape:collect="always"
       xlink:href="#linearGradient4032"
       id="linearGradient4078"
       x1="1208.3563"
       y1="806.45343"
       x2="1258.3563"
       y2="806.45343"
       gradientUnits="userSpaceOnUse" />
    <linearGradient
       inkscape:collect="always"
       xlink:href="#linearGradient4032"
       id="linearGradient4080"
       x1="626.94411"
       y1="917.01705"
       x2="676.94411"
       y2="917.01705"
       gradientUnits="userSpaceOnUse" />
    <linearGradient
       inkscape:collect="always"
       xlink:href="#linearGradient4032"
       id="linearGradient4082"
       x1="626.94411"
       y1="917.01705"
       x2="676.94411"
       y2="917.01705"
       gradientUnits="userSpaceOnUse" />
    <linearGradient
       inkscape:collect="always"
       xlink:href="#linearGradient4032"
       id="linearGradient4084"
       x1="643.58332"
       y1="633.86997"
       x2="811.91665"
       y2="633.86997"
       gradientUnits="userSpaceOnUse" />
    <radialGradient
       inkscape:collect="always"
       xlink:href="#linearGradient4717"
       id="radialGradient3071"
       gradientUnits="userSpaceOnUse"
       gradientTransform="matrix(1,0,0,2.1185812,-1.444444,-1024.2024)"
       cx="651.94411"
       cy="917.01705"
       fx="651.94411"
       fy="917.01705"
       r="62.765902" />
  </defs>
  <sodipodi:namedview
     id="base"
     pagecolor="#ffffff"
     bordercolor="#666666"
     borderopacity="1.0"
     inkscape:pageopacity="0.0"
     inkscape:pageshadow="2"
     inkscape:zoom="0.5"
     inkscape:cx="754.2679"
     inkscape:cy="379.67121"
     inkscape:document-units="px"
     inkscape:current-layer="layer1"
     showgrid="false"
     width="1600px"
     inkscape:window-width="1333"
     inkscape:window-height="742"
     inkscape:window-x="33"
     inkscape:window-y="0"
     inkscape:window-maximized="1"
     inkscape:snap-grids="false"
     showguides="false">
    <inkscape:grid
       type="xygrid"
       id="grid6546"
       empspacing="5"
       visible="true"
       enabled="true"
       snapvisiblegridlinesonly="true" />
  </sodipodi:namedview>
  <metadata
     id="metadata6330">
    <rdf:RDF>
      <cc:Work
         rdf:about="">
        <dc:format>image/svg+xml</dc:format>
        <dc:type
           rdf:resource="http://purl.org/dc/dcmitype/StillImage" />
        <dc:title />
      </cc:Work>
    </rdf:RDF>
  </metadata>
  <g
     inkscape:label="Layer 1"
     inkscape:groupmode="layer"
     id="layer1"
     transform="translate(0,-452.36218)">
    <path
       d="m 744.02211,1015.2859 c -13.8076,0 -25.0001,-11.1926 -25.0001,-25.0001 l 0,-217.5 c 0,-13.8075 11.1925,-25 25.0001,-25 13.8075,0 24.9999,11.1925 24.9999,25 l 0,217.5 c 0,13.8075 -11.1925,25.0001 -25,25.0001"
       style="fill:#ffc107;fill-opacity:0.83414630000000001;fill-rule:nonzero;stroke:#000000;stroke-width:0;stroke-linejoin:round;stroke-miterlimit:4;stroke-opacity:1;stroke-dasharray:none"
       id="path106"
       inkscape:connector-curvature="0" />
    <path
       d="m 867.77201,906.5358 -123.75,0 c -13.8075,0 -25,-11.1925 -25,-25 0,-13.8075 11.1925,-25 25,-25 l 123.75,0 c 13.8075,0 25,11.1925 25,25 0,13.8075 -11.1925,25 -25,25"
       style="fill:#f50057;fill-opacity:0.83414630000000001;fill-rule:nonzero;stroke:#000000;stroke-width:0;stroke-linejoin:round;stroke-miterlimit:4;stroke-opacity:1;stroke-dasharray:none"
       id="path154"
       inkscape:connector-curvature="0" />
    <path
       d="m 889.02201,797.7858 -145,0 c -13.8075,0 -25,-11.1925 -25,-25 0,-13.8075 11.1925,-25 25,-25 l 145,0 c 13.8075,0 25,11.1925 25,25 0,13.8075 -11.1925,25 -25,25"
       style="fill:#00695c;fill-opacity:0.83414630000000001;fill-rule:nonzero;stroke:#000000;stroke-width:0;stroke-linejoin:round;stroke-miterlimit:4;stroke-opacity:1;stroke-dasharray:none"
       id="path122"
       inkscape:connector-curvature="0" />
    <path
       d="m 889.02201,1015.2859 -145,0 c -13.8075,0 -25,-11.1926 -25,-25.0001 0,-13.8075 11.1925,-25 25,-25 l 145,0 c 13.8075,0 25,11.1925 25,25 0,13.8075 -11.1925,25.0001 -25,25.0001"
       style="fill:#0091ea;fill-opacity:0.83414630000000001;fill-rule:nonzero;stroke:#000000;stroke-width:0;stroke-linejoin:round;stroke-miterlimit:4;stroke-opacity:1;stroke-dasharray:none"
       id="path138"
       inkscape:connector-curvature="0" />
    <path
       d="m 45.12735,1013.1302 c -13.8075,0 -25,-11.1925 -25,-24.99998 l 0,-217.50003 c 0,-13.8075 11.1925,-25 25,-25 13.80749,0 24.99999,11.1925 24.99999,25 l 0,217.50003 c 0,13.80748 -11.1925,24.99998 -24.99999,24.99998"
       style="fill:#ff2d6f;fill-opacity:0.83414632000000000;fill-rule:nonzero;stroke:#000000;opacity:1;stroke-opacity:1;stroke-width:0;stroke-miterlimit:4;stroke-dasharray:none;stroke-linejoin:round"
       id="path802"
       inkscape:connector-curvature="0" />
    <path
       d="m 150.53384,938.87592 c -7.68,0 -15.2562,-3.525 -20.1562,-10.185 L 24.9901,785.44592 c -8.18125,-11.1225 -5.79875,-26.77125 5.32125,-34.9525 11.12375,-8.1825 26.76999,-5.80125 34.95249,5.32125 l 105.3875,143.24375 c 8.1825,11.1225 5.7988,26.77125 -5.3212,34.9525 -4.4613,3.2825 -9.6525,4.865 -14.7963,4.865"
       style="fill:#0091ea;fill-opacity:0.83414632000000000;fill-rule:nonzero;stroke:#000000;opacity:1;stroke-opacity:1;stroke-width:0;stroke-miterlimit:4;stroke-dasharray:none;stroke-linejoin:round"
       id="path766"
       inkscape:connector-curvature="0" />
    <path
       d="m 149.0517,940.4315 c -5.2825,0 -10.6037,-1.6663 -15.13,-5.1138 -10.9837,-8.365 -13.1062,-24.0525 -4.74,-35.0362 L 238.2905,757.0377 c 8.3637,-10.9862 24.0513,-13.10622 35.0363,-4.74 10.9825,8.3663 13.105,24.0525 4.7387,35.0363 L 168.958,930.5777 c -4.9188,6.4588 -12.37,9.8538 -19.9063,9.8538"
       style="fill:#f50057;fill-opacity:0.83414630000000001;fill-rule:nonzero;stroke:#000000;stroke-width:0;stroke-linejoin:round;stroke-miterlimit:4;stroke-opacity:1;stroke-dasharray:none"
       id="path770"
       inkscape:connector-curvature="0" />
    <path
       d="m 258.1777,1014.6858 c -13.8075,0 -25,-11.1925 -25,-25 l 0,-217.5001 c 0,-13.8075 11.1925,-25 25,-25 13.8075,0 25,11.1925 25,25 l 0,217.5001 c 0,13.8075 -11.1925,25 -25,25"
       style="fill:#00695c;fill-opacity:0.83414630000000001;fill-rule:nonzero;stroke:#000000;stroke-width:0;stroke-linejoin:round;stroke-miterlimit:4;stroke-opacity:1;stroke-dasharray:none"
       id="path786"
       inkscape:connector-curvature="0" />
    <path
       d="m 346.26684,1013.651 c -13.8075,0 -25,-11.1925 -25,-25 l 0,-217.5 c 0,-13.8075 11.1925,-25 25,-25 13.8075,0 25,11.1925 25,25 l 0,217.5 c 0,13.8075 -11.1925,25 -25,25"
       style="fill:#4d69ff;fill-opacity:0.83414630000000001;fill-rule:nonzero;stroke:#000000;stroke-width:0;stroke-linejoin:round;stroke-miterlimit:4;stroke-opacity:1;stroke-dasharray:none"
       id="path1122"
       inkscape:connector-curvature="0" />
    <path
       d="m 570.1957,1013.651 -128.75,0 c -13.8075,0 -25,-11.1925 -25,-25 0,-13.8075 11.1925,-25 25,-25 l 128.75,0 c 13.8075,0 25,11.1925 25,25 0,13.8075 -11.1925,25 -25,25"
       style="fill:#ffc107;fill-opacity:0.83414630000000001;fill-rule:nonzero;stroke:#000000;stroke-width:0;stroke-linejoin:round;stroke-miterlimit:4;stroke-opacity:1;stroke-dasharray:none"
       id="path1202"
       inkscape:connector-curvature="0" />
    <path
       d="m 441.4457,1013.651 c -13.8075,0 -25,-11.1925 -25,-25 l 0,-217.5 c 0,-13.8075 11.1925,-25 25,-25 13.8075,0 25,11.1925 25,25 l 0,217.5 c 0,13.8075 -11.1925,25 -25,25"
       style="fill:#0091ea;fill-opacity:0.83414630000000001;fill-rule:nonzero;stroke:#000000;stroke-width:0;stroke-linejoin:round;stroke-miterlimit:4;stroke-opacity:1;stroke-dasharray:none"
       id="path1186"
       inkscape:connector-curvature="0" />
    <path
       d="m 1151.7184,932.358 c -13.8075,0 -25,-11.1925 -25,-25 l 0,-140.4175 c 0,-13.8075 11.1925,-24.99999 25,-24.99999 13.8075,0 25,11.19249 25,24.99999 l 0,140.4175 c 0,13.8075 -11.1925,25 -25,25"
       style="fill:#0091ea;fill-opacity:0.83414630000000001;fill-rule:nonzero;stroke:#000000;stroke-width:0;stroke-linejoin:round;stroke-miterlimit:4;stroke-opacity:1;stroke-dasharray:none"
       id="path1470"
       inkscape:connector-curvature="0" />
    <path
       d="m 969.26847,932.358 c -13.8076,0 -25,-11.1925 -25,-25 l 0,-140.4175 c 0,-13.8075 11.1924,-24.99999 25,-24.99999 13.8074,0 25,11.19249 25,24.99999 l 0,140.4175 c 0,13.8075 -11.1926,25 -25,25"
       style="fill:#ff2d6f;fill-opacity:0.83414630000000001;fill-rule:nonzero;stroke:#000000;stroke-width:0;stroke-linejoin:round;stroke-miterlimit:4;stroke-opacity:1;stroke-dasharray:none"
       id="path1454"
       inkscape:connector-curvature="0" />
    <path
       d="m 1060.328,1013.5836 c -62.91133,0 -116.06003,-48.6451 -116.06003,-106.2251 0,-13.8075 11.1925,-25 25,-25 13.8075,0 25,11.1925 25,25 0,29.9512 30.87003,56.225 66.06003,56.225 17.0375,0 34.2112,-6.435 47.1162,-17.6563 12.43,-10.8075 19.2738,-24.505 19.2738,-38.5687 0,-13.8075 11.1925,-25 25,-25 13.8074,0 25,11.1925 25,25 0,57.58 -53.3,106.2251 -116.3901,106.2251"
       style="fill:#ffeb3b;fill-opacity:0.83414630000000001;fill-rule:nonzero;stroke:#000000;stroke-width:0;stroke-linejoin:round;stroke-miterlimit:4;stroke-opacity:1;stroke-dasharray:none"
       id="path1486"
       inkscape:connector-curvature="0" />
    <path
       d="m 1355.1544,1014.4877 c -13.8075,0 -25,-11.1925 -25,-25 l 0,-217.5 c 0,-13.8075 11.1925,-25 25,-25 13.8075,0 25,11.1925 25,25 l 0,217.5 c 0,13.8075 -11.1925,25 -25,25"
       style="fill:#00695c;fill-opacity:0.83414630000000001;fill-rule:nonzero;stroke:#000000;stroke-width:0;stroke-linejoin:round;stroke-miterlimit:4;stroke-opacity:1;stroke-dasharray:none"
       id="path1806"
       inkscape:connector-curvature="0" />
    <path
       d="m 1298.7994,815.3105 c -10.5438,0 -20.3463,-6.7238 -23.7763,-17.2938 -4.2587,-13.1337 2.935,-27.2337 16.0675,-31.4937 l 56.4675,-18.3163 c 13.1325,-4.26252 27.2338,2.935 31.4938,16.0675 4.26,13.1338 -2.9338,27.2338 -16.0675,31.4938 l -56.4675,18.3162 c -2.5613,0.8313 -5.1625,1.2263 -7.7175,1.2263"
       style="fill:#ff2d6f;fill-opacity:0.83414630000000001;fill-rule:nonzero;stroke:#000000;stroke-width:0;stroke-linejoin:round;stroke-miterlimit:4;stroke-opacity:1;stroke-dasharray:none"
       id="path1834"
       inkscape:connector-curvature="0" />
    <path
       d="m 1423.2827,895.2972 c -0.4125,0 -0.8237,-0.01 -1.24,-0.029 -13.79,-0.6737 -24.4237,-12.3987 -23.7512,-26.1912 l 4.7362,-97.015 c 0.6738,-13.79 12.4025,-24.4188 26.19,-23.7513 13.79,0.6738 24.4238,12.3988 23.7513,26.19 l -4.7363,97.0163 c -0.6537,13.3737 -11.7037,23.78 -24.95,23.78"
       style="fill:#ff2d6f;fill-opacity:0.83414630000000001;fill-rule:nonzero;stroke:#000000;stroke-width:0;stroke-linejoin:round;stroke-miterlimit:4;stroke-opacity:1;stroke-dasharray:none"
       id="path1934"
       inkscape:connector-curvature="0" />
    <path
       d="m 1547.6858,798.2818 -119.6875,0 c -13.8075,0 -25,-11.1925 -25,-25 0,-13.8075 11.1925,-25 25,-25 l 119.6875,0 c 13.8075,0 25,11.1925 25,25 0,13.8075 -11.1925,25 -25,25"
       style="fill:#ffeb3b;fill-opacity:0.83414630000000001;fill-rule:nonzero;stroke:#000000;stroke-width:0;stroke-linejoin:round;stroke-miterlimit:4;stroke-opacity:1;stroke-dasharray:none"
       id="path1950"
       inkscape:connector-curvature="0" />
    <path
       d="m 1555.3848,953.1 c -0.49,0 -0.98,-0.015 -1.4763,-0.044 -13.7825,-0.8025 -24.3062,-12.6262 -23.5037,-26.4087 0.2525,-4.36 0.1088,-19.3713 -12.3937,-29.4988 -15.9925,-12.9537 -47.295,-13.9275 -88.1463,-2.7387 -13.31,3.645 -27.0675,-4.1925 -30.715,-17.51 -3.6462,-13.3163 4.1925,-27.0675 17.51,-30.715 58.4513,-16.0075 103.1388,-11.9313 132.8212,12.11 20.9213,16.945 32.4475,43.5825 30.8375,71.2562 -0.7725,13.2888 -11.7912,23.5488 -24.9337,23.5488"
       style="fill:#0091ea;fill-opacity:0.83414630000000001;fill-rule:nonzero;stroke:#000000;stroke-width:0;stroke-linejoin:round;stroke-miterlimit:4;stroke-opacity:1;stroke-dasharray:none"
       id="path1966"
       inkscape:connector-curvature="0" />
    <path
       d="m 1475.7864,1015.8002 c -13.8075,0 -25,-11.1925 -25,-25 0,-13.8075 11.1925,-25 25,-25 28.3688,0 53.3813,-17.9313 54.6175,-39.155 0.8038,-13.785 12.6512,-24.325 26.4112,-23.5038 13.785,0.8038 24.3075,12.6288 23.5038,26.4113 -1.395,23.9562 -13.5913,46.1525 -34.34,62.4987 -19.4387,15.315 -44.3675,23.7488 -70.1925,23.7488"
       style="fill:#f50057;fill-opacity:0.83414630000000001;fill-rule:nonzero;stroke:#000000;stroke-width:0;stroke-linejoin:round;stroke-miterlimit:4;stroke-opacity:1;stroke-dasharray:none"
       id="path1982"
       inkscape:connector-curvature="0" />
    <path
       d="m 1475.7864,1015.8002 c -31.6487,0 -60.5125,-15.51 -77.2112,-41.49 -7.4638,-11.615 -4.1,-27.0825 7.515,-34.5488 11.615,-7.4625 27.0825,-4.1 34.5487,7.515 7.4538,11.5988 20.5925,18.5238 35.1475,18.5238 13.8075,0 25,11.1925 25,25 0,13.8075 -11.1925,25 -25,25"
       style="fill:#ffc107;fill-opacity:0.83414630000000001;fill-rule:nonzero;stroke:#000000;stroke-width:0;stroke-linejoin:round;stroke-miterlimit:4;stroke-opacity:1;stroke-dasharray:none"
       id="path1998"
       inkscape:connector-curvature="0" />
    <path
       d="m 1231.9119,878.4362 c -13.8075,0 -25,-8.2792 -25,-18.4928 l 0,-103.8688 c 0,-10.21362 11.1925,-18.49286 25,-18.49286 13.8075,0 25,8.27924 25,18.49286 l 0,103.8688 c 0,10.2136 -11.1925,18.4928 -25,18.4928"
       style="fill:#ffeb3b;fill-opacity:0.83414630000000001;fill-rule:nonzero;stroke:#000000;stroke-width:0;stroke-linejoin:round;stroke-miterlimit:4;stroke-opacity:1;stroke-dasharray:none"
       id="path1470-0"
       inkscape:connector-curvature="0" />
    <path
       d="m 650.49967,1013.7814 c -13.8075,0 -25,-11.1925 -25,-25 l 0,-140.4176 c 0,-13.8075 11.1925,-25 25,-25 13.8075,0 25,11.1925 25,25 l 0,140.4176 c 0,13.8075 -11.1925,25 -25,25"
       style="fill:#ff2d6f;fill-opacity:0.83414630000000001;fill-rule:nonzero;stroke:#000000;stroke-width:0;stroke-linejoin:round;stroke-miterlimit:4;stroke-opacity:1;stroke-dasharray:none"
       id="path1470-4"
       inkscape:connector-curvature="0" />
    <path
       inkscape:connector-curvature="0"
       id="path4353"
       style="fill:#0277bd;fill-opacity:0.83414630000000001;fill-rule:nonzero;stroke:url(#radialGradient3071);stroke-width:0;stroke-miterlimit:4;stroke-opacity:1;stroke-dasharray:none"
       d="m 650.49967,1013.7814 c -13.8075,0 -25,-11.1925 -25,-25 l 0,-140.4176 c 0,-13.8075 11.1925,-25 25,-25 13.8075,0 25,11.1925 25,25 l 0,140.4176 c 0,13.8075 -11.1925,25 -25,25" />
    <path
       inkscape:connector-curvature="0"
       id="path5359"
       d="m 643.58332,783.57879 c 0,-28.50561 0,-28.50561 3.52337,-33.83125 1.93785,-2.92911 5.77512,-8.75942 8.52727,-12.95623 2.75217,-4.19681 7.32505,-10.11311 10.162,-13.14733 2.83692,-3.03423 5.50941,-5.82313 5.93886,-6.19757 0.42942,-0.37443 3.85814,-2.74363 7.61933,-5.26488 3.7612,-2.52127 10.71434,-6.84612 15.4514,-9.61082 4.73708,-2.76469 8.93181,-5.48857 9.32163,-6.05307 0.38983,-0.56451 2.7699,-1.76709 5.28907,-2.6724 2.51915,-0.90532 8.74003,-3.76081 13.82418,-6.34553 5.08417,-2.58474 12.79472,-6.54553 17.13456,-8.80177 4.33984,-2.25625 12.3849,-7.01981 17.87792,-10.5857 5.493,-3.5659 14.85324,-10.61186 20.80054,-15.6577 5.94726,-5.04585 12.92461,-12.0118 15.50521,-15.47989 2.5806,-3.4681 6.35372,-9.45553 8.38476,-13.30538 2.03104,-3.84986 4.60628,-10.79915 5.72279,-15.44288 1.11651,-4.64374 2.3046,-8.68546 2.64022,-8.9816 0.33562,-0.29614 0.61022,11.0501 0.61022,25.21388 0,25.11933 -0.0665,25.93183 -2.71105,33.05553 -1.49109,4.01677 -4.32974,10.06672 -6.30809,13.44434 -1.97836,3.3776 -6.83508,9.51262 -10.79268,13.63334 -3.95758,4.12073 -10.94277,10.21787 -15.52263,13.54921 -4.57985,3.33134 -12.58795,8.51428 -17.79575,11.51763 -5.20782,3.00335 -16.57032,9.04256 -25.25,13.42046 -8.67969,4.37789 -21.22579,11.14666 -27.88021,15.04172 -6.65443,3.89506 -14.14728,8.74656 -16.6508,10.78111 -2.50351,2.03456 -6.43172,4.82966 -8.72937,6.21136 -2.29766,1.3817 -6.45139,4.85591 -9.23051,7.72047 -2.77913,2.86455 -6.73724,7.31956 -8.7958,9.90001 -2.05855,2.58045 -5.47909,7.80595 -7.60117,11.61223 -2.12206,3.80629 -4.99126,10.97136 -6.37596,15.92241 -1.38472,4.95104 -2.24546,9.66016 -1.91281,10.4647 0.38271,0.92552 -0.0161,1.44232 -1.08582,1.40702 -1.51478,-0.05 -1.69068,-3.02165 -1.69068,-28.56142 z m 0.55104,-44.18654 c -0.48047,-2.66426 -0.56694,-17.36499 -0.19215,-32.66829 0.52212,-21.31972 1.01516,-28.17003 2.1091,-29.30347 0.78522,-0.81357 3.50466,-5.0233 6.04319,-9.35493 2.53855,-4.33162 7.59642,-11.18767 11.23973,-15.23565 3.64331,-4.04799 11.4605,-11.03285 17.37155,-15.52191 5.91103,-4.48905 13.35124,-9.38203 16.53379,-10.87328 3.18255,-1.49126 14.6812,-7.23887 25.55251,-12.77245 10.87132,-5.53358 24.88136,-13.18003 31.13341,-16.99212 6.25204,-3.81207 14.71141,-9.57766 18.7986,-12.81239 4.08717,-3.23473 9.90962,-8.30466 12.93878,-11.26654 3.02916,-2.96187 7.81441,-8.59595 10.63386,-12.52017 2.81946,-3.92423 6.48992,-10.34023 8.15658,-14.25782 1.66666,-3.91757 3.62922,-9.70335 4.36123,-12.85725 0.732,-3.15391 1.72944,-6.13293 2.2165,-6.62006 0.48709,-0.48711 0.88561,11.95456 0.88561,27.64817 0,21.99559 -0.3109,28.81517 -1.35686,29.76165 -0.74629,0.6753 -3.05561,4.46384 -5.13183,8.41899 -2.07623,3.95514 -5.48986,9.41662 -7.58585,12.1366 -2.09597,2.72 -3.81087,5.27154 -3.81087,5.6701 0,0.39856 -5.79961,5.16941 -12.88802,10.6019 -8.35832,6.40573 -19.17415,13.32947 -30.77345,19.69958 -9.83697,5.40227 -23.17329,12.37541 -29.63625,15.49586 -6.46297,3.12046 -14.35634,7.57306 -17.54088,9.89463 -3.18452,2.3216 -7.8062,5.23798 -10.27039,6.48084 -2.46417,1.24287 -9.48406,6.68816 -15.59974,12.10065 -6.11567,5.41246 -12.68965,11.56411 -14.60886,13.67031 -1.9192,2.1062 -5.06919,6.72623 -6.99997,10.26672 -1.93078,3.54051 -4.74323,10.08027 -6.24992,14.53282 -1.50667,4.45253 -3.12558,11.11638 -3.59762,14.80855 -0.85821,6.71304 -0.85821,6.71304 -1.73178,1.86896 z m 0.50713,-103.75203 c 0.004,-10.19617 0.43576,-20.9079 0.96091,-23.8038 0.52516,-2.89591 1.96916,-7.70517 3.20893,-10.68727 1.23976,-2.98208 4.52578,-8.5324 7.3023,-12.33402 2.7765,-3.80162 8.03196,-9.7333 11.67879,-13.18153 3.64684,-3.44821 10.22566,-8.8071 14.61962,-11.90862 4.39395,-3.10155 12.48664,-8.16103 17.98378,-11.2433 5.49714,-3.08227 14.0911,-7.54847 19.0977,-9.9249 5.00661,-2.37645 10.40642,-5.30304 11.99958,-6.50359 1.59317,-1.20054 3.41483,-2.16981 4.04812,-2.15394 0.63331,0.0159 3.99209,-1.58053 7.46399,-3.54757 3.47186,-1.96702 9.15311,-5.28226 12.62499,-7.36719 3.47187,-2.08492 7.13337,-4.56492 8.13664,-5.51109 1.00329,-0.94619 3.90715,-2.96345 6.45303,-4.48281 2.54588,-1.51935 8.27471,-6.23137 12.73071,-10.47115 4.45602,-4.23976 10.17334,-10.48927 12.70518,-13.8878 2.53183,-3.39853 6.03478,-9.40427 7.78435,-13.3461 1.74955,-3.94183 3.9903,-10.22688 4.9794,-13.96681 1.10586,-4.18127 2.11929,-6.32667 2.63166,-5.57115 0.4583,0.67577 0.84051,10.99172 0.84938,22.92434 0.0127,17.07709 -0.29809,22.09591 -1.45982,23.5758 -0.81174,1.03408 -2.93609,5.28577 -4.72076,9.44823 -1.78467,4.16245 -5.52639,10.7431 -8.31494,14.62364 -2.78855,3.88057 -8.00263,10.07731 -11.58684,13.77054 -3.58421,3.69326 -10.42246,9.37488 -15.19612,12.62583 -4.77366,3.25096 -14.36062,9.35613 -21.30437,13.56707 -6.94375,4.21092 -18.77969,10.64617 -26.3021,14.30055 -7.52238,3.65439 -16.04426,7.89937 -18.9375,9.4333 -2.89321,1.53392 -8.81119,5.0334 -13.15103,7.7766 -4.33984,2.7432 -12.31822,8.78208 -17.72973,13.41973 -5.4115,4.63765 -11.93028,11.0299 -14.48617,14.20502 -2.55589,3.1751 -6.00451,8.47844 -7.66357,11.78522 -1.65907,3.30675 -3.57737,8.48566 -4.2629,11.50869 -0.68552,3.02302 -1.44955,5.48971 -1.69784,5.48151 -0.2483,-0.008 -0.44871,-8.35724 -0.44537,-18.55343 z"
       style="fill:#0277bd;stroke:#ffee6d;stroke-opacity:1;stroke-width:0;stroke-miterlimit:4;stroke-dasharray:none;opacity:1" />
  </g>
</svg>
