<?xml version="1.0" encoding="UTF-8" standalone="no"?>
<!-- Created with Inkscape (http://www.inkscape.org/) -->

<svg
   xmlns:osb="http://www.openswatchbook.org/uri/2009/osb"
   xmlns:dc="http://purl.org/dc/elements/1.1/"
   xmlns:cc="http://creativecommons.org/ns#"
   xmlns:rdf="http://www.w3.org/1999/02/22-rdf-syntax-ns#"
   xmlns:svg="http://www.w3.org/2000/svg"
   xmlns="http://www.w3.org/2000/svg"
   xmlns:xlink="http://www.w3.org/1999/xlink"
   xmlns:sodipodi="http://sodipodi.sourceforge.net/DTD/sodipodi-0.dtd"
   xmlns:inkscape="http://www.inkscape.org/namespaces/inkscape"
   width="1600"
   height="600"
   id="svg6325"
   version="1.1"
   inkscape:version="0.48.4 r9939"
   sodipodi:docname="logo.svg">
  <defs
     id="defs6327">
    <linearGradient
       id="linearGradient5369"
       osb:paint="solid">
      <stop
         style="stop-color:#000000;stop-opacity:1;"
         offset="0"
         id="stop5371" />
    </linearGradient>
    <linearGradient
       inkscape:collect="always"
       id="linearGradient4717">
      <stop
         style="stop-color:#000000;stop-opacity:1;"
         offset="0"
         id="stop4719" />
      <stop
         style="stop-color:#000000;stop-opacity:0;"
         offset="1"
         id="stop4721" />
    </linearGradient>
    <radialGradient
       inkscape:collect="always"
       xlink:href="#linearGradient4717"
       id="radialGradient4723"
       cx="745.46645"
       cy="879.98028"
       fx="745.46645"
       fy="879.98028"
       r="62.765902"
       gradientTransform="matrix(1,0,0,2.732629,0,-1524.6794)"
       gradientUnits="userSpaceOnUse" />
    <radialGradient
       inkscape:collect="always"
       xlink:href="#linearGradient4717"
       id="radialGradient4725"
       cx="807.34145"
       cy="879.98025"
       fx="807.34145"
       fy="879.98025"
       r="124.6409"
       gradientTransform="matrix(1,0,0,0.50357387,0,436.84519)"
       gradientUnits="userSpaceOnUse" />
    <radialGradient
       inkscape:collect="always"
       xlink:href="#linearGradient4717"
       id="radialGradient4727"
       cx="817.96645"
       cy="771.23025"
       fx="817.96645"
       fy="771.23025"
       r="135.2659"
       gradientTransform="matrix(1,0,0,0.46401866,0,413.36503)"
       gradientUnits="userSpaceOnUse" />
    <radialGradient
       inkscape:collect="always"
       xlink:href="#linearGradient4717"
       id="radialGradient4729"
       cx="817.96645"
       cy="988.73028"
       fx="817.96645"
       fy="988.73028"
       r="135.2659"
       gradientTransform="matrix(1,0,0,0.46401884,0,529.9408)"
       gradientUnits="userSpaceOnUse" />
    <radialGradient
       inkscape:collect="always"
       xlink:href="#linearGradient4717"
       id="radialGradient4731"
       cx="45.127345"
       cy="879.38019"
       fx="45.127345"
       fy="879.38019"
       r="62.765897"
       gradientTransform="matrix(1,0,0,2.7326289,0,-1523.6396)"
       gradientUnits="userSpaceOnUse" />
    <radialGradient
       inkscape:collect="always"
       xlink:href="#linearGradient4717"
       id="radialGradient4733"
       cx="97.820999"
       cy="842.25213"
       fx="97.820999"
       fy="842.25213"
       r="115.46062"
       gradientTransform="matrix(1,0,0,1.163944,0,-138.08217)"
       gradientUnits="userSpaceOnUse" />
    <radialGradient
       inkscape:collect="always"
       xlink:href="#linearGradient4717"
       id="radialGradient4735"
       cx="205.06812"
       cy="842.25202"
       fx="205.06812"
       fy="842.25202"
       r="117.32114"
       gradientTransform="matrix(1,0,0,1.1454866,0,-122.53639)"
       gradientUnits="userSpaceOnUse" />
    <radialGradient
       inkscape:collect="always"
       xlink:href="#linearGradient4717"
       id="radialGradient4737"
       cx="259.62214"
       cy="879.38019"
       fx="259.62214"
       fy="879.38019"
       r="62.765902"
       gradientTransform="matrix(1,0,0,2.7326287,0,-1523.6394)"
       gradientUnits="userSpaceOnUse" />
    <radialGradient
       inkscape:collect="always"
       xlink:href="#linearGradient4717"
       id="radialGradient4739"
       cx="347.71128"
       cy="878.34541"
       fx="347.71128"
       fy="878.34541"
       r="62.765902"
       gradientTransform="matrix(1,0,0,2.7326285,0,-1521.8463)"
       gradientUnits="userSpaceOnUse" />
    <radialGradient
       inkscape:collect="always"
       xlink:href="#linearGradient4717"
       id="radialGradient4741"
       cx="507.26514"
       cy="987.09542"
       fx="507.26514"
       fy="987.09542"
       r="127.1409"
       gradientTransform="matrix(1,0,0,0.49367179,0,499.79426)"
       gradientUnits="userSpaceOnUse" />
    <radialGradient
       inkscape:collect="always"
       xlink:href="#linearGradient4717"
       id="radialGradient4743"
       cx="442.89014"
       cy="878.34541"
       fx="442.89014"
       fy="878.34541"
       r="62.765902"
       gradientTransform="matrix(1,0,0,2.7326285,0,-1521.8463)"
       gradientUnits="userSpaceOnUse" />
    <radialGradient
       inkscape:collect="always"
       xlink:href="#linearGradient4717"
       id="radialGradient4745"
       cx="1153.1628"
       cy="835.5937"
       fx="1153.1628"
       fy="835.5937"
       r="62.765902"
       gradientTransform="matrix(1,0,0,2.1185812,0,-934.67937)"
       gradientUnits="userSpaceOnUse" />
    <radialGradient
       inkscape:collect="always"
       xlink:href="#linearGradient4717"
       id="radialGradient4747"
       cx="970.71291"
       cy="835.5937"
       fx="970.71291"
       fy="835.5937"
       r="62.765902"
       gradientTransform="matrix(1,0,0,2.1185812,0,-934.67937)"
       gradientUnits="userSpaceOnUse" />
    <radialGradient
       inkscape:collect="always"
       xlink:href="#linearGradient4717"
       id="radialGradient4749"
       cx="1061.9374"
       cy="946.41548"
       fx="1061.9374"
       fy="946.41548"
       r="153.9909"
       gradientTransform="matrix(1,0,0,0.67132814,0,311.06014)"
       gradientUnits="userSpaceOnUse" />
    <radialGradient
       inkscape:collect="always"
       xlink:href="#linearGradient4717"
       id="radialGradient4751"
       cx="1356.5988"
       cy="879.18211"
       fx="1356.5988"
       fy="879.18211"
       r="62.765902"
       gradientTransform="matrix(1,0,0,2.7326285,0,-1523.296)"
       gradientUnits="userSpaceOnUse" />
    <radialGradient
       inkscape:collect="always"
       xlink:href="#linearGradient4717"
       id="radialGradient4753"
       cx="1328.4822"
       cy="779.5894"
       fx="1328.4822"
       fy="779.5894"
       r="91.006393"
       gradientTransform="matrix(1,0,0,0.7903996,0,163.40225)"
       gradientUnits="userSpaceOnUse" />
    <radialGradient
       inkscape:collect="always"
       xlink:href="#linearGradient4717"
       id="radialGradient4755"
       cx="1427.0746"
       cy="820.23348"
       fx="1427.0746"
       fy="820.23348"
       r="65.13487"
       gradientTransform="matrix(1,0,0,1.7083637,0,-581.02364)"
       gradientUnits="userSpaceOnUse" />
    <radialGradient
       inkscape:collect="always"
       xlink:href="#linearGradient4717"
       id="radialGradient4757"
       cx="1489.2865"
       cy="771.72623"
       fx="1489.2865"
       fy="771.72623"
       r="122.60965"
       gradientTransform="matrix(1,0,0,0.51191648,0,376.66685)"
       gradientUnits="userSpaceOnUse" />
    <radialGradient
       inkscape:collect="always"
       xlink:href="#linearGradient4717"
       id="radialGradient4759"
       cx="1490.8061"
       cy="893.29859"
       fx="1490.8061"
       fy="893.29859"
       r="128.87161"
       gradientTransform="matrix(1,0,0,0.74501856,0,227.77457)"
       gradientUnits="userSpaceOnUse" />
    <radialGradient
       inkscape:collect="always"
       xlink:href="#linearGradient4717"
       id="radialGradient4761"
       cx="1517.0186"
       cy="957.89276"
       fx="1517.0186"
       fy="957.89276"
       r="102.55372"
       gradientTransform="matrix(1,0,0,0.91774086,0,78.79543)"
       gradientUnits="userSpaceOnUse" />
    <radialGradient
       inkscape:collect="always"
       xlink:href="#linearGradient4717"
       id="radialGradient4763"
       cx="1449.1395"
       cy="974.23983"
       fx="1449.1395"
       fy="974.23983"
       r="90.857171"
       gradientTransform="matrix(1,0,0,0.85596621,0,140.32345)"
       gradientUnits="userSpaceOnUse" />
    <radialGradient
       inkscape:collect="always"
       xlink:href="#linearGradient4717"
       id="radialGradient4765"
       cx="1233.3563"
       cy="806.45343"
       fx="1233.3563"
       fy="806.45343"
       r="62.765902"
       gradientTransform="matrix(1,0,0,1.7237568,0,-583.67618)"
       gradientUnits="userSpaceOnUse" />
    <radialGradient
       inkscape:collect="always"
       xlink:href="#linearGradient4717"
       id="radialGradient4767"
       cx="651.94411"
       cy="917.01705"
       fx="651.94411"
       fy="917.01705"
       r="62.765902"
       gradientTransform="matrix(1,0,0,2.1185812,0,-1025.758)"
       gradientUnits="userSpaceOnUse" />
  </defs>
  <sodipodi:namedview
     id="base"
     pagecolor="#ffffff"
     bordercolor="#666666"
     borderopacity="1.0"
     inkscape:pageopacity="0.0"
     inkscape:pageshadow="2"
     inkscape:zoom="0.50911688"
     inkscape:cx="500.98903"
     inkscape:cy="314.98287"
     inkscape:document-units="px"
     inkscape:current-layer="layer1"
     showgrid="false"
     width="1600px"
     inkscape:window-width="1333"
     inkscape:window-height="742"
     inkscape:window-x="33"
     inkscape:window-y="0"
     inkscape:window-maximized="1"
     inkscape:snap-grids="false">
    <inkscape:grid
       type="xygrid"
       id="grid6546"
       empspacing="5"
       visible="true"
       enabled="true"
       snapvisiblegridlinesonly="true" />
  </sodipodi:namedview>
  <metadata
     id="metadata6330">
    <rdf:RDF>
      <cc:Work
         rdf:about="">
        <dc:format>image/svg+xml</dc:format>
        <dc:type
           rdf:resource="http://purl.org/dc/dcmitype/StillImage" />
        <dc:title></dc:title>
      </cc:Work>
    </rdf:RDF>
  </metadata>
  <g
     inkscape:label="Layer 1"
     inkscape:groupmode="layer"
     id="layer1"
     transform="translate(0,-452.36218)">
    <path
       style="fill:#00796b;fill-opacity:0.83414632000000000;fill-rule:nonzero;stroke:#000000;opacity:1;stroke-opacity:1;stroke-width:0;stroke-miterlimit:4;stroke-dasharray:none;stroke-linejoin:round"
       d="M 810.71875 3.25 C 810.16145 3.4953044 809.30476 5.5714681 808.40625 8.96875 C 807.41715 12.70868 805.18705 18.99567 803.4375 22.9375 C 801.68793 26.87933 798.18808 32.88272 795.65625 36.28125 C 793.12441 39.67978 787.39352 45.91649 782.9375 50.15625 C 778.4815 54.39603 772.76463 59.10565 770.21875 60.625 C 767.67287 62.14436 764.78454 64.17881 763.78125 65.125 C 762.77798 66.07117 759.09687 68.54008 755.625 70.625 C 752.15312 72.70993 746.47186 76.03298 743 78 C 739.5281 79.96704 736.16456 81.54715 735.53125 81.53125 C 734.89796 81.51538 733.09317 82.48696 731.5 83.6875 C 729.90684 84.88805 724.50661 87.81105 719.5 90.1875 C 714.4934 92.56393 705.90339 97.04273 700.40625 100.125 C 694.90911 103.20727 686.8002 108.27345 682.40625 111.375 C 678.01229 114.47652 671.42809 119.83304 667.78125 123.28125 C 664.13442 126.72948 658.9015 132.63588 656.125 136.4375 C 653.34848 140.23912 650.05226 145.79917 648.8125 148.78125 C 647.57273 151.76335 646.11891 156.57284 645.59375 159.46875 C 645.0686 162.36465 644.66025 173.08508 644.65625 183.28125 C 644.65291 193.47744 644.84545 201.83575 645.09375 201.84375 C 645.34204 201.85195 646.09573 199.36677 646.78125 196.34375 C 647.46678 193.32072 649.40343 188.1505 651.0625 184.84375 C 652.72156 181.53697 656.16286 176.2376 658.71875 173.0625 C 661.27464 169.88738 667.776 163.4814 673.1875 158.84375 C 678.59901 154.2061 686.59766 148.1807 690.9375 145.4375 C 695.27734 142.6943 701.16929 139.19017 704.0625 137.65625 C 706.95574 136.12232 715.47762 131.87314 723 128.21875 C 730.52241 124.56437 742.36875 118.11717 749.3125 113.90625 C 756.25625 109.69531 765.85134 103.59471 770.625 100.34375 C 775.39866 97.0928 782.22829 91.41201 785.8125 87.71875 C 789.39671 84.02552 794.6177 77.84932 797.40625 73.96875 C 800.1948 70.08821 803.93408 63.5062 805.71875 59.34375 C 807.50342 55.18129 809.62576 50.90908 810.4375 49.875 C 811.59923 48.39511 811.91895 43.38959 811.90625 26.3125 C 811.89738 14.37988 811.5208 4.05077 811.0625 3.375 C 810.96643 3.23334 810.84736 3.1933913 810.71875 3.25 z M 811.03125 73.96875 C 810.54419 74.45588 809.5445 77.43984 808.8125 80.59375 C 808.08049 83.74765 806.13541 89.51993 804.46875 93.4375 C 802.80209 97.35509 799.10071 103.79452 796.28125 107.71875 C 793.4618 111.64297 788.68541 117.25688 785.65625 120.21875 C 782.62709 123.18063 776.80592 128.26527 772.71875 131.5 C 768.63156 134.73473 760.18954 140.50043 753.9375 144.3125 C 747.68545 148.12459 733.65257 155.77892 722.78125 161.3125 C 711.90994 166.84608 700.43255 172.57124 697.25 174.0625 C 694.06745 175.55375 686.62978 180.44845 680.71875 184.9375 C 674.8077 189.42656 666.98706 196.42076 663.34375 200.46875 C 659.70044 204.51673 654.6323 211.38713 652.09375 215.71875 C 649.55522 220.05038 646.84772 224.24893 646.0625 225.0625 C 644.96856 226.19594 644.45962 233.05528 643.9375 254.375 C 643.56271 269.6783 643.64453 284.36699 644.125 287.03125 C 644.99857 291.87533 645.01679 291.86929 645.875 285.15625 C 646.34704 281.46408 647.96208 274.79628 649.46875 270.34375 C 650.97544 265.8912 653.78797 259.35301 655.71875 255.8125 C 657.64953 252.27201 660.79955 247.6687 662.71875 245.5625 C 664.63796 243.4563 671.19683 237.28746 677.3125 231.875 C 683.42818 226.46251 690.47333 221.02412 692.9375 219.78125 C 695.40169 218.53839 700.00298 215.6341 703.1875 213.3125 C 706.37204 210.99093 714.25578 206.52671 720.71875 203.40625 C 727.18171 200.2858 740.53803 193.30852 750.375 187.90625 C 761.9743 181.53614 772.79793 174.62448 781.15625 168.21875 C 788.24466 162.78626 794.03125 157.99231 794.03125 157.59375 C 794.03125 157.19519 795.74778 154.6575 797.84375 151.9375 C 799.93974 149.21752 803.36127 143.76764 805.4375 139.8125 C 807.51372 135.85735 809.81621 132.0503 810.5625 131.375 C 811.60846 130.42852 811.90625 123.62059 811.90625 101.625 C 811.90625 85.93139 811.51834 73.48164 811.03125 73.96875 z M 811.3125 146.875 C 810.97688 147.17114 809.77276 151.23126 808.65625 155.875 C 807.53974 160.51873 804.96854 167.46264 802.9375 171.3125 C 800.90646 175.16235 797.1431 181.1569 794.5625 184.625 C 791.9819 188.09309 785.00976 195.0479 779.0625 200.09375 C 773.1152 205.13959 763.743 212.1841 758.25 215.75 C 752.75698 219.31589 744.71484 224.0875 740.375 226.34375 C 736.03516 228.59999 728.33417 232.54026 723.25 235.125 C 718.16585 237.70972 711.9254 240.56343 709.40625 241.46875 C 706.88708 242.37406 704.51483 243.59174 704.125 244.15625 C 703.73518 244.72075 699.54958 247.45406 694.8125 250.21875 C 690.07544 252.98345 683.10495 257.29123 679.34375 259.8125 C 675.58256 262.33375 672.17942 264.71932 671.75 265.09375 C 671.32055 265.46819 668.61817 268.24702 665.78125 271.28125 C 662.9443 274.31547 658.37717 280.24069 655.625 284.4375 C 652.87285 288.63431 649.0316 294.44589 647.09375 297.375 C 643.57038 302.70064 643.59375 302.71314 643.59375 331.21875 C 643.59375 356.75852 643.76647 359.73125 645.28125 359.78125 C 646.35097 359.81655 646.75771 359.30052 646.375 358.375 C 646.04235 357.57046 646.89653 352.85729 648.28125 347.90625 C 649.66595 342.9552 652.53419 335.77504 654.65625 331.96875 C 656.77833 328.16247 660.19145 322.95545 662.25 320.375 C 664.30856 317.79455 668.25212 313.3333 671.03125 310.46875 C 673.81037 307.60419 677.98359 304.1317 680.28125 302.75 C 682.5789 301.3683 686.49649 298.56581 689 296.53125 C 691.50352 294.4967 699.00182 289.64506 705.65625 285.75 C 712.31067 281.85494 724.85156 275.09664 733.53125 270.71875 C 742.21093 266.34085 753.57343 260.2846 758.78125 257.28125 C 763.98905 254.2779 772.0139 249.11259 776.59375 245.78125 C 781.17361 242.44991 788.13617 236.33948 792.09375 232.21875 C 796.05135 228.09803 800.92789 221.97135 802.90625 218.59375 C 804.8846 215.21613 807.72766 209.17302 809.21875 205.15625 C 811.8633 198.03255 811.90625 197.21308 811.90625 172.09375 C 811.90625 157.92997 811.64812 146.57886 811.3125 146.875 z M 1233.3438 283.65625 C 1219.5363 283.65625 1208.3438 291.94265 1208.3438 302.15625 L 1208.3438 406.03125 C 1208.3438 416.24485 1219.5363 424.53125 1233.3438 424.53125 C 1247.1512 424.53125 1258.3438 416.24485 1258.3438 406.03125 L 1258.3438 302.15625 C 1258.3438 291.94265 1247.1512 283.65625 1233.3438 283.65625 z M 970.71875 288.03125 C 965.97239 288.03125 961.52992 289.35956 957.75 291.65625 C 957.40637 291.86504 957.0825 292.05662 956.75 292.28125 C 950.09998 296.77385 945.71875 304.40156 945.71875 313.03125 L 945.71875 453.4375 C 945.71875 479.52844 956.61753 503.77265 974.40625 522.5 C 975.01965 523.14577 975.65166 523.80503 976.28125 524.4375 C 997.68734 545.9415 1028.3596 559.65625 1061.7812 559.65625 C 1062.767 559.65625 1063.7379 559.6486 1064.7188 559.625 C 1104.933 558.65736 1140.85 537.97721 1161.0312 508.03125 C 1171.8602 491.96269 1178.1562 473.23063 1178.1562 453.4375 L 1178.1562 313.03125 C 1178.1562 299.22375 1166.9637 288.03125 1153.1562 288.03125 C 1152.7248 288.03125 1152.3011 288.0409 1151.875 288.0625 C 1138.6654 288.73206 1128.1562 299.65523 1128.1562 313.03125 L 1128.1562 453.4375 C 1128.1562 467.5012 1121.305 481.1925 1108.875 492 C 1101.6159 498.31198 1093.0201 503.10403 1083.8438 506.09375 C 1082.8242 506.42594 1081.7825 506.7441 1080.75 507.03125 C 1078.685 507.60555 1076.6038 508.11069 1074.5 508.5 C 1071.3443 509.08396 1068.1632 509.44414 1064.9688 509.59375 C 1063.9039 509.64362 1062.8461 509.65625 1061.7812 509.65625 C 1026.5912 509.65625 995.71875 483.3887 995.71875 453.4375 L 995.71875 313.03125 C 995.71875 299.22375 984.52615 288.03125 970.71875 288.03125 z M 347.71875 292.21875 C 342.10945 292.21875 336.92105 294.0682 332.75 297.1875 C 332.1083 297.66739 331.4982 298.18073 330.90625 298.71875 C 329.42637 300.06379 328.0919 301.58749 326.96875 303.25 C 326.51949 303.915 326.1036 304.60403 325.71875 305.3125 C 323.79448 308.85484 322.71875 312.90391 322.71875 317.21875 L 322.71875 534.71875 C 322.71875 539.03358 323.79448 543.11392 325.71875 546.65625 C 326.1036 547.36472 326.51949 548.05375 326.96875 548.71875 C 331.46135 555.36876 339.08906 559.71875 347.71875 559.71875 C 361.52625 559.71875 372.71875 548.5262 372.71875 534.71875 L 372.71875 317.21875 C 372.71875 303.41125 361.52625 292.21875 347.71875 292.21875 z M 442.875 292.21875 C 442.44352 292.21875 442.01987 292.25965 441.59375 292.28125 C 428.38418 292.95081 417.875 303.84273 417.875 317.21875 L 417.875 534.71875 C 417.875 548.5262 429.0675 559.71875 442.875 559.71875 L 571.625 559.71875 C 585.4325 559.71875 596.625 548.5262 596.625 534.71875 C 596.625 520.91125 585.4325 509.71875 571.625 509.71875 L 467.875 509.71875 L 467.875 317.21875 C 467.875 303.41125 456.6825 292.21875 442.875 292.21875 z M 1356.4062 293.0625 C 1355.9964 293.06748 1355.5991 293.06825 1355.1875 293.09375 C 1355.0744 293.10076 1354.9569 293.11643 1354.8438 293.125 C 1354.5748 293.14363 1354.2978 293.16043 1354.0312 293.1875 C 1353.611 293.23017 1353.1951 293.28052 1352.7812 293.34375 C 1351.0584 293.60699 1349.4007 294.06018 1347.8125 294.65625 L 1292.5312 312.59375 C 1279.3987 316.85375 1272.21 330.96005 1276.4688 344.09375 C 1279.8988 354.66375 1289.7062 361.40625 1300.25 361.40625 C 1300.8888 361.40625 1301.5131 361.36252 1302.1562 361.3125 C 1303.4426 361.21246 1304.7433 361.02662 1306.0312 360.71875 C 1306.6752 360.56482 1307.3284 360.36408 1307.9688 360.15625 L 1331.5938 352.5 L 1331.5938 535.5625 C 1331.5938 549.36998 1342.7863 560.5625 1356.5938 560.5625 C 1357.0252 560.5625 1357.4489 560.55285 1357.875 560.53125 C 1371.0846 559.86169 1381.5938 548.9385 1381.5938 535.5625 L 1381.5938 320.53125 C 1381.9249 317.19955 1381.5991 313.73241 1380.5 310.34375 C 1377.3365 300.59163 1368.7469 294.13146 1359.1562 293.1875 C 1359.0638 293.17811 1358.9678 293.16463 1358.875 293.15625 C 1358.709 293.14185 1358.5416 293.13607 1358.375 293.125 C 1357.7605 293.08417 1357.1205 293.05727 1356.5 293.0625 C 1356.4693 293.06276 1356.437 293.06213 1356.4062 293.0625 z M 44.09375 293.28125 C 44.009037 293.28466 43.928457 293.30823 43.84375 293.3125 C 43.527546 293.32844 43.222145 293.34702 42.90625 293.375 C 42.83386 293.38136 42.759711 293.39927 42.6875 293.40625 C 42.626546 293.41218 42.560931 293.39987 42.5 293.40625 C 42.457222 293.4107 42.417713 293.43283 42.375 293.4375 C 42.301463 293.44553 42.229594 293.46008 42.15625 293.46875 C 42.002962 293.48695 41.840586 293.47894 41.6875 293.5 C 41.562121 293.51721 41.437278 293.54344 41.3125 293.5625 C 39.747645 293.8023 38.203349 294.17458 36.6875 294.71875 C 36.63444 294.73777 36.584143 294.76188 36.53125 294.78125 C 36.290449 294.86954 36.051373 294.9664 35.8125 295.0625 C 35.676489 295.11721 35.541064 295.16173 35.40625 295.21875 C 35.156909 295.32408 34.903161 295.44853 34.65625 295.5625 C 34.329886 295.71333 34.006074 295.86694 33.6875 296.03125 C 33.604509 296.07413 33.52016 296.11236 33.4375 296.15625 C 33.417424 296.16691 33.395056 296.17678 33.375 296.1875 C 33.36258 296.19414 33.356162 296.21209 33.34375 296.21875 C 33.323706 296.22951 33.301274 296.23918 33.28125 296.25 C 33.260631 296.26113 33.239334 296.27007 33.21875 296.28125 C 32.962176 296.42074 32.690629 296.5694 32.4375 296.71875 C 32.345911 296.77281 32.247084 296.81981 32.15625 296.875 C 31.886129 297.03908 31.640761 297.23077 31.375 297.40625 C 31.122812 297.57293 30.870679 297.76203 30.625 297.9375 C 30.558617 297.98491 30.472147 298.01446 30.40625 298.0625 C 30.375729 298.08474 30.342954 298.1026 30.3125 298.125 C 30.260124 298.16354 30.208313 298.21106 30.15625 298.25 C 29.864708 298.46804 29.560549 298.67809 29.28125 298.90625 C 29.258285 298.92507 29.241647 298.94985 29.21875 298.96875 C 29.161159 299.01614 29.119564 299.07719 29.0625 299.125 C 28.816222 299.33132 28.580196 299.53604 28.34375 299.75 C 28.33789 299.75532 28.318355 299.74468 28.3125 299.75 C 28.01601 300.01878 27.718412 300.3135 27.4375 300.59375 C 27.427291 300.60393 27.416438 300.6148 27.40625 300.625 C 27.134435 300.89778 26.884059 301.18372 26.625 301.46875 C 26.605054 301.49067 26.582357 301.50927 26.5625 301.53125 C 26.314267 301.8063 26.079722 302.08907 25.84375 302.375 C 25.620082 302.64602 25.398363 302.90872 25.1875 303.1875 C 25.141971 303.2476 25.107496 303.31448 25.0625 303.375 C 25.053731 303.38679 25.039998 303.39444 25.03125 303.40625 C 25.022528 303.41805 25.008699 303.42569 25 303.4375 C 24.793327 303.71752 24.601344 303.99247 24.40625 304.28125 C 24.36922 304.33614 24.31781 304.38236 24.28125 304.4375 C 24.095306 304.71743 23.924811 305.02479 23.75 305.3125 C 23.295108 306.06403 22.870419 306.83579 22.5 307.625 C 22.357514 307.92725 22.224333 308.22251 22.09375 308.53125 C 21.872213 309.05688 21.684633 309.58702 21.5 310.125 C 21.417253 310.3648 21.325592 310.60071 21.25 310.84375 C 21.234552 310.89359 21.233884 310.95008 21.21875 311 C 21.105121 311.37372 20.971369 311.74409 20.875 312.125 C 20.864415 312.16686 20.854118 312.20809 20.84375 312.25 C 20.663887 312.97702 20.520926 313.7182 20.40625 314.46875 C 20.404706 314.47881 20.407782 314.48994 20.40625 314.5 C 20.399881 314.54203 20.381159 314.5829 20.375 314.625 C 20.352249 314.78053 20.332374 314.9373 20.3125 315.09375 C 20.287229 315.29141 20.27057 315.48926 20.25 315.6875 C 20.248937 315.69784 20.25105 315.70841 20.25 315.71875 C 20.210242 316.10649 20.177947 316.51683 20.15625 316.90625 C 20.155123 316.92742 20.157324 316.94756 20.15625 316.96875 C 20.134429 317.37894 20.126666 317.77627 20.125 318.1875 C 20.124889 318.21828 20.125 318.25045 20.125 318.28125 L 20.125 535.78125 C 20.125 549.58873 31.3175 560.78125 45.125 560.78125 C 45.556484 560.78125 45.980135 560.7716 46.40625 560.75 C 59.615812 560.08044 70.125 549.15725 70.125 535.78125 L 70.125 394.4375 L 130.375 476.34375 C 130.42439 476.41088 130.48132 476.46476 130.53125 476.53125 C 130.54484 476.54932 130.54885 476.57571 130.5625 476.59375 C 130.58541 476.62409 130.60198 476.6573 130.625 476.6875 C 130.70489 476.79213 130.79329 476.89645 130.875 477 C 130.96303 477.11172 131.06667 477.20268 131.15625 477.3125 C 131.18024 477.34185 131.19461 477.37699 131.21875 477.40625 C 131.23342 477.42403 131.23527 477.451 131.25 477.46875 C 131.29661 477.52506 131.35923 477.5692 131.40625 477.625 C 131.43923 477.66415 131.46682 477.7111 131.5 477.75 C 131.55391 477.81297 131.60163 477.87498 131.65625 477.9375 C 131.87504 478.18911 132.11685 478.44659 132.34375 478.6875 C 132.39934 478.74616 132.44375 478.81679 132.5 478.875 C 132.79214 479.17916 133.1017 479.46339 133.40625 479.75 C 133.71468 480.03854 134.04912 480.31841 134.375 480.59375 C 134.42064 480.63237 134.45413 480.6805 134.5 480.71875 C 134.78346 480.95491 135.0786 481.18052 135.375 481.40625 C 135.86964 481.78324 136.35771 482.13256 136.875 482.46875 C 137.05985 482.58938 137.25051 482.69736 137.4375 482.8125 C 137.88843 483.08895 138.34724 483.3478 138.8125 483.59375 C 138.83328 483.60474 138.85419 483.61408 138.875 483.625 C 138.88762 483.63167 138.89363 483.64961 138.90625 483.65625 C 138.9271 483.66722 138.94788 483.67659 138.96875 483.6875 C 138.99816 483.70287 139.03305 483.7035 139.0625 483.71875 C 139.11675 483.74683 139.16436 483.78485 139.21875 483.8125 C 139.71328 484.06222 140.21067 484.31578 140.71875 484.53125 C 140.7274 484.53494 140.74134 484.52757 140.75 484.53125 C 141.78654 484.96942 142.8567 485.33106 143.9375 485.625 C 144.43708 485.76132 144.9329 485.86434 145.4375 485.96875 C 145.50035 485.98175 145.56209 485.98749 145.625 486 C 145.92871 486.06065 146.22556 486.13812 146.53125 486.1875 C 146.90679 486.24761 147.27928 486.30094 147.65625 486.34375 C 147.77008 486.35683 147.88599 486.36347 148 486.375 C 148.24972 486.39987 148.49996 486.42017 148.75 486.4375 C 148.82213 486.4425 148.8966 486.43313 148.96875 486.4375 C 149.45836 486.46807 149.94628 486.49816 150.4375 486.5 C 150.45812 486.50005 150.47939 486.5 150.5 486.5 C 150.51043 486.50001 150.52082 486.5 150.53125 486.5 C 151.10695 486.49928 151.67643 486.47769 152.25 486.4375 C 152.32253 486.43253 152.39624 486.4431 152.46875 486.4375 C 152.61681 486.42606 152.75829 486.38909 152.90625 486.375 C 153.05157 486.36098 153.19871 486.36029 153.34375 486.34375 C 153.38666 486.3389 153.42586 486.31758 153.46875 486.3125 C 153.5823 486.29897 153.69915 486.29633 153.8125 486.28125 C 153.99841 486.25651 154.18968 486.24764 154.375 486.21875 C 154.46838 486.20418 154.56297 486.17189 154.65625 486.15625 C 154.67612 486.15292 154.69888 486.15963 154.71875 486.15625 C 154.84426 486.13491 154.96856 486.117 155.09375 486.09375 C 155.2836 486.05849 155.46721 486.00838 155.65625 485.96875 C 155.80304 485.93797 155.94749 485.90841 156.09375 485.875 C 156.16472 485.85881 156.24162 485.86057 156.3125 485.84375 C 156.54423 485.78875 156.76936 485.71806 157 485.65625 C 157.157 485.61417 157.31231 485.57649 157.46875 485.53125 C 157.64643 485.48 157.82338 485.43021 158 485.375 C 158.06294 485.35533 158.1247 485.33267 158.1875 485.3125 C 158.32548 485.26799 158.45631 485.20326 158.59375 485.15625 C 158.60314 485.15305 158.61561 485.15946 158.625 485.15625 C 158.68744 485.13481 158.75018 485.11571 158.8125 485.09375 C 159.2267 484.9485 159.6243 484.79227 160.03125 484.625 C 160.06093 484.61274 160.09536 484.60613 160.125 484.59375 C 160.62691 484.3851 161.1359 484.14826 161.625 483.90625 C 161.63773 483.89995 161.64353 483.88132 161.65625 483.875 C 161.69796 483.85427 161.73964 483.83347 161.78125 483.8125 C 161.81058 483.79772 161.84572 483.79615 161.875 483.78125 C 162.04613 483.69386 162.20528 483.59169 162.375 483.5 C 162.40398 483.48439 162.43983 483.48448 162.46875 483.46875 C 162.54324 483.42813 162.6133 483.3852 162.6875 483.34375 C 162.9666 483.18823 163.25745 483.04175 163.53125 482.875 C 163.59499 482.83619 163.65531 482.78942 163.71875 482.75 C 163.78885 482.7063 163.8677 482.66948 163.9375 482.625 C 164.33719 482.37031 164.73562 482.09271 165.125 481.8125 C 165.18641 481.76826 165.25143 481.73235 165.3125 481.6875 C 165.32425 481.67887 165.33201 481.6649 165.34375 481.65625 C 165.47209 481.56183 165.59274 481.47139 165.71875 481.375 C 165.91035 481.22843 166.09506 481.08851 166.28125 480.9375 C 166.30402 480.91898 166.32104 480.89361 166.34375 480.875 C 166.50855 480.74038 166.65198 480.57552 166.8125 480.4375 C 166.94191 480.32578 167.09128 480.23973 167.21875 480.125 C 167.2517 480.09534 167.27968 480.06111 167.3125 480.03125 C 167.33447 480.01137 167.35312 479.98869 167.375 479.96875 C 167.6609 479.70679 167.94328 479.43345 168.21875 479.15625 C 168.29138 479.08354 168.36592 479.01095 168.4375 478.9375 C 168.55579 478.81548 168.66503 478.68738 168.78125 478.5625 C 168.88211 478.45412 168.99448 478.36052 169.09375 478.25 C 169.55954 477.73435 169.98975 477.20283 170.40625 476.65625 L 170.65625 476.34375 L 170.78125 476.1875 L 234.625 392.34375 L 234.625 535.78125 C 234.625 549.58873 245.8175 560.78125 259.625 560.78125 C 273.4325 560.78125 284.625 549.58873 284.625 535.78125 L 284.625 318.5 C 284.62853 318.09936 284.60936 317.71241 284.59375 317.3125 C 284.58956 317.20058 284.5994 317.08029 284.59375 316.96875 C 284.58404 316.77728 284.57649 316.59656 284.5625 316.40625 C 284.55547 316.31065 284.53935 316.22029 284.53125 316.125 C 284.53036 316.1145 284.53215 316.10424 284.53125 316.09375 C 284.50841 315.8312 284.46857 315.57415 284.4375 315.3125 C 284.42764 315.22905 284.41693 315.14569 284.40625 315.0625 C 284.39966 315.01119 284.41315 314.95746 284.40625 314.90625 C 284.38655 314.76059 284.366 314.61404 284.34375 314.46875 C 284.32481 314.34478 284.302 314.21711 284.28125 314.09375 C 284.2605 313.97039 284.2413 313.84149 284.21875 313.71875 C 284.0388 312.74172 283.79516 311.79486 283.5 310.84375 C 283.47744 310.77122 283.4607 310.69725 283.4375 310.625 C 283.39712 310.49927 283.3548 310.37486 283.3125 310.25 C 282.98932 309.29303 282.59584 308.35382 282.15625 307.4375 C 282.0725 307.26369 281.99387 307.07779 281.90625 306.90625 C 281.80927 306.71572 281.69581 306.53208 281.59375 306.34375 C 281.58937 306.33569 281.59814 306.32056 281.59375 306.3125 C 281.58002 306.28722 281.54507 306.27524 281.53125 306.25 C 281.49021 306.17526 281.44803 306.10552 281.40625 306.03125 C 281.37152 305.96952 281.34774 305.90516 281.3125 305.84375 C 281.21171 305.66758 281.10531 305.48652 281 305.3125 C 280.89479 305.13934 280.79677 304.95162 280.6875 304.78125 C 280.57768 304.60948 280.45806 304.45069 280.34375 304.28125 C 280.22903 304.11143 280.11875 303.94806 280 303.78125 C 279.91091 303.65599 279.81036 303.5301 279.71875 303.40625 C 279.69676 303.37653 279.67838 303.34214 279.65625 303.3125 C 279.61626 303.25903 279.57166 303.20939 279.53125 303.15625 C 279.43664 303.03182 279.34688 302.90384 279.25 302.78125 C 278.99725 302.46142 278.73652 302.15065 278.46875 301.84375 C 278.35857 301.71761 278.23806 301.59302 278.125 301.46875 C 277.95549 301.28224 277.80001 301.08754 277.625 300.90625 C 277.52298 300.80066 277.41668 300.69784 277.3125 300.59375 C 277.11967 300.40109 276.91897 300.2186 276.71875 300.03125 C 276.62163 299.94037 276.53635 299.83959 276.4375 299.75 C 276.22245 299.5551 276.00448 299.37615 275.78125 299.1875 C 275.6973 299.11655 275.61636 299.03879 275.53125 298.96875 C 275.47373 298.92141 275.40179 298.89067 275.34375 298.84375 C 275.29211 298.80201 275.23956 298.76016 275.1875 298.71875 C 275.1292 298.6723 275.08997 298.60844 275.03125 298.5625 C 274.94783 298.49723 274.86552 298.43923 274.78125 298.375 C 274.72179 298.32972 274.65348 298.29467 274.59375 298.25 C 274.42799 298.12604 274.26156 297.99424 274.09375 297.875 C 274.07544 297.86199 274.0496 297.85671 274.03125 297.84375 C 273.88566 297.74088 273.74082 297.63058 273.59375 297.53125 C 273.28411 297.32212 272.97207 297.131 272.65625 296.9375 C 272.30058 296.71969 271.92961 296.51273 271.5625 296.3125 C 271.54999 296.30568 271.54377 296.28805 271.53125 296.28125 C 271.176 296.08829 270.83016 295.89292 270.46875 295.71875 C 270.10312 295.54254 269.715 295.37582 269.34375 295.21875 C 269.33473 295.21493 269.32153 295.22256 269.3125 295.21875 C 268.94164 295.06234 268.59452 294.91867 268.21875 294.78125 C 268.20939 294.77782 268.19687 294.78467 268.1875 294.78125 C 268.00554 294.71495 267.80799 294.65561 267.625 294.59375 C 267.41454 294.52267 267.21293 294.44058 267 294.375 C 266.22082 294.134 265.44868 293.94349 264.65625 293.78125 C 263.10813 293.46447 261.51297 293.29743 259.875 293.28125 C 259.79281 293.28052 259.70717 293.28117 259.625 293.28125 C 259.3066 293.28156 258.97414 293.26885 258.65625 293.28125 C 258.25632 293.29685 257.86722 293.34035 257.46875 293.375 C 257.13483 293.40351 256.7988 293.42724 256.46875 293.46875 C 256.40572 293.47679 256.34422 293.49148 256.28125 293.5 C 256.271 293.50137 256.26024 293.49862 256.25 293.5 C 256.21765 293.50441 256.18858 293.52671 256.15625 293.53125 C 256.04244 293.54704 255.92582 293.54519 255.8125 293.5625 C 255.63222 293.59005 255.46024 293.62488 255.28125 293.65625 C 255.21898 293.66723 255.15594 293.67605 255.09375 293.6875 C 255.07339 293.69123 255.05159 293.68372 255.03125 293.6875 C 255.00916 293.69162 254.99083 293.71457 254.96875 293.71875 C 254.84317 293.74244 254.71866 293.75569 254.59375 293.78125 C 254.40632 293.8196 254.21713 293.86373 254.03125 293.90625 C 253.98986 293.91572 253.9476 293.92782 253.90625 293.9375 C 253.89645 293.9398 253.8848 293.93519 253.875 293.9375 C 253.82019 293.9504 253.77348 293.98673 253.71875 294 C 253.60671 294.02717 253.48644 294.03383 253.375 294.0625 C 253.34291 294.07076 253.31331 294.08537 253.28125 294.09375 C 253.25908 294.09955 253.24089 294.11914 253.21875 294.125 C 253.06332 294.1661 252.90469 294.17465 252.75 294.21875 C 252.56206 294.27233 252.37426 294.34825 252.1875 294.40625 C 251.98701 294.46861 251.79204 294.52652 251.59375 294.59375 C 251.58428 294.59696 251.57196 294.59053 251.5625 294.59375 C 251.52722 294.60571 251.50398 294.64413 251.46875 294.65625 C 251.32429 294.70614 251.17449 294.7288 251.03125 294.78125 C 250.8409 294.85064 250.65756 294.92592 250.46875 295 C 250.27952 295.07461 250.09319 295.13969 249.90625 295.21875 C 249.71885 295.29749 249.52942 295.38533 249.34375 295.46875 C 249.15917 295.5522 248.96341 295.63098 248.78125 295.71875 C 248.60137 295.80494 248.42805 295.90936 248.25 296 C 248.07033 296.09202 247.89587 296.18504 247.71875 296.28125 C 247.42491 296.43999 247.1319 296.57895 246.84375 296.75 C 246.71484 296.82676 246.59615 296.921 246.46875 297 C 246.45639 297.00766 246.44984 297.02357 246.4375 297.03125 C 246.34525 297.08855 246.24785 297.12892 246.15625 297.1875 C 245.9881 297.29504 245.82216 297.41941 245.65625 297.53125 C 245.48323 297.64789 245.29549 297.75369 245.125 297.875 C 244.96138 297.99142 244.81745 298.12928 244.65625 298.25 C 244.41746 298.42882 244.17075 298.59304 243.9375 298.78125 C 243.80419 298.88868 243.69354 299.01491 243.5625 299.125 C 243.50001 299.1775 243.43696 299.22815 243.375 299.28125 C 243.21127 299.42173 243.03563 299.54223 242.875 299.6875 C 242.79916 299.75595 242.73125 299.83689 242.65625 299.90625 C 242.6188 299.94089 242.56849 299.96514 242.53125 300 C 242.44442 300.08155 242.3671 300.16701 242.28125 300.25 C 242.16709 300.36035 242.0499 300.48087 241.9375 300.59375 C 241.75357 300.77847 241.55407 300.96477 241.375 301.15625 C 241.2852 301.25226 241.21354 301.37104 241.125 301.46875 C 240.92907 301.68498 240.72087 301.9005 240.53125 302.125 C 240.42958 302.24538 240.3498 302.37725 240.25 302.5 C 240.2315 302.5227 240.20592 302.53973 240.1875 302.5625 C 240.0363 302.74981 239.89676 302.93222 239.75 303.125 C 239.70061 303.18972 239.64252 303.24729 239.59375 303.3125 C 239.53065 303.39688 239.4683 303.47731 239.40625 303.5625 L 203.3125 350.9375 L 150.875 419.8125 L 65.84375 304.28125 C 65.640417 303.98027 65.434653 303.6977 65.21875 303.40625 C 65.210002 303.39444 65.196269 303.38679 65.1875 303.375 C 65.173645 303.3563 65.170147 303.33115 65.15625 303.3125 C 65.101753 303.23938 65.055142 303.1661 65 303.09375 C 64.828899 302.86999 64.647147 302.65522 64.46875 302.4375 C 64.198835 302.10705 63.939645 301.78196 63.65625 301.46875 C 63.372855 301.15554 63.077394 300.85836 62.78125 300.5625 C 62.505882 300.2874 62.223281 300.01001 61.9375 299.75 C 61.915695 299.73018 61.896875 299.70724 61.875 299.6875 C 61.599689 299.43878 61.3156 299.20345 61.03125 298.96875 C 60.996905 298.94041 60.971999 298.90316 60.9375 298.875 C 60.669165 298.65591 60.369573 298.45662 60.09375 298.25 C 60.041687 298.21106 59.989876 298.16354 59.9375 298.125 C 59.803136 298.026 59.667278 297.9398 59.53125 297.84375 C 59.383259 297.73925 59.24365 297.63226 59.09375 297.53125 C 59.043035 297.49708 58.988428 297.47127 58.9375 297.4375 C 58.655647 297.2506 58.3819 297.04959 58.09375 296.875 C 58.034485 296.83909 57.965771 296.81664 57.90625 296.78125 C 57.617367 296.6095 57.325906 296.44065 57.03125 296.28125 C 56.97002 296.24813 56.905219 296.22009 56.84375 296.1875 C 56.492895 296.00073 56.14181 295.82653 55.78125 295.65625 C 55.474659 295.51233 55.155251 295.3498 54.84375 295.21875 C 54.784507 295.19383 54.715661 295.18071 54.65625 295.15625 C 54.345257 295.02823 54.034098 294.89643 53.71875 294.78125 C 53.657095 294.75873 53.593061 294.74078 53.53125 294.71875 C 53.157351 294.58524 52.78813 294.45971 52.40625 294.34375 C 52.064093 294.24002 51.720933 294.15144 51.375 294.0625 C 51.355474 294.05748 51.332037 294.06747 51.3125 294.0625 C 51.290789 294.05697 51.271733 294.03672 51.25 294.03125 C 50.893207 293.94147 50.516423 293.85524 50.15625 293.78125 C 50.124115 293.77467 50.094679 293.75645 50.0625 293.75 C 49.928478 293.723 49.790679 293.7123 49.65625 293.6875 C 49.572989 293.67224 49.489797 293.67068 49.40625 293.65625 C 49.334014 293.64367 49.259841 293.63695 49.1875 293.625 C 49.103265 293.61109 49.021871 293.57556 48.9375 293.5625 C 48.917128 293.55939 48.895388 293.56556 48.875 293.5625 C 48.479697 293.50232 48.085309 293.44752 47.6875 293.40625 C 47.297862 293.36668 46.894721 293.33397 46.5 293.3125 C 46.468476 293.31074 46.437783 293.31414 46.40625 293.3125 C 46.042456 293.29406 45.680235 293.28397 45.3125 293.28125 C 45.250865 293.28077 45.18665 293.28128 45.125 293.28125 C 44.785927 293.28111 44.433006 293.26761 44.09375 293.28125 z M 745.46875 293.875 C 742.44834 293.875 739.55536 294.39363 736.875 295.375 C 736.49209 295.5152 736.12387 295.68562 735.75 295.84375 C 733.88063 296.6344 732.10425 297.64402 730.5 298.84375 C 730.17915 299.0837 729.87118 299.30776 729.5625 299.5625 C 724.00634 304.1478 720.46875 311.10828 720.46875 318.875 L 720.46875 536.375 C 720.46875 545.43614 725.28376 553.36538 732.5 557.75 C 732.84363 557.95879 733.20826 558.15132 733.5625 558.34375 C 734.27097 558.72861 735.00225 559.08999 735.75 559.40625 C 736.49775 559.72251 737.24841 560.00652 738.03125 560.25 C 740.37976 560.98044 742.87982 561.375 745.46875 561.375 L 890.46875 561.375 C 904.27625 561.375 915.46875 550.18245 915.46875 536.375 C 915.46875 522.5675 904.27625 511.375 890.46875 511.375 L 770.46875 511.375 L 770.46875 452.625 L 869.21875 452.625 C 883.02625 452.625 894.21875 441.4325 894.21875 427.625 C 894.21875 413.8175 883.02625 402.625 869.21875 402.625 L 770.46875 402.625 L 770.46875 343.875 L 890.46875 343.875 C 904.27625 343.875 915.46875 332.6825 915.46875 318.875 C 915.46875 305.0675 904.27625 293.875 890.46875 293.875 L 745.46875 293.875 z M 1429.375 294.375 C 1427.6687 294.37882 1425.9906 294.542 1424.375 294.875 C 1422.7594 295.208 1421.2085 295.71335 1419.7188 296.34375 C 1419.3449 296.50188 1418.9581 296.66821 1418.5938 296.84375 C 1418.2392 297.01504 1417.8765 297.18764 1417.5312 297.375 C 1417.177 297.56743 1416.8124 297.75996 1416.4688 297.96875 C 1415.5939 298.50075 1414.7698 299.11735 1413.9688 299.75 C 1413.2004 300.35704 1412.4415 300.99599 1411.75 301.6875 C 1411.6086 301.82888 1411.4817 301.98028 1411.3438 302.125 C 1411.2108 302.26437 1411.0673 302.38881 1410.9375 302.53125 C 1410.9323 302.53692 1410.9427 302.55682 1410.9375 302.5625 C 1410.6736 302.85274 1410.4065 303.13489 1410.1562 303.4375 C 1410.1512 303.4436 1410.1613 303.46264 1410.1562 303.46875 C 1409.3962 304.38943 1408.6868 305.34884 1408.0625 306.375 C 1408.058 306.38241 1408.067 306.39884 1408.0625 306.40625 C 1406.8122 308.46624 1405.8346 310.72041 1405.2188 313.125 C 1405.116 313.5244 1405.0208 313.90563 1404.9375 314.3125 C 1404.9355 314.32248 1404.9395 314.33376 1404.9375 314.34375 C 1404.8567 314.74092 1404.7804 315.15873 1404.7188 315.5625 C 1404.7172 315.57263 1404.7203 315.58362 1404.7188 315.59375 C 1404.6576 315.99753 1404.6041 316.40262 1404.5625 316.8125 C 1404.5604 316.83289 1404.5645 316.8546 1404.5625 316.875 C 1404.5229 317.27462 1404.4893 317.65757 1404.4688 318.0625 C 1404.4671 318.09383 1404.4703 318.12489 1404.4688 318.15625 C 1404.4673 318.1867 1404.4701 318.21952 1404.4688 318.25 C 1404.4661 318.31095 1404.471 318.37643 1404.4688 318.4375 L 1399.8125 414.0625 C 1399.8057 414.13561 1399.7874 414.20802 1399.7812 414.28125 L 1399.75 415.15625 C 1399.7247 415.68056 1399.7106 416.22112 1399.7188 416.75 C 1399.7233 417.07183 1399.7332 417.39973 1399.75 417.71875 C 1399.755 417.81184 1399.7439 417.90682 1399.75 418 C 1399.7702 418.30816 1399.8119 418.59727 1399.8438 418.90625 C 1399.8458 418.92697 1399.8416 418.94804 1399.8438 418.96875 C 1399.8528 419.05419 1399.8651 419.13327 1399.875 419.21875 C 1399.9127 419.55098 1399.9493 419.89037 1400 420.21875 C 1400.0474 420.52027 1400.0974 420.8233 1400.1562 421.125 C 1400.1865 421.28234 1400.2168 421.43743 1400.25 421.59375 C 1400.2817 421.74121 1400.3406 421.88382 1400.375 422.03125 C 1400.4065 422.16603 1400.4349 422.30277 1400.4688 422.4375 C 1400.5001 422.56301 1400.5292 422.68772 1400.5625 422.8125 C 1400.5709 422.84411 1400.5852 422.87469 1400.5938 422.90625 C 1400.5991 422.92602 1400.5883 422.94898 1400.5938 422.96875 C 1400.6421 423.14534 1400.6981 423.32535 1400.75 423.5 C 1400.793 423.64467 1400.8294 423.7939 1400.875 423.9375 C 1400.9215 424.0843 1400.9823 424.22963 1401.0312 424.375 C 1401.0419 424.40652 1401.0518 424.4373 1401.0625 424.46875 C 1401.3022 425.16804 1401.545 425.86066 1401.8438 426.53125 C 1401.872 426.59515 1401.9088 426.65517 1401.9375 426.71875 C 1401.9511 426.7488 1401.955 426.78252 1401.9688 426.8125 C 1402.0693 427.03094 1402.1747 427.25367 1402.2812 427.46875 C 1402.3226 427.55256 1402.3641 427.63555 1402.4062 427.71875 C 1402.5041 427.91072 1402.6161 428.09212 1402.7188 428.28125 C 1402.8499 428.5242 1402.9864 428.7626 1403.125 429 C 1403.1368 429.02023 1403.1444 429.04231 1403.1562 429.0625 C 1403.2101 429.15392 1403.2575 429.25307 1403.3125 429.34375 C 1403.4181 429.51823 1403.5467 429.67243 1403.6562 429.84375 C 1403.8686 430.17533 1404.085 430.49169 1404.3125 430.8125 C 1404.326 430.83149 1404.3302 430.85605 1404.3438 430.875 C 1404.3572 430.89396 1404.3615 430.91859 1404.375 430.9375 C 1404.5563 431.19029 1404.747 431.44178 1404.9375 431.6875 C 1405.0016 431.7702 1405.0599 431.8557 1405.125 431.9375 C 1405.2152 432.05099 1405.3141 432.16936 1405.4062 432.28125 C 1405.5466 432.45137 1405.6992 432.61525 1405.8438 432.78125 C 1406.0594 433.02937 1406.2748 433.26052 1406.5 433.5 C 1406.5153 433.51626 1406.5159 433.54628 1406.5312 433.5625 C 1406.5413 433.57308 1406.5525 433.58319 1406.5625 433.59375 C 1406.5926 433.62545 1406.626 433.65597 1406.6562 433.6875 C 1406.7711 433.80727 1406.8828 433.91376 1407 434.03125 C 1407.2512 434.28275 1407.4889 434.54119 1407.75 434.78125 C 1407.8584 434.88117 1407.9836 434.96447 1408.0938 435.0625 C 1408.1048 435.0723 1408.114 435.08397 1408.125 435.09375 C 1408.2742 435.22573 1408.4415 435.34048 1408.5938 435.46875 C 1408.6386 435.50658 1408.6736 435.55624 1408.7188 435.59375 C 1408.8922 435.73824 1409.0725 435.89138 1409.25 436.03125 C 1409.2974 436.06851 1409.3585 436.08809 1409.4062 436.125 C 1409.4703 436.17453 1409.5293 436.23235 1409.5938 436.28125 C 1409.76 436.40788 1409.9242 436.53371 1410.0938 436.65625 C 1410.2085 436.73888 1410.3214 436.8256 1410.4375 436.90625 C 1410.5313 436.97159 1410.624 437.02967 1410.7188 437.09375 C 1410.9134 437.22516 1411.1143 437.34289 1411.3125 437.46875 C 1411.9084 437.84773 1412.5268 438.20258 1413.1562 438.53125 C 1413.1691 438.53792 1413.1747 438.55585 1413.1875 438.5625 C 1413.2076 438.57296 1413.2298 438.58334 1413.25 438.59375 C 1413.3739 438.65765 1413.5 438.71941 1413.625 438.78125 C 1413.792 438.864 1413.9559 438.95213 1414.125 439.03125 C 1414.3525 439.13765 1414.5818 439.24416 1414.8125 439.34375 C 1414.9275 439.39328 1415.0403 439.45215 1415.1562 439.5 C 1415.3512 439.58066 1415.553 439.64298 1415.75 439.71875 C 1415.7712 439.72689 1415.7913 439.74192 1415.8125 439.75 C 1415.9157 439.78927 1416.0212 439.83705 1416.125 439.875 C 1416.3162 439.94505 1416.5258 439.99708 1416.7188 440.0625 C 1416.9088 440.12652 1417.0891 440.19043 1417.2812 440.25 C 1417.6253 440.35748 1417.9634 440.46982 1418.3125 440.5625 C 1418.364 440.57605 1418.4171 440.58052 1418.4688 440.59375 C 1418.8694 440.69742 1419.281 440.79117 1419.6875 440.875 C 1419.8519 440.90841 1420.0219 440.93857 1420.1875 440.96875 C 1420.1975 440.9706 1420.2087 440.96691 1420.2188 440.96875 C 1420.2288 440.97056 1420.24 440.96695 1420.25 440.96875 C 1420.3231 440.98209 1420.3955 440.9873 1420.4688 441 C 1420.7259 441.04389 1420.9901 441.08897 1421.25 441.125 C 1421.2603 441.12645 1421.2709 441.12357 1421.2812 441.125 C 1421.3033 441.12803 1421.3217 441.15328 1421.3438 441.15625 C 1421.3644 441.15906 1421.3856 441.15349 1421.4062 441.15625 C 1421.6725 441.19147 1421.9498 441.22316 1422.2188 441.25 C 1423.05 441.33359 1423.8741 441.37614 1424.7188 441.375 C 1424.8348 441.37484 1424.9462 441.37679 1425.0625 441.375 C 1425.3618 441.37096 1425.6719 441.35832 1425.9688 441.34375 C 1426.3723 441.32289 1426.7824 441.29087 1427.1875 441.25 C 1427.3149 441.23748 1427.4356 441.23319 1427.5625 441.21875 C 1427.6047 441.21385 1427.6453 441.19263 1427.6875 441.1875 C 1427.7282 441.18257 1427.7718 441.19264 1427.8125 441.1875 C 1428.1515 441.14537 1428.4776 441.08691 1428.8125 441.03125 C 1429.062 440.98944 1429.3129 440.95589 1429.5625 440.90625 C 1429.624 440.8941 1429.6887 440.88761 1429.75 440.875 C 1429.8546 440.85337 1429.9579 440.83551 1430.0625 440.8125 C 1430.2903 440.76236 1430.5223 440.71303 1430.75 440.65625 C 1430.9383 440.60948 1431.1259 440.55103 1431.3125 440.5 C 1431.5109 440.44565 1431.7083 440.39753 1431.9062 440.34375 C 1431.9284 440.33711 1431.9467 440.3192 1431.9688 440.3125 C 1434.2955 439.68112 1436.5806 439.08336 1438.8438 438.53125 C 1440.0823 438.22909 1441.3122 437.93468 1442.5312 437.65625 C 1444.9694 437.09938 1447.3921 436.58703 1449.75 436.125 C 1452.1079 435.66297 1454.4126 435.27353 1456.6875 434.90625 C 1460.0998 434.35534 1463.4074 433.90047 1466.625 433.5625 C 1467.6975 433.44984 1468.7623 433.33902 1469.8125 433.25 C 1491.8663 431.38061 1508.9737 434.71788 1519.4688 443.21875 C 1531.9713 453.34625 1532.0963 468.35875 1531.8438 472.71875 C 1530.8393 489.96301 1514.1312 505.04846 1492.6875 510.09375 C 1491.8627 510.2878 1491.0569 510.46106 1490.2188 510.625 C 1486.0279 511.44471 1481.6514 511.875 1477.2188 511.875 C 1474.4897 511.875 1471.8201 511.62832 1469.2188 511.15625 C 1468.3516 510.99889 1467.505 510.83261 1466.6562 510.625 C 1465.8075 510.41739 1464.9533 510.19427 1464.125 509.9375 C 1463.2967 509.68073 1462.4933 509.39857 1461.6875 509.09375 C 1453.6297 506.04552 1446.7524 500.593 1442.0938 493.34375 C 1434.6276 481.72875 1419.1463 478.38125 1407.5312 485.84375 C 1395.9163 493.31005 1392.5675 508.79125 1400.0312 520.40625 C 1409.9461 535.83187 1424.1275 547.54277 1440.6562 554.53125 C 1441.5262 554.89906 1442.3987 555.25238 1443.2812 555.59375 C 1445.9288 556.61785 1448.6556 557.53197 1451.4062 558.3125 C 1452.3231 558.57268 1453.2291 558.83 1454.1562 559.0625 C 1455.0834 559.295 1456.0318 559.51424 1456.9688 559.71875 C 1457.9057 559.92326 1458.8352 560.10503 1459.7812 560.28125 C 1465.4577 561.33857 1471.2846 561.875 1477.2188 561.875 C 1503.0437 561.875 1527.9988 553.43997 1547.4375 538.125 C 1567.8258 522.0627 1579.9175 500.35385 1581.6562 476.875 C 1581.7002 476.46586 1581.7259 476.04028 1581.75 475.625 C 1583.36 447.9513 1571.8588 421.32 1550.9375 404.375 C 1527.7481 385.59273 1495.383 379.0105 1454.4688 384.65625 C 1453.412 384.80207 1452.3494 384.96285 1451.2812 385.125 L 1453.25 344.375 L 1549.125 344.375 C 1562.9325 344.375 1574.125 333.1825 1574.125 319.375 C 1574.125 305.5675 1562.9325 294.375 1549.125 294.375 L 1429.4375 294.375 C 1429.4271 294.375 1429.4167 294.37499 1429.4062 294.375 C 1429.3958 294.37501 1429.3854 294.37498 1429.375 294.375 z M 651.9375 369.4375 C 638.13 369.4375 626.9375 380.63 626.9375 394.4375 L 626.9375 534.875 C 626.9375 548.6825 638.13 559.875 651.9375 559.875 C 665.745 559.875 676.9375 548.6825 676.9375 534.875 L 676.9375 394.4375 C 676.9375 380.63 665.745 369.4375 651.9375 369.4375 z "
       transform="translate(0,452.36218)"
       id="path106" />
  </g>
</svg>
